<svg width="599" height="501" viewBox="0 0 599 501" fill="none" xmlns="http://www.w3.org/2000/svg">
<g opacity="0.15">
<rect x="122.267" y="-50.8159" width="122.266" height="122.266" rx="34.4413" fill="#595959"/>
<rect x="122.267" y="216.104" width="122.266" height="122.266" rx="34.4413" fill="#595959"/>
<rect x="506.287" y="-50.8159" width="122.266" height="122.266" rx="34.4413" fill="#595959"/>
<rect y="69.7285" width="122.266" height="122.266" rx="34.4413" fill="#595959"/>
<rect x="490.788" y="427.917" width="122.266" height="122.266" rx="34.4413" fill="#595959"/>
<rect x="232.479" y="69.7285" width="277.252" height="122.266" rx="34.4413" fill="#595959"/>
<rect x="209.347" y="61.0352" width="29.6002" height="49.9398" transform="rotate(-43.0453 209.347 61.0352)" fill="#595959"/>
<rect x="463.235" y="420.569" width="29.6002" height="49.9398" transform="rotate(-43.0453 463.235 420.569)" fill="#595959"/>
<rect width="29.6002" height="49.9398" transform="matrix(-0.730814 -0.682576 -0.682576 0.730814 150.433 60.6577)" fill="#595959"/>
<rect width="29.6002" height="49.9398" transform="matrix(-0.587283 -0.809382 -0.809382 0.587283 149.753 333.039)" fill="#595959"/>
<rect width="29.6002" height="49.9398" transform="matrix(-0.730814 -0.682576 -0.682576 0.730814 534.454 60.6577)" fill="#595959"/>
<path d="M490.266 226.625C490.266 207.604 505.686 192.184 524.708 192.184H578.092C597.113 192.184 612.533 207.604 612.533 226.625V280.009C612.533 299.031 597.113 314.451 578.092 314.451H524.708C505.686 314.451 490.266 299.031 490.266 280.009V226.625Z" fill="#595959"/>
<path d="M368 347.17C368 328.148 383.42 312.729 402.441 312.729H455.825C474.847 312.729 490.266 328.148 490.266 347.17V400.554C490.266 419.575 474.847 434.995 455.825 434.995H402.441C383.42 434.995 368 419.575 368 400.554V347.17Z" fill="#595959"/>
<path d="M490.266 462.548C490.266 443.527 505.686 428.107 524.708 428.107H578.092C597.113 428.107 612.533 443.527 612.533 462.548V515.932C612.533 534.953 597.113 550.373 578.092 550.373H524.708C505.686 550.373 490.266 534.953 490.266 515.932V462.548Z" fill="#595959"/>
<path d="M462.713 420.758L484.346 400.554L518.433 437.05L496.801 457.255L462.713 420.758Z" fill="#595959"/>
<path d="M518.433 303.658L496.801 283.453L462.713 319.95L484.346 340.155L518.433 303.658Z" fill="#595959"/>
<path d="M122.266 515.742C122.266 534.764 137.686 550.184 156.708 550.184H210.092C229.113 550.184 244.533 534.764 244.533 515.742V462.358C244.533 443.337 229.113 427.917 210.092 427.917H156.708C137.686 427.917 122.266 443.337 122.266 462.358V515.742Z" fill="#595959"/>
<path d="M0 395.198C0 414.219 15.4199 429.639 34.4413 429.639H87.8252C106.847 429.639 122.266 414.219 122.266 395.198V341.814C122.266 322.793 106.847 307.373 87.8252 307.373H34.4413C15.4199 307.373 0 322.793 0 341.814V395.198Z" fill="#595959"/>
<path d="M150.433 438.71L128.801 458.914L94.7133 422.418L116.346 402.213L150.433 438.71Z" fill="#595959"/>
</g>
</svg>
