<svg width="72" height="72" viewBox="0 0 72 72" fill="none" xmlns="http://www.w3.org/2000/svg">
<g clip-path="url(#clip0_16_3764)">
<rect width="72" height="72" rx="5" fill="url(#paint0_radial_16_3764)"/>
<mask id="mask0_16_3764" style="mask-type:alpha" maskUnits="userSpaceOnUse" x="14" y="14" width="45" height="45">
<rect x="14" y="14" width="45" height="45" fill="#D9D9D9"/>
</mask>
<g mask="url(#mask0_16_3764)">
<path d="M29.75 53.375C26.9062 53.375 24.5078 52.3984 22.5547 50.4453C20.6016 48.4922 19.625 46.0938 19.625 43.25C19.625 42.0625 19.8281 40.9062 20.2344 39.7812C20.6406 38.6562 21.2188 37.6406 21.9688 36.7344L28.625 28.7188L24.0781 19.625H48.9219L44.375 28.7188L51.0312 36.7344C51.7812 37.6406 52.3594 38.6562 52.7656 39.7812C53.1719 40.9062 53.375 42.0625 53.375 43.25C53.375 46.0938 52.3906 48.4922 50.4219 50.4453C48.4531 52.3984 46.0625 53.375 43.25 53.375H29.75ZM36.5 44C35.4688 44 34.5859 43.6328 33.8516 42.8984C33.1172 42.1641 32.75 41.2812 32.75 40.25C32.75 39.2188 33.1172 38.3359 33.8516 37.6016C34.5859 36.8672 35.4688 36.5 36.5 36.5C37.5312 36.5 38.4141 36.8672 39.1484 37.6016C39.8828 38.3359 40.25 39.2188 40.25 40.25C40.25 41.2812 39.8828 42.1641 39.1484 42.8984C38.4141 43.6328 37.5312 44 36.5 44ZM32.0469 27.125H40.9531L42.8281 23.375H30.1719L32.0469 27.125ZM29.75 49.625H43.25C45.0312 49.625 46.5391 49.0078 47.7734 47.7734C49.0078 46.5391 49.625 45.0312 49.625 43.25C49.625 42.5 49.4922 41.7734 49.2266 41.0703C48.9609 40.3672 48.5938 39.7344 48.125 39.1719L41.2344 30.875H31.8125L24.875 39.125C24.4062 39.6875 24.0391 40.3281 23.7734 41.0469C23.5078 41.7656 23.375 42.5 23.375 43.25C23.375 45.0312 23.9922 46.5391 25.2266 47.7734C26.4609 49.0078 27.9688 49.625 29.75 49.625Z" fill="white"/>
</g>
</g>
<defs>
<radialGradient id="paint0_radial_16_3764" cx="0" cy="0" r="1" gradientUnits="userSpaceOnUse" gradientTransform="translate(36.1756 6.14634) rotate(90.1528) scale(65.8539)">
<stop stop-color="#1FA2F2"/>
<stop offset="1" stop-color="#1A6BDE"/>
</radialGradient>
<clipPath id="clip0_16_3764">
<rect width="72" height="72" rx="16" fill="white"/>
</clipPath>
</defs>
</svg>
