<svg width="72" height="72" viewBox="0 0 72 72" fill="none" xmlns="http://www.w3.org/2000/svg">
<g clip-path="url(#clip0_19_1866)">
<rect width="72" height="72" rx="5" fill="url(#paint0_radial_19_1866)"/>
<mask id="mask0_19_1866" style="mask-type:alpha" maskUnits="userSpaceOnUse" x="14" y="14" width="45" height="45">
<rect x="14" y="14" width="45" height="45" fill="#D9D9D9"/>
</mask>
<g mask="url(#mask0_19_1866)">
<path d="M33.6875 42.125H39.3125L38.2344 36.0781C38.8594 35.7656 39.3516 35.3125 39.7109 34.7188C40.0703 34.125 40.25 33.4688 40.25 32.75C40.25 31.7188 39.8828 30.8359 39.1484 30.1016C38.4141 29.3672 37.5312 29 36.5 29C35.4688 29 34.5859 29.3672 33.8516 30.1016C33.1172 30.8359 32.75 31.7188 32.75 32.75C32.75 33.4688 32.9297 34.125 33.2891 34.7188C33.6484 35.3125 34.1406 35.7656 34.7656 36.0781L33.6875 42.125ZM36.5 55.25C32.1562 54.1562 28.5703 51.6641 25.7422 47.7734C22.9141 43.8828 21.5 39.5625 21.5 34.8125V23.375L36.5 17.75L51.5 23.375V34.8125C51.5 39.5625 50.0859 43.8828 47.2578 47.7734C44.4297 51.6641 40.8438 54.1562 36.5 55.25ZM36.5 51.3125C39.75 50.2812 42.4375 48.2188 44.5625 45.125C46.6875 42.0312 47.75 38.5938 47.75 34.8125V25.9531L36.5 21.7344L25.25 25.9531V34.8125C25.25 38.5938 26.3125 42.0312 28.4375 45.125C30.5625 48.2188 33.25 50.2812 36.5 51.3125Z" fill="white"/>
</g>
</g>
<defs>
<radialGradient id="paint0_radial_19_1866" cx="0" cy="0" r="1" gradientUnits="userSpaceOnUse" gradientTransform="translate(36.1756 6.14634) rotate(90.1528) scale(65.8539)">
<stop stop-color="#1FA2F2"/>
<stop offset="1" stop-color="#1A6BDE"/>
</radialGradient>
<clipPath id="clip0_19_1866">
<rect width="72" height="72" rx="16" fill="white"/>
</clipPath>
</defs>
</svg>
