<svg width="926" height="882" viewBox="0 0 926 882" fill="none" xmlns="http://www.w3.org/2000/svg">
<g filter="url(#filter0_dddd_3_547)">
<g clip-path="url(#clip0_3_547)">
<rect width="684.487" height="393.118" rx="13.8747" transform="matrix(0.978148 -0.207912 0.406737 0.913545 159.001 286.573)" fill="url(#paint0_linear_3_547)"/>
<g style="mix-blend-mode:soft-light">
<circle cx="27.287" cy="27.287" r="27.287" transform="matrix(0.978148 -0.207912 0.406737 0.913545 698.662 210.713)" fill="white"/>
</g>
<g style="mix-blend-mode:soft-light">
<circle cx="27.287" cy="27.287" r="27.287" transform="matrix(0.978148 -0.207912 0.406737 0.913545 734.856 203.02)" fill="white"/>
</g>
<path d="M297.177 453.947C298.26 453.726 299.425 453.688 300.672 453.835C301.919 453.982 303.182 454.396 304.462 455.079C305.738 455.754 306.979 456.782 308.185 458.164C309.391 459.545 310.496 461.365 311.501 463.621C312.473 465.806 313.114 467.793 313.424 469.585C313.739 471.366 313.739 472.925 313.425 474.262C313.119 475.597 312.508 476.69 311.593 477.542C310.686 478.392 309.492 478.974 308.01 479.289C306.536 479.602 305.1 479.61 303.701 479.311C302.307 479.003 301.024 478.439 299.853 477.62C298.686 476.79 297.712 475.749 296.929 474.497L300.065 473.83C300.85 474.898 301.826 475.711 302.993 476.269C304.166 476.817 305.446 476.943 306.834 476.648C308.865 476.217 310.098 475.048 310.534 473.142C310.979 471.234 310.528 468.768 309.182 465.743L308.976 465.787C308.796 466.561 308.484 467.262 308.042 467.891C307.599 468.519 307.034 469.051 306.346 469.486C305.659 469.921 304.861 470.236 303.952 470.429C302.444 470.749 300.906 470.695 299.336 470.267C297.772 469.828 296.34 469.077 295.041 468.013C293.747 466.939 292.747 465.61 292.042 464.026C291.372 462.521 291.119 461.069 291.283 459.667C291.452 458.256 292.026 457.039 293.006 456.016C293.994 454.992 295.384 454.302 297.177 453.947ZM298.353 456.588C297.273 456.817 296.413 457.276 295.772 457.964C295.136 458.642 294.754 459.459 294.626 460.415C294.504 461.361 294.67 462.346 295.126 463.37C295.582 464.394 296.237 465.276 297.091 466.014C297.95 466.742 298.91 467.265 299.97 467.583C301.036 467.891 302.108 467.93 303.188 467.7C304.002 467.527 304.694 467.218 305.265 466.773C305.832 466.319 306.261 465.777 306.552 465.146C306.848 464.505 306.999 463.82 307.003 463.092C307.003 462.357 306.841 461.625 306.517 460.896C306.09 459.936 305.44 459.089 304.569 458.354C303.707 457.618 302.727 457.081 301.63 456.745C300.542 456.407 299.449 456.355 298.353 456.588ZM331.056 474.39C329.291 474.765 327.602 474.805 325.988 474.508C324.379 474.202 322.968 473.613 321.755 472.741C320.537 471.861 319.638 470.756 319.055 469.426C318.583 468.387 318.374 467.381 318.428 466.406C318.478 465.423 318.756 464.553 319.264 463.797C319.776 463.031 320.477 462.466 321.365 462.102L321.301 461.958C319.906 461.922 318.61 461.475 317.412 460.617C316.21 459.751 315.324 458.665 314.751 457.359C314.187 456.113 314.029 454.925 314.276 453.795C314.523 452.665 315.12 451.688 316.066 450.865C317.021 450.04 318.27 449.464 319.812 449.136C321.337 448.812 322.826 448.806 324.279 449.119C325.731 449.433 327.019 450.008 328.143 450.847C329.275 451.684 330.123 452.725 330.688 453.972C331.26 455.278 331.397 456.523 331.099 457.708C330.806 458.883 330.11 459.753 329.012 460.319L329.076 460.463C330.098 460.421 331.124 460.619 332.154 461.057C333.18 461.487 334.118 462.098 334.968 462.89C335.814 463.674 336.473 464.585 336.944 465.623C337.527 466.953 337.669 468.22 337.37 469.422C337.075 470.615 336.387 471.65 335.306 472.528C334.229 473.396 332.813 474.017 331.056 474.39ZM329.881 471.75C331.072 471.496 332.02 471.098 332.725 470.554C333.43 470.01 333.872 469.36 334.051 468.603C334.23 467.847 334.128 467.028 333.744 466.146C333.323 465.219 332.7 464.454 331.878 463.849C331.055 463.244 330.116 462.831 329.06 462.608C328.013 462.384 326.933 462.391 325.819 462.627C324.697 462.866 323.785 463.283 323.084 463.879C322.392 464.473 321.952 465.179 321.763 465.999C321.584 466.817 321.705 467.689 322.126 468.615C322.51 469.497 323.079 470.217 323.834 470.775C324.597 471.331 325.496 471.696 326.53 471.871C327.564 472.045 328.681 472.005 329.881 471.75ZM324.686 460.083C325.629 459.882 326.386 459.529 326.957 459.022C327.537 458.513 327.896 457.898 328.035 457.177C328.173 456.455 328.058 455.67 327.689 454.82C327.31 453.989 326.777 453.31 326.092 452.781C325.403 452.244 324.619 451.885 323.741 451.704C322.86 451.515 321.935 451.523 320.967 451.729C319.981 451.938 319.197 452.293 318.613 452.794C318.026 453.286 317.67 453.888 317.545 454.597C317.417 455.299 317.542 456.065 317.921 456.896C318.29 457.746 318.821 458.443 319.514 458.988C320.215 459.531 321.013 459.9 321.906 460.095C322.8 460.291 323.727 460.287 324.686 460.083ZM344.777 471.106L343.815 468.945L348.548 458.217C349.105 456.96 349.542 455.877 349.86 454.968C350.174 454.052 350.338 453.22 350.352 452.472C350.371 451.715 350.213 450.96 349.878 450.208C349.494 449.344 348.938 448.643 348.211 448.106C347.492 447.566 346.675 447.206 345.76 447.024C344.844 446.842 343.91 446.852 342.959 447.054C341.948 447.269 341.153 447.652 340.574 448.205C339.999 448.747 339.662 449.41 339.56 450.194C339.468 450.976 339.63 451.835 340.046 452.771L337.013 453.416C336.372 451.975 336.165 450.635 336.391 449.396C336.618 448.157 337.208 447.103 338.163 446.234C339.126 445.364 340.374 444.765 341.908 444.439C343.45 444.112 344.952 444.125 346.414 444.48C347.875 444.835 349.175 445.457 350.311 446.345C351.447 447.234 352.297 448.31 352.86 449.574C353.263 450.479 353.481 451.4 353.514 452.339C353.553 453.268 353.379 454.352 352.992 455.59C352.611 456.819 352.003 458.349 351.168 460.182L347.885 467.344L347.971 467.536L360.206 464.936L361.382 467.577L344.777 471.106ZM364.998 439.899L375.943 464.481L372.756 465.159L363.2 443.698L363.046 443.73L358.394 449.081L357.048 446.056L361.811 440.577L364.998 439.899Z" fill="white"/>
<path d="M399.393 432.22C400.476 431.999 401.641 431.962 402.888 432.108C404.135 432.255 405.399 432.67 406.678 433.352C407.954 434.027 409.195 435.055 410.401 436.437C411.607 437.819 412.712 439.638 413.717 441.894C414.689 444.079 415.331 446.067 415.64 447.858C415.955 449.639 415.955 451.198 415.641 452.535C415.335 453.87 414.724 454.964 413.809 455.815C412.903 456.665 411.708 457.247 410.226 457.562C408.752 457.876 407.316 457.883 405.917 457.585C404.523 457.277 403.24 456.713 402.069 455.893C400.902 455.064 399.928 454.023 399.145 452.77L402.281 452.103C403.066 453.172 404.042 453.985 405.21 454.542C406.382 455.09 407.662 455.217 409.05 454.922C411.081 454.49 412.314 453.321 412.751 451.415C413.195 449.508 412.744 447.041 411.398 444.017L411.192 444.06C411.012 444.834 410.7 445.536 410.258 446.164C409.815 446.792 409.25 447.324 408.562 447.759C407.875 448.195 407.077 448.509 406.168 448.702C404.66 449.022 403.122 448.968 401.552 448.54C399.988 448.102 398.556 447.351 397.257 446.286C395.963 445.213 394.963 443.883 394.258 442.299C393.588 440.795 393.335 439.342 393.499 437.941C393.668 436.529 394.242 435.312 395.222 434.29C396.21 433.265 397.6 432.575 399.393 432.22ZM400.569 434.861C399.489 435.091 398.629 435.549 397.988 436.237C397.352 436.916 396.97 437.733 396.843 438.688C396.72 439.634 396.886 440.619 397.342 441.643C397.798 442.668 398.453 443.549 399.307 444.287C400.166 445.016 401.126 445.539 402.186 445.856C403.252 446.164 404.324 446.203 405.404 445.974C406.218 445.801 406.91 445.492 407.481 445.046C408.048 444.593 408.477 444.05 408.768 443.419C409.064 442.778 409.215 442.094 409.219 441.366C409.219 440.63 409.058 439.898 408.733 439.17C408.306 438.209 407.657 437.362 406.786 436.627C405.923 435.891 404.943 435.355 403.846 435.019C402.758 434.68 401.666 434.628 400.569 434.861ZM433.735 452.565C432.039 452.926 430.405 452.975 428.835 452.713C427.273 452.45 425.887 451.917 424.676 451.114C423.47 450.302 422.547 449.259 421.904 447.985L425.143 447.296C425.564 448.074 426.16 448.696 426.931 449.163C427.698 449.622 428.566 449.919 429.536 450.055C430.506 450.19 431.497 450.15 432.508 449.936C433.639 449.695 434.559 449.298 435.269 448.744C435.98 448.19 436.437 447.532 436.642 446.771C436.847 446.009 436.757 445.196 436.372 444.332C435.969 443.427 435.375 442.682 434.589 442.096C433.799 441.502 432.854 441.107 431.754 440.912C430.654 440.716 429.436 440.761 428.099 441.045L425.992 441.493L424.816 438.852L426.924 438.404C427.969 438.182 428.807 437.811 429.439 437.291C430.079 436.77 430.479 436.142 430.64 435.407C430.809 434.67 430.701 433.87 430.316 433.005C429.946 432.173 429.426 431.491 428.758 430.959C428.089 430.426 427.319 430.064 426.446 429.873C425.581 429.68 424.665 429.687 423.697 429.893C422.789 430.086 422.001 430.424 421.335 430.907C420.673 431.381 420.22 431.963 419.975 432.655C419.726 433.338 419.761 434.093 420.082 434.918L416.998 435.574C416.475 434.274 416.389 433.058 416.737 431.924C417.082 430.782 417.763 429.805 418.78 428.993C419.806 428.179 421.077 427.611 422.594 427.289C424.222 426.943 425.756 426.954 427.195 427.323C428.631 427.683 429.885 428.297 430.955 429.164C432.026 430.032 432.82 431.045 433.336 432.206C433.953 433.59 434.088 434.853 433.743 435.995C433.407 437.135 432.658 438.035 431.498 438.693L431.583 438.885C433.36 438.788 434.951 439.172 436.359 440.038C437.763 440.896 438.813 442.105 439.508 443.665C440.103 445.001 440.247 446.285 439.941 447.515C439.64 448.735 438.957 449.791 437.891 450.683C436.826 451.576 435.44 452.203 433.735 452.565ZM446.044 422.672L456.989 447.255L453.801 447.932L444.246 426.471L444.092 426.503L439.44 431.854L438.094 428.83L442.857 423.35L446.044 422.672ZM462.867 419.097L473.812 443.679L470.624 444.356L461.069 422.895L460.915 422.928L456.263 428.279L454.917 425.254L459.68 419.774L462.867 419.097Z" fill="white"/>
<path d="M500.412 438.025L499.45 435.864L504.183 425.135C504.739 423.878 505.176 422.796 505.494 421.887C505.808 420.971 505.972 420.139 505.987 419.391C506.006 418.634 505.848 417.879 505.513 417.127C505.128 416.263 504.572 415.562 503.845 415.024C503.127 414.485 502.31 414.125 501.394 413.943C500.478 413.761 499.545 413.771 498.594 413.973C497.583 414.188 496.788 414.571 496.208 415.124C495.634 415.666 495.296 416.329 495.195 417.113C495.102 417.895 495.264 418.754 495.681 419.69L492.648 420.335C492.007 418.894 491.799 417.554 492.026 416.315C492.252 415.075 492.843 414.021 493.797 413.153C494.76 412.282 496.009 411.684 497.542 411.358C499.085 411.03 500.587 411.044 502.048 411.399C503.51 411.754 504.809 412.376 505.946 413.264C507.082 414.153 507.932 415.229 508.495 416.493C508.897 417.397 509.115 418.319 509.149 419.258C509.187 420.187 509.013 421.271 508.627 422.509C508.245 423.738 507.637 425.268 506.803 427.101L503.52 434.263L503.605 434.455L515.84 431.855L517.016 434.495L500.412 438.025ZM531.213 431.846C530.126 432.059 528.961 432.097 527.718 431.958C526.474 431.819 525.213 431.409 523.933 430.726C522.65 430.035 521.406 428.999 520.2 427.617C518.99 426.227 517.88 424.396 516.868 422.124C515.899 419.947 515.259 417.972 514.947 416.199C514.633 414.418 514.634 412.863 514.952 411.534C515.267 410.197 515.877 409.103 516.784 408.254C517.699 407.402 518.898 406.819 520.38 406.504C521.854 406.191 523.288 406.188 524.682 406.496C526.08 406.794 527.361 407.354 528.524 408.176C529.687 408.997 530.659 410.021 531.44 411.248L528.304 411.915C527.521 410.872 526.547 410.076 525.384 409.527C524.22 408.977 522.944 408.85 521.556 409.145C519.517 409.578 518.279 410.748 517.843 412.654C517.415 414.558 517.863 417.007 519.187 420.002L519.392 419.958C519.569 419.176 519.881 418.475 520.327 417.854C520.778 417.224 521.347 416.691 522.035 416.256C522.723 415.821 523.517 415.508 524.416 415.316C525.924 414.996 527.46 415.055 529.025 415.493C530.586 415.923 532.017 416.674 533.32 417.746C534.619 418.81 535.621 420.135 536.327 421.719C537.004 423.239 537.259 424.709 537.094 426.128C536.925 427.539 536.347 428.757 535.359 429.782C534.375 430.797 532.994 431.485 531.213 431.846ZM530.037 429.205C531.117 428.976 531.973 428.518 532.605 427.831C533.246 427.143 533.626 426.322 533.745 425.369C533.873 424.413 533.705 423.415 533.242 422.375C532.79 421.358 532.134 420.486 531.275 419.758C530.421 419.02 529.46 418.492 528.391 418.177C527.33 417.859 526.26 417.815 525.181 418.044C524.367 418.217 523.676 418.531 523.109 418.984C522.538 419.429 522.103 419.969 521.803 420.602C521.512 421.233 521.366 421.916 521.366 422.652C521.362 423.38 521.523 424.112 521.851 424.849C522.286 425.825 522.936 426.685 523.802 427.43C524.677 428.172 525.658 428.712 526.747 429.05C527.844 429.387 528.94 429.438 530.037 429.205ZM545.73 428.392L547.819 404.14L547.734 403.948L534.162 406.833L532.986 404.192L549.848 400.608L551.088 403.393L549.072 427.682L545.73 428.392ZM573.605 422.835C572.097 423.156 570.614 423.164 569.156 422.861C567.699 422.557 566.389 421.995 565.226 421.174C564.063 420.352 563.169 419.325 562.545 418.091L565.629 417.435C566.245 418.522 567.194 419.327 568.478 419.852C569.767 420.366 571.084 420.48 572.429 420.194C573.508 419.965 574.363 419.525 574.992 418.874C575.63 418.222 576.006 417.433 576.119 416.506C576.237 415.57 576.062 414.578 575.595 413.53C575.118 412.458 574.44 411.555 573.56 410.822C572.685 410.08 571.702 409.557 570.611 409.255C569.52 408.953 568.411 408.917 567.285 409.147C566.476 409.31 565.701 409.602 564.96 410.023C564.215 410.435 563.65 410.883 563.266 411.368L560.135 411.666L556.341 399.228L570.016 396.321L571.191 398.962L560.19 401.3L562.493 408.747L562.647 408.714C563.009 408.199 563.538 407.723 564.234 407.286C564.93 406.849 565.72 406.537 566.602 406.349C568.213 406.007 569.809 406.062 571.389 406.514C572.974 406.957 574.402 407.722 575.674 408.809C576.955 409.895 577.949 411.234 578.658 412.826C579.357 414.395 579.603 415.875 579.398 417.268C579.198 418.651 578.601 419.837 577.607 420.828C576.609 421.811 575.275 422.48 573.605 422.835Z" fill="white"/>
<path d="M603.871 389.125L614.815 413.708L611.628 414.385L602.073 392.924L601.919 392.956L597.267 398.307L595.92 395.282L600.683 389.803L603.871 389.125ZM620.694 385.549L631.638 410.132L628.451 410.809L618.896 389.348L618.742 389.381L614.09 394.731L612.743 391.707L617.506 386.227L620.694 385.549ZM639.208 408.523L638.246 406.362L642.979 395.633C643.536 394.376 643.973 393.294 644.291 392.385C644.605 391.469 644.769 390.637 644.783 389.889C644.802 389.132 644.644 388.377 644.31 387.625C643.925 386.761 643.369 386.06 642.642 385.522C641.924 384.983 641.106 384.622 640.191 384.44C639.275 384.258 638.342 384.268 637.391 384.471C636.38 384.685 635.584 385.069 635.005 385.621C634.431 386.164 634.093 386.827 633.991 387.611C633.899 388.392 634.061 389.251 634.478 390.188L631.444 390.832C630.803 389.392 630.596 388.052 630.822 386.813C631.049 385.573 631.64 384.519 632.594 383.651C633.557 382.78 634.805 382.182 636.339 381.856C637.881 381.528 639.383 381.542 640.845 381.897C642.307 382.252 643.606 382.874 644.742 383.762C645.879 384.65 646.728 385.727 647.291 386.991C647.694 387.895 647.912 388.817 647.945 389.756C647.984 390.685 647.81 391.769 647.423 393.007C647.042 394.235 646.434 395.766 645.599 397.599L642.317 404.761L642.402 404.953L654.637 402.353L655.813 404.993L639.208 408.523ZM661.121 403.865L660.159 401.705L664.892 390.976C665.448 389.719 665.885 388.636 666.203 387.728C666.517 386.811 666.681 385.979 666.696 385.232C666.715 384.474 666.557 383.719 666.222 382.967C665.837 382.103 665.281 381.402 664.554 380.865C663.836 380.325 663.019 379.965 662.103 379.783C661.187 379.601 660.254 379.611 659.303 379.813C658.292 380.028 657.497 380.411 656.917 380.964C656.343 381.506 656.005 382.169 655.904 382.953C655.811 383.735 655.973 384.594 656.39 385.53L653.357 386.175C652.716 384.734 652.508 383.394 652.735 382.155C652.961 380.916 653.552 379.862 654.506 378.993C655.469 378.123 656.718 377.524 658.251 377.198C659.794 376.871 661.296 376.884 662.757 377.239C664.219 377.594 665.518 378.216 666.655 379.104C667.791 379.993 668.641 381.069 669.204 382.333C669.606 383.238 669.824 384.159 669.858 385.098C669.896 386.027 669.722 387.111 669.336 388.349C668.954 389.578 668.346 391.109 667.512 392.941L664.229 400.104L664.314 400.296L676.549 397.695L677.725 400.336L661.121 403.865Z" fill="white"/>
<g style="mix-blend-mode:multiply" opacity="0.45">
<rect width="61.9738" height="61.9738" transform="matrix(0.978148 -0.207912 0.406737 0.913545 159.001 286.573)" fill="#595959"/>
</g>
<g style="mix-blend-mode:multiply" opacity="0.45">
<rect width="61.9738" height="61.9738" transform="matrix(0.978148 -0.207912 0.406737 0.913545 244.828 330.303)" fill="#595959"/>
</g>
<g style="mix-blend-mode:multiply" opacity="0.45">
<rect width="99.8981" height="61.9738" transform="matrix(0.978148 -0.207912 0.406737 0.913545 277.526 261.379)" fill="#595959"/>
</g>
<path d="M334.59 538.661L339.515 549.723L338.127 550.018L327.806 542.704L327.69 542.729L331.557 551.414L330.123 551.719L325.198 540.657L326.586 540.362L336.94 547.692L337.056 547.668L333.179 538.961L334.59 538.661ZM342.871 549.009L341.367 549.329L340.791 537.343L342.272 537.028L351.546 547.166L350.042 547.485L342.357 538.926L342.265 538.945L342.871 549.009ZM341.502 544.57L347.563 543.282L348.092 544.47L342.032 545.759L341.502 544.57ZM348.466 535.711L350.178 535.348L358.291 543.674L358.43 543.645L358.367 533.607L360.079 533.243L365.004 544.305L363.662 544.59L359.92 536.186L359.805 536.21L359.845 545.402L358.55 545.677L351.106 538.059L350.991 538.084L354.733 546.488L353.391 546.773L348.466 535.711ZM367.88 543.694L362.955 532.632L370.103 531.112L370.632 532.301L364.918 533.515L366.582 537.253L371.926 536.117L372.455 537.305L367.111 538.441L368.785 542.201L374.591 540.966L375.12 542.155L367.88 543.694Z" fill="white"/>
<path d="M354.209 587.099L347.711 588.48L338.956 568.815L345.741 567.372C347.784 566.938 349.707 566.96 351.511 567.439C353.312 567.911 354.926 568.798 356.353 570.099C357.777 571.394 358.943 573.059 359.849 575.095C360.761 577.143 361.156 578.99 361.033 580.635C360.907 582.273 360.273 583.648 359.133 584.76C357.989 585.865 356.348 586.645 354.209 587.099ZM349.321 585.826L353.104 585.022C354.845 584.651 356.148 584.031 357.014 583.16C357.879 582.29 358.335 581.215 358.381 579.937C358.427 578.659 358.094 577.22 357.381 575.619C356.675 574.032 355.788 572.724 354.723 571.696C353.655 570.662 352.432 569.955 351.055 569.575C349.675 569.188 348.162 569.17 346.517 569.52L342.446 570.385L349.321 585.826ZM374.95 583.027C373.428 583.35 371.976 583.316 370.593 582.923C369.215 582.522 367.975 581.819 366.874 580.812C365.777 579.798 364.892 578.536 364.22 577.025C363.547 575.514 363.249 574.12 363.325 572.842C363.406 571.557 363.833 570.478 364.608 569.606C365.386 568.725 366.489 568.134 367.914 567.831C368.737 567.656 369.606 567.611 370.522 567.697C371.438 567.782 372.353 568.043 373.268 568.48C374.179 568.91 375.04 569.553 375.85 570.411C376.659 571.269 377.371 572.387 377.983 573.763L378.411 574.723L366.238 577.311L365.366 575.352L375.071 573.289C374.701 572.457 374.192 571.752 373.545 571.175C372.904 570.596 372.175 570.187 371.355 569.948C370.543 569.707 369.698 569.68 368.821 569.866C367.854 570.072 367.118 570.474 366.611 571.072C366.109 571.662 365.827 572.353 365.767 573.143C365.706 573.934 365.857 574.736 366.219 575.549L366.8 576.855C367.296 577.969 367.922 578.869 368.678 579.556C369.438 580.236 370.278 580.698 371.198 580.944C372.115 581.184 373.064 581.199 374.044 580.991C374.681 580.856 375.22 580.65 375.66 580.374C376.104 580.091 376.439 579.739 376.665 579.32C376.888 578.894 376.988 578.403 376.966 577.847L379.584 577.964C379.667 578.759 379.544 579.5 379.212 580.187C378.877 580.868 378.351 581.456 377.634 581.952C376.914 582.441 376.019 582.8 374.95 583.027ZM385.043 580.545L378.477 565.796L380.821 565.298L381.813 567.525L381.977 567.49C381.94 566.699 382.197 565.996 382.749 565.382C383.301 564.767 384.049 564.359 384.995 564.158C385.173 564.12 385.398 564.076 385.668 564.025C385.938 563.975 386.144 563.942 386.287 563.925L387.313 566.23C387.223 566.228 387.021 566.239 386.709 566.264C386.402 566.28 386.087 566.323 385.764 566.391C384.997 566.554 384.378 566.85 383.909 567.279C383.444 567.701 383.153 568.211 383.037 568.81C382.926 569.401 383.018 570.03 383.314 570.696L387.47 580.029L385.043 580.545ZM402.093 577.257C400.572 577.581 399.119 577.546 397.736 577.153C396.358 576.753 395.118 576.049 394.017 575.043C392.92 574.029 392.035 572.766 391.363 571.255C390.69 569.745 390.392 568.35 390.468 567.073C390.549 565.787 390.976 564.709 391.751 563.836C392.53 562.956 393.632 562.364 395.057 562.061C395.88 561.886 396.749 561.842 397.665 561.927C398.581 562.013 399.496 562.274 400.411 562.71C401.322 563.14 402.183 563.784 402.993 564.642C403.803 565.5 404.514 566.617 405.127 567.994L405.554 568.954L393.381 571.541L392.509 569.582L402.214 567.519C401.844 566.687 401.335 565.982 400.688 565.405C400.048 564.827 399.318 564.418 398.498 564.178C397.686 563.938 396.841 563.91 395.964 564.097C394.997 564.302 394.261 564.704 393.754 565.302C393.252 565.893 392.97 566.583 392.91 567.374C392.849 568.165 393 568.966 393.362 569.779L393.943 571.085C394.439 572.199 395.065 573.1 395.821 573.787C396.581 574.466 397.421 574.929 398.341 575.175C399.258 575.414 400.207 575.43 401.187 575.222C401.824 575.086 402.363 574.881 402.803 574.605C403.247 574.321 403.582 573.97 403.808 573.55C404.031 573.125 404.131 572.634 404.109 572.078L406.727 572.194C406.811 572.989 406.687 573.73 406.355 574.418C406.02 575.098 405.494 575.687 404.777 576.182C404.057 576.672 403.163 577.03 402.093 577.257ZM412.054 568.918L410.765 566.122L411.258 566.017L415.243 557.981L418.245 557.343L413.979 565.86L413.773 565.903L412.054 568.918ZM412.186 574.776L403.431 555.11L405.857 554.594L414.613 574.26L412.186 574.776ZM422.221 572.643L412.803 566.656L413.829 564.714L425.306 571.987L422.221 572.643ZM436.407 569.627L427.651 549.962L435.013 548.397C436.48 548.085 437.795 548.065 438.959 548.336C440.119 548.601 441.11 549.081 441.929 549.775C442.746 550.464 443.368 551.288 443.795 552.248C444.172 553.093 444.321 553.825 444.244 554.444C444.174 555.062 443.95 555.586 443.571 556.017C443.2 556.446 442.746 556.802 442.212 557.084L442.297 557.276C442.959 557.177 443.7 557.251 444.523 557.496C445.345 557.742 446.135 558.177 446.893 558.801C447.651 559.424 448.26 560.255 448.722 561.292C449.161 562.278 449.316 563.215 449.187 564.105C449.057 564.994 448.578 565.779 447.748 566.46C446.918 567.141 445.674 567.658 444.015 568.01L436.407 569.627ZM438.016 566.973L443.075 565.898C444.74 565.544 445.789 564.991 446.22 564.241C446.655 563.483 446.68 562.672 446.296 561.807C445.999 561.142 445.544 560.566 444.93 560.08C444.313 559.587 443.593 559.243 442.77 559.046C441.945 558.843 441.073 558.839 440.154 559.035L434.972 560.136L438.016 566.973ZM434.049 558.062L438.778 557.057C439.546 556.893 440.176 556.605 440.667 556.193C441.165 555.778 441.482 555.277 441.617 554.687C441.76 554.096 441.677 553.455 441.369 552.764C440.984 551.9 440.336 551.235 439.423 550.77C438.508 550.299 437.352 550.212 435.953 550.509L431.142 551.532L434.049 558.062Z" fill="white"/>
<path d="M469.471 509.991L477.133 518.556L477.272 518.526L476.642 508.467L478.146 508.147L478.722 520.134L477.241 520.448L467.967 510.311L469.471 509.991ZM484.384 518.93L482.88 519.25L482.304 507.263L483.785 506.949L493.059 517.086L491.555 517.406L483.87 508.846L483.777 508.866L484.384 518.93ZM483.015 514.491L489.076 513.203L489.605 514.391L483.544 515.679L483.015 514.491ZM494.904 516.694L489.979 505.632L491.413 505.327L495.809 515.201L501.315 514.031L501.844 515.219L494.904 516.694ZM500.574 503.38L505.499 514.442L504.064 514.747L499.139 503.685L500.574 503.38ZM512.03 513.054L508.374 513.831L503.449 502.769L507.266 501.957C508.415 501.713 509.497 501.726 510.512 501.995C511.525 502.26 512.433 502.759 513.235 503.491C514.037 504.22 514.692 505.156 515.202 506.301C515.715 507.454 515.937 508.492 515.868 509.418C515.797 510.339 515.441 511.113 514.799 511.738C514.156 512.359 513.232 512.798 512.03 513.054ZM509.28 512.338L511.408 511.885C512.387 511.677 513.12 511.328 513.607 510.838C514.094 510.349 514.35 509.744 514.376 509.025C514.402 508.306 514.215 507.497 513.814 506.596C513.416 505.703 512.918 504.968 512.319 504.39C511.718 503.808 511.03 503.41 510.255 503.196C509.479 502.979 508.628 502.969 507.703 503.165L505.413 503.652L509.28 512.338ZM519.617 500.633L519.087 499.445L527.971 497.557L528.5 498.745L524.775 499.536L529.171 509.41L527.737 509.715L523.341 499.841L519.617 500.633ZM535.109 508.148L530.184 497.086L531.619 496.781L533.812 501.707L540.127 500.365L537.934 495.439L539.368 495.134L544.293 506.196L542.859 506.501L540.656 501.553L534.341 502.895L536.544 507.843L535.109 508.148ZM547.165 505.586L542.24 494.524L546.242 493.673C547.167 493.476 547.992 493.462 548.717 493.631C549.441 493.797 550.059 494.105 550.572 494.556C551.085 495.006 551.487 495.558 551.777 496.209C552.067 496.861 552.182 497.469 552.121 498.034C552.06 498.599 551.799 499.088 551.337 499.502C550.874 499.911 550.184 500.214 549.266 500.409L546.027 501.097L545.489 499.887L548.681 499.209C549.313 499.074 549.784 498.88 550.092 498.625C550.405 498.369 550.577 498.065 550.61 497.711C550.644 497.353 550.563 496.952 550.366 496.509C550.169 496.066 549.908 495.698 549.583 495.405C549.258 495.111 548.861 494.916 548.391 494.818C547.92 494.717 547.364 494.735 546.724 494.871L544.203 495.407L548.599 505.281L547.165 505.586ZM550.527 499.431L555.655 503.781L553.989 504.135L548.908 499.775L550.527 499.431ZM560.43 490.657L561.864 490.352L565.125 497.677C565.462 498.433 565.571 499.148 565.454 499.824C565.339 500.495 565.013 501.074 564.475 501.563C563.936 502.048 563.201 502.39 562.272 502.587C561.343 502.785 560.458 502.788 559.617 502.596C558.775 502.4 558.031 502.048 557.386 501.539C556.744 501.025 556.254 500.39 555.918 499.634L552.657 492.309L554.091 492.004L557.304 499.221C557.544 499.761 557.886 500.214 558.328 500.582C558.768 500.945 559.277 501.198 559.855 501.339C560.435 501.476 561.055 501.474 561.714 501.334C562.373 501.194 562.887 500.955 563.256 500.616C563.623 500.274 563.838 499.868 563.903 499.397C563.97 498.921 563.883 498.414 563.642 497.873L560.43 490.657Z" fill="white"/>
<path d="M498.116 556.805C496.567 557.134 495.072 557.021 493.632 556.465C492.188 555.903 490.844 554.931 489.599 553.549C488.35 552.161 487.25 550.398 486.298 548.259C485.352 546.134 484.832 544.258 484.738 542.631C484.648 540.997 484.971 539.667 485.707 538.641C486.448 537.608 487.585 536.928 489.121 536.602C490.656 536.275 492.147 536.396 493.593 536.965C495.043 537.526 496.392 538.5 497.641 539.889C498.893 541.269 499.993 543.022 500.939 545.147C501.891 547.286 502.415 549.171 502.512 550.804C502.606 552.431 502.285 553.757 501.548 554.783C500.809 555.802 499.665 556.476 498.116 556.805ZM497.175 554.693C498.711 554.366 499.596 553.421 499.83 551.858C500.064 550.295 499.611 548.233 498.471 545.672C497.713 543.969 496.872 542.561 495.948 541.447C495.032 540.331 494.07 539.537 493.064 539.064C492.065 538.59 491.059 538.46 490.044 538.676C488.523 538.999 487.645 539.953 487.413 541.537C487.177 543.115 487.628 545.181 488.766 547.735C489.524 549.438 490.36 550.844 491.274 551.953C492.188 553.062 493.143 553.85 494.139 554.318C495.142 554.785 496.154 554.91 497.175 554.693ZM515.923 553.02C514.717 553.276 513.531 553.283 512.365 553.041C511.199 552.798 510.151 552.348 509.221 551.691C508.29 551.034 507.575 550.212 507.076 549.225L509.543 548.7C510.036 549.57 510.795 550.214 511.822 550.633C512.853 551.045 513.907 551.136 514.983 550.908C515.847 550.724 516.53 550.372 517.034 549.851C517.544 549.33 517.844 548.698 517.935 547.957C518.029 547.208 517.889 546.415 517.516 545.576C517.134 544.718 516.591 543.996 515.888 543.41C515.188 542.816 514.402 542.398 513.529 542.156C512.656 541.914 511.769 541.885 510.868 542.07C510.221 542.2 509.601 542.434 509.008 542.77C508.412 543.1 507.96 543.459 507.652 543.846L505.147 544.085L502.113 534.134L513.052 531.809L513.993 533.922L505.192 535.792L507.034 541.75L507.157 541.723C507.447 541.311 507.87 540.931 508.427 540.581C508.984 540.231 509.616 539.982 510.322 539.831C511.61 539.558 512.887 539.602 514.151 539.964C515.419 540.318 516.562 540.93 517.579 541.8C518.604 542.668 519.399 543.739 519.967 545.013C520.525 546.268 520.722 547.452 520.558 548.566C520.398 549.672 519.92 550.622 519.125 551.415C518.327 552.201 517.26 552.736 515.923 553.02ZM525.157 528.227L528.854 553.215L526.633 553.687L522.936 528.699L525.157 528.227ZM537.158 548.212L536.389 546.484L540.175 537.901C540.621 536.895 540.97 536.029 541.224 535.302C541.476 534.569 541.607 533.903 541.618 533.305C541.634 532.699 541.507 532.096 541.239 531.494C540.932 530.802 540.487 530.242 539.905 529.812C539.331 529.38 538.677 529.092 537.944 528.946C537.212 528.801 536.465 528.809 535.704 528.97C534.895 529.142 534.259 529.449 533.796 529.891C533.336 530.325 533.066 530.856 532.985 531.482C532.911 532.108 533.04 532.795 533.374 533.544L530.947 534.06C530.434 532.908 530.269 531.836 530.45 530.844C530.631 529.853 531.104 529.009 531.867 528.314C532.637 527.618 533.636 527.14 534.863 526.879C536.097 526.617 537.298 526.627 538.468 526.911C539.637 527.195 540.676 527.693 541.586 528.404C542.495 529.114 543.174 529.975 543.625 530.987C543.947 531.71 544.121 532.447 544.148 533.199C544.179 533.942 544.04 534.809 543.73 535.799C543.425 536.782 542.939 538.007 542.271 539.473L539.645 545.203L539.714 545.357L549.501 543.276L550.442 545.389L537.158 548.212ZM561.799 543.269C560.93 543.44 559.998 543.47 559.003 543.359C558.009 543.248 556.999 542.919 555.976 542.373C554.949 541.82 553.954 540.991 552.989 539.886C552.021 538.774 551.133 537.309 550.323 535.491C549.548 533.75 549.036 532.17 548.787 530.751C548.535 529.326 548.537 528.082 548.791 527.019C549.043 525.95 549.531 525.075 550.256 524.395C550.988 523.714 551.947 523.247 553.133 522.995C554.312 522.745 555.459 522.743 556.574 522.989C557.694 523.228 558.718 523.676 559.649 524.333C560.579 524.99 561.356 525.809 561.981 526.791L559.472 527.324C558.846 526.49 558.067 525.853 557.136 525.414C556.205 524.974 555.184 524.872 554.074 525.108C552.442 525.455 551.452 526.39 551.103 527.915C550.761 529.438 551.119 531.398 552.179 533.794L552.343 533.759C552.485 533.133 552.734 532.572 553.091 532.076C553.451 531.571 553.907 531.145 554.457 530.797C555.007 530.449 555.642 530.198 556.362 530.045C557.568 529.789 558.797 529.836 560.049 530.187C561.298 530.531 562.443 531.132 563.485 531.989C564.524 532.841 565.326 533.9 565.891 535.168C566.432 536.384 566.637 537.56 566.504 538.695C566.369 539.824 565.906 540.798 565.116 541.618C564.329 542.43 563.224 542.98 561.799 543.269ZM560.859 541.156C561.722 540.973 562.407 540.606 562.913 540.057C563.426 539.507 563.73 538.85 563.825 538.087C563.928 537.323 563.794 536.524 563.423 535.692C563.061 534.879 562.536 534.181 561.849 533.598C561.166 533.008 560.397 532.586 559.542 532.334C558.693 532.079 557.837 532.044 556.974 532.228C556.322 532.366 555.77 532.617 555.316 532.979C554.86 533.336 554.512 533.767 554.272 534.274C554.039 534.779 553.922 535.325 553.922 535.914C553.918 536.496 554.048 537.082 554.31 537.671C554.658 538.452 555.178 539.14 555.871 539.736C556.571 540.33 557.356 540.762 558.226 541.033C559.104 541.302 559.981 541.343 560.859 541.156Z" fill="white"/>
<path d="M635.675 478.447L634.241 478.752C633.985 478.385 633.686 478.078 633.344 477.831C633.006 477.584 632.642 477.393 632.253 477.259C631.867 477.12 631.47 477.039 631.062 477.015C630.655 476.992 630.255 477.022 629.861 477.105C629.144 477.258 628.57 477.565 628.139 478.027C627.711 478.489 627.472 479.085 627.422 479.817C627.377 480.548 627.567 481.393 627.993 482.35C628.42 483.308 628.949 484.081 629.582 484.668C630.219 485.254 630.901 485.654 631.63 485.87C632.363 486.085 633.088 486.116 633.805 485.963C634.199 485.88 634.554 485.749 634.872 485.571C635.189 485.393 635.452 485.174 635.661 484.913C635.872 484.647 636.017 484.346 636.095 484.01C636.176 483.67 636.173 483.3 636.088 482.9L637.522 482.595C637.666 483.184 637.695 483.731 637.608 484.239C637.522 484.746 637.336 485.201 637.052 485.604C636.765 486.004 636.394 486.341 635.938 486.616C635.486 486.889 634.961 487.089 634.363 487.216C633.353 487.431 632.352 487.392 631.361 487.098C630.369 486.804 629.458 486.28 628.629 485.526C627.799 484.773 627.125 483.812 626.605 482.645C626.086 481.479 625.863 480.423 625.935 479.477C626.008 478.531 626.335 477.744 626.916 477.116C627.498 476.488 628.293 476.067 629.304 475.852C629.901 475.725 630.498 475.687 631.095 475.737C631.695 475.787 632.277 475.924 632.841 476.147C633.403 476.366 633.926 476.669 634.41 477.055C634.892 477.437 635.314 477.901 635.675 478.447ZM636.94 474.394L644.602 482.959L644.741 482.929L644.111 472.87L645.615 472.55L646.191 484.537L644.71 484.852L635.436 474.714L636.94 474.394ZM647.946 472.055L655.608 480.62L655.747 480.59L655.117 470.531L656.62 470.211L657.197 482.198L655.716 482.512L646.442 472.375L647.946 472.055Z" fill="white"/>
<path d="M646.749 524.918L645.979 523.19L649.766 514.606C650.211 513.601 650.56 512.735 650.815 512.008C651.066 511.275 651.197 510.609 651.209 510.011C651.224 509.405 651.098 508.801 650.83 508.2C650.522 507.508 650.077 506.948 649.496 506.518C648.921 506.086 648.267 505.798 647.535 505.652C646.802 505.507 646.055 505.515 645.294 505.676C644.486 505.848 643.85 506.155 643.386 506.597C642.926 507.031 642.656 507.561 642.575 508.188C642.501 508.814 642.631 509.501 642.964 510.25L640.538 510.766C640.025 509.613 639.859 508.542 640.04 507.55C640.221 506.558 640.694 505.715 641.457 505.02C642.228 504.324 643.226 503.845 644.453 503.585C645.687 503.322 646.889 503.333 648.058 503.617C649.227 503.901 650.267 504.399 651.176 505.109C652.085 505.82 652.765 506.681 653.215 507.693C653.537 508.416 653.712 509.153 653.738 509.904C653.769 510.648 653.63 511.515 653.321 512.505C653.015 513.488 652.529 514.713 651.861 516.179L649.235 521.909L649.304 522.062L659.092 519.982L660.032 522.094L646.749 524.918ZM661.537 517.36L660.665 515.401L663.83 499.76L665.352 499.437L666.703 502.471L665.675 502.69L663.283 514.508L663.352 514.662L675.813 512.013L676.754 514.126L661.537 517.36ZM673.244 519.286L671.183 514.658L670.777 513.746L664.488 499.62L666.915 499.105L675.67 518.77L673.244 519.286ZM689.102 516.21C687.896 516.466 686.71 516.473 685.544 516.23C684.378 515.988 683.329 515.538 682.399 514.881C681.469 514.223 680.754 513.401 680.254 512.414L682.722 511.89C683.214 512.759 683.974 513.404 685.001 513.823C686.032 514.235 687.085 514.326 688.161 514.097C689.025 513.914 689.709 513.562 690.212 513.041C690.723 512.519 691.023 511.888 691.113 511.147C691.208 510.398 691.068 509.604 690.695 508.766C690.313 507.908 689.77 507.186 689.066 506.6C688.367 506.006 687.58 505.588 686.707 505.346C685.834 505.104 684.947 505.075 684.047 505.26C683.399 505.39 682.779 505.624 682.186 505.96C681.59 506.29 681.139 506.649 680.831 507.036L678.326 507.274L675.291 497.324L686.231 494.999L687.171 497.111L678.371 498.982L680.213 504.939L680.336 504.913C680.625 504.501 681.048 504.12 681.606 503.771C682.163 503.421 682.794 503.171 683.5 503.021C684.789 502.747 686.065 502.791 687.329 503.153C688.597 503.507 689.74 504.119 690.758 504.989C691.782 505.858 692.578 506.929 693.145 508.203C693.704 509.458 693.901 510.642 693.737 511.756C693.576 512.862 693.099 513.812 692.304 514.604C691.506 515.391 690.439 515.926 689.102 516.21Z" fill="white"/>
</g>
</g>
<g filter="url(#filter1_dddd_3_547)">
<g clip-path="url(#clip1_3_547)">
<rect width="684.487" height="393.118" rx="13.8747" transform="matrix(0.978148 -0.207912 0.406737 0.913545 267.998 163.313)" fill="url(#paint1_radial_3_547)"/>
<path d="M443.586 415.401L448.511 426.463L447.123 426.758L436.802 419.445L436.686 419.469L440.553 428.155L439.119 428.46L434.194 417.398L435.582 417.103L445.936 424.433L446.051 424.408L442.175 415.701L443.586 415.401ZM451.867 425.75L450.363 426.07L449.787 414.083L451.268 413.769L460.542 423.906L459.038 424.226L451.353 415.666L451.26 415.686L451.867 425.75ZM450.498 421.311L456.559 420.023L457.088 421.211L451.027 422.499L450.498 421.311ZM457.462 412.452L459.173 412.088L467.287 420.415L467.426 420.385L467.363 410.347L469.075 409.984L474 421.046L472.658 421.331L468.916 412.926L468.8 412.951L468.841 422.142L467.545 422.417L460.102 414.8L459.987 414.824L463.728 423.229L462.387 423.514L457.462 412.452ZM476.875 420.434L471.95 409.372L479.098 407.853L479.628 409.041L473.914 410.256L475.578 413.994L480.922 412.858L481.451 414.046L476.107 415.182L477.781 418.941L483.587 417.707L484.116 418.895L476.875 420.434Z" fill="white"/>
<path d="M465.082 448.641C464.568 448.043 464.011 447.527 463.413 447.093C462.819 446.652 462.187 446.303 461.518 446.046C460.855 445.787 460.162 445.63 459.439 445.573C458.716 445.516 457.974 445.569 457.213 445.731C455.966 445.996 454.965 446.538 454.212 447.357C453.459 448.176 453.041 449.235 452.959 450.535C452.878 451.834 453.216 453.335 453.974 455.038C454.732 456.741 455.677 458.113 456.809 459.155C457.941 460.197 459.161 460.908 460.471 461.289C461.781 461.669 463.087 461.721 464.389 461.444C465.596 461.187 466.551 460.721 467.256 460.046C467.964 459.363 468.379 458.525 468.5 457.532C468.625 456.532 468.419 455.43 467.883 454.226L468.733 454.214L462.4 455.56L461.459 453.447L469.479 451.743L470.419 453.855C471.14 455.475 471.397 456.962 471.19 458.316C470.99 459.669 470.388 460.813 469.387 461.748C468.389 462.675 467.053 463.316 465.381 463.671C463.517 464.068 461.696 464.006 459.919 463.487C458.149 462.966 456.534 462.034 455.073 460.691C453.619 459.346 452.43 457.637 451.507 455.563C450.814 454.007 450.414 452.561 450.307 451.225C450.203 449.88 450.368 448.682 450.8 447.63C451.232 446.578 451.906 445.699 452.822 444.993C453.738 444.287 454.871 443.79 456.221 443.503C457.332 443.267 458.437 443.204 459.536 443.313C460.639 443.415 461.695 443.671 462.702 444.08C463.714 444.482 464.649 445.023 465.506 445.702C466.361 446.375 467.097 447.169 467.714 448.082L465.082 448.641ZM478.884 460.507L472.317 445.758L474.744 445.242L481.311 459.991L478.884 460.507ZM472.457 443.037C471.984 443.138 471.509 443.074 471.032 442.846C470.562 442.616 470.234 442.29 470.045 441.868C469.857 441.445 469.864 441.048 470.066 440.676C470.275 440.302 470.616 440.065 471.089 439.964C471.562 439.864 472.033 439.928 472.503 440.158C472.979 440.386 473.312 440.711 473.5 441.134C473.688 441.556 473.678 441.954 473.469 442.328C473.267 442.7 472.93 442.937 472.457 443.037ZM491.845 445.223L489.922 446.262C489.634 445.952 489.285 445.665 488.875 445.402C488.469 445.131 487.993 444.938 487.446 444.823C486.9 444.708 486.274 444.725 485.568 444.875C484.601 445.081 483.889 445.46 483.43 446.013C482.974 446.558 482.888 447.148 483.17 447.781C483.421 448.345 483.838 448.743 484.423 448.976C485.007 449.21 485.813 449.336 486.842 449.355L489.426 449.395C490.98 449.415 492.25 449.681 493.236 450.193C494.219 450.699 494.94 451.467 495.399 452.498C495.775 453.343 495.851 454.154 495.627 454.93C495.409 455.705 494.923 456.383 494.169 456.964C493.414 457.545 492.424 457.965 491.197 458.226C489.586 458.569 488.108 458.525 486.761 458.097C485.415 457.668 484.322 456.856 483.482 455.662L485.546 454.634C486.119 455.381 486.799 455.889 487.585 456.156C488.379 456.422 489.273 456.449 490.267 456.238C491.397 455.997 492.196 455.582 492.661 454.993C493.13 454.396 493.224 453.78 492.942 453.146C492.714 452.634 492.331 452.246 491.793 451.982C491.253 451.711 490.546 451.574 489.674 451.57L486.786 451.554C485.197 451.541 483.913 451.271 482.936 450.743C481.962 450.207 481.248 449.43 480.795 448.412C480.425 447.58 480.347 446.791 480.562 446.044C480.785 445.296 481.25 444.647 481.958 444.097C482.673 443.546 483.585 443.152 484.696 442.916C486.258 442.584 487.628 442.643 488.804 443.094C489.987 443.544 491.001 444.253 491.845 445.223ZM507.64 454.731C506.118 455.055 504.666 455.02 503.283 454.627C501.904 454.227 500.664 453.523 499.563 452.517C498.466 451.503 497.582 450.24 496.909 448.729C496.236 447.218 495.938 445.824 496.015 444.547C496.095 443.261 496.523 442.182 497.297 441.31C498.076 440.43 499.178 439.838 500.604 439.535C501.426 439.36 502.295 439.316 503.211 439.401C504.127 439.487 505.043 439.748 505.957 440.184C506.869 440.614 507.729 441.258 508.539 442.116C509.349 442.974 510.06 444.091 510.673 445.467L511.1 446.428L498.927 449.015L498.055 447.056L507.761 444.993C507.39 444.161 506.881 443.456 506.234 442.879C505.594 442.3 504.864 441.891 504.045 441.652C503.232 441.411 502.387 441.384 501.51 441.571C500.544 441.776 499.807 442.178 499.301 442.776C498.798 443.366 498.517 444.057 498.456 444.848C498.395 445.638 498.546 446.44 498.908 447.253L499.489 448.559C499.985 449.673 500.611 450.574 501.368 451.261C502.128 451.94 502.968 452.403 503.887 452.649C504.804 452.888 505.753 452.904 506.733 452.696C507.371 452.56 507.909 452.354 508.349 452.079C508.793 451.795 509.128 451.444 509.354 451.024C509.577 450.598 509.678 450.108 509.655 449.552L512.273 449.668C512.357 450.463 512.233 451.204 511.901 451.891C511.566 452.572 511.041 453.16 510.323 453.656C509.603 454.146 508.709 454.504 507.64 454.731ZM511.403 432.068L520.159 451.734L517.733 452.249L508.977 432.584L511.403 432.068ZM518.274 430.608L527.03 450.273L524.603 450.789L515.848 431.123L518.274 430.608ZM538.232 448.229C536.71 448.552 535.258 448.517 533.875 448.125C532.496 447.724 531.257 447.02 530.156 446.014C529.059 445 528.174 443.737 527.502 442.227C526.829 440.716 526.531 439.322 526.607 438.044C526.688 436.759 527.115 435.68 527.89 434.807C528.668 433.927 529.77 433.335 531.196 433.032C532.019 432.858 532.888 432.813 533.804 432.899C534.72 432.984 535.635 433.245 536.55 433.681C537.461 434.111 538.322 434.755 539.132 435.613C539.941 436.471 540.653 437.588 541.265 438.965L541.693 439.925L529.52 442.512L528.647 440.554L538.353 438.491C537.983 437.658 537.474 436.954 536.827 436.376C536.186 435.798 535.457 435.389 534.637 435.149C533.825 434.909 532.98 434.882 532.103 435.068C531.136 435.274 530.4 435.675 529.893 436.273C529.391 436.864 529.109 437.554 529.048 438.345C528.988 439.136 529.139 439.938 529.5 440.751L530.082 442.057C530.578 443.17 531.204 444.071 531.96 444.758C532.72 445.437 533.56 445.9 534.48 446.146C535.397 446.386 536.346 446.401 537.326 446.193C537.963 446.057 538.502 445.852 538.942 445.576C539.386 445.292 539.721 444.941 539.947 444.522C540.17 444.096 540.27 443.605 540.248 443.049L542.866 443.165C542.949 443.96 542.825 444.702 542.494 445.389C542.159 446.069 541.633 446.658 540.916 447.154C540.196 447.643 539.301 448.001 538.232 448.229ZM560.622 443.133L546.109 424.691L548.699 424.14L560.231 439.222L560.437 439.178L557.788 422.209L560.667 421.597L572.281 436.661L572.487 436.617L569.756 419.665L572.347 419.114L575.345 440.004L572.713 440.563L561.088 425.88L560.924 425.915L563.254 442.574L560.622 443.133Z" fill="white"/>
<path d="M599.008 382.365L606.67 390.93L606.809 390.9L606.179 380.841L607.683 380.522L608.259 392.508L606.778 392.823L597.504 382.685L599.008 382.365ZM613.921 391.304L612.417 391.624L611.841 379.638L613.321 379.323L622.596 389.461L621.092 389.78L613.407 381.221L613.314 381.24L613.921 391.304ZM612.552 386.865L618.613 385.577L619.142 386.765L613.081 388.054L612.552 386.865ZM624.441 389.068L619.515 378.006L620.95 377.702L625.346 387.575L630.851 386.405L631.381 387.593L624.441 389.068ZM630.11 375.754L635.036 386.816L633.601 387.121L628.676 376.059L630.11 375.754ZM641.566 385.428L637.911 386.205L632.986 375.143L636.803 374.332C637.952 374.088 639.034 374.1 640.049 374.369C641.061 374.635 641.969 375.134 642.772 375.866C643.573 376.594 644.229 377.531 644.739 378.676C645.252 379.828 645.474 380.867 645.405 381.792C645.334 382.714 644.977 383.487 644.336 384.112C643.692 384.734 642.769 385.172 641.566 385.428ZM638.817 384.712L640.945 384.26C641.924 384.051 642.657 383.702 643.144 383.213C643.631 382.723 643.887 382.119 643.913 381.4C643.939 380.681 643.752 379.871 643.351 378.971C642.953 378.078 642.455 377.342 641.855 376.764C641.255 376.182 640.567 375.784 639.792 375.571C639.016 375.353 638.165 375.343 637.24 375.54L634.95 376.027L638.817 384.712ZM649.153 373.007L648.624 371.819L657.508 369.931L658.037 371.119L654.312 371.911L658.708 381.785L657.274 382.089L652.878 372.216L649.153 373.007ZM664.646 380.522L659.721 369.46L661.155 369.156L663.349 374.082L669.664 372.739L667.471 367.813L668.905 367.508L673.83 378.57L672.396 378.875L670.193 373.928L663.878 375.27L666.08 380.218L664.646 380.522ZM676.702 377.96L671.776 366.898L675.779 366.047C676.704 365.851 677.529 365.837 678.254 366.006C678.978 366.171 679.596 366.479 680.109 366.93C680.622 367.381 681.024 367.932 681.314 368.584C681.604 369.236 681.719 369.844 681.658 370.409C681.597 370.973 681.336 371.462 680.874 371.876C680.411 372.286 679.721 372.588 678.803 372.783L675.564 373.472L675.026 372.262L678.218 371.583C678.85 371.449 679.321 371.254 679.629 370.999C679.942 370.744 680.114 370.439 680.147 370.085C680.181 369.727 680.1 369.327 679.903 368.884C679.706 368.441 679.445 368.073 679.12 367.779C678.795 367.485 678.398 367.29 677.928 367.193C677.457 367.092 676.901 367.109 676.261 367.245L673.74 367.781L678.136 377.655L676.702 377.96ZM680.064 371.806L685.192 376.155L683.526 376.509L678.445 372.15L680.064 371.806ZM689.966 363.032L691.401 362.727L694.662 370.051C694.998 370.807 695.108 371.523 694.991 372.198C694.876 372.869 694.55 373.449 694.012 373.938C693.472 374.423 692.738 374.764 691.809 374.962C690.88 375.159 689.995 375.162 689.154 374.97C688.311 374.775 687.568 374.422 686.923 373.913C686.281 373.399 685.791 372.764 685.455 372.008L682.194 364.684L683.628 364.379L686.841 371.595C687.081 372.135 687.423 372.589 687.865 372.956C688.305 373.32 688.814 373.572 689.392 373.713C689.972 373.85 690.592 373.849 691.251 373.709C691.91 373.568 692.424 373.329 692.793 372.991C693.159 372.649 693.375 372.242 693.44 371.771C693.507 371.296 693.42 370.788 693.179 370.248L689.966 363.032Z" fill="white"/>
<path d="M627.653 429.18C626.104 429.509 624.609 429.396 623.169 428.84C621.725 428.278 620.381 427.306 619.135 425.924C617.887 424.535 616.787 422.772 615.835 420.634C614.889 418.508 614.368 416.632 614.274 415.006C614.184 413.371 614.508 412.041 615.244 411.016C615.984 409.982 617.122 409.302 618.658 408.976C620.193 408.65 621.684 408.771 623.13 409.339C624.58 409.9 625.929 410.875 627.178 412.263C628.43 413.644 629.529 415.396 630.476 417.522C631.428 419.66 631.952 421.546 632.049 423.179C632.143 424.806 631.822 426.132 631.085 427.157C630.346 428.176 629.202 428.85 627.653 429.18ZM626.712 427.067C628.248 426.741 629.132 425.796 629.367 424.232C629.601 422.669 629.148 420.607 628.008 418.046C627.25 416.343 626.409 414.935 625.485 413.821C624.569 412.705 623.607 411.911 622.601 411.438C621.602 410.964 620.596 410.835 619.581 411.05C618.059 411.374 617.182 412.327 616.95 413.911C616.714 415.489 617.165 417.555 618.302 420.109C619.061 421.812 619.897 423.218 620.811 424.327C621.725 425.436 622.68 426.225 623.676 426.693C624.679 427.159 625.691 427.284 626.712 427.067ZM636.589 405.165C637.455 404.988 638.387 404.958 639.385 405.075C640.382 405.192 641.393 405.524 642.416 406.07C643.437 406.61 644.43 407.433 645.395 408.538C646.359 409.643 647.244 411.099 648.047 412.904C648.826 414.652 649.338 416.242 649.586 417.675C649.838 419.1 649.838 420.347 649.587 421.417C649.342 422.485 648.853 423.359 648.121 424.041C647.396 424.72 646.441 425.186 645.255 425.438C644.076 425.689 642.927 425.695 641.808 425.456C640.692 425.21 639.666 424.759 638.729 424.103C637.796 423.439 637.016 422.606 636.39 421.604L638.899 421.071C639.527 421.926 640.308 422.576 641.242 423.022C642.18 423.461 643.204 423.562 644.314 423.326C645.939 422.98 646.925 422.045 647.274 420.521C647.63 418.994 647.27 417.021 646.192 414.602L646.028 414.637C645.883 415.256 645.634 415.817 645.28 416.32C644.926 416.822 644.474 417.248 643.924 417.596C643.374 417.944 642.735 418.195 642.009 418.35C640.802 418.606 639.571 418.563 638.316 418.22C637.064 417.87 635.919 417.269 634.88 416.418C633.844 415.558 633.045 414.495 632.48 413.228C631.944 412.024 631.742 410.862 631.873 409.741C632.008 408.612 632.468 407.638 633.251 406.82C634.042 406 635.154 405.449 636.589 405.165ZM637.529 407.277C636.665 407.461 635.977 407.828 635.465 408.378C634.956 408.921 634.65 409.574 634.548 410.339C634.45 411.096 634.583 411.884 634.948 412.703C635.313 413.523 635.837 414.228 636.52 414.818C637.207 415.401 637.975 415.819 638.823 416.073C639.676 416.32 640.534 416.351 641.397 416.167C642.048 416.029 642.602 415.782 643.059 415.425C643.513 415.063 643.856 414.629 644.089 414.124C644.326 413.611 644.446 413.063 644.449 412.481C644.45 411.892 644.32 411.307 644.061 410.724C643.719 409.956 643.199 409.278 642.502 408.69C641.812 408.101 641.029 407.672 640.151 407.403C639.28 407.133 638.406 407.091 637.529 407.277ZM655.146 400.505L658.844 425.493L656.623 425.965L652.926 400.977L655.146 400.505ZM667.148 420.49L666.378 418.762L670.165 410.179C670.61 409.173 670.959 408.307 671.214 407.58C671.465 406.847 671.596 406.182 671.608 405.584C671.623 404.978 671.497 404.374 671.229 403.772C670.921 403.081 670.476 402.52 669.895 402.09C669.32 401.659 668.666 401.37 667.934 401.225C667.201 401.079 666.454 401.087 665.694 401.249C664.885 401.421 664.249 401.728 663.785 402.169C663.326 402.603 663.055 403.134 662.974 403.761C662.9 404.386 663.03 405.073 663.363 405.822L660.937 406.338C660.424 405.186 660.258 404.114 660.439 403.122C660.62 402.131 661.093 401.288 661.856 400.593C662.627 399.896 663.625 399.418 664.852 399.157C666.086 398.895 667.288 398.906 668.457 399.19C669.626 399.474 670.666 399.971 671.575 400.682C672.484 401.393 673.164 402.254 673.614 403.265C673.936 403.988 674.111 404.726 674.137 405.477C674.168 406.22 674.029 407.087 673.72 408.078C673.415 409.061 672.928 410.285 672.26 411.751L669.634 417.481L669.703 417.635L679.491 415.554L680.431 417.667L667.148 420.49ZM691.789 415.547C690.919 415.718 689.987 415.748 688.993 415.637C687.998 415.526 686.989 415.197 685.965 414.651C684.939 414.098 683.943 413.269 682.978 412.164C682.011 411.052 681.122 409.588 680.313 407.77C679.537 406.028 679.025 404.448 678.776 403.03C678.525 401.605 678.526 400.361 678.78 399.297C679.032 398.228 679.52 397.353 680.246 396.673C680.978 395.992 681.937 395.526 683.122 395.274C684.301 395.023 685.448 395.021 686.564 395.267C687.683 395.506 688.707 395.954 689.638 396.611C690.568 397.268 691.346 398.088 691.97 399.069L689.461 399.602C688.835 398.768 688.056 398.132 687.125 397.692C686.194 397.252 685.173 397.15 684.063 397.386C682.432 397.733 681.442 398.669 681.092 400.193C680.75 401.717 681.109 403.676 682.168 406.072L682.332 406.037C682.474 405.411 682.723 404.85 683.08 404.354C683.441 403.85 683.896 403.424 684.446 403.075C684.997 402.727 685.632 402.477 686.351 402.324C687.558 402.067 688.787 402.114 690.038 402.465C691.287 402.809 692.432 403.41 693.474 404.268C694.514 405.119 695.315 406.178 695.88 407.446C696.421 408.662 696.626 409.838 696.494 410.973C696.359 412.102 695.896 413.076 695.105 413.896C694.319 414.708 693.213 415.258 691.789 415.547ZM690.848 413.435C691.712 413.251 692.396 412.885 692.902 412.336C693.415 411.785 693.719 411.128 693.815 410.365C693.917 409.601 693.783 408.802 693.412 407.97C693.05 407.157 692.526 406.459 691.839 405.877C691.155 405.286 690.386 404.864 689.531 404.612C688.683 404.358 687.827 404.322 686.963 404.506C686.312 404.644 685.759 404.895 685.306 405.258C684.849 405.614 684.501 406.045 684.261 406.552C684.028 407.057 683.912 407.604 683.911 408.192C683.908 408.775 684.037 409.36 684.299 409.949C684.647 410.73 685.167 411.419 685.86 412.014C686.56 412.608 687.345 413.04 688.216 413.311C689.093 413.58 689.971 413.621 690.848 413.435Z" fill="white"/>
<path d="M765.212 350.822L763.778 351.126C763.522 350.759 763.222 350.452 762.881 350.206C762.542 349.958 762.179 349.767 761.79 349.633C761.403 349.495 761.006 349.414 760.599 349.39C760.192 349.366 759.792 349.396 759.398 349.48C758.681 349.632 758.107 349.939 757.675 350.402C757.248 350.863 757.009 351.46 756.959 352.192C756.913 352.923 757.104 353.767 757.53 354.725C757.957 355.683 758.486 356.455 759.119 357.042C759.755 357.628 760.438 358.029 761.167 358.244C761.9 358.459 762.625 358.49 763.342 358.338C763.735 358.254 764.091 358.123 764.408 357.946C764.726 357.768 764.989 357.548 765.198 357.287C765.409 357.021 765.553 356.721 765.632 356.385C765.712 356.044 765.71 355.674 765.625 355.275L767.059 354.97C767.203 355.558 767.231 356.106 767.145 356.613C767.058 357.12 766.873 357.575 766.588 357.979C766.302 358.379 765.931 358.716 765.475 358.99C765.023 359.264 764.498 359.464 763.9 359.591C762.89 359.806 761.889 359.766 760.897 359.472C759.906 359.179 758.995 358.655 758.165 357.901C757.336 357.147 756.662 356.187 756.142 355.02C755.623 353.853 755.399 352.797 755.472 351.851C755.545 350.906 755.872 350.119 756.453 349.491C757.034 348.863 757.83 348.441 758.84 348.226C759.438 348.099 760.035 348.061 760.631 348.112C761.232 348.162 761.814 348.298 762.377 348.521C762.939 348.741 763.462 349.043 763.947 349.429C764.429 349.811 764.851 350.276 765.212 350.822ZM766.477 346.769L774.139 355.333L774.278 355.304L773.648 345.245L775.152 344.925L775.728 356.911L774.247 357.226L764.973 347.088L766.477 346.769ZM777.482 344.429L785.144 352.994L785.283 352.965L784.654 342.905L786.157 342.586L786.733 354.572L785.253 354.887L775.979 344.749L777.482 344.429Z" fill="white"/>
<path d="M774.932 376.053L783.688 395.719L781.138 396.261L773.494 379.092L773.371 379.118L769.649 383.399L768.572 380.979L772.382 376.595L774.932 376.053ZM789.744 394.432L788.974 392.703L792.761 384.12C793.206 383.115 793.556 382.248 793.81 381.522C794.061 380.789 794.192 380.123 794.204 379.525C794.219 378.919 794.093 378.315 793.825 377.713C793.517 377.022 793.072 376.461 792.491 376.031C791.916 375.6 791.262 375.311 790.53 375.166C789.797 375.02 789.05 375.028 788.29 375.19C787.481 375.362 786.845 375.669 786.381 376.111C785.922 376.545 785.651 377.075 785.57 377.702C785.496 378.328 785.626 379.015 785.959 379.764L783.533 380.279C783.02 379.127 782.854 378.055 783.035 377.064C783.216 376.072 783.689 375.229 784.452 374.534C785.223 373.838 786.222 373.359 787.448 373.098C788.682 372.836 789.884 372.847 791.053 373.131C792.223 373.415 793.262 373.912 794.171 374.623C795.08 375.334 795.76 376.195 796.21 377.206C796.532 377.93 796.707 378.667 796.734 379.418C796.764 380.161 796.625 381.028 796.316 382.019C796.011 383.002 795.524 384.227 794.857 385.693L792.231 391.423L792.299 391.576L802.087 389.496L803.027 391.608L789.744 394.432ZM814.508 389.462C813.151 389.751 811.844 389.79 810.588 389.581C809.339 389.37 808.23 388.943 807.261 388.301C806.297 387.651 805.557 386.817 805.044 385.798L807.635 385.247C807.972 385.869 808.448 386.367 809.065 386.741C809.678 387.108 810.373 387.345 811.149 387.454C811.925 387.562 812.718 387.53 813.527 387.358C814.431 387.166 815.168 386.848 815.736 386.405C816.304 385.962 816.67 385.436 816.834 384.827C816.997 384.217 816.925 383.567 816.618 382.875C816.295 382.152 815.82 381.556 815.191 381.087C814.559 380.611 813.803 380.296 812.923 380.139C812.043 379.983 811.069 380.018 810 380.246L808.313 380.604L807.373 378.492L809.059 378.133C809.895 377.955 810.566 377.659 811.071 377.243C811.583 376.826 811.903 376.323 812.032 375.735C812.167 375.146 812.081 374.506 811.773 373.814C811.477 373.149 811.061 372.603 810.526 372.177C809.991 371.751 809.375 371.462 808.677 371.309C807.985 371.154 807.252 371.159 806.478 371.324C805.751 371.479 805.121 371.749 804.588 372.136C804.059 372.514 803.696 372.98 803.5 373.534C803.301 374.081 803.329 374.684 803.586 375.344L801.118 375.869C800.7 374.829 800.631 373.856 800.91 372.949C801.186 372.035 801.731 371.254 802.544 370.604C803.365 369.954 804.382 369.499 805.595 369.241C806.898 368.964 808.125 368.973 809.276 369.268C810.425 369.557 811.428 370.048 812.284 370.742C813.141 371.435 813.776 372.246 814.189 373.175C814.682 374.282 814.791 375.293 814.515 376.206C814.246 377.118 813.647 377.838 812.718 378.364L812.787 378.518C814.208 378.44 815.481 378.748 816.608 379.44C817.731 380.127 818.57 381.094 819.126 382.342C819.602 383.411 819.718 384.438 819.473 385.422C819.233 386.398 818.686 387.243 817.833 387.957C816.981 388.67 815.872 389.172 814.508 389.462Z" fill="white"/>
<g style="mix-blend-mode:soft-light">
<circle cx="27.287" cy="27.287" r="27.287" transform="matrix(0.978148 -0.207912 0.406737 0.913545 807.66 87.4535)" fill="white"/>
</g>
<g style="mix-blend-mode:soft-light">
<circle cx="27.287" cy="27.287" r="27.287" transform="matrix(0.978148 -0.207912 0.406737 0.913545 843.851 79.7611)" fill="white"/>
</g>
<path d="M406.173 330.688C407.256 330.466 408.421 330.429 409.668 330.576C410.915 330.722 412.178 331.137 413.458 331.82C414.733 332.495 415.974 333.523 417.18 334.904C418.386 336.286 419.492 338.105 420.496 340.362C421.469 342.546 422.11 344.534 422.42 346.325C422.735 348.107 422.735 349.666 422.42 351.003C422.114 352.338 421.504 353.431 420.589 354.283C419.682 355.132 418.488 355.715 417.006 356.03C415.532 356.343 414.096 356.35 412.697 356.052C411.303 355.744 410.02 355.18 408.848 354.361C407.682 353.531 406.707 352.49 405.925 351.237L409.06 350.571C409.846 351.639 410.822 352.452 411.989 353.01C413.162 353.558 414.442 353.684 415.83 353.389C417.86 352.957 419.094 351.789 419.53 349.883C419.975 347.975 419.524 345.509 418.177 342.484L417.972 342.528C417.791 343.302 417.48 344.003 417.037 344.631C416.595 345.26 416.03 345.792 415.342 346.227C414.654 346.662 413.856 346.976 412.948 347.169C411.44 347.49 409.901 347.436 408.332 347.007C406.768 346.569 405.336 345.818 404.037 344.754C402.743 343.68 401.743 342.351 401.038 340.766C400.368 339.262 400.115 337.809 400.279 336.408C400.448 334.997 401.022 333.78 402.001 332.757C402.99 331.732 404.38 331.043 406.173 330.688ZM407.349 333.329C406.269 333.558 405.409 334.017 404.768 334.705C404.132 335.383 403.75 336.2 403.622 337.156C403.499 338.102 403.666 339.087 404.122 340.111C404.578 341.135 405.233 342.016 406.087 342.755C406.946 343.483 407.905 344.006 408.966 344.324C410.032 344.631 411.104 344.671 412.184 344.441C412.998 344.268 413.69 343.959 414.261 343.514C414.828 343.06 415.257 342.518 415.548 341.887C415.844 341.246 415.994 340.561 415.998 339.833C415.999 339.097 415.837 338.365 415.513 337.637C415.085 336.677 414.436 335.829 413.565 335.095C412.703 334.358 411.723 333.822 410.626 333.486C409.538 333.148 408.445 333.095 407.349 333.329ZM440.052 351.131C438.287 351.506 436.598 351.546 434.984 351.249C433.375 350.943 431.964 350.354 430.75 349.482C429.533 348.602 428.633 347.497 428.05 346.167C427.579 345.128 427.37 344.121 427.423 343.146C427.473 342.164 427.752 341.294 428.26 340.538C428.772 339.772 429.472 339.207 430.361 338.843L430.297 338.699C428.902 338.663 427.605 338.216 426.408 337.358C425.206 336.492 424.319 335.406 423.747 334.1C423.183 332.853 423.024 331.665 423.271 330.535C423.519 329.405 424.116 328.429 425.062 327.606C426.017 326.781 427.266 326.204 428.808 325.877C430.333 325.552 431.822 325.547 433.274 325.86C434.727 326.173 436.015 326.749 437.139 327.588C438.271 328.424 439.119 329.466 439.683 330.713C440.256 332.019 440.393 333.264 440.095 334.449C439.802 335.623 439.106 336.494 438.008 337.06L438.072 337.204C439.094 337.162 440.12 337.36 441.15 337.798C442.176 338.228 443.114 338.839 443.964 339.631C444.81 340.414 445.468 341.325 445.94 342.364C446.523 343.694 446.665 344.96 446.365 346.163C446.071 347.355 445.383 348.391 444.301 349.269C443.225 350.137 441.809 350.758 440.052 351.131ZM438.876 348.49C440.067 348.237 441.015 347.839 441.72 347.295C442.425 346.751 442.867 346.1 443.047 345.344C443.226 344.588 443.124 343.768 442.74 342.886C442.318 341.96 441.696 341.194 440.874 340.59C440.051 339.985 439.112 339.571 438.056 339.349C437.009 339.125 435.929 339.131 434.815 339.368C433.692 339.607 432.781 340.024 432.08 340.619C431.388 341.213 430.948 341.92 430.759 342.74C430.579 343.557 430.7 344.43 431.122 345.356C431.505 346.238 432.075 346.958 432.829 347.516C433.593 348.072 434.492 348.437 435.526 348.611C436.56 348.786 437.677 348.745 438.876 348.49ZM433.682 336.823C434.624 336.623 435.381 336.269 435.953 335.763C436.533 335.254 436.892 334.639 437.031 333.917C437.169 333.196 437.054 332.41 436.685 331.56C436.305 330.73 435.773 330.05 435.087 329.522C434.398 328.985 433.615 328.626 432.737 328.444C431.855 328.255 430.931 328.263 429.962 328.469C428.977 328.679 428.193 329.034 427.609 329.534C427.022 330.027 426.666 330.628 426.541 331.338C426.413 332.04 426.538 332.806 426.917 333.636C427.286 334.486 427.817 335.184 428.51 335.729C429.211 336.271 430.009 336.641 430.902 336.836C431.796 337.032 432.722 337.027 433.682 336.823ZM453.773 347.847L452.811 345.686L457.544 334.957C458.1 333.7 458.538 332.618 458.855 331.709C459.169 330.793 459.334 329.961 459.348 329.213C459.367 328.456 459.209 327.701 458.874 326.949C458.489 326.085 457.934 325.384 457.207 324.846C456.488 324.307 455.671 323.946 454.755 323.764C453.84 323.582 452.906 323.592 451.955 323.795C450.944 324.009 450.149 324.393 449.57 324.945C448.995 325.488 448.657 326.151 448.556 326.935C448.463 327.716 448.625 328.575 449.042 329.512L446.009 330.156C445.368 328.716 445.16 327.376 445.387 326.137C445.614 324.897 446.204 323.843 447.159 322.975C448.122 322.104 449.37 321.506 450.904 321.18C452.446 320.852 453.948 320.866 455.41 321.221C456.871 321.576 458.17 322.198 459.307 323.086C460.443 323.974 461.293 325.051 461.856 326.315C462.258 327.219 462.476 328.141 462.51 329.08C462.548 330.009 462.374 331.092 461.988 332.331C461.606 333.559 460.998 335.09 460.164 336.923L456.881 344.085L456.967 344.277L469.202 341.677L470.377 344.317L453.773 347.847ZM473.994 316.64L484.939 341.222L481.751 341.9L472.196 320.438L472.042 320.471L467.39 325.822L466.043 322.797L470.807 317.317L473.994 316.64Z" fill="white"/>
<path d="M508.389 308.961C509.472 308.74 510.637 308.702 511.884 308.849C513.131 308.996 514.394 309.41 515.674 310.093C516.949 310.768 518.19 311.796 519.396 313.178C520.602 314.559 521.708 316.379 522.712 318.635C523.685 320.82 524.326 322.808 524.636 324.599C524.951 326.38 524.951 327.939 524.636 329.276C524.331 330.611 523.72 331.704 522.805 332.556C521.898 333.406 520.704 333.988 519.222 334.303C517.748 334.616 516.312 334.624 514.913 334.325C513.519 334.017 512.236 333.453 511.065 332.634C509.898 331.804 508.923 330.763 508.141 329.511L511.276 328.844C512.062 329.912 513.038 330.725 514.205 331.283C515.378 331.831 516.658 331.957 518.046 331.662C520.076 331.231 521.31 330.062 521.746 328.156C522.191 326.248 521.74 323.782 520.394 320.757L520.188 320.801C520.007 321.575 519.696 322.276 519.253 322.905C518.811 323.533 518.246 324.065 517.558 324.5C516.87 324.935 516.072 325.25 515.164 325.443C513.656 325.763 512.118 325.709 510.548 325.281C508.984 324.842 507.552 324.091 506.253 323.027C504.959 321.953 503.959 320.624 503.254 319.04C502.584 317.535 502.331 316.083 502.495 314.681C502.664 313.27 503.238 312.053 504.217 311.03C505.206 310.006 506.596 309.316 508.389 308.961ZM509.565 311.602C508.485 311.831 507.625 312.29 506.984 312.978C506.348 313.656 505.966 314.473 505.838 315.429C505.715 316.375 505.882 317.36 506.338 318.384C506.794 319.408 507.449 320.29 508.303 321.028C509.162 321.756 510.122 322.279 511.182 322.597C512.248 322.905 513.32 322.944 514.4 322.715C515.214 322.541 515.906 322.232 516.477 321.787C517.044 321.333 517.473 320.791 517.764 320.16C518.06 319.519 518.21 318.834 518.214 318.106C518.215 317.371 518.053 316.639 517.729 315.91C517.302 314.95 516.652 314.103 515.781 313.368C514.919 312.632 513.939 312.095 512.842 311.759C511.754 311.421 510.661 311.369 509.565 311.602ZM542.731 329.306C541.034 329.667 539.401 329.716 537.831 329.454C536.269 329.19 534.883 328.657 533.672 327.855C532.466 327.042 531.542 325.999 530.9 324.726L534.139 324.037C534.56 324.815 535.156 325.437 535.927 325.904C536.694 326.363 537.562 326.66 538.532 326.795C539.502 326.931 540.493 326.891 541.504 326.676C542.635 326.436 543.555 326.039 544.265 325.485C544.975 324.931 545.433 324.273 545.637 323.511C545.842 322.75 545.752 321.937 545.367 321.072C544.965 320.168 544.371 319.423 543.584 318.837C542.795 318.243 541.85 317.848 540.75 317.652C539.65 317.457 538.432 317.501 537.095 317.785L534.987 318.233L533.812 315.593L535.919 315.145C536.965 314.922 537.803 314.552 538.435 314.032C539.075 313.51 539.475 312.882 539.635 312.147C539.804 311.411 539.697 310.61 539.312 309.746C538.941 308.914 538.422 308.232 537.753 307.699C537.085 307.167 536.314 306.805 535.441 306.614C534.577 306.421 533.661 306.427 532.693 306.633C531.784 306.826 530.997 307.164 530.331 307.648C529.669 308.121 529.216 308.704 528.97 309.395C528.721 310.079 528.757 310.833 529.078 311.659L525.993 312.314C525.471 311.015 525.384 309.798 525.733 308.664C526.078 307.522 526.759 306.546 527.776 305.734C528.802 304.92 530.073 304.352 531.59 304.03C533.218 303.684 534.751 303.695 536.191 304.063C537.627 304.424 538.88 305.038 539.951 305.905C541.022 306.772 541.816 307.786 542.332 308.946C542.948 310.331 543.084 311.594 542.739 312.736C542.403 313.876 541.654 314.775 540.494 315.434L540.579 315.626C542.355 315.529 543.947 315.913 545.355 316.779C546.759 317.636 547.809 318.845 548.503 320.406C549.098 321.742 549.243 323.025 548.937 324.255C548.636 325.475 547.953 326.532 546.887 327.424C545.821 328.316 544.436 328.944 542.731 329.306ZM555.04 299.413L565.984 323.995L562.797 324.673L553.242 303.211L553.088 303.244L548.436 308.595L547.089 305.57L551.852 300.091L555.04 299.413ZM571.863 295.837L582.807 320.419L579.62 321.097L570.065 299.636L569.911 299.668L565.259 305.019L563.912 301.994L568.675 296.515L571.863 295.837Z" fill="white"/>
<path d="M609.407 314.766L608.445 312.605L613.179 301.876C613.735 300.619 614.172 299.536 614.49 298.628C614.804 297.712 614.968 296.88 614.982 296.132C615.001 295.375 614.844 294.62 614.509 293.868C614.124 293.003 613.568 292.303 612.841 291.765C612.123 291.226 611.306 290.865 610.39 290.683C609.474 290.501 608.541 290.511 607.59 290.713C606.579 290.928 605.783 291.312 605.204 291.864C604.63 292.407 604.292 293.07 604.19 293.853C604.098 294.635 604.26 295.494 604.677 296.43L601.644 297.075C601.002 295.635 600.795 294.295 601.022 293.055C601.248 291.816 601.839 290.762 602.793 289.893C603.756 289.023 605.004 288.425 606.538 288.099C608.08 287.771 609.582 287.785 611.044 288.14C612.506 288.495 613.805 289.116 614.941 290.005C616.078 290.893 616.927 291.97 617.49 293.234C617.893 294.138 618.111 295.06 618.144 295.999C618.183 296.928 618.009 298.011 617.622 299.25C617.241 300.478 616.633 302.009 615.798 303.842L612.516 311.004L612.601 311.196L624.836 308.595L626.012 311.236L609.407 314.766ZM640.209 308.586C639.122 308.8 637.957 308.837 636.713 308.699C635.47 308.56 634.209 308.149 632.929 307.466C631.646 306.776 630.402 305.739 629.196 304.358C627.986 302.968 626.875 301.137 625.864 298.864C624.895 296.688 624.254 294.713 623.943 292.94C623.628 291.158 623.63 289.603 623.948 288.274C624.263 286.937 624.873 285.844 625.78 284.994C626.695 284.143 627.894 283.56 629.376 283.245C630.85 282.931 632.283 282.929 633.677 283.237C635.076 283.535 636.357 284.095 637.52 284.916C638.683 285.738 639.655 286.762 640.435 287.989L637.3 288.655C636.517 287.613 635.543 286.817 634.379 286.267C633.215 285.718 631.94 285.59 630.552 285.885C628.512 286.319 627.275 287.488 626.838 289.394C626.411 291.298 626.859 293.748 628.183 296.742L628.388 296.699C628.565 295.916 628.877 295.215 629.323 294.595C629.774 293.965 630.343 293.432 631.031 292.997C631.719 292.561 632.512 292.248 633.412 292.057C634.92 291.736 636.456 291.795 638.02 292.234C639.581 292.664 641.013 293.415 642.316 294.487C643.615 295.551 644.617 296.875 645.322 298.46C645.999 299.98 646.255 301.45 646.09 302.869C645.921 304.28 645.342 305.498 644.354 306.523C643.371 307.538 641.989 308.225 640.209 308.586ZM639.033 305.946C640.112 305.716 640.968 305.258 641.601 304.572C642.242 303.884 642.622 303.063 642.741 302.109C642.869 301.154 642.701 300.156 642.238 299.115C641.786 298.099 641.13 297.227 640.271 296.498C639.417 295.76 638.456 295.233 637.386 294.917C636.326 294.6 635.256 294.556 634.176 294.785C633.362 294.958 632.672 295.271 632.105 295.725C631.534 296.17 631.099 296.709 630.799 297.342C630.508 297.974 630.362 298.657 630.362 299.393C630.357 300.121 630.519 300.853 630.847 301.589C631.282 302.565 631.932 303.426 632.798 304.17C633.673 304.913 634.654 305.453 635.742 305.791C636.839 306.127 637.936 306.179 639.033 305.946ZM654.726 305.133L656.815 280.881L656.729 280.689L643.158 283.574L641.982 280.933L658.844 277.349L660.084 280.134L658.068 304.422L654.726 305.133ZM682.6 299.576C681.092 299.896 679.61 299.905 678.152 299.601C676.695 299.298 675.385 298.736 674.222 297.914C673.059 297.093 672.165 296.065 671.541 294.831L674.625 294.176C675.24 295.263 676.19 296.068 677.474 296.592C678.762 297.107 680.079 297.221 681.425 296.935C682.504 296.706 683.359 296.266 683.988 295.615C684.626 294.963 685.002 294.173 685.114 293.247C685.232 292.311 685.058 291.319 684.591 290.271C684.114 289.198 683.435 288.296 682.556 287.563C681.681 286.821 680.698 286.298 679.607 285.996C678.516 285.693 677.407 285.657 676.281 285.888C675.472 286.051 674.697 286.343 673.956 286.763C673.211 287.176 672.646 287.624 672.262 288.109L669.13 288.406L665.337 275.969L679.011 273.062L680.187 275.703L669.186 278.041L671.489 285.488L671.643 285.455C672.004 284.94 672.533 284.464 673.23 284.027C673.926 283.59 674.716 283.278 675.598 283.09C677.209 282.748 678.804 282.803 680.384 283.255C681.97 283.698 683.398 284.463 684.67 285.55C685.95 286.636 686.945 287.975 687.654 289.567C688.352 291.135 688.599 292.616 688.394 294.008C688.193 295.391 687.596 296.578 686.603 297.569C685.605 298.552 684.271 299.221 682.6 299.576Z" fill="white"/>
<path d="M712.866 265.866L723.811 290.448L720.624 291.126L711.069 269.664L710.914 269.697L706.263 275.048L704.916 272.023L709.679 266.543L712.866 265.866ZM729.689 262.29L740.634 286.872L737.447 287.55L727.892 266.088L727.737 266.121L723.086 271.472L721.739 268.447L726.502 262.968L729.689 262.29ZM748.204 285.263L747.242 283.103L751.975 272.374C752.532 271.117 752.969 270.034 753.286 269.126C753.601 268.209 753.765 267.377 753.779 266.63C753.798 265.872 753.64 265.118 753.305 264.365C752.921 263.501 752.365 262.8 751.638 262.263C750.919 261.724 750.102 261.363 749.186 261.181C748.271 260.999 747.337 261.009 746.386 261.211C745.375 261.426 744.58 261.81 744.001 262.362C743.426 262.905 743.088 263.568 742.987 264.351C742.894 265.133 743.056 265.992 743.473 266.928L740.44 267.573C739.799 266.133 739.592 264.793 739.818 263.553C740.045 262.314 740.635 261.26 741.59 260.391C742.553 259.521 743.801 258.923 745.335 258.597C746.877 258.269 748.379 258.283 749.841 258.638C751.302 258.993 752.601 259.614 753.738 260.503C754.874 261.391 755.724 262.467 756.287 263.732C756.69 264.636 756.908 265.558 756.941 266.496C756.98 267.425 756.806 268.509 756.419 269.748C756.038 270.976 755.429 272.507 754.595 274.34L751.312 281.502L751.398 281.694L763.633 279.093L764.808 281.734L748.204 285.263ZM770.116 280.606L769.154 278.445L773.888 267.716C774.444 266.459 774.881 265.377 775.199 264.468C775.513 263.552 775.677 262.72 775.691 261.972C775.71 261.215 775.553 260.46 775.218 259.708C774.833 258.844 774.277 258.143 773.55 257.605C772.832 257.066 772.015 256.705 771.099 256.523C770.183 256.341 769.25 256.351 768.299 256.554C767.288 256.769 766.492 257.152 765.913 257.705C765.339 258.247 765.001 258.91 764.899 259.694C764.807 260.475 764.969 261.335 765.386 262.271L762.353 262.915C761.711 261.475 761.504 260.135 761.731 258.896C761.957 257.656 762.548 256.602 763.502 255.734C764.465 254.863 765.713 254.265 767.247 253.939C768.789 253.611 770.291 253.625 771.753 253.98C773.215 254.335 774.514 254.957 775.65 255.845C776.787 256.733 777.636 257.81 778.199 259.074C778.602 259.978 778.82 260.9 778.853 261.839C778.892 262.768 778.718 263.852 778.331 265.09C777.95 266.319 777.342 267.849 776.507 269.682L773.225 276.844L773.31 277.036L785.545 274.436L786.721 277.076L770.116 280.606Z" fill="white"/>
<g style="mix-blend-mode:multiply" opacity="0.45">
<rect width="61.9738" height="61.9738" transform="matrix(0.978148 -0.207912 0.406737 0.913545 267.998 163.313)" fill="#595959"/>
</g>
<g style="mix-blend-mode:multiply" opacity="0.45">
<rect width="61.9738" height="61.9738" transform="matrix(0.978148 -0.207912 0.406737 0.913545 353.824 207.044)" fill="#595959"/>
</g>
<g style="mix-blend-mode:multiply" opacity="0.45">
<rect width="99.8981" height="61.9738" transform="matrix(0.978148 -0.207912 0.406737 0.913545 386.521 138.12)" fill="#595959"/>
</g>
</g>
</g>
<defs>
<filter id="filter0_dddd_3_547" x="112" y="123.26" width="1062.42" height="885.444" filterUnits="userSpaceOnUse" color-interpolation-filters="sRGB">
<feFlood flood-opacity="0" result="BackgroundImageFix"/>
<feColorMatrix in="SourceAlpha" type="matrix" values="0 0 0 0 0 0 0 0 0 0 0 0 0 0 0 0 0 0 127 0" result="hardAlpha"/>
<feOffset dx="5" dy="16"/>
<feGaussianBlur stdDeviation="18.5"/>
<feColorMatrix type="matrix" values="0 0 0 0 0 0 0 0 0 0 0 0 0 0 0 0 0 0 0.1 0"/>
<feBlend mode="normal" in2="BackgroundImageFix" result="effect1_dropShadow_3_547"/>
<feColorMatrix in="SourceAlpha" type="matrix" values="0 0 0 0 0 0 0 0 0 0 0 0 0 0 0 0 0 0 127 0" result="hardAlpha"/>
<feOffset dx="20" dy="64"/>
<feGaussianBlur stdDeviation="33.5"/>
<feColorMatrix type="matrix" values="0 0 0 0 0 0 0 0 0 0 0 0 0 0 0 0 0 0 0.09 0"/>
<feBlend mode="normal" in2="effect1_dropShadow_3_547" result="effect2_dropShadow_3_547"/>
<feColorMatrix in="SourceAlpha" type="matrix" values="0 0 0 0 0 0 0 0 0 0 0 0 0 0 0 0 0 0 127 0" result="hardAlpha"/>
<feOffset dx="44" dy="144"/>
<feGaussianBlur stdDeviation="45"/>
<feColorMatrix type="matrix" values="0 0 0 0 0 0 0 0 0 0 0 0 0 0 0 0 0 0 0.05 0"/>
<feBlend mode="normal" in2="effect2_dropShadow_3_547" result="effect3_dropShadow_3_547"/>
<feColorMatrix in="SourceAlpha" type="matrix" values="0 0 0 0 0 0 0 0 0 0 0 0 0 0 0 0 0 0 127 0" result="hardAlpha"/>
<feOffset dx="79" dy="256"/>
<feGaussianBlur stdDeviation="53.5"/>
<feColorMatrix type="matrix" values="0 0 0 0 0 0 0 0 0 0 0 0 0 0 0 0 0 0 0.01 0"/>
<feBlend mode="normal" in2="effect3_dropShadow_3_547" result="effect4_dropShadow_3_547"/>
<feBlend mode="normal" in="SourceGraphic" in2="effect4_dropShadow_3_547" result="shape"/>
</filter>
<filter id="filter1_dddd_3_547" x="0.0801392" y="-2.11117" width="1121.31" height="809.593" filterUnits="userSpaceOnUse" color-interpolation-filters="sRGB">
<feFlood flood-opacity="0" result="BackgroundImageFix"/>
<feColorMatrix in="SourceAlpha" type="matrix" values="0 0 0 0 0 0 0 0 0 0 0 0 0 0 0 0 0 0 127 0" result="hardAlpha"/>
<feOffset dx="-10.2716" dy="11.1276"/>
<feGaussianBlur stdDeviation="17.1194"/>
<feColorMatrix type="matrix" values="0 0 0 0 0 0 0 0 0 0 0 0 0 0 0 0 0 0 0.1 0"/>
<feBlend mode="normal" in2="BackgroundImageFix" result="effect1_dropShadow_3_547"/>
<feColorMatrix in="SourceAlpha" type="matrix" values="0 0 0 0 0 0 0 0 0 0 0 0 0 0 0 0 0 0 127 0" result="hardAlpha"/>
<feOffset dx="-41.9425" dy="46.2223"/>
<feGaussianBlur stdDeviation="31.2429"/>
<feColorMatrix type="matrix" values="0 0 0 0 0 0 0 0 0 0 0 0 0 0 0 0 0 0 0.09 0"/>
<feBlend mode="normal" in2="effect1_dropShadow_3_547" result="effect2_dropShadow_3_547"/>
<feColorMatrix in="SourceAlpha" type="matrix" values="0 0 0 0 0 0 0 0 0 0 0 0 0 0 0 0 0 0 127 0" result="hardAlpha"/>
<feOffset dx="-94.1566" dy="103.572"/>
<feGaussianBlur stdDeviation="41.9425"/>
<feColorMatrix type="matrix" values="0 0 0 0 0 0 0 0 0 0 0 0 0 0 0 0 0 0 0.05 0"/>
<feBlend mode="normal" in2="effect2_dropShadow_3_547" result="effect3_dropShadow_3_547"/>
<feColorMatrix in="SourceAlpha" type="matrix" values="0 0 0 0 0 0 0 0 0 0 0 0 0 0 0 0 0 0 127 0" result="hardAlpha"/>
<feOffset dx="-167.77" dy="184.889"/>
<feGaussianBlur stdDeviation="50.0742"/>
<feColorMatrix type="matrix" values="0 0 0 0 0 0 0 0 0 0 0 0 0 0 0 0 0 0 0.01 0"/>
<feBlend mode="normal" in2="effect3_dropShadow_3_547" result="effect4_dropShadow_3_547"/>
<feBlend mode="normal" in="SourceGraphic" in2="effect4_dropShadow_3_547" result="shape"/>
</filter>
<linearGradient id="paint0_linear_3_547" x1="342.244" y1="0" x2="342.244" y2="393.118" gradientUnits="userSpaceOnUse">
<stop stop-color="#CCCCCC"/>
<stop offset="1" stop-color="#666666"/>
</linearGradient>
<radialGradient id="paint1_radial_3_547" cx="0" cy="0" r="1" gradientUnits="userSpaceOnUse" gradientTransform="translate(343.913 33.5588) rotate(90.266) scale(359.563 626.053)">
<stop stop-color="#1FA2F2"/>
<stop offset="1" stop-color="#1A6BDE"/>
</radialGradient>
<clipPath id="clip0_3_547">
<rect width="684.487" height="393.118" rx="16.6497" transform="matrix(0.978148 -0.207912 0.406737 0.913545 159 286.573)" fill="white"/>
</clipPath>
<clipPath id="clip1_3_547">
<rect width="684.487" height="393.118" rx="16.6497" transform="matrix(0.978148 -0.207912 0.406737 0.913545 267.999 163.313)" fill="white"/>
</clipPath>
</defs>
</svg>
