<svg width="708" height="750" viewBox="0 0 708 750" fill="none" xmlns="http://www.w3.org/2000/svg">
<g clip-path="url(#clip0_7_5)">
<rect y="0.592041" width="708" height="748.592" rx="24.544" fill="#F7F8FC"/>
<g filter="url(#filter0_dddd_7_5)">
<rect x="62" y="166.592" width="583.286" height="415.403" rx="53.8086" fill="white"/>
<path d="M260.692 257.503V236.063H254.1V233.663H269.78V236.063H263.252V257.503H260.692ZM278.369 257.887C276.747 257.887 275.275 257.503 273.953 256.735C272.63 255.946 271.574 254.879 270.785 253.535C270.017 252.17 269.633 250.623 269.633 248.895C269.633 247.189 270.017 245.663 270.785 244.319C271.553 242.975 272.587 241.919 273.889 241.151C275.211 240.362 276.705 239.967 278.369 239.967C280.033 239.967 281.515 240.351 282.817 241.119C284.139 241.887 285.174 242.943 285.921 244.287C286.689 245.631 287.073 247.167 287.073 248.895C287.073 250.645 286.678 252.202 285.889 253.567C285.099 254.911 284.043 255.967 282.721 256.735C281.419 257.503 279.969 257.887 278.369 257.887ZM278.369 255.487C279.521 255.487 280.555 255.199 281.473 254.623C282.411 254.047 283.147 253.258 283.681 252.255C284.235 251.253 284.513 250.133 284.513 248.895C284.513 247.658 284.235 246.549 283.681 245.567C283.147 244.586 282.411 243.807 281.473 243.231C280.555 242.655 279.521 242.367 278.369 242.367C277.217 242.367 276.171 242.655 275.233 243.231C274.315 243.807 273.579 244.586 273.025 245.567C272.47 246.549 272.193 247.658 272.193 248.895C272.193 250.133 272.47 251.253 273.025 252.255C273.579 253.258 274.315 254.047 275.233 254.623C276.171 255.199 277.217 255.487 278.369 255.487ZM297.553 257.695C296.017 257.695 294.833 257.247 294.001 256.351C293.169 255.455 292.753 254.175 292.753 252.511V242.751H289.585V240.351H290.385C291.11 240.351 291.686 240.117 292.113 239.647C292.54 239.157 292.753 238.549 292.753 237.823V236.383H295.153V240.351H298.929V242.751H295.153V252.511C295.153 253.087 295.238 253.599 295.409 254.047C295.58 254.474 295.868 254.815 296.273 255.071C296.7 255.327 297.265 255.455 297.969 255.455C298.14 255.455 298.342 255.445 298.577 255.423C298.812 255.402 299.014 255.381 299.185 255.359V257.503C298.929 257.567 298.641 257.61 298.321 257.631C298.001 257.674 297.745 257.695 297.553 257.695ZM308.047 257.887C306.959 257.887 305.988 257.685 305.135 257.279C304.281 256.853 303.609 256.277 303.119 255.551C302.628 254.826 302.383 253.994 302.383 253.055C302.383 252.159 302.575 251.349 302.959 250.623C303.343 249.877 303.94 249.247 304.751 248.735C305.561 248.223 306.596 247.861 307.855 247.647L314.575 246.527V248.703L308.431 249.727C307.193 249.941 306.297 250.335 305.743 250.911C305.209 251.487 304.943 252.17 304.943 252.959C304.943 253.727 305.241 254.378 305.839 254.911C306.457 255.445 307.247 255.711 308.207 255.711C309.38 255.711 310.404 255.466 311.279 254.975C312.153 254.463 312.836 253.781 313.327 252.927C313.817 252.074 314.063 251.125 314.063 250.079V245.727C314.063 244.703 313.689 243.871 312.943 243.231C312.196 242.591 311.225 242.271 310.031 242.271C308.985 242.271 308.068 242.538 307.279 243.071C306.489 243.583 305.903 244.255 305.519 245.087L303.343 243.903C303.663 243.178 304.164 242.517 304.847 241.919C305.551 241.322 306.351 240.853 307.247 240.511C308.143 240.149 309.071 239.967 310.031 239.967C311.289 239.967 312.399 240.213 313.359 240.703C314.34 241.194 315.097 241.877 315.631 242.751C316.185 243.605 316.463 244.597 316.463 245.727V257.503H314.063V254.079L314.415 254.431C314.116 255.071 313.647 255.658 313.007 256.191C312.388 256.703 311.652 257.119 310.799 257.439C309.967 257.738 309.049 257.887 308.047 257.887ZM321.399 257.503V233.279H323.799V257.503H321.399ZM334.501 257.503V233.663H344.517C345.861 233.663 347.024 233.919 348.005 234.431C349.008 234.922 349.776 235.615 350.309 236.511C350.864 237.407 351.141 238.453 351.141 239.647C351.141 240.885 350.832 241.983 350.213 242.943C349.616 243.882 348.752 244.597 347.621 245.087L347.589 244.319C348.528 244.661 349.328 245.141 349.989 245.759C350.672 246.378 351.195 247.103 351.557 247.935C351.92 248.746 352.101 249.621 352.101 250.559C352.101 252.693 351.419 254.389 350.053 255.647C348.709 256.885 346.875 257.503 344.549 257.503H334.501ZM337.061 255.103H344.549C346.064 255.103 347.269 254.709 348.165 253.919C349.083 253.109 349.541 251.999 349.541 250.591C349.541 249.205 349.083 248.106 348.165 247.295C347.269 246.463 346.064 246.047 344.549 246.047H337.061V255.103ZM337.061 243.743H344.325C345.605 243.743 346.629 243.37 347.397 242.623C348.187 241.877 348.581 240.917 348.581 239.743C348.581 238.549 348.187 237.642 347.397 237.023C346.629 236.383 345.605 236.063 344.325 236.063H337.061V243.743ZM361.297 257.887C360.209 257.887 359.238 257.685 358.385 257.279C357.531 256.853 356.859 256.277 356.369 255.551C355.878 254.826 355.633 253.994 355.633 253.055C355.633 252.159 355.825 251.349 356.209 250.623C356.593 249.877 357.19 249.247 358.001 248.735C358.811 248.223 359.846 247.861 361.105 247.647L367.825 246.527V248.703L361.681 249.727C360.443 249.941 359.547 250.335 358.993 250.911C358.459 251.487 358.193 252.17 358.193 252.959C358.193 253.727 358.491 254.378 359.089 254.911C359.707 255.445 360.497 255.711 361.457 255.711C362.63 255.711 363.654 255.466 364.529 254.975C365.403 254.463 366.086 253.781 366.577 252.927C367.067 252.074 367.313 251.125 367.313 250.079V245.727C367.313 244.703 366.939 243.871 366.193 243.231C365.446 242.591 364.475 242.271 363.281 242.271C362.235 242.271 361.318 242.538 360.529 243.071C359.739 243.583 359.153 244.255 358.769 245.087L356.593 243.903C356.913 243.178 357.414 242.517 358.097 241.919C358.801 241.322 359.601 240.853 360.497 240.511C361.393 240.149 362.321 239.967 363.281 239.967C364.539 239.967 365.649 240.213 366.609 240.703C367.59 241.194 368.347 241.877 368.881 242.751C369.435 243.605 369.713 244.597 369.713 245.727V257.503H367.313V254.079L367.665 254.431C367.366 255.071 366.897 255.658 366.257 256.191C365.638 256.703 364.902 257.119 364.049 257.439C363.217 257.738 362.299 257.887 361.297 257.887ZM374.649 257.503V233.279H377.049V257.503H374.649ZM386.922 257.887C385.834 257.887 384.863 257.685 384.01 257.279C383.156 256.853 382.484 256.277 381.994 255.551C381.503 254.826 381.258 253.994 381.258 253.055C381.258 252.159 381.45 251.349 381.834 250.623C382.218 249.877 382.815 249.247 383.626 248.735C384.436 248.223 385.471 247.861 386.73 247.647L393.45 246.527V248.703L387.306 249.727C386.068 249.941 385.172 250.335 384.618 250.911C384.084 251.487 383.818 252.17 383.818 252.959C383.818 253.727 384.116 254.378 384.714 254.911C385.332 255.445 386.122 255.711 387.082 255.711C388.255 255.711 389.279 255.466 390.154 254.975C391.028 254.463 391.711 253.781 392.202 252.927C392.692 252.074 392.938 251.125 392.938 250.079V245.727C392.938 244.703 392.564 243.871 391.818 243.231C391.071 242.591 390.1 242.271 388.906 242.271C387.86 242.271 386.943 242.538 386.154 243.071C385.364 243.583 384.778 244.255 384.394 245.087L382.218 243.903C382.538 243.178 383.039 242.517 383.722 241.919C384.426 241.322 385.226 240.853 386.122 240.511C387.018 240.149 387.946 239.967 388.906 239.967C390.164 239.967 391.274 240.213 392.234 240.703C393.215 241.194 393.972 241.877 394.506 242.751C395.06 243.605 395.338 244.597 395.338 245.727V257.503H392.938V254.079L393.29 254.431C392.991 255.071 392.522 255.658 391.882 256.191C391.263 256.703 390.527 257.119 389.674 257.439C388.842 257.738 387.924 257.887 386.922 257.887ZM400.274 257.503V240.351H402.674V243.679L402.13 243.551C402.557 242.442 403.25 241.567 404.21 240.927C405.192 240.287 406.322 239.967 407.602 239.967C408.818 239.967 409.906 240.245 410.866 240.799C411.848 241.354 412.616 242.122 413.17 243.103C413.746 244.063 414.034 245.151 414.034 246.367V257.503H411.634V247.295C411.634 246.25 411.442 245.365 411.058 244.639C410.696 243.914 410.173 243.359 409.49 242.975C408.829 242.57 408.061 242.367 407.186 242.367C406.312 242.367 405.533 242.57 404.85 242.975C404.168 243.359 403.634 243.925 403.25 244.671C402.866 245.397 402.674 246.271 402.674 247.295V257.503H400.274ZM426.458 257.887C424.773 257.887 423.29 257.493 422.01 256.703C420.73 255.914 419.727 254.847 419.002 253.503C418.277 252.138 417.914 250.602 417.914 248.895C417.914 247.189 418.277 245.663 419.002 244.319C419.727 242.975 420.73 241.919 422.01 241.151C423.29 240.362 424.773 239.967 426.458 239.967C427.525 239.967 428.527 240.159 429.466 240.543C430.405 240.927 431.237 241.45 431.962 242.111C432.687 242.751 433.231 243.498 433.594 244.351L431.418 245.471C430.991 244.554 430.341 243.807 429.466 243.231C428.591 242.655 427.589 242.367 426.458 242.367C425.327 242.367 424.303 242.655 423.386 243.231C422.49 243.786 421.775 244.565 421.242 245.567C420.73 246.549 420.474 247.669 420.474 248.927C420.474 250.165 420.73 251.285 421.242 252.287C421.775 253.269 422.49 254.047 423.386 254.623C424.303 255.199 425.327 255.487 426.458 255.487C427.589 255.487 428.581 255.199 429.434 254.623C430.309 254.047 430.97 253.279 431.418 252.319L433.594 253.503C433.231 254.335 432.687 255.082 431.962 255.743C431.237 256.405 430.405 256.927 429.466 257.311C428.527 257.695 427.525 257.887 426.458 257.887ZM445.613 257.887C444.013 257.887 442.563 257.503 441.261 256.735C439.981 255.946 438.968 254.869 438.221 253.503C437.475 252.138 437.101 250.591 437.101 248.863C437.101 247.135 437.464 245.61 438.189 244.287C438.915 242.943 439.896 241.887 441.133 241.119C442.392 240.351 443.8 239.967 445.357 239.967C446.595 239.967 447.693 240.202 448.653 240.671C449.635 241.119 450.467 241.738 451.149 242.527C451.832 243.295 452.355 244.17 452.717 245.151C453.08 246.111 453.261 247.103 453.261 248.127C453.261 248.341 453.251 248.586 453.229 248.863C453.208 249.119 453.176 249.386 453.133 249.663H438.637V247.423H451.757L450.605 248.383C450.797 247.21 450.659 246.165 450.189 245.247C449.741 244.309 449.091 243.573 448.237 243.039C447.384 242.485 446.424 242.207 445.357 242.207C444.291 242.207 443.299 242.485 442.381 243.039C441.485 243.594 440.781 244.373 440.269 245.375C439.757 246.357 439.555 247.53 439.661 248.895C439.555 250.261 439.768 251.455 440.301 252.479C440.856 253.482 441.603 254.261 442.541 254.815C443.501 255.37 444.525 255.647 445.613 255.647C446.872 255.647 447.928 255.349 448.781 254.751C449.635 254.154 450.328 253.407 450.861 252.511L452.909 253.599C452.568 254.367 452.045 255.082 451.341 255.743C450.637 256.383 449.795 256.906 448.813 257.311C447.853 257.695 446.787 257.887 445.613 257.887Z" fill="#595959"/>
<path d="M236.962 329.505V325.137C231.202 324.369 226.738 320.577 225.058 315.441L229.858 313.425C231.202 316.977 233.746 319.281 236.962 320.001V309.105L234.706 308.385C229.33 306.705 226.45 303.153 226.45 298.545C226.45 292.881 230.77 288.801 236.962 288.417V284.145H240.802V288.609C245.842 289.521 249.682 292.785 251.17 297.153L246.466 299.217C245.41 296.385 243.394 294.465 240.802 293.697V304.689L242.77 305.313C248.482 307.089 251.362 310.257 251.362 315.057C251.362 320.577 247.09 324.609 240.802 325.185V329.505H236.962ZM236.53 303.345L236.962 303.489V293.361C233.986 293.745 232.066 295.569 232.066 298.257C232.066 300.561 233.506 302.433 236.53 303.345ZM241.426 310.497L240.802 310.305V320.193C243.874 319.809 245.794 317.985 245.794 315.441C245.794 312.849 244.258 311.409 241.426 310.497ZM262.472 324.705V293.745H255.608V288.945H268.088V324.705H262.472ZM275.221 324.705V320.625L285.013 310.161C290.725 304.065 292.693 302.001 292.693 298.833C292.693 295.425 290.389 293.409 287.029 293.409C283.573 293.409 280.933 295.425 279.973 299.121L274.981 297.681C276.181 292.017 281.125 288.369 286.981 288.369C293.749 288.369 298.309 292.449 298.309 298.401C298.309 302.337 296.101 305.601 291.349 310.689L282.709 319.905H298.981V324.705H275.221ZM306.069 331.761V329.121C308.181 328.593 309.333 327.201 309.573 324.705H307.029V318.465H312.549V322.545C312.549 327.681 310.341 330.849 306.069 331.761ZM320.859 324.705L336.123 293.745H318.939V288.945H342.027V293.745L327.003 324.705H320.859ZM347.437 324.705L362.701 293.745H345.517V288.945H368.605V293.745L353.581 324.705H347.437ZM384.479 325.281C378.719 325.281 373.679 321.969 372.191 316.737L376.991 314.913C378.239 318.273 381.023 320.241 384.479 320.241C388.655 320.241 391.487 317.745 391.487 313.521C391.487 309.345 388.655 306.945 384.479 306.945C383.327 306.945 382.031 307.137 381.167 307.473L379.919 304.833L389.327 293.745H374.111V288.945H395.663V293.505L387.887 302.865C393.455 303.585 397.151 307.617 397.151 313.377C397.151 320.145 391.823 325.281 384.479 325.281ZM405.327 324.705V318.465H410.847V324.705H405.327ZM433.631 325.281C425.135 325.281 419.327 317.841 419.327 306.801C419.327 295.713 425.087 288.369 433.583 288.369C442.127 288.369 447.839 295.761 447.839 306.801C447.839 317.841 442.175 325.281 433.631 325.281ZM433.631 320.097C438.911 320.097 442.223 314.961 442.223 306.801C442.223 298.689 438.911 293.505 433.583 293.505C428.303 293.505 424.991 298.641 424.991 306.801C424.991 314.913 428.303 320.097 433.631 320.097ZM467.991 325.281C459.495 325.281 453.687 317.841 453.687 306.801C453.687 295.713 459.447 288.369 467.943 288.369C476.487 288.369 482.199 295.761 482.199 306.801C482.199 317.841 476.535 325.281 467.991 325.281ZM467.991 320.097C473.271 320.097 476.583 314.961 476.583 306.801C476.583 298.689 473.271 293.505 467.943 293.505C462.663 293.505 459.351 298.641 459.351 306.801C459.351 314.913 462.663 320.097 467.991 320.097Z" fill="#191A1F"/>
<circle cx="175.749" cy="434.237" r="46.8379" fill="url(#paint0_radial_7_5)"/>
<mask id="mask0_7_5" style="mask-type:alpha" maskUnits="userSpaceOnUse" x="155" y="414" width="41" height="41">
<rect x="155.676" y="414.164" width="40.1468" height="40.1468" fill="#D9D9D9"/>
</mask>
<g mask="url(#mask0_7_5)">
<path d="M174.076 435.91H164.04V432.565H174.076V422.528H177.422V432.565H187.459V435.91H177.422V445.947H174.076V435.91Z" fill="white"/>
</g>
<circle cx="294.516" cy="434.237" r="46.8379" fill="#F7F8FC"/>
<mask id="mask1_7_5" style="mask-type:alpha" maskUnits="userSpaceOnUse" x="274" y="414" width="41" height="41">
<rect x="274.443" y="414.164" width="40.1468" height="40.1468" fill="#D9D9D9"/>
</mask>
<g mask="url(#mask1_7_5)">
<path d="M285.149 444.274L282.807 441.932L298.866 425.873H284.48V422.528H304.553V442.601H301.208V428.215L285.149 444.274Z" fill="#191A1F"/>
</g>
<circle cx="413.284" cy="434.237" r="46.8379" fill="#F7F8FC"/>
<mask id="mask2_7_5" style="mask-type:alpha" maskUnits="userSpaceOnUse" x="393" y="414" width="41" height="41">
<rect x="393.211" y="414.164" width="40.1468" height="40.1468" fill="#D9D9D9"/>
</mask>
<g mask="url(#mask2_7_5)">
<path d="M422.652 444.274L406.593 428.215V442.601H403.248V422.528H423.321V425.873H408.935L424.994 441.932L422.652 444.274Z" fill="#191A1F"/>
</g>
<circle cx="532.052" cy="434.237" r="46.8379" fill="#F7F8FC"/>
<mask id="mask3_7_5" style="mask-type:alpha" maskUnits="userSpaceOnUse" x="511" y="414" width="42" height="41">
<rect x="511.979" y="414.164" width="40.1468" height="40.1468" fill="#D9D9D9"/>
</mask>
<g mask="url(#mask3_7_5)">
<path d="M532.052 447.619C531.132 447.619 530.344 447.292 529.689 446.637C529.034 445.982 528.706 445.194 528.706 444.274C528.706 443.354 529.034 442.566 529.689 441.911C530.344 441.256 531.132 440.928 532.052 440.928C532.972 440.928 533.759 441.256 534.415 441.911C535.07 442.566 535.397 443.354 535.397 444.274C535.397 445.194 535.07 445.982 534.415 446.637C533.759 447.292 532.972 447.619 532.052 447.619ZM532.052 437.583C531.132 437.583 530.344 437.255 529.689 436.6C529.034 435.945 528.706 435.157 528.706 434.237C528.706 433.317 529.034 432.53 529.689 431.874C530.344 431.219 531.132 430.892 532.052 430.892C532.972 430.892 533.759 431.219 534.415 431.874C535.07 432.53 535.397 433.317 535.397 434.237C535.397 435.157 535.07 435.945 534.415 436.6C533.759 437.255 532.972 437.583 532.052 437.583ZM532.052 427.546C531.132 427.546 530.344 427.219 529.689 426.563C529.034 425.908 528.706 425.121 528.706 424.201C528.706 423.281 529.034 422.493 529.689 421.838C530.344 421.183 531.132 420.855 532.052 420.855C532.972 420.855 533.759 421.183 534.415 421.838C535.07 422.493 535.397 423.281 535.397 424.201C535.397 425.121 535.07 425.908 534.415 426.563C533.759 427.219 532.972 427.546 532.052 427.546Z" fill="#191A1F"/>
</g>
<path d="M152.666 515.803L159.194 497.923H161.258L167.786 515.803H165.77L164.234 511.435H156.242L154.682 515.803H152.666ZM156.866 509.635H163.562L159.938 499.363H160.514L156.866 509.635ZM175.245 516.091C174.045 516.091 172.965 515.803 172.005 515.227C171.045 514.635 170.285 513.835 169.725 512.827C169.181 511.803 168.909 510.651 168.909 509.371C168.909 508.075 169.181 506.923 169.725 505.915C170.285 504.907 171.037 504.115 171.981 503.539C172.941 502.947 174.029 502.651 175.245 502.651C176.349 502.651 177.333 502.891 178.197 503.371C179.061 503.851 179.741 504.499 180.237 505.315L179.949 505.819V497.635H181.749V515.803H179.949V512.923L180.237 513.187C179.789 514.115 179.117 514.835 178.221 515.347C177.341 515.843 176.349 516.091 175.245 516.091ZM175.341 514.291C176.205 514.291 176.981 514.075 177.669 513.643C178.373 513.211 178.925 512.627 179.325 511.891C179.741 511.139 179.949 510.299 179.949 509.371C179.949 508.443 179.741 507.611 179.325 506.875C178.925 506.123 178.373 505.531 177.669 505.099C176.981 504.667 176.205 504.451 175.341 504.451C174.493 504.451 173.725 504.667 173.037 505.099C172.349 505.531 171.805 506.115 171.405 506.851C171.021 507.587 170.829 508.427 170.829 509.371C170.829 510.299 171.021 511.139 171.405 511.891C171.805 512.627 172.341 513.211 173.013 513.643C173.701 514.075 174.477 514.291 175.341 514.291ZM191.253 516.091C190.053 516.091 188.973 515.803 188.013 515.227C187.053 514.635 186.293 513.835 185.733 512.827C185.189 511.803 184.917 510.651 184.917 509.371C184.917 508.075 185.189 506.923 185.733 505.915C186.293 504.907 187.045 504.115 187.989 503.539C188.949 502.947 190.037 502.651 191.253 502.651C192.357 502.651 193.341 502.891 194.205 503.371C195.069 503.851 195.749 504.499 196.245 505.315L195.957 505.819V497.635H197.757V515.803H195.957V512.923L196.245 513.187C195.797 514.115 195.125 514.835 194.229 515.347C193.349 515.843 192.357 516.091 191.253 516.091ZM191.349 514.291C192.213 514.291 192.989 514.075 193.677 513.643C194.381 513.211 194.933 512.627 195.333 511.891C195.749 511.139 195.957 510.299 195.957 509.371C195.957 508.443 195.749 507.611 195.333 506.875C194.933 506.123 194.381 505.531 193.677 505.099C192.989 504.667 192.213 504.451 191.349 504.451C190.501 504.451 189.733 504.667 189.045 505.099C188.357 505.531 187.813 506.115 187.413 506.851C187.029 507.587 186.837 508.427 186.837 509.371C186.837 510.299 187.029 511.139 187.413 511.891C187.813 512.627 188.349 513.211 189.021 513.643C189.709 514.075 190.485 514.291 191.349 514.291Z" fill="#191A1F"/>
<path d="M272.692 516.091C271.556 516.091 270.524 515.875 269.596 515.443C268.668 515.011 267.884 514.435 267.244 513.715C266.604 512.979 266.148 512.171 265.876 511.291L267.604 510.643C268.02 511.859 268.668 512.787 269.548 513.427C270.428 514.051 271.476 514.363 272.692 514.363C273.46 514.363 274.132 514.243 274.708 514.003C275.3 513.747 275.756 513.395 276.076 512.947C276.396 512.499 276.556 511.979 276.556 511.387C276.556 510.507 276.316 509.827 275.836 509.347C275.356 508.867 274.668 508.499 273.772 508.243L270.556 507.283C269.292 506.915 268.316 506.299 267.628 505.435C266.956 504.571 266.62 503.587 266.62 502.483C266.62 501.539 266.852 500.707 267.316 499.987C267.78 499.251 268.412 498.675 269.212 498.259C270.028 497.843 270.948 497.635 271.972 497.635C273.044 497.635 274.004 497.835 274.852 498.235C275.716 498.619 276.444 499.131 277.036 499.771C277.628 500.411 278.052 501.123 278.308 501.907L276.628 502.579C276.244 501.523 275.644 500.723 274.828 500.179C274.028 499.635 273.084 499.363 271.996 499.363C271.308 499.363 270.7 499.483 270.172 499.723C269.66 499.963 269.26 500.307 268.972 500.755C268.684 501.203 268.54 501.731 268.54 502.339C268.54 503.075 268.772 503.739 269.236 504.331C269.7 504.907 270.412 505.339 271.372 505.627L274.204 506.467C275.612 506.883 276.676 507.483 277.396 508.267C278.116 509.051 278.476 510.035 278.476 511.219C278.476 512.179 278.228 513.027 277.732 513.763C277.252 514.483 276.572 515.051 275.692 515.467C274.828 515.883 273.828 516.091 272.692 516.091ZM287.776 516.091C286.576 516.091 285.488 515.803 284.512 515.227C283.552 514.635 282.792 513.827 282.232 512.803C281.672 511.779 281.392 510.619 281.392 509.323C281.392 508.027 281.664 506.883 282.208 505.891C282.752 504.883 283.488 504.091 284.416 503.515C285.36 502.939 286.416 502.651 287.584 502.651C288.512 502.651 289.336 502.827 290.056 503.179C290.792 503.515 291.416 503.979 291.928 504.571C292.44 505.147 292.832 505.803 293.104 506.539C293.376 507.259 293.512 508.003 293.512 508.771C293.512 508.931 293.504 509.115 293.488 509.323C293.472 509.515 293.448 509.715 293.416 509.923H282.544V508.243H292.384L291.52 508.963C291.664 508.083 291.56 507.299 291.208 506.611C290.872 505.907 290.384 505.355 289.744 504.955C289.104 504.539 288.384 504.331 287.584 504.331C286.784 504.331 286.04 504.539 285.352 504.955C284.68 505.371 284.152 505.955 283.768 506.707C283.384 507.443 283.232 508.323 283.312 509.347C283.232 510.371 283.392 511.267 283.792 512.035C284.208 512.787 284.768 513.371 285.472 513.787C286.192 514.203 286.96 514.411 287.776 514.411C288.72 514.411 289.512 514.187 290.152 513.739C290.792 513.291 291.312 512.731 291.712 512.059L293.248 512.875C292.992 513.451 292.6 513.987 292.072 514.483C291.544 514.963 290.912 515.355 290.176 515.659C289.456 515.947 288.656 516.091 287.776 516.091ZM296.685 515.803V502.939H298.485V505.435L298.077 505.339C298.397 504.507 298.917 503.851 299.637 503.371C300.373 502.891 301.221 502.651 302.181 502.651C303.093 502.651 303.909 502.859 304.629 503.275C305.365 503.691 305.941 504.267 306.357 505.003C306.789 505.723 307.005 506.539 307.005 507.451V515.803H305.205V508.147C305.205 507.363 305.061 506.699 304.773 506.155C304.501 505.611 304.109 505.195 303.597 504.907C303.101 504.603 302.525 504.451 301.869 504.451C301.213 504.451 300.629 504.603 300.117 504.907C299.605 505.195 299.205 505.619 298.917 506.179C298.629 506.723 298.485 507.379 298.485 508.147V515.803H296.685ZM316.251 516.091C315.051 516.091 313.971 515.803 313.011 515.227C312.051 514.635 311.291 513.835 310.731 512.827C310.187 511.803 309.915 510.651 309.915 509.371C309.915 508.075 310.187 506.923 310.731 505.915C311.291 504.907 312.043 504.115 312.987 503.539C313.947 502.947 315.035 502.651 316.251 502.651C317.355 502.651 318.339 502.891 319.203 503.371C320.067 503.851 320.747 504.499 321.243 505.315L320.955 505.819V497.635H322.755V515.803H320.955V512.923L321.243 513.187C320.795 514.115 320.123 514.835 319.227 515.347C318.347 515.843 317.355 516.091 316.251 516.091ZM316.347 514.291C317.211 514.291 317.987 514.075 318.675 513.643C319.379 513.211 319.931 512.627 320.331 511.891C320.747 511.139 320.955 510.299 320.955 509.371C320.955 508.443 320.747 507.611 320.331 506.875C319.931 506.123 319.379 505.531 318.675 505.099C317.987 504.667 317.211 504.451 316.347 504.451C315.499 504.451 314.731 504.667 314.043 505.099C313.355 505.531 312.811 506.115 312.411 506.851C312.027 507.587 311.835 508.427 311.835 509.371C311.835 510.299 312.027 511.139 312.411 511.891C312.811 512.627 313.347 513.211 314.019 513.643C314.707 514.075 315.483 514.291 316.347 514.291Z" fill="#191A1F"/>
<path d="M369.911 515.803V497.923H376.055C377.223 497.923 378.247 498.155 379.127 498.619C380.007 499.067 380.687 499.707 381.167 500.539C381.663 501.355 381.911 502.307 381.911 503.395C381.911 504.659 381.575 505.739 380.903 506.635C380.247 507.531 379.351 508.163 378.215 508.531L382.391 515.803H380.135L375.767 508.099L377.063 508.843H371.831V515.803H369.911ZM371.831 507.043H376.151C376.919 507.043 377.591 506.899 378.167 506.611C378.743 506.307 379.191 505.883 379.511 505.339C379.831 504.779 379.991 504.123 379.991 503.371C379.991 502.619 379.831 501.971 379.511 501.427C379.191 500.883 378.743 500.467 378.167 500.179C377.591 499.875 376.919 499.723 376.151 499.723H371.831V507.043ZM390.152 516.091C388.952 516.091 387.864 515.803 386.888 515.227C385.928 514.635 385.168 513.827 384.608 512.803C384.048 511.779 383.768 510.619 383.768 509.323C383.768 508.027 384.04 506.883 384.584 505.891C385.128 504.883 385.864 504.091 386.792 503.515C387.736 502.939 388.792 502.651 389.96 502.651C390.888 502.651 391.712 502.827 392.432 503.179C393.168 503.515 393.792 503.979 394.304 504.571C394.816 505.147 395.208 505.803 395.48 506.539C395.752 507.259 395.888 508.003 395.888 508.771C395.888 508.931 395.88 509.115 395.864 509.323C395.848 509.515 395.824 509.715 395.792 509.923H384.92V508.243H394.76L393.896 508.963C394.04 508.083 393.936 507.299 393.584 506.611C393.248 505.907 392.76 505.355 392.12 504.955C391.48 504.539 390.76 504.331 389.96 504.331C389.16 504.331 388.416 504.539 387.728 504.955C387.056 505.371 386.528 505.955 386.144 506.707C385.76 507.443 385.608 508.323 385.688 509.347C385.608 510.371 385.768 511.267 386.168 512.035C386.584 512.787 387.144 513.371 387.848 513.787C388.568 514.203 389.336 514.411 390.152 514.411C391.096 514.411 391.888 514.187 392.528 513.739C393.168 513.291 393.688 512.731 394.088 512.059L395.624 512.875C395.368 513.451 394.976 513.987 394.448 514.483C393.92 514.963 393.288 515.355 392.552 515.659C391.832 515.947 391.032 516.091 390.152 516.091ZM404.942 516.091C403.678 516.091 402.566 515.795 401.606 515.203C400.646 514.611 399.894 513.811 399.35 512.803C398.806 511.779 398.534 510.627 398.534 509.347C398.534 508.067 398.806 506.923 399.35 505.915C399.894 504.907 400.646 504.115 401.606 503.539C402.566 502.947 403.678 502.651 404.942 502.651C405.742 502.651 406.494 502.795 407.198 503.083C407.902 503.371 408.526 503.763 409.07 504.259C409.614 504.739 410.022 505.299 410.294 505.939L408.662 506.779C408.342 506.091 407.854 505.531 407.198 505.099C406.542 504.667 405.79 504.451 404.942 504.451C404.094 504.451 403.326 504.667 402.638 505.099C401.966 505.515 401.43 506.099 401.03 506.851C400.646 507.587 400.454 508.427 400.454 509.371C400.454 510.299 400.646 511.139 401.03 511.891C401.43 512.627 401.966 513.211 402.638 513.643C403.326 514.075 404.094 514.291 404.942 514.291C405.79 514.291 406.534 514.075 407.174 513.643C407.83 513.211 408.326 512.635 408.662 511.915L410.294 512.803C410.022 513.427 409.614 513.987 409.07 514.483C408.526 514.979 407.902 515.371 407.198 515.659C406.494 515.947 405.742 516.091 404.942 516.091ZM419.308 516.091C418.108 516.091 417.02 515.803 416.044 515.227C415.084 514.635 414.324 513.827 413.764 512.803C413.204 511.779 412.924 510.619 412.924 509.323C412.924 508.027 413.196 506.883 413.74 505.891C414.284 504.883 415.02 504.091 415.948 503.515C416.892 502.939 417.948 502.651 419.116 502.651C420.044 502.651 420.868 502.827 421.588 503.179C422.324 503.515 422.948 503.979 423.46 504.571C423.972 505.147 424.364 505.803 424.636 506.539C424.908 507.259 425.044 508.003 425.044 508.771C425.044 508.931 425.036 509.115 425.02 509.323C425.004 509.515 424.98 509.715 424.948 509.923H414.076V508.243H423.916L423.052 508.963C423.196 508.083 423.092 507.299 422.74 506.611C422.404 505.907 421.916 505.355 421.276 504.955C420.636 504.539 419.916 504.331 419.116 504.331C418.316 504.331 417.572 504.539 416.884 504.955C416.212 505.371 415.684 505.955 415.3 506.707C414.916 507.443 414.764 508.323 414.844 509.347C414.764 510.371 414.924 511.267 415.324 512.035C415.74 512.787 416.3 513.371 417.004 513.787C417.724 514.203 418.492 514.411 419.308 514.411C420.252 514.411 421.044 514.187 421.684 513.739C422.324 513.291 422.844 512.731 423.244 512.059L424.78 512.875C424.524 513.451 424.132 513.987 423.604 514.483C423.076 514.963 422.444 515.355 421.708 515.659C420.988 515.947 420.188 516.091 419.308 516.091ZM428.218 515.803V502.939H430.018V515.803H428.218ZM428.218 500.563V497.923H430.018V500.563H428.218ZM437.134 515.803L432.118 502.939H434.134L438.358 514.219H437.71L441.958 502.939H443.998L438.934 515.803H437.134ZM451.722 516.091C450.522 516.091 449.434 515.803 448.458 515.227C447.498 514.635 446.738 513.827 446.178 512.803C445.618 511.779 445.338 510.619 445.338 509.323C445.338 508.027 445.61 506.883 446.154 505.891C446.698 504.883 447.434 504.091 448.362 503.515C449.306 502.939 450.362 502.651 451.53 502.651C452.458 502.651 453.282 502.827 454.002 503.179C454.738 503.515 455.362 503.979 455.874 504.571C456.386 505.147 456.778 505.803 457.05 506.539C457.322 507.259 457.458 508.003 457.458 508.771C457.458 508.931 457.45 509.115 457.434 509.323C457.418 509.515 457.394 509.715 457.362 509.923H446.49V508.243H456.33L455.466 508.963C455.61 508.083 455.506 507.299 455.154 506.611C454.818 505.907 454.33 505.355 453.69 504.955C453.05 504.539 452.33 504.331 451.53 504.331C450.73 504.331 449.986 504.539 449.298 504.955C448.626 505.371 448.098 505.955 447.714 506.707C447.33 507.443 447.178 508.323 447.258 509.347C447.178 510.371 447.338 511.267 447.738 512.035C448.154 512.787 448.714 513.371 449.418 513.787C450.138 514.203 450.906 514.411 451.722 514.411C452.666 514.411 453.458 514.187 454.098 513.739C454.738 513.291 455.258 512.731 455.658 512.059L457.194 512.875C456.938 513.451 456.546 513.987 456.018 514.483C455.49 514.963 454.858 515.355 454.122 515.659C453.402 515.947 452.602 516.091 451.722 516.091Z" fill="#191A1F"/>
<path d="M506.567 515.803V497.923H508.247L514.967 507.667H514.031L520.727 497.923H522.407V515.803H520.487V500.515L521.111 500.755L514.535 510.283H514.439L507.887 500.755L508.487 500.515V515.803H506.567ZM532.39 516.091C531.174 516.091 530.07 515.803 529.078 515.227C528.086 514.635 527.294 513.835 526.702 512.827C526.126 511.803 525.838 510.643 525.838 509.347C525.838 508.067 526.126 506.923 526.702 505.915C527.278 504.907 528.054 504.115 529.03 503.539C530.022 502.947 531.142 502.651 532.39 502.651C533.638 502.651 534.75 502.939 535.726 503.515C536.718 504.091 537.494 504.883 538.054 505.891C538.63 506.899 538.918 508.051 538.918 509.347C538.918 510.659 538.622 511.827 538.03 512.851C537.438 513.859 536.646 514.651 535.654 515.227C534.678 515.803 533.59 516.091 532.39 516.091ZM532.39 514.291C533.254 514.291 534.03 514.075 534.718 513.643C535.422 513.211 535.974 512.619 536.374 511.867C536.79 511.115 536.998 510.275 536.998 509.347C536.998 508.419 536.79 507.587 536.374 506.851C535.974 506.115 535.422 505.531 534.718 505.099C534.03 504.667 533.254 504.451 532.39 504.451C531.526 504.451 530.742 504.667 530.038 505.099C529.35 505.531 528.798 506.115 528.382 506.851C527.966 507.587 527.758 508.419 527.758 509.347C527.758 510.275 527.966 511.115 528.382 511.867C528.798 512.619 529.35 513.211 530.038 513.643C530.742 514.075 531.526 514.291 532.39 514.291ZM542.092 515.803V502.939H543.892V505.051L543.652 504.739C543.956 504.131 544.412 503.651 545.02 503.299C545.644 502.947 546.396 502.771 547.276 502.771H548.092V504.571H546.964C546.036 504.571 545.292 504.859 544.732 505.435C544.172 506.011 543.892 506.827 543.892 507.883V515.803H542.092ZM556.058 516.091C554.858 516.091 553.77 515.803 552.794 515.227C551.834 514.635 551.074 513.827 550.514 512.803C549.954 511.779 549.674 510.619 549.674 509.323C549.674 508.027 549.946 506.883 550.49 505.891C551.034 504.883 551.77 504.091 552.698 503.515C553.642 502.939 554.698 502.651 555.866 502.651C556.794 502.651 557.618 502.827 558.338 503.179C559.074 503.515 559.698 503.979 560.21 504.571C560.722 505.147 561.114 505.803 561.386 506.539C561.658 507.259 561.794 508.003 561.794 508.771C561.794 508.931 561.786 509.115 561.77 509.323C561.754 509.515 561.73 509.715 561.698 509.923H550.826V508.243H560.666L559.802 508.963C559.946 508.083 559.842 507.299 559.49 506.611C559.154 505.907 558.666 505.355 558.026 504.955C557.386 504.539 556.666 504.331 555.866 504.331C555.066 504.331 554.322 504.539 553.634 504.955C552.962 505.371 552.434 505.955 552.05 506.707C551.666 507.443 551.514 508.323 551.594 509.347C551.514 510.371 551.674 511.267 552.074 512.035C552.49 512.787 553.05 513.371 553.754 513.787C554.474 514.203 555.242 514.411 556.058 514.411C557.002 514.411 557.794 514.187 558.434 513.739C559.074 513.291 559.594 512.731 559.994 512.059L561.53 512.875C561.274 513.451 560.882 513.987 560.354 514.483C559.826 514.963 559.194 515.355 558.458 515.659C557.738 515.947 556.938 516.091 556.058 516.091Z" fill="#191A1F"/>
<mask id="mask4_7_5" style="mask-type:alpha" maskUnits="userSpaceOnUse" x="520" y="297" width="26" height="26">
<rect x="520.342" y="297.069" width="25.0917" height="25.0917" fill="#D9D9D9"/>
</mask>
<g mask="url(#mask4_7_5)">
<path d="M535.398 311.166L533.888 309.648C534.044 308.828 533.81 308.061 533.185 307.345C532.56 306.63 531.753 306.351 530.763 306.508L529.253 304.99C529.548 304.85 529.848 304.745 530.151 304.676C530.455 304.606 530.781 304.571 531.128 304.571C532.43 304.571 533.536 305.029 534.448 305.945C535.359 306.861 535.815 307.973 535.815 309.282C535.815 309.631 535.78 309.958 535.711 310.263C535.641 310.569 535.537 310.87 535.398 311.166ZM538.731 314.464L537.221 312.998C537.881 312.492 538.467 311.938 538.979 311.336C539.491 310.734 539.929 310.05 540.294 309.282C539.426 307.52 538.18 306.119 536.557 305.081C534.934 304.043 533.124 303.524 531.128 303.524C530.624 303.524 530.13 303.559 529.644 303.629C529.157 303.699 528.68 303.803 528.211 303.943L526.597 302.32C527.309 302.024 528.038 301.801 528.784 301.653C529.531 301.504 530.312 301.43 531.128 301.43C533.749 301.43 536.084 302.159 538.132 303.616C540.181 305.073 541.665 306.961 542.585 309.282C542.186 310.311 541.661 311.267 541.01 312.148C540.359 313.029 539.599 313.801 538.731 314.464ZM539.252 320.902L534.877 316.558C534.27 316.75 533.658 316.894 533.042 316.99C532.425 317.086 531.787 317.134 531.128 317.134C528.506 317.134 526.172 316.405 524.123 314.948C522.075 313.491 520.59 311.603 519.67 309.282C520.035 308.357 520.495 307.498 521.051 306.704C521.606 305.91 522.24 305.199 522.951 304.571L520.087 301.64L521.545 300.174L540.71 319.437L539.252 320.902ZM524.41 306.037C523.906 306.49 523.446 306.988 523.03 307.528C522.613 308.069 522.257 308.654 521.962 309.282C522.83 311.044 524.075 312.444 525.699 313.483C527.322 314.521 529.131 315.04 531.128 315.04C531.475 315.04 531.814 315.018 532.143 314.974C532.473 314.931 532.812 314.883 533.159 314.83L532.221 313.836C532.031 313.888 531.848 313.927 531.675 313.954C531.501 313.98 531.319 313.993 531.128 313.993C529.826 313.993 528.719 313.535 527.808 312.619C526.896 311.703 526.441 310.591 526.441 309.282C526.441 309.09 526.454 308.907 526.48 308.732C526.506 308.558 526.545 308.375 526.597 308.183L524.41 306.037Z" fill="#595959"/>
</g>
</g>
</g>
<defs>
<filter id="filter0_dddd_7_5" x="39.0448" y="146.187" width="828.141" height="690.865" filterUnits="userSpaceOnUse" color-interpolation-filters="sRGB">
<feFlood flood-opacity="0" result="BackgroundImageFix"/>
<feColorMatrix in="SourceAlpha" type="matrix" values="0 0 0 0 0 0 0 0 0 0 0 0 0 0 0 0 0 0 127 0" result="hardAlpha"/>
<feOffset dx="7.65174" dy="10.2023"/>
<feGaussianBlur stdDeviation="15.3035"/>
<feColorMatrix type="matrix" values="0 0 0 0 0.631373 0 0 0 0 0.631373 0 0 0 0 0.631373 0 0 0 0.1 0"/>
<feBlend mode="normal" in2="BackgroundImageFix" result="effect1_dropShadow_7_5"/>
<feColorMatrix in="SourceAlpha" type="matrix" values="0 0 0 0 0 0 0 0 0 0 0 0 0 0 0 0 0 0 127 0" result="hardAlpha"/>
<feOffset dx="33.1575" dy="43.3598"/>
<feGaussianBlur stdDeviation="26.7811"/>
<feColorMatrix type="matrix" values="0 0 0 0 0.631373 0 0 0 0 0.631373 0 0 0 0 0.631373 0 0 0 0.09 0"/>
<feBlend mode="normal" in2="effect1_dropShadow_7_5" result="effect2_dropShadow_7_5"/>
<feColorMatrix in="SourceAlpha" type="matrix" values="0 0 0 0 0 0 0 0 0 0 0 0 0 0 0 0 0 0 127 0" result="hardAlpha"/>
<feOffset dx="76.5174" dy="94.3714"/>
<feGaussianBlur stdDeviation="36.9834"/>
<feColorMatrix type="matrix" values="0 0 0 0 0.631373 0 0 0 0 0.631373 0 0 0 0 0.631373 0 0 0 0.05 0"/>
<feBlend mode="normal" in2="effect2_dropShadow_7_5" result="effect3_dropShadow_7_5"/>
<feColorMatrix in="SourceAlpha" type="matrix" values="0 0 0 0 0 0 0 0 0 0 0 0 0 0 0 0 0 0 127 0" result="hardAlpha"/>
<feOffset dx="135.181" dy="168.338"/>
<feGaussianBlur stdDeviation="43.3598"/>
<feColorMatrix type="matrix" values="0 0 0 0 0.631373 0 0 0 0 0.631373 0 0 0 0 0.631373 0 0 0 0.01 0"/>
<feBlend mode="normal" in2="effect3_dropShadow_7_5" result="effect4_dropShadow_7_5"/>
<feBlend mode="normal" in="SourceGraphic" in2="effect4_dropShadow_7_5" result="shape"/>
</filter>
<radialGradient id="paint0_radial_7_5" cx="0" cy="0" r="1" gradientUnits="userSpaceOnUse" gradientTransform="translate(175.978 395.396) rotate(90.1528) scale(85.6794)">
<stop stop-color="#1FA2F2"/>
<stop offset="1" stop-color="#1A6BDE"/>
</radialGradient>
<clipPath id="clip0_7_5">
<rect y="0.592041" width="708" height="748.592" rx="24.544" fill="white"/>
</clipPath>
</defs>
</svg>
