<svg width="155" height="32" viewBox="0 0 155 32" fill="none" xmlns="http://www.w3.org/2000/svg">
<path d="M14.5489 3.42705C14.8483 2.50574 16.1517 2.50574 16.4511 3.42705L18.7555 10.5193C18.8893 10.9313 19.2733 11.2102 19.7065 11.2102H27.1637C28.1324 11.2102 28.5352 12.4499 27.7515 13.0193L21.7185 17.4025C21.368 17.6571 21.2213 18.1085 21.3552 18.5205L23.6596 25.6127C23.959 26.534 22.9045 27.3001 22.1208 26.7307L16.0878 22.3475C15.7373 22.0929 15.2627 22.0929 14.9122 22.3475L8.87923 26.7307C8.09551 27.3001 7.04103 26.534 7.34039 25.6127L9.64478 18.5205C9.77866 18.1085 9.632 17.6571 9.28151 17.4025L3.24852 13.0193C2.46481 12.4499 2.86758 11.2102 3.83631 11.2102H11.2935C11.7267 11.2102 12.1107 10.9313 12.2445 10.5193L14.5489 3.42705Z" fill="#FFB22E"/>
<path d="M45.5489 3.42705C45.8483 2.50574 47.1517 2.50574 47.4511 3.42705L49.7555 10.5193C49.8893 10.9313 50.2733 11.2102 50.7065 11.2102H58.1637C59.1324 11.2102 59.5352 12.4499 58.7515 13.0193L52.7185 17.4025C52.368 17.6571 52.2213 18.1085 52.3552 18.5205L54.6596 25.6127C54.959 26.534 53.9045 27.3001 53.1208 26.7307L47.0878 22.3475C46.7373 22.0929 46.2627 22.0929 45.9122 22.3475L39.8792 26.7307C39.0955 27.3001 38.041 26.534 38.3404 25.6127L40.6448 18.5205C40.7787 18.1085 40.632 17.6571 40.2815 17.4025L34.2485 13.0193C33.4648 12.4499 33.8676 11.2102 34.8363 11.2102H42.2935C42.7267 11.2102 43.1107 10.9313 43.2445 10.5193L45.5489 3.42705Z" fill="#FFB22E"/>
<path d="M76.5489 3.42705C76.8483 2.50574 78.1517 2.50574 78.4511 3.42705L80.7555 10.5193C80.8893 10.9313 81.2733 11.2102 81.7065 11.2102H89.1637C90.1324 11.2102 90.5352 12.4499 89.7515 13.0193L83.7185 17.4025C83.368 17.6571 83.2213 18.1085 83.3552 18.5205L85.6596 25.6127C85.959 26.534 84.9045 27.3001 84.1208 26.7307L78.0878 22.3475C77.7373 22.0929 77.2627 22.0929 76.9122 22.3475L70.8792 26.7307C70.0955 27.3001 69.041 26.534 69.3404 25.6127L71.6448 18.5205C71.7787 18.1085 71.632 17.6571 71.2815 17.4025L65.2485 13.0193C64.4648 12.4499 64.8676 11.2102 65.8363 11.2102H73.2935C73.7267 11.2102 74.1107 10.9313 74.2445 10.5193L76.5489 3.42705Z" fill="#FFB22E"/>
<path d="M107.549 3.42705C107.848 2.50574 109.152 2.50574 109.451 3.42705L111.755 10.5193C111.889 10.9313 112.273 11.2102 112.707 11.2102H120.164C121.132 11.2102 121.535 12.4499 120.751 13.0193L114.718 17.4025C114.368 17.6571 114.221 18.1085 114.355 18.5205L116.66 25.6127C116.959 26.534 115.904 27.3001 115.121 26.7307L109.088 22.3475C108.737 22.0929 108.263 22.0929 107.912 22.3475L101.879 26.7307C101.096 27.3001 100.041 26.534 100.34 25.6127L102.645 18.5205C102.779 18.1085 102.632 17.6571 102.282 17.4025L96.2485 13.0193C95.4648 12.4499 95.8676 11.2102 96.8363 11.2102H104.293C104.727 11.2102 105.111 10.9313 105.245 10.5193L107.549 3.42705Z" fill="#FFB22E"/>
<path d="M138.549 3.42705C138.848 2.50574 140.152 2.50574 140.451 3.42705L142.755 10.5193C142.889 10.9313 143.273 11.2102 143.707 11.2102H151.164C152.132 11.2102 152.535 12.4499 151.751 13.0193L145.718 17.4025C145.368 17.6571 145.221 18.1085 145.355 18.5205L147.66 25.6127C147.959 26.534 146.904 27.3001 146.121 26.7307L140.088 22.3475C139.737 22.0929 139.263 22.0929 138.912 22.3475L132.879 26.7307C132.096 27.3001 131.041 26.534 131.34 25.6127L133.645 18.5205C133.779 18.1085 133.632 17.6571 133.282 17.4025L127.249 13.0193C126.465 12.4499 126.868 11.2102 127.836 11.2102H135.293C135.727 11.2102 136.111 10.9313 136.245 10.5193L138.549 3.42705Z" fill="#FFB22E"/>
</svg>
