<svg width="26" height="26" viewBox="0 0 26 26" fill="none" xmlns="http://www.w3.org/2000/svg">
<path d="M18.2217 22.4987L4.06575 4.29867C3.99114 4.20259 3.94499 4.0875 3.93255 3.96648C3.9201 3.84547 3.94187 3.7234 3.99537 3.61415C4.04887 3.50489 4.13195 3.41284 4.23517 3.34847C4.33839 3.2841 4.4576 3.24998 4.57925 3.25H7.26592C7.36482 3.25015 7.46239 3.27286 7.55119 3.31642C7.63999 3.35997 7.71767 3.42322 7.77834 3.50133L21.9343 21.7013C22.0089 21.7974 22.055 21.9125 22.0675 22.0335C22.0799 22.1545 22.0581 22.2766 22.0046 22.3859C21.9511 22.4951 21.8681 22.5872 21.7648 22.6515C21.6616 22.7159 21.5424 22.75 21.4208 22.75H18.7341C18.6352 22.7499 18.5376 22.7271 18.4488 22.6836C18.36 22.64 18.2823 22.5768 18.2217 22.4987Z" stroke="white" stroke-width="1.5"/>
<path d="M21.6667 3.25L4.33334 22.75" stroke="white" stroke-width="1.5" stroke-linecap="round"/>
</svg>
