<svg width="26" height="26" viewBox="0 0 26 26" fill="none" xmlns="http://www.w3.org/2000/svg">
<path d="M8.45 2.1665H17.55C21.0167 2.1665 23.8333 4.98317 23.8333 8.44984V17.5498C23.8333 19.2163 23.1713 20.8145 21.993 21.9928C20.8146 23.1712 19.2164 23.8332 17.55 23.8332H8.45C4.98333 23.8332 2.16667 21.0165 2.16667 17.5498V8.44984C2.16667 6.78339 2.82866 5.1852 4.00701 4.00685C5.18537 2.8285 6.78356 2.1665 8.45 2.1665ZM8.23333 4.33317C7.19899 4.33317 6.20701 4.74406 5.47562 5.47545C4.74423 6.20685 4.33333 7.19883 4.33333 8.23317V17.7665C4.33333 19.9223 6.0775 21.6665 8.23333 21.6665H17.7667C18.801 21.6665 19.793 21.2556 20.5244 20.5242C21.2558 19.7928 21.6667 18.8008 21.6667 17.7665V8.23317C21.6667 6.07734 19.9225 4.33317 17.7667 4.33317H8.23333ZM18.6875 5.95817C19.0466 5.95817 19.3911 6.10084 19.645 6.3548C19.899 6.60875 20.0417 6.95319 20.0417 7.31234C20.0417 7.67148 19.899 8.01592 19.645 8.26988C19.3911 8.52383 19.0466 8.6665 18.6875 8.6665C18.3284 8.6665 17.9839 8.52383 17.73 8.26988C17.476 8.01592 17.3333 7.67148 17.3333 7.31234C17.3333 6.95319 17.476 6.60875 17.73 6.3548C17.9839 6.10084 18.3284 5.95817 18.6875 5.95817ZM13 7.58317C14.4366 7.58317 15.8143 8.15385 16.8302 9.16967C17.846 10.1855 18.4167 11.5632 18.4167 12.9998C18.4167 14.4364 17.846 15.8142 16.8302 16.83C15.8143 17.8458 14.4366 18.4165 13 18.4165C11.5634 18.4165 10.1857 17.8458 9.16984 16.83C8.15402 15.8142 7.58333 14.4364 7.58333 12.9998C7.58333 11.5632 8.15402 10.1855 9.16984 9.16967C10.1857 8.15385 11.5634 7.58317 13 7.58317ZM13 9.74984C12.138 9.74984 11.3114 10.0922 10.7019 10.7017C10.0924 11.3112 9.75 12.1379 9.75 12.9998C9.75 13.8618 10.0924 14.6884 10.7019 15.2979C11.3114 15.9074 12.138 16.2498 13 16.2498C13.862 16.2498 14.6886 15.9074 15.2981 15.2979C15.9076 14.6884 16.25 13.8618 16.25 12.9998C16.25 12.1379 15.9076 11.3112 15.2981 10.7017C14.6886 10.0922 13.862 9.74984 13 9.74984Z" fill="white"/>
</svg>
