<svg width="868" height="715" viewBox="0 0 868 715" fill="none" xmlns="http://www.w3.org/2000/svg">
<g opacity="0.1">
<path d="M700.051 -7.69067C700.051 -33.819 678.87 -55.0001 652.742 -55.0001H579.412C553.284 -55.0001 532.103 -33.8189 532.103 -7.69065V65.6391C532.103 91.7674 553.284 112.949 579.412 112.949H652.742C678.87 112.949 700.051 91.7674 700.051 65.6391V-7.69067Z" fill="#595959"/>
<path d="M700.051 358.958C700.051 332.83 678.87 311.648 652.742 311.648H579.412C553.284 311.648 532.103 332.83 532.103 358.958V432.288C532.103 458.416 553.284 479.597 579.412 479.597H652.742C678.87 479.597 700.051 458.416 700.051 432.288V358.958Z" fill="#595959"/>
<path d="M172.551 -7.69061C172.551 -33.8189 151.37 -55.0001 125.241 -55.0001H51.9115C25.7832 -55.0001 4.60207 -33.8189 4.60207 -7.69059V65.6391C4.60207 91.7674 25.7832 112.949 51.9115 112.949H125.241C151.37 112.949 172.551 91.7674 172.551 65.6391V-7.69061Z" fill="#595959"/>
<path d="M335.769 219.395C335.769 193.267 314.588 172.086 288.459 172.086H215.13C189.001 172.086 167.82 193.267 167.82 219.395V557.658C167.82 583.786 189.001 604.967 215.13 604.967H288.459C314.588 604.967 335.769 583.786 335.769 557.658V219.395Z" fill="#595959"/>
<path d="M868 157.893C868 131.764 846.819 110.583 820.69 110.583H747.361C721.232 110.583 700.051 131.764 700.051 157.893V231.222C700.051 257.351 721.232 278.532 747.361 278.532H820.69C846.819 278.532 868 257.351 868 231.222V157.893Z" fill="#595959"/>
<path d="M193.84 649.911C193.84 623.783 172.659 602.602 146.531 602.602H73.201C47.0727 602.602 25.8916 623.783 25.8916 649.911V723.241C25.8916 749.369 47.0727 770.55 73.201 770.55H146.531C172.659 770.55 193.84 749.369 193.84 723.241V649.911Z" fill="#595959"/>
<path d="M548.661 157.893C548.661 131.764 527.48 110.583 501.352 110.583H215.129C189.001 110.583 167.82 131.764 167.82 157.893V231.222C167.82 257.351 189.001 278.532 215.129 278.532H501.352C527.48 278.532 548.661 257.351 548.661 231.222V157.893Z" fill="#595959"/>
<path d="M548.661 515.079C548.661 488.951 527.48 467.77 501.352 467.77H238.784C212.656 467.77 191.475 488.951 191.475 515.079V557.658C191.475 583.786 212.656 604.967 238.784 604.967H501.352C527.48 604.967 548.661 583.786 548.661 557.658V515.079Z" fill="#595959"/>
<path d="M580.436 98.6422L550.721 70.8888L503.897 121.022L533.612 148.775L580.436 98.6422Z" fill="#595959"/>
<path d="M231.687 592.507L201.973 564.754L155.149 614.887L184.864 642.64L231.687 592.507Z" fill="#595959"/>
<path d="M580.436 465.291L550.721 437.537L503.897 487.67L533.612 515.424L580.436 465.291Z" fill="#595959"/>
<path d="M661.361 98.1234L691.075 70.37L737.899 120.503L708.185 148.256L661.361 98.1234Z" fill="#595959"/>
<path d="M662.295 472.273L686.174 439.364L741.697 479.65L717.818 512.56L662.295 472.273Z" fill="#595959"/>
<path d="M133.86 98.1234L163.575 70.3701L210.399 120.503L180.684 148.256L133.86 98.1234Z" fill="#595959"/>
<path d="M167.82 160.258C167.82 134.13 189.001 112.948 215.129 112.948H288.459C314.587 112.948 335.768 134.13 335.768 160.258V233.588C335.768 259.716 314.587 280.897 288.459 280.897H215.129C189.001 280.897 167.82 259.716 167.82 233.588V160.258Z" fill="#595959"/>
<path d="M-0.128906 325.841C-0.128906 299.713 21.0523 278.532 47.1806 278.532H120.51C146.639 278.532 167.82 299.713 167.82 325.841V399.171C167.82 425.299 146.639 446.48 120.51 446.48H47.1806C21.0523 446.48 -0.128906 425.299 -0.128906 399.171V325.841Z" fill="#595959"/>
<path d="M167.82 484.328C167.82 458.2 189.001 437.018 215.129 437.018H288.459C314.587 437.018 335.768 458.2 335.768 484.328L335.769 557.658C335.769 583.786 314.588 604.967 288.459 604.967H215.13C189.001 604.967 167.82 583.786 167.82 557.658L167.82 484.328Z" fill="#595959"/>
<path d="M129.972 426.924L159.687 399.171L206.511 449.304L176.796 477.057L129.972 426.924Z" fill="#595959"/>
<path d="M206.51 266.072L176.796 238.319L129.972 288.452L159.687 316.205L206.51 266.072Z" fill="#595959"/>
<path d="M700.051 723.241C700.051 749.369 678.87 770.55 652.742 770.55H579.412C553.284 770.55 532.102 749.369 532.102 723.241V649.911C532.102 623.783 553.284 602.602 579.412 602.602H652.742C678.87 602.602 700.051 623.783 700.051 649.911V723.241Z" fill="#595959"/>
<path d="M868 557.658C868 583.786 846.819 604.967 820.69 604.967H747.361C721.232 604.967 700.051 583.786 700.051 557.658V484.328C700.051 458.2 721.232 437.018 747.361 437.018H820.69C846.819 437.018 868 458.2 868 484.328V557.658Z" fill="#595959"/>
<path d="M661.36 617.427L691.075 645.18L737.899 595.047L708.184 567.294L661.36 617.427Z" fill="#595959"/>
</g>
</svg>
