<svg width="801" height="524" viewBox="0 0 801 524" fill="none" xmlns="http://www.w3.org/2000/svg">
<g filter="url(#filter0_dddd_3_400)">
<g clip-path="url(#clip0_3_400)">
<rect width="561.289" height="322.362" rx="11.3775" transform="matrix(0.990268 0.139173 -0.0174524 0.999848 26.6264 19.1433)" fill="url(#paint0_linear_3_400)"/>
<g style="mix-blend-mode:soft-light">
<circle cx="22.3757" cy="22.3757" r="22.3757" transform="matrix(0.990268 0.139173 -0.0174524 0.999848 460.966 112.116)" fill="#F7F8FC"/>
</g>
<g style="mix-blend-mode:soft-light">
<circle cx="22.3757" cy="22.3757" r="22.3757" transform="matrix(0.990268 0.139173 -0.0174524 0.999848 491.013 116.339)" fill="#F7F8FC"/>
</g>
<path d="M67.0421 210.81L75.4387 201.117L75.9191 200.896C75.5933 201.364 75.2165 201.717 74.7888 201.956C74.361 202.195 73.8925 202.343 73.3833 202.4C72.874 202.457 72.3131 202.442 71.7004 202.356C70.3273 202.163 69.097 201.669 68.0096 200.875C66.9226 200.06 66.0616 199.04 65.4264 197.818C64.8127 196.577 64.5187 195.221 64.5444 193.749C64.5697 192.299 64.9197 191.054 65.5943 190.016C66.2901 188.98 67.2141 188.212 68.3665 187.711C69.5399 187.213 70.8449 187.065 72.2815 187.267C73.7603 187.475 75.0641 188 76.193 188.843C77.3222 189.665 78.2039 190.719 78.8379 192.005C79.4724 193.27 79.7762 194.671 79.7494 196.207C79.7345 197.06 79.6141 197.887 79.3884 198.69C79.1837 199.495 78.8736 200.274 78.4581 201.029C78.0425 201.783 77.5214 202.522 76.8946 203.246L70.0842 211.238L67.0421 210.81ZM72.0575 200.097C73.0504 200.237 73.9311 200.136 74.6994 199.795C75.4681 199.432 76.0706 198.886 76.5069 198.156C76.9647 197.408 77.2024 196.533 77.2199 195.53C77.2377 194.507 77.0317 193.569 76.6019 192.717C76.1724 191.844 75.5813 191.131 74.8286 190.576C74.0762 190 73.2142 189.643 72.2424 189.507C71.2706 189.37 70.4004 189.483 69.6316 189.845C68.8633 190.186 68.2502 190.731 67.7924 191.479C67.335 192.206 67.0974 193.081 67.0795 194.105C67.062 195.108 67.2574 196.044 67.6658 196.914C68.0957 197.765 68.6868 198.479 69.4391 199.055C70.2129 199.613 71.0858 199.96 72.0575 200.097ZM91.2987 214.604C89.7776 214.39 88.4204 213.89 87.227 213.102C86.0551 212.296 85.1301 211.3 84.452 210.114C83.7953 208.91 83.4791 207.614 83.5033 206.228C83.5297 204.714 83.9759 203.418 84.8418 202.343C85.7288 201.27 86.9052 200.601 88.3711 200.337L88.3593 201.009C87.2482 200.361 86.3947 199.514 85.7988 198.468C85.2033 197.401 84.9152 196.313 84.9346 195.203C84.9551 194.03 85.2691 193.027 85.8766 192.193C86.4841 191.358 87.289 190.745 88.2912 190.351C89.3149 189.939 90.4606 189.822 91.7281 190C93.0168 190.181 94.1529 190.608 95.1365 191.281C96.1205 191.932 96.8895 192.767 97.4435 193.786C98.019 194.786 98.2963 195.884 98.2755 197.078C98.2546 198.273 97.9191 199.295 97.269 200.144C96.6192 200.972 95.7725 201.559 94.7287 201.904L94.7088 201.228C96.1583 201.902 97.2951 202.896 98.1193 204.209C98.9646 205.525 99.374 206.94 99.3476 208.455C99.3234 209.841 98.953 211.04 98.2365 212.051C97.5415 213.044 96.5863 213.776 95.371 214.246C94.1771 214.699 92.8197 214.818 91.2987 214.604ZM91.3377 212.365C92.4152 212.516 93.3588 212.445 94.1686 212.153C94.9789 211.839 95.6123 211.34 96.069 210.656C96.5472 209.954 96.795 209.101 96.8125 208.098C96.83 207.096 96.6129 206.189 96.1611 205.377C95.7309 204.547 95.1179 203.872 94.3222 203.354C93.5269 202.815 92.5905 202.47 91.5131 202.318C90.4357 202.167 89.4813 202.246 88.65 202.557C87.8401 202.85 87.2067 203.349 86.7496 204.054C86.293 204.738 86.0559 205.582 86.0384 206.584C86.0209 207.587 86.2272 208.503 86.6575 209.333C87.0881 210.142 87.7011 210.816 88.4964 211.356C89.3132 211.877 90.2603 212.213 91.3377 212.365ZM91.5522 200.078C92.3339 200.188 93.0338 200.126 93.652 199.892C94.2706 199.637 94.7645 199.247 95.1337 198.722C95.5244 198.178 95.7266 197.511 95.7404 196.722C95.7542 195.933 95.576 195.224 95.2058 194.594C94.8567 193.968 94.3786 193.452 93.7715 193.046C93.1648 192.618 92.4707 192.35 91.689 192.24C90.9074 192.13 90.1967 192.201 89.557 192.453C88.9387 192.687 88.4345 193.065 88.0441 193.588C87.6749 194.113 87.4835 194.77 87.4697 195.56C87.4559 196.349 87.6234 197.067 87.9721 197.715C88.3423 198.344 88.8308 198.873 89.4374 199.3C90.0656 199.709 90.7705 199.969 91.5522 200.078ZM103.091 215.877L103.119 214.277L109.838 207.876C111.152 206.628 112.218 205.592 113.037 204.766C113.878 203.943 114.505 203.176 114.92 202.465C115.335 201.753 115.55 200.949 115.566 200.054C115.591 198.624 115.198 197.468 114.387 196.584C113.577 195.701 112.485 195.162 111.112 194.969C109.696 194.77 108.496 195.008 107.51 195.682C106.545 196.359 105.881 197.399 105.518 198.802L103.213 197.965C103.511 196.702 104.027 195.652 104.761 194.815C105.496 193.977 106.406 193.378 107.493 193.017C108.58 192.636 109.788 192.538 111.119 192.725C112.535 192.924 113.766 193.386 114.812 194.11C115.858 194.835 116.668 195.74 117.242 196.825C117.837 197.914 118.124 199.109 118.101 200.41C118.085 201.306 117.88 202.143 117.485 202.921C117.112 203.703 116.547 204.521 115.79 205.377C115.034 206.233 114.064 207.219 112.88 208.336L106.775 214.149L118.468 215.793L118.429 218.032L103.091 215.877ZM125.99 219.095L126.367 197.498L121.93 196.875L121.969 194.635L128.941 195.615L128.525 219.451L125.99 219.095Z" fill="#F7F8FC"/>
<path d="M152.373 222.803L160.77 213.11L161.25 212.889C160.925 213.356 160.548 213.709 160.12 213.949C159.692 214.188 159.224 214.336 158.715 214.393C158.205 214.449 157.644 214.435 157.032 214.349C155.659 214.156 154.428 213.662 153.341 212.868C152.254 212.052 151.393 211.033 150.758 209.81C150.144 208.569 149.85 207.213 149.876 205.741C149.901 204.291 150.251 203.046 150.926 202.008C151.621 200.973 152.546 200.204 153.698 199.703C154.871 199.206 156.176 199.057 157.613 199.259C159.092 199.467 160.395 199.993 161.524 200.835C162.654 201.657 163.535 202.711 164.169 203.998C164.804 205.263 165.108 206.663 165.081 208.199C165.066 209.052 164.945 209.88 164.72 210.682C164.515 211.487 164.205 212.267 163.789 213.021C163.374 213.775 162.853 214.514 162.226 215.239L155.416 223.23L152.373 222.803ZM157.389 212.089C158.382 212.229 159.262 212.128 160.031 211.787C160.799 211.425 161.402 210.879 161.838 210.149C162.296 209.401 162.534 208.525 162.551 207.523C162.569 206.499 162.363 205.561 161.933 204.71C161.504 203.837 160.913 203.123 160.16 202.568C159.408 201.992 158.546 201.636 157.574 201.499C156.602 201.362 155.732 201.475 154.963 201.838C154.195 202.179 153.582 202.723 153.124 203.472C152.666 204.198 152.429 205.074 152.411 206.098C152.393 207.1 152.589 208.036 152.997 208.906C153.427 209.758 154.018 210.472 154.77 211.048C155.544 211.606 156.417 211.953 157.389 212.089ZM175.996 226.508C174.771 226.335 173.644 225.963 172.617 225.391C171.589 224.819 170.691 224.084 169.923 223.184C169.177 222.288 168.612 221.268 168.23 220.124L170.274 219.449C170.739 220.755 171.482 221.843 172.505 222.713C173.528 223.563 174.704 224.081 176.035 224.268C177.092 224.416 178.035 224.346 178.866 224.056C179.698 223.746 180.353 223.228 180.831 222.504C181.31 221.78 181.559 220.853 181.578 219.723C181.598 218.592 181.372 217.598 180.9 216.741C180.449 215.886 179.815 215.198 178.998 214.677C178.181 214.156 177.245 213.822 176.189 213.673C175.914 213.635 175.607 213.602 175.269 213.576C174.952 213.553 174.687 213.548 174.475 213.561L173.988 212.37L180.499 205.106L169.63 203.578L169.669 201.339L183.391 203.267L183.351 205.507L177.262 212.252L176.952 211.792C178.367 212.033 179.618 212.551 180.705 213.346C181.793 214.119 182.634 215.081 183.228 216.234C183.843 217.39 184.138 218.671 184.114 220.079C184.089 221.487 183.729 222.719 183.033 223.776C182.337 224.811 181.381 225.586 180.165 226.099C178.949 226.591 177.56 226.727 175.996 226.508ZM191.732 228.334L192.109 206.738L187.673 206.114L187.712 203.874L194.684 204.854L194.267 228.691L191.732 228.334ZM203.492 229.987L203.869 208.39L199.432 207.767L199.471 205.527L206.443 206.507L206.027 230.343L203.492 229.987Z" fill="#F7F8FC"/>
<path d="M227.026 233.294L227.054 231.695L233.773 225.294C235.086 224.046 236.153 223.009 236.972 222.184C237.812 221.361 238.44 220.594 238.855 219.882C239.269 219.171 239.485 218.367 239.5 217.471C239.525 216.042 239.132 214.886 238.322 214.002C237.511 213.118 236.42 212.58 235.046 212.387C233.631 212.188 232.43 212.426 231.444 213.1C230.48 213.777 229.815 214.817 229.452 216.219L227.148 215.382C227.445 214.12 227.961 213.07 228.696 212.232C229.43 211.395 230.341 210.796 231.427 210.435C232.514 210.053 233.723 209.956 235.054 210.143C236.469 210.342 237.7 210.804 238.746 211.528C239.792 212.252 240.603 213.157 241.177 214.243C241.772 215.332 242.058 216.526 242.035 217.828C242.02 218.723 241.814 219.561 241.42 220.339C241.046 221.12 240.481 221.939 239.725 222.795C238.969 223.651 237.999 224.637 236.814 225.754L230.709 231.567L242.402 233.21L242.363 235.45L227.026 233.294ZM253.688 237.427C252.21 237.219 250.906 236.704 249.776 235.882C248.647 235.04 247.766 233.986 247.131 232.72C246.497 231.434 246.194 230.023 246.221 228.487C246.235 227.634 246.345 226.804 246.55 225.999C246.776 225.197 247.096 224.419 247.512 223.665C247.949 222.914 248.47 222.174 249.075 221.447L255.886 213.456L258.928 213.883L250.531 223.576L250.051 223.797C250.377 223.308 250.754 222.955 251.181 222.737C251.609 222.498 252.077 222.35 252.587 222.293C253.117 222.24 253.678 222.254 254.269 222.337C255.643 222.53 256.873 223.035 257.96 223.85C259.047 224.645 259.898 225.652 260.512 226.871C261.147 228.094 261.452 229.451 261.426 230.945C261.401 232.374 261.04 233.617 260.344 234.673C259.669 235.712 258.756 236.482 257.603 236.982C256.451 237.483 255.146 237.631 253.688 237.427ZM253.728 235.187C254.699 235.323 255.569 235.221 256.338 234.88C257.106 234.518 257.72 233.962 258.177 233.214C258.635 232.466 258.873 231.591 258.89 230.588C258.908 229.564 258.702 228.627 258.272 227.775C257.864 226.927 257.283 226.225 256.53 225.67C255.778 225.094 254.905 224.736 253.912 224.596C252.941 224.46 252.06 224.571 251.27 224.931C250.502 225.272 249.889 225.806 249.431 226.533C248.995 227.262 248.768 228.139 248.75 229.163C248.733 230.166 248.939 231.103 249.368 231.976C249.798 232.849 250.388 233.574 251.141 234.15C251.894 234.705 252.756 235.05 253.728 235.187ZM265.6 238.716L276.624 218.615L264.836 216.959L264.875 214.719L279.293 216.745L279.254 218.985L268.262 239.09L265.6 238.716ZM289.247 242.424C288.021 242.252 286.884 241.878 285.836 241.303C284.808 240.731 283.91 239.995 283.142 239.096C282.374 238.197 281.799 237.176 281.417 236.031L283.367 235.343C283.831 236.649 284.606 237.741 285.692 238.621C286.799 239.482 287.997 240.003 289.286 240.184C290.321 240.33 291.244 240.214 292.056 239.836C292.888 239.461 293.544 238.89 294.023 238.124C294.503 237.336 294.752 236.419 294.77 235.374C294.789 234.286 294.563 233.292 294.091 232.392C293.641 231.495 293.019 230.755 292.224 230.173C291.43 229.57 290.526 229.197 289.512 229.054C288.477 228.909 287.511 229.019 286.615 229.385C285.741 229.733 285.097 230.219 284.684 230.846L282.694 230.181L284.694 217.504L296.641 219.183L296.602 221.423L285.574 219.873L286.572 219.147L284.968 229.121L283.994 228.535C284.749 227.722 285.627 227.193 286.626 226.949C287.626 226.683 288.644 226.623 289.679 226.769C291.2 226.982 292.535 227.533 293.684 228.422C294.834 229.289 295.726 230.366 296.36 231.653C297.015 232.921 297.33 234.28 297.305 235.73C297.279 237.202 296.908 238.486 296.19 239.583C295.493 240.661 294.537 241.457 293.321 241.97C292.126 242.486 290.768 242.638 289.247 242.424Z" fill="#F7F8FC"/>
<path d="M320.216 246.392L320.593 224.795L316.156 224.171L316.196 221.932L323.167 222.911L322.751 246.748L320.216 246.392ZM331.975 248.044L332.352 226.448L327.916 225.824L327.955 223.584L334.926 224.564L334.51 248.401L331.975 248.044ZM339.837 249.149L339.865 247.549L346.584 241.149C347.898 239.901 348.964 238.864 349.783 238.038C350.624 237.216 351.251 236.448 351.666 235.737C352.081 235.025 352.296 234.222 352.311 233.326C352.336 231.897 351.944 230.74 351.133 229.857C350.323 228.973 349.231 228.435 347.858 228.242C346.442 228.043 345.242 228.28 344.256 228.954C343.291 229.631 342.627 230.671 342.263 232.074L339.959 231.237C340.256 229.975 340.772 228.925 341.507 228.087C342.242 227.249 343.152 226.65 344.239 226.29C345.325 225.908 346.534 225.811 347.865 225.998C349.28 226.197 350.511 226.658 351.558 227.383C352.604 228.107 353.414 229.012 353.988 230.098C354.583 231.186 354.869 232.381 354.847 233.682C354.831 234.578 354.626 235.415 354.231 236.194C353.857 236.975 353.292 237.794 352.536 238.65C351.78 239.506 350.81 240.492 349.626 241.608L343.52 247.422L355.213 249.065L355.174 251.305L339.837 249.149ZM358.838 251.82L358.866 250.22L365.585 243.819C366.898 242.571 367.965 241.534 368.784 240.709C369.624 239.886 370.252 239.119 370.667 238.407C371.081 237.696 371.297 236.892 371.312 235.996C371.337 234.567 370.944 233.411 370.134 232.527C369.323 231.643 368.232 231.105 366.858 230.912C365.443 230.713 364.242 230.951 363.256 231.625C362.292 232.302 361.628 233.342 361.264 234.745L358.96 233.908C359.257 232.645 359.773 231.595 360.508 230.757C361.243 229.92 362.153 229.321 363.239 228.96C364.326 228.578 365.535 228.481 366.866 228.668C368.281 228.867 369.512 229.329 370.558 230.053C371.605 230.777 372.415 231.682 372.989 232.768C373.584 233.857 373.87 235.051 373.847 236.353C373.832 237.248 373.626 238.086 373.232 238.864C372.858 239.645 372.293 240.464 371.537 241.32C370.781 242.176 369.811 243.162 368.626 244.279L362.521 250.092L374.214 251.735L374.175 253.975L358.838 251.82Z" fill="#F7F8FC"/>
<g style="mix-blend-mode:multiply" opacity="0.45">
<rect width="50.8194" height="50.8194" transform="matrix(0.990268 0.139173 -0.0174524 0.999848 26.6264 19.1433)" fill="#595959"/>
</g>
<g style="mix-blend-mode:multiply" opacity="0.45">
<rect width="50.8194" height="50.8194" transform="matrix(0.990268 0.139173 -0.0174524 0.999848 76.0653 77.0278)" fill="#595959"/>
</g>
<g style="mix-blend-mode:multiply" opacity="0.45">
<rect width="81.9178" height="50.8194" transform="matrix(0.990268 0.139173 -0.0174524 0.999848 125.023 32.9719)" fill="#595959"/>
</g>
<path d="M62.8841 275.225L63.1181 261.817L64.3658 261.992L71.9583 274.371L71.4771 274.304L71.674 263.02L73.1 263.22L72.866 276.628L71.6182 276.453L64.027 264.002L64.5083 264.069L64.3101 275.425L62.8841 275.225ZM74.6365 276.877L79.7189 264.15L81.2518 264.366L85.8661 278.455L84.3688 278.245L83.2852 274.809L77.3496 273.975L76.1338 277.087L74.6365 276.877ZM77.8366 272.69L82.8097 273.389L80.2526 265.308L80.6804 265.368L77.8366 272.69ZM87.6369 278.704L87.8709 265.296L89.1187 265.471L93.9821 273.48L93.2869 273.382L98.3876 266.774L99.6353 266.949L99.4013 280.357L97.9753 280.157L98.1754 268.693L98.6357 268.938L93.627 275.396L93.5557 275.386L88.8142 267.557L89.263 267.44L89.0629 278.904L87.6369 278.704ZM102.537 280.798L102.771 267.39L111.327 268.592L111.304 269.942L104.174 268.94L104.092 273.602L110.866 274.553L110.842 275.903L104.069 274.951L103.987 279.649L111.117 280.651L111.093 282L102.537 280.798Z" fill="#F7F8FC"/>
<path d="M62.828 308.464L63.1401 290.586L68.9629 291.405C70.7216 291.652 72.2441 292.235 73.5305 293.153C74.8172 294.056 75.8053 295.229 76.4948 296.673C77.1846 298.101 77.5136 299.727 77.4818 301.55C77.4502 303.358 77.0662 304.884 76.3298 306.127C75.5933 307.371 74.5691 308.269 73.257 308.823C71.9449 309.376 70.4095 309.529 68.6508 309.282L62.828 308.464ZM64.7608 306.931L68.6822 307.482C70.0448 307.674 71.2303 307.552 72.2385 307.116C73.247 306.664 74.03 305.94 74.5874 304.944C75.1607 303.95 75.46 302.726 75.4854 301.27C75.5108 299.814 75.2555 298.519 74.7194 297.386C74.1835 296.236 73.4215 295.303 72.4334 294.587C71.4455 293.854 70.2782 293.394 68.9314 293.204L65.01 292.653L64.7608 306.931ZM85.9997 312.009C84.8114 311.842 83.739 311.402 82.7826 310.691C81.8423 309.965 81.1038 309.051 80.5671 307.95C80.0304 306.848 79.7734 305.649 79.796 304.353C79.8186 303.058 80.1079 301.952 80.6639 301.035C81.2202 300.103 81.9629 299.414 82.8919 298.967C83.8368 298.523 84.8875 298.382 86.0442 298.544C86.9631 298.673 87.776 298.964 88.4829 299.416C89.2059 299.854 89.8157 300.405 90.3124 301.068C90.8094 301.716 91.1861 302.426 91.4426 303.2C91.6994 303.958 91.8211 304.72 91.8077 305.488C91.8049 305.648 91.7937 305.831 91.7743 306.037C91.7551 306.227 91.7278 306.423 91.6925 306.627L80.9263 305.114L80.9556 303.434L90.6999 304.803L89.8317 305.403C89.9897 304.543 89.9004 303.745 89.5638 303.008C89.2433 302.257 88.7697 301.637 88.1429 301.148C87.5164 300.643 86.8071 300.335 86.0148 300.224C85.2226 300.113 84.4822 300.217 83.7937 300.537C83.121 300.86 82.5879 301.37 82.1945 302.068C81.8014 302.751 81.6355 303.61 81.6969 304.645C81.5998 305.657 81.7426 306.575 82.1253 307.399C82.5241 308.209 83.0685 308.871 83.7584 309.384C84.4641 309.901 85.221 310.215 86.0291 310.329C86.9639 310.46 87.7521 310.347 88.3937 309.988C89.0353 309.629 89.56 309.141 89.9678 308.525L91.4746 309.555C91.2111 310.095 90.8135 310.576 90.282 310.999C89.7508 311.405 89.1181 311.709 88.3839 311.911C87.6659 312.099 86.8712 312.131 85.9997 312.009ZM94.8277 312.961L95.0522 300.099L96.8347 300.349L96.7978 302.461L96.5656 302.116C96.8772 301.55 97.3372 301.134 97.9454 300.866C98.5695 300.601 99.3172 300.53 100.189 300.652L100.997 300.766L100.965 302.566L99.8483 302.409C98.9293 302.279 98.1875 302.464 97.6229 302.962C97.0583 303.46 96.7668 304.237 96.7484 305.293L96.6102 313.211L94.8277 312.961ZM108.652 315.192C107.464 315.025 106.391 314.586 105.435 313.874C104.495 313.149 103.756 312.235 103.219 311.133C102.683 310.032 102.426 308.833 102.448 307.537C102.471 306.241 102.76 305.135 103.316 304.219C103.873 303.287 104.615 302.597 105.544 302.151C106.489 301.706 107.54 301.565 108.697 301.728C109.616 301.857 110.428 302.148 111.135 302.6C111.858 303.038 112.468 303.589 112.965 304.252C113.462 304.899 113.838 305.61 114.095 306.383C114.352 307.141 114.473 307.904 114.46 308.672C114.457 308.832 114.446 309.015 114.427 309.22C114.407 309.41 114.38 309.607 114.345 309.81L103.579 308.297L103.608 306.617L113.352 307.987L112.484 308.587C112.642 307.727 112.553 306.928 112.216 306.191C111.896 305.441 111.422 304.821 110.795 304.332C110.169 303.827 109.459 303.519 108.667 303.407C107.875 303.296 107.135 303.401 106.446 303.721C105.773 304.043 105.24 304.554 104.847 305.252C104.454 305.934 104.288 306.793 104.349 307.828C104.252 308.841 104.395 309.759 104.778 310.583C105.177 311.392 105.721 312.054 106.411 312.568C107.116 313.084 107.873 313.399 108.681 313.513C109.616 313.644 110.404 313.53 111.046 313.171C111.688 312.813 112.212 312.325 112.62 311.709L114.127 312.738C113.863 313.279 113.466 313.76 112.934 314.183C112.403 314.589 111.77 314.893 111.036 315.094C110.318 315.282 109.524 315.315 108.652 315.192ZM117.48 316.144L117.797 297.979L119.58 298.23L119.358 310.948L118.599 310.721L125.88 304.431L128.186 304.755L123.105 309.213L128.413 317.681L126.274 317.38L121.288 309.535L122.427 309.792L118.725 313.072L119.345 311.668L119.263 316.395L117.48 316.144ZM134.8 318.579L135.112 300.701L142.551 301.747C143.55 301.887 144.41 302.2 145.132 302.687C145.87 303.159 146.431 303.759 146.816 304.487C147.216 305.217 147.408 306.03 147.393 306.926C147.376 307.853 147.132 308.645 146.66 309.3C146.204 309.942 145.553 310.388 144.707 310.637L144.693 310.058C145.386 310.412 145.974 310.856 146.457 311.389C146.956 311.924 147.335 312.522 147.593 313.184C147.852 313.83 147.975 314.505 147.963 315.208C147.935 316.808 147.406 318.009 146.375 318.81C145.361 319.598 143.99 319.87 142.263 319.627L134.8 318.579ZM136.733 317.046L142.294 317.828C143.419 317.986 144.32 317.816 144.996 317.317C145.688 316.805 146.043 316.021 146.061 314.965C146.079 313.925 145.753 313.054 145.082 312.35C144.428 311.633 143.538 311.195 142.413 311.037L136.852 310.255L136.733 317.046ZM136.882 308.527L142.277 309.286C143.227 309.419 143.993 309.246 144.573 308.766C145.169 308.289 145.475 307.61 145.49 306.73C145.506 305.834 145.224 305.113 144.646 304.567C144.084 304.007 143.328 303.66 142.377 303.526L136.982 302.768L136.882 308.527Z" fill="#F7F8FC"/>
<path d="M186.537 292.603L181.905 278.511L183.384 278.719L187.45 291.451L187.165 291.411L191.637 279.879L193.134 280.09L188.034 292.814L186.537 292.603ZM192.237 293.404L197.319 280.678L198.852 280.893L203.466 294.983L201.969 294.772L200.885 291.336L194.95 290.502L193.734 293.615L192.237 293.404ZM195.437 289.217L200.41 289.916L197.853 281.835L198.281 281.895L195.437 289.217ZM205.237 295.231L205.471 281.823L206.897 282.024L206.687 294.082L212.569 294.909L212.545 296.259L205.237 295.231ZM214.707 296.562L214.941 283.154L216.367 283.355L216.133 296.763L214.707 296.562ZM219.267 297.203L219.501 283.795L223.868 284.409C225.187 284.594 226.329 285.032 227.294 285.72C228.259 286.397 229 287.277 229.517 288.36C230.035 289.431 230.281 290.651 230.258 292.018C230.234 293.374 229.946 294.518 229.394 295.451C228.841 296.384 228.073 297.058 227.089 297.473C226.105 297.888 224.953 298.002 223.634 297.817L219.267 297.203ZM220.717 296.054L223.658 296.467C224.68 296.611 225.569 296.519 226.325 296.193C227.081 295.854 227.669 295.311 228.087 294.564C228.517 293.818 228.741 292.9 228.76 291.808C228.779 290.716 228.588 289.745 228.186 288.895C227.784 288.032 227.212 287.333 226.471 286.795C225.73 286.246 224.855 285.901 223.845 285.759L220.904 285.345L220.717 296.054ZM237.825 299.811L238.035 287.753L234.363 287.237L234.387 285.887L243.121 287.115L243.098 288.465L239.461 287.954L239.251 300.012L237.825 299.811ZM244.647 300.77L244.881 287.362L246.307 287.563L246.201 293.592L253.331 294.594L253.437 288.565L254.863 288.765L254.629 302.173L253.203 301.973L253.308 295.943L246.178 294.941L246.073 300.97L244.647 300.77ZM257.772 302.615L258.006 289.207L262.569 289.848C263.436 289.97 264.194 290.251 264.841 290.691C265.489 291.118 265.986 291.669 266.331 292.343C266.689 293.007 266.861 293.747 266.846 294.563C266.83 295.511 266.566 296.285 266.055 296.887C265.556 297.49 264.883 297.871 264.034 298.028L267.041 303.917L265.365 303.682L262.222 297.449L263.175 298.142L259.289 297.596L259.198 302.815L257.772 302.615ZM259.312 296.246L262.521 296.697C263.091 296.777 263.592 296.739 264.024 296.583C264.455 296.416 264.794 296.144 265.039 295.77C265.284 295.383 265.411 294.908 265.421 294.344C265.431 293.78 265.32 293.278 265.09 292.836C264.859 292.395 264.532 292.036 264.108 291.76C263.684 291.472 263.187 291.288 262.617 291.208L259.408 290.757L259.312 296.246ZM273.857 305.092C272.918 304.96 272.096 304.646 271.39 304.15C270.684 303.654 270.14 303.036 269.76 302.297C269.38 301.546 269.198 300.727 269.213 299.839L269.371 290.804L270.797 291.004L270.639 300.039C270.628 300.687 270.755 301.276 271.02 301.806C271.296 302.326 271.676 302.759 272.158 303.103C272.653 303.437 273.227 303.65 273.881 303.742C274.534 303.834 275.107 303.782 275.599 303.587C276.103 303.381 276.495 303.057 276.777 302.616C277.071 302.164 277.223 301.614 277.235 300.966L277.392 291.931L278.818 292.132L278.661 301.166C278.645 302.054 278.435 302.819 278.031 303.459C277.627 304.088 277.065 304.55 276.345 304.846C275.637 305.144 274.808 305.225 273.857 305.092Z" fill="#F7F8FC"/>
<path d="M189.613 326.571C188.219 326.375 186.997 325.818 185.949 324.901C184.917 323.97 184.12 322.776 183.558 321.318C182.996 319.843 182.731 318.186 182.763 316.347C182.795 314.507 183.116 312.94 183.727 311.647C184.337 310.338 185.172 309.372 186.231 308.752C187.29 308.131 188.517 307.918 189.911 308.114C191.306 308.31 192.519 308.865 193.551 309.78C194.583 310.695 195.381 311.89 195.943 313.364C196.505 314.822 196.77 316.471 196.738 318.311C196.706 320.15 196.384 321.725 195.774 323.034C195.179 324.346 194.352 325.312 193.293 325.933C192.234 326.554 191.007 326.767 189.613 326.571ZM189.644 324.771C190.658 324.913 191.551 324.726 192.322 324.209C193.094 323.692 193.703 322.912 194.15 321.868C194.598 320.808 194.834 319.535 194.86 318.047C194.886 316.559 194.695 315.233 194.286 314.069C193.878 312.889 193.299 311.942 192.549 311.227C191.799 310.496 190.91 310.059 189.88 309.914C188.866 309.771 187.973 309.959 187.202 310.476C186.43 310.977 185.821 311.757 185.374 312.817C184.927 313.86 184.69 315.126 184.664 316.614C184.639 318.086 184.83 319.412 185.238 320.591C185.646 321.771 186.225 322.727 186.975 323.458C187.741 324.191 188.63 324.628 189.644 324.771ZM205.475 328.8C204.556 328.671 203.703 328.391 202.917 327.959C202.146 327.53 201.473 326.979 200.897 326.304C200.321 325.63 199.889 324.864 199.603 324.005L201.065 323.489C201.413 324.468 201.994 325.288 202.809 325.948C203.639 326.593 204.538 326.984 205.504 327.12C206.281 327.229 206.973 327.142 207.582 326.859C208.206 326.578 208.698 326.15 209.057 325.575C209.417 324.984 209.604 324.297 209.618 323.513C209.632 322.697 209.462 321.951 209.109 321.276C208.771 320.603 208.304 320.049 207.708 319.612C207.113 319.159 206.435 318.88 205.674 318.773C204.898 318.664 204.173 318.746 203.502 319.021C202.846 319.281 202.363 319.647 202.053 320.116L200.561 319.618L202.061 310.11L211.021 311.37L210.991 313.049L202.721 311.887L203.469 311.343L202.266 318.823L201.535 318.384C202.102 317.774 202.76 317.377 203.51 317.194C204.26 316.994 205.023 316.949 205.799 317.058C206.94 317.219 207.941 317.632 208.803 318.298C209.666 318.949 210.334 319.757 210.81 320.721C211.302 321.673 211.538 322.692 211.519 323.78C211.5 324.884 211.221 325.847 210.682 326.669C210.16 327.478 209.443 328.075 208.531 328.46C207.634 328.847 206.616 328.96 205.475 328.8ZM212.945 332.448L221.323 313.804L223.391 314.094L215.013 332.738L212.945 332.448ZM224.515 331.187L224.536 329.987L229.575 325.187C230.561 324.251 231.36 323.473 231.975 322.854C232.605 322.237 233.076 321.662 233.387 321.128C233.698 320.594 233.859 319.992 233.871 319.32C233.89 318.248 233.595 317.381 232.987 316.718C232.379 316.055 231.561 315.651 230.531 315.507C229.469 315.357 228.569 315.536 227.829 316.041C227.106 316.549 226.607 317.329 226.335 318.381L224.607 317.753C224.83 316.806 225.217 316.019 225.768 315.391C226.319 314.762 227.002 314.313 227.816 314.043C228.631 313.756 229.538 313.683 230.536 313.824C231.598 313.973 232.521 314.319 233.306 314.862C234.09 315.406 234.698 316.084 235.128 316.899C235.575 317.715 235.789 318.611 235.772 319.587C235.761 320.259 235.607 320.887 235.311 321.471C235.03 322.057 234.607 322.671 234.04 323.313C233.472 323.955 232.745 324.694 231.857 325.532L227.278 329.892L236.047 331.124L236.018 332.804L224.515 331.187ZM244.512 334.286C243.403 334.13 242.425 333.744 241.578 333.128C240.732 332.496 240.07 331.705 239.594 330.757C239.119 329.792 238.891 328.733 238.911 327.581C238.923 326.942 239.005 326.32 239.158 325.716C239.328 325.114 239.568 324.531 239.88 323.965C240.207 323.402 240.598 322.847 241.052 322.302L246.16 316.308L248.442 316.629L242.144 323.898L241.784 324.064C242.029 323.698 242.311 323.433 242.632 323.269C242.953 323.09 243.304 322.979 243.686 322.936C244.084 322.896 244.504 322.907 244.948 322.969C245.978 323.114 246.9 323.492 247.716 324.104C248.531 324.7 249.169 325.455 249.63 326.37C250.106 327.287 250.335 328.305 250.315 329.425C250.296 330.497 250.026 331.429 249.504 332.221C248.998 333 248.313 333.577 247.448 333.953C246.584 334.329 245.605 334.44 244.512 334.286ZM244.542 332.606C245.27 332.709 245.923 332.632 246.499 332.376C247.076 332.105 247.536 331.688 247.879 331.127C248.222 330.566 248.401 329.909 248.414 329.158C248.427 328.39 248.273 327.686 247.95 327.048C247.644 326.411 247.208 325.885 246.644 325.469C246.079 325.037 245.425 324.768 244.68 324.664C243.951 324.561 243.291 324.645 242.698 324.914C242.122 325.17 241.662 325.571 241.319 326.116C240.992 326.663 240.822 327.321 240.808 328.089C240.795 328.841 240.95 329.544 241.272 330.198C241.594 330.853 242.037 331.397 242.602 331.829C243.166 332.245 243.813 332.504 244.542 332.606Z" fill="#F7F8FC"/>
<path d="M318.292 311.337C317.353 311.205 316.494 310.916 315.716 310.47C314.938 310.011 314.263 309.435 313.691 308.742C313.132 308.038 312.699 307.243 312.393 306.358C312.087 305.473 311.942 304.527 311.96 303.519C311.977 302.511 312.154 301.61 312.49 300.815C312.825 300.02 313.283 299.351 313.865 298.807C314.458 298.265 315.15 297.881 315.94 297.656C316.73 297.418 317.595 297.365 318.533 297.497C319.437 297.624 320.242 297.899 320.949 298.323C321.668 298.749 322.267 299.254 322.745 299.839C323.236 300.413 323.583 300.997 323.787 301.591L322.44 301.997C322.12 301.17 321.62 300.475 320.939 299.91C320.27 299.335 319.461 298.98 318.51 298.847C317.535 298.71 316.664 298.822 315.895 299.183C315.126 299.544 314.521 300.114 314.078 300.894C313.636 301.662 313.405 302.603 313.386 303.719C313.367 304.823 313.564 305.825 313.977 306.725C314.39 307.625 314.973 308.362 315.725 308.937C316.477 309.5 317.341 309.85 318.315 309.987C319.266 310.121 320.084 310.001 320.77 309.628C321.467 309.257 321.989 308.705 322.335 307.972L323.662 308.754C323.438 309.276 323.072 309.759 322.564 310.205C322.068 310.641 321.455 310.969 320.724 311.191C320.006 311.415 319.195 311.464 318.292 311.337ZM329.654 312.717L325.022 298.625L326.502 298.833L330.568 311.565L330.283 311.524L334.755 299.993L336.252 300.203L331.152 312.928L329.654 312.717ZM341.282 314.351L336.65 300.259L338.13 300.467L342.196 313.199L341.911 313.159L346.383 301.627L347.88 301.838L342.78 314.562L341.282 314.351Z" fill="#F7F8FC"/>
<path d="M311.276 343.381L311.312 341.341L316.251 336.791C319.133 334.141 320.125 333.246 320.153 331.662C320.182 329.959 319.059 328.79 317.396 328.557C315.684 328.316 314.36 329.14 313.852 330.921L311.393 329.854C312.037 327.106 314.516 325.626 317.416 326.034C320.767 326.505 322.989 328.862 322.937 331.837C322.903 333.805 321.781 335.283 319.384 337.496L315.025 341.502L323.082 342.634L323.04 345.034L311.276 343.381ZM333.424 346.493L333.494 342.462L325.057 341.276L325.098 338.924L333.617 328.599L336.398 328.99L336.197 340.484L338.645 340.828L338.604 343.18L336.156 342.836L336.086 346.867L333.424 346.493ZM333.535 340.11L333.673 332.191L327.902 339.319L333.535 340.11ZM346.526 348.623C343.721 348.229 341.23 346.267 340.539 343.548L342.908 342.967C343.496 344.758 344.93 345.873 346.569 346.104C348.542 346.381 349.994 345.117 350.029 343.078C350.065 341.038 348.64 339.395 346.691 339.121C345.337 338.93 344.137 339.435 343.62 340.373L341.371 339.552L342.921 329.907L352.356 331.233L352.315 333.633L344.876 332.587L344.176 337.156C344.995 336.693 345.973 336.59 347.138 336.754C350.608 337.241 352.869 340.109 352.81 343.469C352.75 346.9 350.09 349.124 346.526 348.623Z" fill="#F7F8FC"/>
</g>
</g>
<defs>
<filter id="filter0_dddd_3_400" x="0" y="0.143311" width="800.452" height="661.429" filterUnits="userSpaceOnUse" color-interpolation-filters="sRGB">
<feFlood flood-opacity="0" result="BackgroundImageFix"/>
<feColorMatrix in="SourceAlpha" type="matrix" values="0 0 0 0 0 0 0 0 0 0 0 0 0 0 0 0 0 0 127 0" result="hardAlpha"/>
<feOffset dx="8" dy="10"/>
<feGaussianBlur stdDeviation="14.5"/>
<feColorMatrix type="matrix" values="0 0 0 0 0 0 0 0 0 0 0 0 0 0 0 0 0 0 0.1 0"/>
<feBlend mode="normal" in2="BackgroundImageFix" result="effect1_dropShadow_3_400"/>
<feColorMatrix in="SourceAlpha" type="matrix" values="0 0 0 0 0 0 0 0 0 0 0 0 0 0 0 0 0 0 127 0" result="hardAlpha"/>
<feOffset dx="34" dy="40"/>
<feGaussianBlur stdDeviation="26"/>
<feColorMatrix type="matrix" values="0 0 0 0 0 0 0 0 0 0 0 0 0 0 0 0 0 0 0.09 0"/>
<feBlend mode="normal" in2="effect1_dropShadow_3_400" result="effect2_dropShadow_3_400"/>
<feColorMatrix in="SourceAlpha" type="matrix" values="0 0 0 0 0 0 0 0 0 0 0 0 0 0 0 0 0 0 127 0" result="hardAlpha"/>
<feOffset dx="76" dy="89"/>
<feGaussianBlur stdDeviation="35"/>
<feColorMatrix type="matrix" values="0 0 0 0 0 0 0 0 0 0 0 0 0 0 0 0 0 0 0.05 0"/>
<feBlend mode="normal" in2="effect2_dropShadow_3_400" result="effect3_dropShadow_3_400"/>
<feColorMatrix in="SourceAlpha" type="matrix" values="0 0 0 0 0 0 0 0 0 0 0 0 0 0 0 0 0 0 127 0" result="hardAlpha"/>
<feOffset dx="135" dy="159"/>
<feGaussianBlur stdDeviation="41.5"/>
<feColorMatrix type="matrix" values="0 0 0 0 0 0 0 0 0 0 0 0 0 0 0 0 0 0 0.01 0"/>
<feBlend mode="normal" in2="effect3_dropShadow_3_400" result="effect4_dropShadow_3_400"/>
<feBlend mode="normal" in="SourceGraphic" in2="effect4_dropShadow_3_400" result="shape"/>
</filter>
<linearGradient id="paint0_linear_3_400" x1="280.644" y1="0" x2="280.644" y2="322.362" gradientUnits="userSpaceOnUse">
<stop stop-color="#CCCCCC"/>
<stop offset="1" stop-color="#666666"/>
</linearGradient>
<clipPath id="clip0_3_400">
<rect width="561.289" height="322.362" rx="13.653" transform="matrix(0.990268 0.139173 -0.0174524 0.999848 26.626 19.1433)" fill="white"/>
</clipPath>
</defs>
</svg>
