<svg width="836" height="626" viewBox="0 0 836 626" fill="none" xmlns="http://www.w3.org/2000/svg">
<g filter="url(#filter0_dddd_3_422)">
<g clip-path="url(#clip0_3_422)">
<rect width="561.289" height="322.362" rx="11.3775" transform="matrix(0.978148 -0.207912 0.406737 0.913545 139.86 133.698)" fill="url(#paint0_radial_3_422)"/>
<path d="M281.84 353.93L276.386 341.679L277.618 341.417L289.903 350.092L289.427 350.193L284.837 339.883L286.245 339.583L291.7 351.834L290.467 352.096L278.153 343.355L278.629 343.254L283.249 353.63L281.84 353.93ZM293.449 351.462L292.783 338.194L294.297 337.872L304.541 349.105L303.062 349.419L300.603 346.666L294.74 347.912L294.928 351.148L293.449 351.462ZM294.648 346.581L299.56 345.537L293.768 339.064L294.191 338.975L294.648 346.581ZM306.29 348.733L300.836 336.482L302.068 336.22L309.97 341.849L309.284 341.994L311.224 334.274L312.456 334.012L317.91 346.263L316.502 346.562L311.838 336.088L312.369 336.155L310.451 343.708L310.381 343.723L302.668 338.217L303.035 337.959L307.698 348.433L306.29 348.733ZM321.008 345.604L315.554 333.354L324.005 331.557L324.554 332.791L317.511 334.288L319.407 338.547L326.098 337.124L326.647 338.358L319.957 339.78L321.867 344.072L328.91 342.575L329.459 343.808L321.008 345.604Z" fill="#F7F8FC"/>
<path d="M303.947 382.689C302.71 382.952 301.485 382.988 300.269 382.799C299.048 382.594 297.888 382.201 296.789 381.618C295.699 381.018 294.715 380.251 293.837 379.318C292.959 378.384 292.247 377.304 291.7 376.076C291.153 374.848 290.864 373.678 290.831 372.565C290.798 371.452 290.988 370.435 291.4 369.516C291.829 368.593 292.468 367.817 293.319 367.188C294.163 366.544 295.204 366.091 296.44 365.829C297.629 365.576 298.782 365.547 299.896 365.742C301.027 365.934 302.053 366.276 302.974 366.768C303.905 367.242 304.664 367.793 305.251 368.42L303.903 369.546C303.022 368.645 302.001 368.007 300.839 367.629C299.678 367.252 298.456 367.2 297.172 367.473C295.889 367.746 294.873 368.274 294.125 369.057C293.378 369.839 292.95 370.802 292.842 371.945C292.728 373.074 292.973 374.317 293.578 375.677C294.177 377.022 294.986 378.146 296.005 379.049C297.024 379.952 298.161 380.583 299.416 380.94C300.665 381.282 301.931 381.317 303.215 381.045C304.357 380.802 305.278 380.35 305.978 379.689C306.693 379.025 307.137 378.235 307.312 377.318C307.479 376.386 307.329 375.394 306.86 374.342L306.46 373.443L307.657 374.052L300.755 375.519L300.071 373.985L308.006 372.298L308.611 373.657C309.086 374.724 309.322 375.754 309.319 376.747C309.309 377.725 309.09 378.62 308.663 379.43C308.236 380.241 307.619 380.932 306.811 381.504C306.013 382.058 305.058 382.453 303.947 382.689ZM314.87 380.079L309.638 368.327L311.398 367.953L316.631 379.705L314.87 380.079ZM308.671 366.157L307.597 363.745L309.358 363.371L310.432 365.782L308.671 366.157ZM324.718 378.274C323.513 378.53 322.33 378.47 321.168 378.092C320.007 377.715 319.004 377.08 318.161 376.188L319.348 375.215C320.026 375.855 320.781 376.319 321.611 376.606C322.457 376.89 323.272 376.949 324.054 376.783C324.805 376.623 325.364 376.32 325.731 375.874C326.092 375.414 326.148 374.906 325.901 374.35C325.719 373.941 325.45 373.646 325.096 373.466C324.735 373.27 324.36 373.142 323.973 373.08C323.586 373.018 323.254 372.985 322.978 372.98L320.955 372.882C319.661 372.821 318.631 372.568 317.868 372.122C317.104 371.676 316.559 371.088 316.234 370.357C315.928 369.67 315.849 369.031 315.997 368.44C316.145 367.848 316.478 367.345 316.996 366.931C317.514 366.517 318.164 366.227 318.946 366.061C320.011 365.834 321.09 365.893 322.185 366.236C323.289 366.562 324.226 367.146 324.996 367.991L323.787 368.968C323.181 368.377 322.499 367.961 321.742 367.722C320.994 367.465 320.26 367.414 319.54 367.567C318.835 367.716 318.347 368.004 318.074 368.43C317.801 368.856 317.779 369.325 318.006 369.836C318.182 370.231 318.431 370.522 318.755 370.709C319.078 370.897 319.406 371.019 319.74 371.076C320.09 371.13 320.387 371.162 320.632 371.174L322.975 371.3C324.116 371.362 325.098 371.625 325.922 372.09C326.762 372.552 327.357 373.177 327.708 373.966C327.995 374.609 328.056 375.228 327.893 375.823C327.745 376.415 327.399 376.928 326.857 377.363C326.307 377.784 325.594 378.088 324.718 378.274ZM338.024 375.446C336.85 375.695 335.669 375.658 334.48 375.335C333.3 374.994 332.228 374.414 331.264 373.595C330.299 372.776 329.554 371.774 329.026 370.59C328.499 369.406 328.3 368.304 328.429 367.285C328.551 366.251 328.949 365.375 329.622 364.655C330.311 363.933 331.227 363.45 332.369 363.208C333.277 363.015 334.155 363.004 335.002 363.176C335.859 363.33 336.658 363.624 337.399 364.058C338.134 364.478 338.785 364.996 339.35 365.612C339.909 366.213 340.345 366.864 340.657 367.566C340.722 367.712 340.789 367.882 340.858 368.075C340.921 368.254 340.978 368.442 341.032 368.638L330.397 370.899L329.714 369.364L339.339 367.318L338.787 368.155C338.57 367.322 338.149 366.627 337.525 366.072C336.91 365.498 336.208 365.096 335.419 364.863C334.624 364.616 333.835 364.576 333.053 364.742C332.27 364.909 331.627 365.253 331.123 365.776C330.635 366.296 330.356 366.939 330.286 367.706C330.21 368.458 330.419 369.294 330.914 370.213C331.252 371.165 331.773 371.95 332.477 372.569C333.19 373.169 333.975 373.586 334.833 373.82C335.706 374.05 336.542 374.081 337.34 373.911C338.264 373.715 338.947 373.345 339.391 372.803C339.835 372.261 340.116 371.641 340.234 370.944L342.068 371.37C342.052 371.949 341.887 372.521 341.572 373.083C341.251 373.632 340.792 374.121 340.196 374.552C339.608 374.965 338.884 375.263 338.024 375.446ZM346.622 373.33L339.232 356.733L340.993 356.359L348.382 372.956L346.622 373.33ZM351.986 372.19L344.596 355.593L346.357 355.218L353.747 371.816L351.986 372.19ZM363.196 370.095C362.022 370.345 360.841 370.308 359.652 369.984C358.472 369.643 357.4 369.063 356.436 368.244C355.471 367.425 354.726 366.424 354.198 365.24C353.671 364.056 353.472 362.954 353.601 361.935C353.723 360.901 354.121 360.024 354.794 359.305C355.483 358.583 356.399 358.1 357.541 357.857C358.449 357.664 359.327 357.654 360.174 357.825C361.031 357.979 361.83 358.274 362.571 358.708C363.306 359.128 363.957 359.645 364.522 360.261C365.081 360.862 365.517 361.514 365.829 362.215C365.894 362.362 365.961 362.531 366.03 362.725C366.093 362.903 366.15 363.091 366.204 363.288L355.569 365.548L354.886 364.013L364.511 361.968L363.959 362.805C363.742 361.971 363.321 361.277 362.697 360.721C362.082 360.148 361.38 359.745 360.591 359.513C359.796 359.266 359.007 359.225 358.225 359.392C357.442 359.558 356.799 359.903 356.295 360.426C355.807 360.946 355.528 361.589 355.459 362.356C355.382 363.108 355.592 363.943 356.086 364.862C356.425 365.814 356.945 366.6 357.649 367.218C358.362 367.819 359.147 368.236 360.005 368.469C360.878 368.7 361.714 368.73 362.512 368.56C363.436 368.364 364.119 367.995 364.563 367.453C365.007 366.91 365.288 366.29 365.406 365.593L367.24 366.02C367.224 366.599 367.059 367.17 366.744 367.733C366.423 368.281 365.964 368.771 365.368 369.202C364.78 369.614 364.057 369.912 363.196 370.095ZM379.257 366.393L366.961 351.127L368.862 350.723L379.716 364.424L379.317 364.508L377.266 348.936L379.262 348.512L390.21 362.193L389.787 362.283L387.643 346.731L389.544 346.327L391.793 363.729L389.797 364.153L378.773 350.416L379.196 350.326L381.252 365.969L379.257 366.393Z" fill="#F7F8FC"/>
<path d="M419.63 324.642L409.369 313.413L410.83 313.102L419.99 323.287L419.708 323.347L418.982 311.369L420.461 311.055L421.109 324.327L419.63 324.642ZM425.26 323.445L424.594 310.176L426.109 309.854L436.352 321.087L434.873 321.402L432.414 318.648L426.551 319.894L426.739 323.131L425.26 323.445ZM426.459 318.564L431.372 317.52L425.58 311.047L426.002 310.957L426.459 318.564ZM438.101 320.715L432.647 308.465L434.055 308.165L438.961 319.183L444.771 317.948L445.32 319.181L438.101 320.715ZM447.455 318.727L442 306.477L443.409 306.177L448.863 318.428L447.455 318.727ZM451.959 317.77L446.505 305.519L450.819 304.602C452.122 304.325 453.367 304.337 454.554 304.636C455.736 304.925 456.796 305.474 457.734 306.282C458.667 307.08 459.412 308.104 459.969 309.353C460.52 310.592 460.737 311.728 460.619 312.761C460.5 313.794 460.072 314.665 459.334 315.374C458.596 316.083 457.576 316.576 456.273 316.853L451.959 317.77ZM452.819 316.237L455.724 315.62C456.733 315.405 457.52 315.022 458.084 314.47C458.643 313.907 458.958 313.216 459.03 312.397C459.114 311.575 458.934 310.665 458.49 309.668C458.046 308.67 457.457 307.853 456.724 307.217C455.986 306.57 455.16 306.127 454.245 305.89C453.324 305.642 452.366 305.623 451.368 305.835L448.463 306.453L452.819 316.237ZM470.29 313.873L465.385 302.856L461.758 303.627L461.209 302.394L469.836 300.56L470.385 301.793L466.793 302.557L471.698 313.574L470.29 313.873ZM477.028 312.441L471.574 300.191L472.983 299.891L475.435 305.4L482.478 303.903L480.025 298.394L481.434 298.095L486.888 310.345L485.48 310.645L483.027 305.136L475.984 306.633L478.437 312.142L477.028 312.441ZM489.993 309.686L484.538 297.435L489.046 296.477C489.902 296.295 490.724 296.294 491.512 296.475C492.294 296.644 492.988 296.977 493.594 297.472C494.207 297.954 494.679 298.567 495.011 299.313C495.396 300.179 495.479 300.971 495.26 301.69C495.052 302.406 494.587 302.979 493.866 303.408L499.148 307.739L497.493 308.091L491.939 303.494L493.116 303.802L489.278 304.617L491.401 309.386L489.993 309.686ZM488.729 303.384L491.898 302.71C492.461 302.591 492.911 302.387 493.245 302.1C493.575 301.802 493.774 301.442 493.843 301.019C493.907 300.585 493.824 300.111 493.595 299.596C493.366 299.081 493.051 298.662 492.65 298.339C492.249 298.016 491.794 297.801 491.283 297.693C490.768 297.575 490.229 297.575 489.665 297.695L486.496 298.369L488.729 303.384ZM505.973 306.505C505.045 306.702 504.149 306.694 503.284 306.482C502.418 306.27 501.653 305.893 500.987 305.35C500.317 304.797 499.801 304.115 499.44 303.303L495.765 295.049L497.173 294.749L500.849 303.004C501.112 303.596 501.479 304.088 501.949 304.48C502.426 304.859 502.961 305.123 503.555 305.273C504.155 305.409 504.778 305.409 505.424 305.272C506.069 305.134 506.579 304.894 506.953 304.551C507.333 304.194 507.561 303.767 507.636 303.271C507.718 302.762 507.627 302.211 507.363 301.619L503.688 293.365L505.096 293.065L508.772 301.32C509.133 302.131 509.261 302.896 509.157 303.614C509.048 304.321 508.722 304.931 508.178 305.442C507.647 305.951 506.912 306.305 505.973 306.505Z" fill="#F7F8FC"/>
<path d="M436.853 354.439C435.476 354.731 434.107 354.638 432.746 354.16C431.394 353.663 430.149 352.848 429.01 351.714C427.865 350.565 426.918 349.15 426.17 347.469C425.422 345.789 425.057 344.258 425.076 342.878C425.089 341.483 425.456 340.325 426.177 339.404C426.897 338.483 427.946 337.876 429.323 337.583C430.701 337.29 432.062 337.385 433.407 337.867C434.752 338.349 435.998 339.165 437.143 340.313C438.282 341.447 439.225 342.855 439.974 344.535C440.722 346.216 441.09 347.754 441.077 349.149C441.08 350.54 440.721 351.697 440 352.618C439.28 353.539 438.231 354.146 436.853 354.439ZM436.121 352.794C437.123 352.581 437.873 352.11 438.37 351.38C438.867 350.651 439.103 349.737 439.076 348.638C439.043 347.525 438.724 346.289 438.119 344.93C437.514 343.57 436.775 342.431 435.904 341.512C435.026 340.579 434.087 339.915 433.089 339.519C432.084 339.108 431.073 339.011 430.055 339.228C429.054 339.44 428.304 339.912 427.807 340.642C427.303 341.357 427.067 342.271 427.1 343.384C427.127 344.482 427.443 345.711 428.048 347.07C428.647 348.415 429.385 349.554 430.263 350.487C431.141 351.421 432.083 352.093 433.088 352.503C434.109 352.91 435.12 353.007 436.121 352.794ZM448.719 351.629L451.49 342.904L451.754 342.631C451.675 343.032 451.525 343.368 451.303 343.639C451.081 343.91 450.802 344.13 450.466 344.297C450.129 344.465 449.734 344.597 449.28 344.693C448.263 344.91 447.25 344.885 446.24 344.619C445.225 344.339 444.302 343.863 443.472 343.192C442.651 342.502 442.016 341.653 441.567 340.645C441.125 339.651 440.973 338.715 441.114 337.837C441.27 336.956 441.669 336.199 442.313 335.566C442.972 334.93 443.833 334.499 444.897 334.273C445.993 334.04 447.067 334.068 448.121 334.356C449.168 334.629 450.116 335.124 450.965 335.839C451.809 336.54 452.464 337.416 452.933 338.469C453.193 339.053 453.372 339.647 453.469 340.251C453.582 340.851 453.614 341.46 453.564 342.079C453.514 342.697 453.385 343.333 453.179 343.985L450.972 351.15L448.719 351.629ZM448.812 343.065C449.547 342.908 450.129 342.617 450.555 342.19C450.976 341.749 451.222 341.225 451.294 340.617C451.375 339.992 451.263 339.336 450.957 338.649C450.645 337.947 450.204 337.361 449.635 336.89C449.059 336.404 448.421 336.068 447.721 335.881C447.014 335.679 446.301 335.655 445.581 335.808C444.861 335.961 444.291 336.258 443.871 336.699C443.444 337.126 443.19 337.652 443.108 338.277C443.021 338.888 443.133 339.544 443.445 340.246C443.751 340.933 444.184 341.52 444.744 342.009C445.314 342.48 445.952 342.817 446.658 343.019C447.374 343.202 448.092 343.218 448.812 343.065ZM460.541 351.996L460.432 332.243L462.474 331.809L462.583 351.562L460.541 351.996ZM470.748 346.946L470.26 345.85L472.907 339.791C473.426 338.609 473.84 337.633 474.148 336.863C474.472 336.091 474.666 335.409 474.729 334.82C474.792 334.231 474.687 333.629 474.413 333.015C473.977 332.036 473.337 331.348 472.492 330.951C471.648 330.555 470.717 330.465 469.699 330.681C468.651 330.904 467.89 331.37 467.418 332.078C466.961 332.783 466.828 333.659 467.02 334.706L465.15 334.72C464.957 333.785 464.983 332.94 465.229 332.183C465.475 331.427 465.918 330.789 466.56 330.268C467.196 329.733 468.007 329.361 468.993 329.151C470.041 328.928 471.045 328.931 472.003 329.159C472.961 329.388 473.812 329.799 474.556 330.393C475.316 330.983 475.894 331.724 476.291 332.616C476.565 333.23 476.687 333.852 476.659 334.482C476.647 335.108 476.514 335.809 476.259 336.583C476.004 337.357 475.641 338.274 475.171 339.334L472.764 344.838L481.427 342.996L482.11 344.531L470.748 346.946ZM490.622 343.01C489.527 343.243 488.456 343.222 487.409 342.949C486.355 342.661 485.407 342.166 484.564 341.465C483.715 340.75 483.055 339.866 482.587 338.814C482.327 338.229 482.14 337.637 482.027 337.037C481.93 336.433 481.906 335.822 481.956 335.204C482.022 334.582 482.15 333.947 482.341 333.298L484.547 326.133L486.801 325.654L484.03 334.379L483.766 334.651C483.838 334.236 483.988 333.9 484.217 333.643C484.438 333.372 484.718 333.153 485.054 332.985C485.406 332.814 485.802 332.682 486.24 332.589C487.257 332.373 488.274 332.405 489.289 332.685C490.298 332.951 491.21 333.421 492.024 334.096C492.854 334.767 493.497 335.615 493.953 336.638C494.389 337.617 494.532 338.555 494.383 339.45C494.242 340.328 493.851 341.084 493.207 341.716C492.564 342.349 491.702 342.78 490.622 343.01ZM489.939 341.475C490.659 341.322 491.232 341.032 491.659 340.605C492.079 340.164 492.33 339.631 492.411 339.005C492.493 338.38 492.381 337.724 492.075 337.037C491.762 336.335 491.321 335.749 490.752 335.278C490.198 334.804 489.571 334.473 488.871 334.286C488.165 334.084 487.444 334.061 486.708 334.218C485.988 334.371 485.41 334.67 484.974 335.114C484.547 335.541 484.29 336.06 484.202 336.67C484.13 337.278 484.25 337.932 484.563 338.634C484.868 339.321 485.309 339.907 485.885 340.393C486.461 340.878 487.102 341.222 487.809 341.424C488.509 341.611 489.219 341.628 489.939 341.475Z" fill="#F7F8FC"/>
<path d="M549.864 297.176C548.936 297.373 548.017 297.4 547.106 297.258C546.189 297.104 545.319 296.809 544.495 296.373C543.678 295.922 542.94 295.347 542.282 294.647C541.623 293.947 541.089 293.137 540.679 292.216C540.269 291.295 540.051 290.417 540.027 289.582C540.002 288.748 540.144 287.985 540.454 287.296C540.775 286.603 541.255 286.021 541.893 285.55C542.526 285.067 543.306 284.727 544.234 284.53C545.126 284.341 545.99 284.319 546.826 284.465C547.674 284.609 548.443 284.865 549.134 285.235C549.832 285.59 550.401 286.003 550.842 286.474L549.763 287.297C549.117 286.654 548.359 286.191 547.488 285.909C546.623 285.612 545.722 285.564 544.783 285.764C543.82 285.968 543.059 286.364 542.498 286.951C541.937 287.538 541.616 288.261 541.535 289.118C541.449 289.964 541.633 290.897 542.087 291.916C542.536 292.925 543.143 293.768 543.907 294.446C544.671 295.123 545.524 295.596 546.466 295.864C547.402 296.121 548.352 296.147 549.315 295.942C550.254 295.743 550.962 295.358 551.441 294.788C551.932 294.216 552.183 293.539 552.194 292.756L553.756 293.018C553.769 293.567 553.634 294.13 553.351 294.706C553.075 295.269 552.645 295.774 552.06 296.223C551.488 296.668 550.756 296.986 549.864 297.176ZM560.996 294.593L550.735 283.364L552.196 283.054L561.356 293.239L561.074 293.299L560.348 281.321L561.827 281.007L562.475 294.279L560.996 294.593ZM572.481 292.152L562.22 280.923L563.682 280.612L572.842 290.797L572.56 290.857L571.834 278.88L573.312 278.565L573.96 291.838L572.481 292.152Z" fill="#F7F8FC"/>
<path d="M559.981 327.979L553.392 313.18L550.105 313.878L549.422 312.344L554.586 311.246L561.859 327.58L559.981 327.979ZM565.805 326.741L565.317 325.645L567.964 319.586C568.483 318.404 568.896 317.428 569.205 316.658C569.529 315.886 569.722 315.204 569.785 314.615C569.848 314.026 569.743 313.424 569.47 312.81C569.034 311.831 568.394 311.143 567.549 310.746C566.704 310.35 565.773 310.26 564.756 310.476C563.708 310.699 562.947 311.165 562.474 311.873C562.017 312.578 561.885 313.454 562.077 314.502L560.207 314.515C560.014 313.58 560.04 312.735 560.286 311.978C560.531 311.222 560.975 310.584 561.617 310.063C562.253 309.528 563.063 309.156 564.049 308.946C565.098 308.723 566.101 308.726 567.06 308.954C568.018 309.183 568.869 309.594 569.613 310.188C570.373 310.778 570.951 311.519 571.348 312.411C571.621 313.025 571.744 313.647 571.716 314.277C571.704 314.903 571.57 315.604 571.315 316.378C571.061 317.152 570.698 318.069 570.228 319.129L567.821 324.633L576.484 322.791L577.167 324.326L565.805 326.741ZM585.538 322.835C584.631 323.028 583.728 323.059 582.831 322.93C581.934 322.801 581.076 322.527 580.256 322.109C579.452 321.688 578.735 321.137 578.106 320.455L579.315 319.477C580.053 320.249 580.915 320.801 581.904 321.135C582.885 321.455 583.869 321.509 584.855 321.3C585.638 321.134 586.272 320.847 586.759 320.439C587.239 320.017 587.531 319.499 587.634 318.885C587.738 318.271 587.617 317.577 587.272 316.802C586.927 316.027 586.455 315.408 585.854 314.944C585.269 314.476 584.609 314.168 583.875 314.02C583.141 313.872 582.383 313.881 581.6 314.048C581.397 314.091 581.173 314.146 580.929 314.214C580.701 314.279 580.515 314.342 580.372 314.405L579.655 313.717L581.884 307.123L573.832 308.835L573.148 307.3L583.313 305.14L583.997 306.674L581.897 312.809L581.535 312.574C582.597 312.38 583.632 312.416 584.641 312.681C585.644 312.932 586.535 313.375 587.314 314.009C588.109 314.64 588.721 315.438 589.15 316.403C589.58 317.368 589.72 318.298 589.571 319.194C589.415 320.075 588.995 320.844 588.311 321.501C587.621 322.144 586.696 322.589 585.538 322.835Z" fill="#F7F8FC"/>
<g style="mix-blend-mode:soft-light">
<circle cx="22.3757" cy="22.3757" r="22.3757" transform="matrix(0.978148 -0.207912 0.406737 0.913545 582.39 71.4929)" fill="#F7F8FC"/>
</g>
<g style="mix-blend-mode:soft-light">
<circle cx="22.3757" cy="22.3757" r="22.3757" transform="matrix(0.978148 -0.207912 0.406737 0.913545 612.068 65.1851)" fill="#F7F8FC"/>
</g>
<path d="M258.452 294.051L262.147 282.418L262.499 282.055C262.395 282.589 262.194 283.037 261.899 283.399C261.603 283.76 261.23 284.053 260.782 284.276C260.333 284.5 259.806 284.676 259.201 284.804C257.844 285.092 256.494 285.06 255.148 284.706C253.794 284.332 252.564 283.698 251.457 282.802C250.362 281.883 249.516 280.751 248.917 279.406C248.327 278.081 248.125 276.833 248.312 275.663C248.52 274.488 249.053 273.478 249.911 272.635C250.79 271.787 251.938 271.212 253.357 270.91C254.818 270.6 256.251 270.637 257.655 271.021C259.051 271.385 260.315 272.045 261.448 272.998C262.572 273.933 263.447 275.102 264.071 276.505C264.418 277.284 264.657 278.076 264.787 278.881C264.937 279.681 264.979 280.493 264.912 281.318C264.846 282.143 264.675 282.99 264.399 283.859L261.457 293.412L258.452 294.051ZM258.577 282.633C259.557 282.424 260.332 282.036 260.901 281.467C261.462 280.878 261.79 280.179 261.886 279.369C261.995 278.536 261.845 277.661 261.437 276.745C261.021 275.809 260.433 275.028 259.674 274.4C258.906 273.752 258.055 273.304 257.121 273.054C256.179 272.785 255.228 272.753 254.268 272.957C253.309 273.161 252.548 273.557 251.988 274.145C251.419 274.714 251.08 275.416 250.972 276.249C250.855 277.063 251.004 277.938 251.421 278.874C251.829 279.79 252.406 280.574 253.153 281.226C253.913 281.854 254.763 282.302 255.705 282.571C256.66 282.816 257.617 282.837 258.577 282.633ZM282.575 289.308C281.073 289.627 279.601 289.631 278.16 289.318C276.731 288.982 275.451 288.39 274.32 287.543C273.201 286.671 272.359 285.602 271.795 284.335C271.179 282.951 271.046 281.625 271.394 280.356C271.764 279.083 272.573 278.079 273.822 277.344L274.096 277.958C272.79 277.745 271.639 277.264 270.644 276.516C269.64 275.748 268.912 274.857 268.461 273.844C267.983 272.772 267.85 271.755 268.061 270.793C268.273 269.831 268.76 269.002 269.524 268.306C270.3 267.586 271.314 267.093 272.566 266.827C273.839 266.557 275.074 266.561 276.272 266.84C277.461 267.099 278.528 267.597 279.473 268.335C280.431 269.049 281.152 269.952 281.638 271.043C282.124 272.134 282.245 273.175 282.001 274.166C281.748 275.137 281.21 275.955 280.387 276.621L280.082 276.014C281.713 276.136 283.189 276.655 284.509 277.569C285.851 278.478 286.83 279.625 287.446 281.009C288.01 282.275 288.173 283.489 287.936 284.648C287.71 285.784 287.133 286.771 286.204 287.608C285.287 288.422 284.077 288.988 282.575 289.308ZM281.664 287.261C282.728 287.035 283.574 286.653 284.202 286.114C284.822 285.556 285.199 284.889 285.333 284.114C285.48 283.314 285.349 282.457 284.942 281.541C284.534 280.625 283.948 279.875 283.186 279.29C282.435 278.682 281.581 278.276 280.623 278.075C279.657 277.853 278.641 277.856 277.577 278.082C276.513 278.308 275.661 278.703 275.02 279.266C274.392 279.804 274.015 280.471 273.889 281.266C273.755 282.041 273.892 282.887 274.299 283.803C274.707 284.719 275.286 285.481 276.037 286.09C276.779 286.678 277.633 287.084 278.6 287.305C279.578 287.502 280.6 287.488 281.664 287.261ZM276.666 276.036C277.438 275.872 278.062 275.579 278.537 275.158C279.003 274.718 279.296 274.197 279.417 273.595C279.549 272.97 279.455 272.296 279.134 271.575C278.813 270.854 278.348 270.27 277.738 269.824C277.149 269.373 276.487 269.066 275.751 268.902C275.007 268.719 274.249 268.71 273.477 268.874C272.705 269.038 272.075 269.342 271.588 269.787C271.113 270.208 270.805 270.722 270.664 271.328C270.543 271.929 270.644 272.591 270.965 273.312C271.286 274.033 271.745 274.628 272.343 275.099C272.953 275.545 273.63 275.86 274.374 276.043C275.13 276.202 275.894 276.2 276.666 276.036ZM294.06 286.482L293.41 285.021L296.94 276.942C297.631 275.366 298.183 274.065 298.594 273.039C299.026 272.008 299.284 271.1 299.368 270.314C299.452 269.528 299.312 268.726 298.947 267.908C298.366 266.602 297.512 265.685 296.386 265.156C295.26 264.628 294.019 264.507 292.662 264.796C291.264 265.093 290.25 265.714 289.62 266.658C289.011 267.599 288.834 268.767 289.09 270.163L286.597 270.181C286.339 268.934 286.374 267.807 286.701 266.799C287.029 265.79 287.621 264.939 288.477 264.245C289.324 263.532 290.405 263.035 291.72 262.756C293.118 262.459 294.456 262.462 295.733 262.767C297.011 263.071 298.146 263.619 299.138 264.411C300.151 265.199 300.922 266.187 301.451 267.375C301.816 268.194 301.98 269.023 301.942 269.863C301.926 270.699 301.748 271.632 301.408 272.665C301.068 273.697 300.585 274.92 299.958 276.333L296.749 283.671L308.299 281.216L309.21 283.262L294.06 286.482ZM316.679 281.675L307.893 261.942L303.511 262.874L302.6 260.827L309.486 259.364L319.183 281.143L316.679 281.675Z" fill="#F7F8FC"/>
<path d="M342.739 276.135L346.434 264.502L346.786 264.139C346.682 264.673 346.481 265.121 346.185 265.483C345.89 265.845 345.517 266.137 345.069 266.36C344.62 266.584 344.093 266.76 343.488 266.888C342.131 267.177 340.78 267.144 339.435 266.79C338.081 266.416 336.851 265.782 335.744 264.886C334.649 263.967 333.803 262.835 333.204 261.49C332.614 260.165 332.412 258.917 332.599 257.747C332.807 256.572 333.34 255.563 334.198 254.719C335.077 253.871 336.225 253.296 337.644 252.994C339.105 252.684 340.538 252.721 341.942 253.105C343.338 253.47 344.602 254.129 345.735 255.083C346.859 256.017 347.734 257.186 348.358 258.589C348.705 259.369 348.944 260.161 349.074 260.965C349.224 261.765 349.266 262.577 349.199 263.402C349.133 264.227 348.962 265.074 348.686 265.943L345.744 275.497L342.739 276.135ZM342.864 264.717C343.844 264.509 344.619 264.12 345.188 263.551C345.749 262.962 346.077 262.263 346.173 261.454C346.282 260.62 346.132 259.745 345.724 258.829C345.308 257.894 344.72 257.112 343.961 256.484C343.193 255.836 342.342 255.388 341.408 255.138C340.466 254.869 339.515 254.837 338.555 255.041C337.596 255.245 336.835 255.641 336.275 256.229C335.706 256.798 335.367 257.5 335.259 258.333C335.142 259.148 335.291 260.023 335.708 260.958C336.116 261.874 336.693 262.658 337.44 263.31C338.2 263.938 339.05 264.386 339.992 264.655C340.947 264.901 341.904 264.921 342.864 264.717ZM366.236 271.525C365.026 271.782 363.822 271.825 362.626 271.652C361.43 271.48 360.286 271.115 359.193 270.558C358.12 269.997 357.165 269.261 356.326 268.352L357.939 267.049C358.922 268.077 360.072 268.814 361.39 269.259C362.698 269.685 364.01 269.758 365.325 269.479C366.368 269.257 367.214 268.874 367.863 268.331C368.504 267.768 368.893 267.078 369.031 266.259C369.169 265.44 369.008 264.515 368.548 263.482C368.088 262.449 367.458 261.623 366.657 261.004C365.877 260.38 364.997 259.97 364.018 259.772C363.04 259.575 362.029 259.587 360.985 259.809C360.714 259.867 360.416 259.941 360.091 260.031C359.786 260.117 359.539 260.202 359.347 260.285L358.391 259.369L361.363 250.577L350.627 252.859L349.716 250.812L363.269 247.932L364.18 249.978L361.381 258.157L360.898 257.844C362.314 257.585 363.694 257.633 365.04 257.987C366.376 258.322 367.564 258.912 368.603 259.758C369.663 260.599 370.479 261.663 371.052 262.949C371.625 264.236 371.811 265.476 371.612 266.67C371.404 267.845 370.845 268.871 369.933 269.747C369.012 270.604 367.78 271.197 366.236 271.525ZM381.617 267.872L372.831 248.139L368.449 249.071L367.538 247.024L374.424 245.561L384.121 267.34L381.617 267.872ZM393.232 265.403L384.447 245.67L380.065 246.602L379.153 244.555L386.04 243.092L395.736 264.871L393.232 265.403Z" fill="#F7F8FC"/>
<path d="M416.478 260.462L415.827 259L419.357 250.922C420.049 249.345 420.6 248.044 421.011 247.018C421.443 245.988 421.701 245.08 421.785 244.294C421.87 243.508 421.729 242.706 421.365 241.887C420.784 240.581 419.93 239.664 418.804 239.135C417.677 238.607 416.436 238.487 415.08 238.775C413.682 239.072 412.668 239.693 412.037 240.638C411.428 241.578 411.252 242.746 411.508 244.142L409.015 244.16C408.756 242.914 408.791 241.786 409.119 240.778C409.447 239.77 410.039 238.919 410.895 238.225C411.742 237.511 412.823 237.015 414.137 236.735C415.536 236.438 416.873 236.442 418.151 236.746C419.429 237.051 420.564 237.599 421.556 238.391C422.569 239.178 423.34 240.166 423.869 241.355C424.233 242.173 424.397 243.003 424.36 243.842C424.344 244.678 424.165 245.612 423.826 246.644C423.486 247.676 423.002 248.899 422.375 250.312L419.167 257.65L430.716 255.195L431.628 257.242L416.478 260.462ZM442.977 255.213C441.516 255.524 440.088 255.497 438.692 255.132C437.288 254.748 436.024 254.089 434.9 253.154C433.767 252.2 432.888 251.022 432.263 249.619C431.916 248.839 431.667 248.049 431.517 247.249C431.387 246.445 431.355 245.63 431.422 244.805C431.51 243.976 431.681 243.129 431.935 242.264L434.877 232.711L437.882 232.072L434.188 243.706L433.835 244.068C433.931 243.515 434.132 243.067 434.436 242.725C434.732 242.363 435.104 242.071 435.553 241.847C436.023 241.619 436.55 241.443 437.134 241.319C438.49 241.031 439.845 241.074 441.2 241.447C442.545 241.801 443.761 242.428 444.846 243.328C445.953 244.223 446.81 245.353 447.418 246.717C447.999 248.023 448.19 249.273 447.991 250.468C447.804 251.638 447.282 252.645 446.424 253.489C445.566 254.332 444.417 254.907 442.977 255.213ZM442.066 253.167C443.026 252.963 443.79 252.576 444.359 252.007C444.92 251.419 445.254 250.708 445.363 249.874C445.471 249.04 445.321 248.166 444.914 247.25C444.497 246.314 443.909 245.532 443.15 244.905C442.412 244.272 441.576 243.831 440.642 243.582C439.7 243.312 438.739 243.282 437.758 243.491C436.798 243.695 436.028 244.093 435.446 244.686C434.877 245.255 434.534 245.947 434.417 246.761C434.321 247.571 434.481 248.443 434.897 249.379C435.305 250.295 435.893 251.076 436.661 251.724C437.429 252.371 438.284 252.829 439.226 253.099C440.16 253.348 441.106 253.371 442.066 253.167ZM454.58 252.363L456.312 230.395L444.668 232.87L443.757 230.824L457.998 227.796L458.91 229.843L457.209 251.804L454.58 252.363ZM478.1 247.748C476.89 248.005 475.676 248.049 474.459 247.881C473.263 247.709 472.119 247.344 471.026 246.787C469.933 246.23 468.967 245.497 468.128 244.587L469.646 243.305C470.63 244.333 471.811 245.063 473.191 245.495C474.584 245.903 475.916 245.972 477.189 245.701C478.212 245.484 479.02 245.067 479.613 244.45C480.227 243.829 480.595 243.089 480.715 242.232C480.827 241.355 480.671 240.439 480.246 239.484C479.803 238.49 479.173 237.664 478.354 237.006C477.557 236.343 476.666 235.882 475.682 235.622C474.69 235.342 473.693 235.308 472.691 235.521C471.669 235.739 470.819 236.165 470.142 236.799C469.477 237.41 469.086 238.069 468.967 238.777L466.839 238.845L463.333 226.662L475.134 224.154L476.045 226.201L465.152 228.516L465.771 227.52L468.501 237.116L467.349 236.913C467.706 235.92 468.297 235.143 469.122 234.584C469.937 234.005 470.857 233.607 471.879 233.39C473.382 233.071 474.854 233.12 476.297 233.539C477.731 233.938 479.014 234.615 480.147 235.569C481.292 236.498 482.16 237.626 482.75 238.951C483.348 240.296 483.546 241.587 483.344 242.825C483.153 244.039 482.602 245.084 481.69 245.961C480.799 246.833 479.603 247.428 478.1 247.748Z" fill="#F7F8FC"/>
<path d="M508.528 240.896L499.742 221.164L495.36 222.095L494.449 220.049L501.335 218.585L511.032 240.364L508.528 240.896ZM520.143 238.427L511.358 218.695L506.975 219.626L506.064 217.58L512.951 216.116L522.647 237.895L520.143 238.427ZM527.909 236.777L527.258 235.315L530.788 227.237C531.479 225.66 532.031 224.359 532.442 223.333C532.874 222.303 533.132 221.394 533.216 220.608C533.3 219.823 533.16 219.02 532.796 218.202C532.214 216.896 531.36 215.979 530.234 215.45C529.108 214.922 527.867 214.801 526.51 215.09C525.112 215.387 524.098 216.008 523.468 216.952C522.859 217.893 522.682 219.061 522.938 220.457L520.445 220.475C520.187 219.229 520.222 218.101 520.55 217.093C520.877 216.084 521.469 215.233 522.325 214.539C523.172 213.826 524.253 213.33 525.568 213.05C526.966 212.753 528.304 212.757 529.582 213.061C530.859 213.365 531.994 213.914 532.986 214.705C533.999 215.493 534.77 216.481 535.3 217.67C535.664 218.488 535.828 219.317 535.79 220.157C535.774 220.993 535.596 221.927 535.256 222.959C534.916 223.991 534.433 225.214 533.806 226.627L530.597 233.965L542.147 231.51L543.058 233.556L527.909 236.777ZM546.677 232.787L546.026 231.326L549.556 223.247C550.248 221.671 550.799 220.37 551.21 219.344C551.642 218.313 551.9 217.405 551.984 216.619C552.068 215.833 551.928 215.031 551.564 214.213C550.982 212.907 550.129 211.99 549.002 211.461C547.876 210.932 546.635 210.812 545.279 211.1C543.88 211.398 542.866 212.019 542.236 212.963C541.627 213.903 541.45 215.072 541.706 216.468L539.213 216.486C538.955 215.239 538.99 214.112 539.318 213.103C539.645 212.095 540.237 211.244 541.093 210.55C541.941 209.837 543.022 209.34 544.336 209.061C545.734 208.764 547.072 208.767 548.35 209.072C549.627 209.376 550.762 209.924 551.754 210.716C552.767 211.503 553.538 212.491 554.068 213.68C554.432 214.499 554.596 215.328 554.559 216.168C554.542 217.003 554.364 217.937 554.024 218.97C553.684 220.002 553.201 221.225 552.574 222.638L549.365 229.976L560.915 227.521L561.826 229.567L546.677 232.787Z" fill="#F7F8FC"/>
<g style="mix-blend-mode:overlay" opacity="0.45">
<rect width="50.8194" height="50.8194" transform="matrix(0.978148 -0.207912 0.406737 0.913545 139.86 133.698)" fill="#595959"/>
</g>
<g style="mix-blend-mode:overlay" opacity="0.45">
<rect width="50.8194" height="50.8194" transform="matrix(0.978148 -0.207912 0.406737 0.913545 210.239 169.559)" fill="#595959"/>
</g>
<g style="mix-blend-mode:overlay" opacity="0.45">
<rect width="81.9178" height="50.8194" transform="matrix(0.978148 -0.207912 0.406737 0.913545 237.051 113.04)" fill="#595959"/>
</g>
</g>
</g>
<defs>
<filter id="filter0_dddd_3_422" x="-79.8361" y="-1.95148" width="919.489" height="663.877" filterUnits="userSpaceOnUse" color-interpolation-filters="sRGB">
<feFlood flood-opacity="0" result="BackgroundImageFix"/>
<feColorMatrix in="SourceAlpha" type="matrix" values="0 0 0 0 0 0 0 0 0 0 0 0 0 0 0 0 0 0 127 0" result="hardAlpha"/>
<feOffset dx="-8.42288" dy="9.12478"/>
<feGaussianBlur stdDeviation="14.0381"/>
<feColorMatrix type="matrix" values="0 0 0 0 0 0 0 0 0 0 0 0 0 0 0 0 0 0 0.1 0"/>
<feBlend mode="normal" in2="BackgroundImageFix" result="effect1_dropShadow_3_422"/>
<feColorMatrix in="SourceAlpha" type="matrix" values="0 0 0 0 0 0 0 0 0 0 0 0 0 0 0 0 0 0 127 0" result="hardAlpha"/>
<feOffset dx="-34.3934" dy="37.903"/>
<feGaussianBlur stdDeviation="25.6196"/>
<feColorMatrix type="matrix" values="0 0 0 0 0 0 0 0 0 0 0 0 0 0 0 0 0 0 0.09 0"/>
<feBlend mode="normal" in2="effect1_dropShadow_3_422" result="effect2_dropShadow_3_422"/>
<feColorMatrix in="SourceAlpha" type="matrix" values="0 0 0 0 0 0 0 0 0 0 0 0 0 0 0 0 0 0 127 0" result="hardAlpha"/>
<feOffset dx="-77.2097" dy="84.9307"/>
<feGaussianBlur stdDeviation="34.3934"/>
<feColorMatrix type="matrix" values="0 0 0 0 0 0 0 0 0 0 0 0 0 0 0 0 0 0 0.05 0"/>
<feBlend mode="normal" in2="effect2_dropShadow_3_422" result="effect3_dropShadow_3_422"/>
<feColorMatrix in="SourceAlpha" type="matrix" values="0 0 0 0 0 0 0 0 0 0 0 0 0 0 0 0 0 0 127 0" result="hardAlpha"/>
<feOffset dx="-137.574" dy="151.612"/>
<feGaussianBlur stdDeviation="41.0615"/>
<feColorMatrix type="matrix" values="0 0 0 0 0 0 0 0 0 0 0 0 0 0 0 0 0 0 0.01 0"/>
<feBlend mode="normal" in2="effect3_dropShadow_3_422" result="effect4_dropShadow_3_422"/>
<feBlend mode="normal" in="SourceGraphic" in2="effect4_dropShadow_3_422" result="shape"/>
</filter>
<radialGradient id="paint0_radial_3_422" cx="0" cy="0" r="1" gradientUnits="userSpaceOnUse" gradientTransform="translate(282.013 27.5187) rotate(90.266) scale(294.846 513.372)">
<stop stop-color="#1FA2F2"/>
<stop offset="1" stop-color="#1A6BDE"/>
</radialGradient>
<clipPath id="clip0_3_422">
<rect width="561.289" height="322.362" rx="13.653" transform="matrix(0.978148 -0.207912 0.406737 0.913545 139.861 133.698)" fill="white"/>
</clipPath>
</defs>
</svg>
