<svg width="814" height="757" viewBox="0 0 814 757" fill="none" xmlns="http://www.w3.org/2000/svg">
<g filter="url(#filter0_dddd_3_500)">
<g clip-path="url(#clip0_3_500)">
<rect width="684.487" height="393.118" rx="13.8747" transform="matrix(0.978148 -0.207912 0.406737 0.913545 47.001 161.573)" fill="url(#paint0_linear_3_500)"/>
<g style="mix-blend-mode:soft-light">
<circle cx="27.287" cy="27.287" r="27.287" transform="matrix(0.978148 -0.207912 0.406737 0.913545 586.662 85.7133)" fill="white"/>
</g>
<g style="mix-blend-mode:soft-light">
<circle cx="27.287" cy="27.287" r="27.287" transform="matrix(0.978148 -0.207912 0.406737 0.913545 622.856 78.0205)" fill="white"/>
</g>
<path d="M185.177 328.947C186.26 328.726 187.425 328.688 188.672 328.835C189.919 328.982 191.182 329.396 192.462 330.079C193.738 330.754 194.979 331.782 196.185 333.164C197.391 334.545 198.496 336.365 199.501 338.621C200.473 340.806 201.114 342.793 201.424 344.585C201.739 346.366 201.739 347.925 201.425 349.262C201.119 350.597 200.508 351.69 199.593 352.542C198.686 353.392 197.492 353.974 196.01 354.289C194.536 354.602 193.1 354.61 191.701 354.311C190.307 354.003 189.024 353.439 187.853 352.62C186.686 351.79 185.712 350.749 184.929 349.497L188.065 348.83C188.85 349.898 189.826 350.711 190.993 351.269C192.166 351.817 193.446 351.943 194.834 351.648C196.865 351.217 198.098 350.048 198.534 348.142C198.979 346.234 198.528 343.768 197.182 340.743L196.976 340.787C196.796 341.561 196.484 342.262 196.042 342.891C195.599 343.519 195.034 344.051 194.346 344.486C193.659 344.921 192.861 345.236 191.952 345.429C190.444 345.749 188.906 345.695 187.336 345.267C185.772 344.828 184.34 344.077 183.041 343.013C181.747 341.939 180.747 340.61 180.042 339.026C179.372 337.521 179.119 336.069 179.283 334.667C179.452 333.256 180.026 332.039 181.006 331.016C181.994 329.992 183.384 329.302 185.177 328.947ZM186.353 331.588C185.273 331.817 184.413 332.276 183.772 332.964C183.136 333.642 182.754 334.459 182.626 335.415C182.504 336.361 182.67 337.346 183.126 338.37C183.582 339.394 184.237 340.276 185.091 341.014C185.95 341.742 186.91 342.265 187.97 342.583C189.036 342.891 190.108 342.93 191.188 342.7C192.002 342.527 192.694 342.218 193.265 341.773C193.832 341.319 194.261 340.777 194.552 340.146C194.848 339.505 194.999 338.82 195.003 338.092C195.003 337.357 194.841 336.625 194.517 335.896C194.09 334.936 193.44 334.089 192.569 333.354C191.707 332.618 190.727 332.081 189.63 331.745C188.542 331.407 187.449 331.355 186.353 331.588ZM219.056 349.39C217.291 349.765 215.602 349.805 213.988 349.508C212.379 349.202 210.968 348.613 209.755 347.741C208.537 346.861 207.638 345.756 207.055 344.426C206.583 343.387 206.374 342.381 206.428 341.406C206.478 340.423 206.756 339.553 207.264 338.797C207.776 338.031 208.477 337.466 209.365 337.102L209.301 336.958C207.906 336.922 206.61 336.475 205.412 335.617C204.21 334.751 203.324 333.665 202.751 332.359C202.187 331.113 202.029 329.925 202.276 328.795C202.523 327.665 203.12 326.688 204.066 325.865C205.021 325.04 206.27 324.464 207.812 324.136C209.337 323.812 210.826 323.806 212.279 324.119C213.731 324.433 215.019 325.008 216.143 325.847C217.275 326.684 218.123 327.725 218.688 328.972C219.26 330.278 219.397 331.523 219.099 332.708C218.806 333.883 218.11 334.753 217.012 335.319L217.076 335.463C218.098 335.421 219.124 335.619 220.154 336.057C221.18 336.487 222.118 337.098 222.968 337.89C223.814 338.674 224.473 339.585 224.944 340.623C225.527 341.953 225.669 343.22 225.37 344.422C225.075 345.615 224.387 346.65 223.306 347.528C222.229 348.396 220.813 349.017 219.056 349.39ZM217.881 346.75C219.072 346.496 220.02 346.098 220.725 345.554C221.43 345.01 221.872 344.36 222.051 343.603C222.23 342.847 222.128 342.028 221.744 341.146C221.323 340.219 220.7 339.454 219.878 338.849C219.055 338.244 218.116 337.831 217.06 337.608C216.013 337.384 214.933 337.391 213.819 337.627C212.697 337.866 211.785 338.283 211.084 338.879C210.392 339.473 209.952 340.179 209.763 340.999C209.584 341.817 209.705 342.689 210.126 343.615C210.51 344.497 211.079 345.217 211.834 345.775C212.597 346.331 213.496 346.696 214.53 346.871C215.564 347.045 216.681 347.005 217.881 346.75ZM212.686 335.083C213.629 334.882 214.386 334.529 214.957 334.022C215.537 333.513 215.896 332.898 216.035 332.177C216.173 331.455 216.058 330.67 215.689 329.82C215.31 328.989 214.777 328.31 214.092 327.781C213.403 327.244 212.619 326.885 211.741 326.704C210.86 326.515 209.935 326.523 208.967 326.729C207.981 326.938 207.197 327.293 206.613 327.794C206.026 328.286 205.67 328.888 205.545 329.597C205.417 330.299 205.542 331.065 205.921 331.896C206.29 332.746 206.821 333.443 207.514 333.988C208.215 334.531 209.013 334.9 209.906 335.095C210.8 335.291 211.727 335.287 212.686 335.083ZM232.777 346.106L231.815 343.945L236.548 333.217C237.105 331.96 237.542 330.877 237.86 329.968C238.174 329.052 238.338 328.22 238.352 327.472C238.371 326.715 238.213 325.96 237.878 325.208C237.494 324.344 236.938 323.643 236.211 323.106C235.492 322.566 234.675 322.206 233.76 322.024C232.844 321.842 231.91 321.852 230.959 322.054C229.948 322.269 229.153 322.652 228.574 323.205C227.999 323.747 227.662 324.41 227.56 325.194C227.468 325.976 227.63 326.835 228.046 327.771L225.013 328.416C224.372 326.975 224.165 325.635 224.391 324.396C224.618 323.157 225.208 322.103 226.163 321.234C227.126 320.364 228.374 319.765 229.908 319.439C231.45 319.112 232.952 319.125 234.414 319.48C235.875 319.835 237.175 320.457 238.311 321.345C239.447 322.234 240.297 323.31 240.86 324.574C241.263 325.479 241.481 326.4 241.514 327.339C241.553 328.268 241.379 329.352 240.992 330.59C240.611 331.819 240.003 333.349 239.168 335.182L235.885 342.344L235.971 342.536L248.206 339.936L249.382 342.577L232.777 346.106ZM252.998 314.899L263.943 339.481L260.756 340.159L251.2 318.698L251.046 318.73L246.394 324.081L245.048 321.056L249.811 315.577L252.998 314.899Z" fill="white"/>
<path d="M287.393 307.22C288.476 306.999 289.641 306.962 290.888 307.108C292.135 307.255 293.399 307.67 294.678 308.352C295.954 309.027 297.195 310.055 298.401 311.437C299.607 312.819 300.712 314.638 301.717 316.894C302.689 319.079 303.331 321.067 303.64 322.858C303.955 324.639 303.955 326.198 303.641 327.535C303.335 328.87 302.724 329.964 301.809 330.815C300.903 331.665 299.708 332.247 298.226 332.562C296.752 332.876 295.316 332.883 293.917 332.585C292.523 332.277 291.24 331.713 290.069 330.893C288.902 330.064 287.928 329.023 287.145 327.77L290.281 327.103C291.066 328.172 292.042 328.985 293.21 329.542C294.382 330.09 295.662 330.217 297.05 329.922C299.081 329.49 300.314 328.321 300.751 326.415C301.195 324.508 300.744 322.041 299.398 319.017L299.192 319.06C299.012 319.834 298.7 320.536 298.258 321.164C297.815 321.792 297.25 322.324 296.562 322.759C295.875 323.195 295.077 323.509 294.168 323.702C292.66 324.022 291.122 323.968 289.552 323.54C287.988 323.102 286.556 322.351 285.257 321.286C283.963 320.213 282.963 318.883 282.258 317.299C281.588 315.795 281.335 314.342 281.499 312.941C281.668 311.529 282.242 310.312 283.222 309.29C284.21 308.265 285.6 307.575 287.393 307.22ZM288.569 309.861C287.489 310.091 286.629 310.549 285.988 311.237C285.352 311.916 284.97 312.733 284.843 313.688C284.72 314.634 284.886 315.619 285.342 316.643C285.798 317.668 286.453 318.549 287.307 319.287C288.166 320.016 289.126 320.539 290.186 320.856C291.252 321.164 292.324 321.203 293.404 320.974C294.218 320.801 294.91 320.492 295.481 320.046C296.048 319.593 296.477 319.05 296.768 318.419C297.064 317.778 297.215 317.094 297.219 316.366C297.219 315.63 297.058 314.898 296.733 314.17C296.306 313.209 295.657 312.362 294.786 311.627C293.923 310.891 292.943 310.355 291.846 310.019C290.758 309.68 289.666 309.628 288.569 309.861ZM321.735 327.565C320.039 327.926 318.405 327.975 316.835 327.713C315.273 327.45 313.887 326.917 312.676 326.114C311.47 325.302 310.547 324.259 309.904 322.985L313.143 322.296C313.564 323.074 314.16 323.696 314.931 324.163C315.698 324.622 316.566 324.919 317.536 325.055C318.506 325.19 319.497 325.15 320.508 324.936C321.639 324.695 322.559 324.298 323.269 323.744C323.98 323.19 324.437 322.532 324.642 321.771C324.847 321.009 324.757 320.196 324.372 319.332C323.969 318.427 323.375 317.682 322.589 317.096C321.799 316.502 320.854 316.107 319.754 315.912C318.654 315.716 317.436 315.761 316.099 316.045L313.992 316.493L312.816 313.852L314.924 313.404C315.969 313.182 316.807 312.811 317.439 312.291C318.079 311.77 318.479 311.142 318.64 310.407C318.809 309.67 318.701 308.87 318.316 308.005C317.946 307.173 317.426 306.491 316.758 305.959C316.089 305.426 315.319 305.064 314.446 304.873C313.581 304.68 312.665 304.687 311.697 304.893C310.789 305.086 310.001 305.424 309.335 305.907C308.673 306.381 308.22 306.963 307.975 307.655C307.726 308.338 307.761 309.093 308.082 309.918L304.998 310.574C304.475 309.274 304.389 308.058 304.737 306.924C305.082 305.782 305.763 304.805 306.78 303.993C307.806 303.179 309.077 302.611 310.594 302.289C312.222 301.943 313.756 301.954 315.195 302.323C316.631 302.683 317.885 303.297 318.955 304.164C320.026 305.032 320.82 306.045 321.336 307.206C321.953 308.59 322.088 309.853 321.743 310.995C321.407 312.135 320.658 313.035 319.498 313.693L319.583 313.885C321.36 313.788 322.951 314.172 324.359 315.038C325.763 315.896 326.813 317.105 327.508 318.665C328.103 320.001 328.247 321.285 327.941 322.515C327.64 323.735 326.957 324.791 325.891 325.683C324.826 326.576 323.44 327.203 321.735 327.565ZM334.044 297.672L344.989 322.255L341.801 322.932L332.246 301.471L332.092 301.503L327.44 306.854L326.094 303.83L330.857 298.35L334.044 297.672ZM350.867 294.097L361.812 318.679L358.624 319.356L349.069 297.895L348.915 297.928L344.263 303.279L342.917 300.254L347.68 294.774L350.867 294.097Z" fill="white"/>
<path d="M388.412 313.025L387.45 310.864L392.183 300.135C392.739 298.878 393.176 297.796 393.494 296.887C393.808 295.971 393.972 295.139 393.987 294.391C394.006 293.634 393.848 292.879 393.513 292.127C393.128 291.263 392.572 290.562 391.845 290.024C391.127 289.485 390.31 289.125 389.394 288.943C388.478 288.761 387.545 288.771 386.594 288.973C385.583 289.188 384.788 289.571 384.208 290.124C383.634 290.666 383.296 291.329 383.195 292.113C383.102 292.895 383.264 293.754 383.681 294.69L380.648 295.335C380.007 293.894 379.799 292.554 380.026 291.315C380.252 290.075 380.843 289.021 381.797 288.153C382.76 287.282 384.009 286.684 385.542 286.358C387.085 286.03 388.587 286.044 390.048 286.399C391.51 286.754 392.809 287.376 393.946 288.264C395.082 289.153 395.932 290.229 396.495 291.493C396.897 292.397 397.115 293.319 397.149 294.258C397.187 295.187 397.013 296.271 396.627 297.509C396.245 298.738 395.637 300.268 394.803 302.101L391.52 309.263L391.605 309.455L403.84 306.855L405.016 309.495L388.412 313.025ZM419.213 306.846C418.126 307.059 416.961 307.097 415.718 306.958C414.474 306.819 413.213 306.409 411.933 305.726C410.65 305.035 409.406 303.999 408.2 302.617C406.99 301.227 405.88 299.396 404.868 297.124C403.899 294.947 403.259 292.972 402.947 291.199C402.633 289.418 402.634 287.863 402.952 286.534C403.267 285.197 403.877 284.103 404.784 283.254C405.699 282.402 406.898 281.819 408.38 281.504C409.854 281.191 411.288 281.188 412.682 281.496C414.08 281.794 415.361 282.354 416.524 283.176C417.687 283.997 418.659 285.021 419.44 286.248L416.304 286.915C415.521 285.872 414.547 285.076 413.384 284.527C412.22 283.977 410.944 283.85 409.556 284.145C407.517 284.578 406.279 285.748 405.843 287.654C405.415 289.558 405.863 292.007 407.187 295.002L407.392 294.958C407.569 294.176 407.881 293.475 408.327 292.854C408.778 292.224 409.347 291.691 410.035 291.256C410.723 290.821 411.517 290.508 412.416 290.316C413.924 289.996 415.46 290.055 417.025 290.493C418.586 290.923 420.017 291.674 421.32 292.746C422.619 293.81 423.621 295.135 424.327 296.719C425.004 298.239 425.259 299.709 425.094 301.128C424.925 302.539 424.347 303.757 423.359 304.782C422.375 305.797 420.994 306.485 419.213 306.846ZM418.037 304.205C419.117 303.976 419.973 303.518 420.605 302.831C421.246 302.143 421.626 301.322 421.745 300.369C421.873 299.413 421.705 298.415 421.242 297.375C420.79 296.358 420.134 295.486 419.275 294.758C418.421 294.02 417.46 293.492 416.391 293.177C415.33 292.859 414.26 292.815 413.181 293.044C412.367 293.217 411.676 293.531 411.109 293.984C410.538 294.429 410.103 294.969 409.803 295.602C409.512 296.233 409.366 296.916 409.366 297.652C409.362 298.38 409.523 299.112 409.851 299.849C410.286 300.825 410.936 301.685 411.802 302.43C412.677 303.172 413.658 303.712 414.747 304.05C415.844 304.387 416.94 304.438 418.037 304.205ZM433.73 303.392L435.819 279.14L435.734 278.948L422.162 281.833L420.986 279.192L437.848 275.608L439.088 278.393L437.072 302.682L433.73 303.392ZM461.605 297.835C460.097 298.156 458.614 298.164 457.156 297.861C455.699 297.557 454.389 296.995 453.226 296.174C452.063 295.352 451.169 294.325 450.545 293.091L453.629 292.435C454.245 293.522 455.194 294.327 456.478 294.852C457.767 295.366 459.084 295.48 460.429 295.194C461.508 294.965 462.363 294.525 462.992 293.874C463.63 293.222 464.006 292.433 464.119 291.506C464.237 290.57 464.062 289.578 463.595 288.53C463.118 287.458 462.44 286.555 461.56 285.822C460.685 285.08 459.702 284.557 458.611 284.255C457.52 283.953 456.411 283.917 455.285 284.147C454.476 284.31 453.701 284.602 452.96 285.023C452.215 285.435 451.65 285.883 451.266 286.368L448.135 286.666L444.341 274.228L458.016 271.321L459.191 273.962L448.19 276.3L450.493 283.747L450.647 283.714C451.009 283.199 451.538 282.723 452.234 282.286C452.93 281.849 453.72 281.537 454.602 281.349C456.213 281.007 457.809 281.062 459.389 281.514C460.974 281.957 462.402 282.722 463.674 283.809C464.955 284.895 465.949 286.234 466.658 287.826C467.357 289.395 467.603 290.875 467.398 292.268C467.198 293.651 466.601 294.837 465.607 295.828C464.609 296.811 463.275 297.48 461.605 297.835Z" fill="white"/>
<path d="M491.871 264.125L502.815 288.708L499.628 289.385L490.073 267.924L489.919 267.956L485.267 273.307L483.92 270.282L488.683 264.803L491.871 264.125ZM508.694 260.549L519.638 285.132L516.451 285.809L506.896 264.348L506.742 264.381L502.09 269.731L500.743 266.707L505.506 261.227L508.694 260.549ZM527.208 283.523L526.246 281.362L530.979 270.633C531.536 269.376 531.973 268.294 532.291 267.385C532.605 266.469 532.769 265.637 532.783 264.889C532.802 264.132 532.644 263.377 532.31 262.625C531.925 261.761 531.369 261.06 530.642 260.522C529.924 259.983 529.106 259.622 528.191 259.44C527.275 259.258 526.342 259.268 525.391 259.471C524.38 259.685 523.584 260.069 523.005 260.621C522.431 261.164 522.093 261.827 521.991 262.611C521.899 263.392 522.061 264.251 522.478 265.188L519.444 265.832C518.803 264.392 518.596 263.052 518.822 261.813C519.049 260.573 519.64 259.519 520.594 258.651C521.557 257.78 522.805 257.182 524.339 256.856C525.881 256.528 527.383 256.542 528.845 256.897C530.307 257.252 531.606 257.874 532.742 258.762C533.879 259.65 534.728 260.727 535.291 261.991C535.694 262.895 535.912 263.817 535.945 264.756C535.984 265.685 535.81 266.769 535.423 268.007C535.042 269.235 534.434 270.766 533.599 272.599L530.317 279.761L530.402 279.953L542.637 277.353L543.813 279.993L527.208 283.523ZM549.121 278.865L548.159 276.705L552.892 265.976C553.448 264.719 553.885 263.636 554.203 262.728C554.517 261.811 554.681 260.979 554.696 260.232C554.715 259.474 554.557 258.719 554.222 257.967C553.837 257.103 553.281 256.402 552.554 255.865C551.836 255.325 551.019 254.965 550.103 254.783C549.187 254.601 548.254 254.611 547.303 254.813C546.292 255.028 545.497 255.411 544.917 255.964C544.343 256.506 544.005 257.169 543.904 257.953C543.811 258.735 543.973 259.594 544.39 260.53L541.357 261.175C540.716 259.734 540.508 258.394 540.735 257.155C540.961 255.916 541.552 254.862 542.506 253.993C543.469 253.123 544.718 252.524 546.251 252.198C547.794 251.871 549.296 251.884 550.757 252.239C552.219 252.594 553.518 253.216 554.655 254.104C555.791 254.993 556.641 256.069 557.204 257.333C557.606 258.238 557.824 259.159 557.858 260.098C557.896 261.027 557.722 262.111 557.336 263.349C556.954 264.578 556.346 266.109 555.512 267.941L552.229 275.104L552.314 275.296L564.549 272.695L565.725 275.336L549.121 278.865Z" fill="white"/>
<g style="mix-blend-mode:multiply" opacity="0.45">
<rect width="61.9738" height="61.9738" transform="matrix(0.978148 -0.207912 0.406737 0.913545 47.001 161.573)" fill="#595959"/>
</g>
<g style="mix-blend-mode:multiply" opacity="0.45">
<rect width="61.9738" height="61.9738" transform="matrix(0.978148 -0.207912 0.406737 0.913545 132.828 205.303)" fill="#595959"/>
</g>
<g style="mix-blend-mode:multiply" opacity="0.45">
<rect width="99.8981" height="61.9738" transform="matrix(0.978148 -0.207912 0.406737 0.913545 165.526 136.379)" fill="#595959"/>
</g>
<path d="M222.59 413.661L227.515 424.723L226.127 425.018L215.806 417.704L215.69 417.729L219.557 426.414L218.123 426.719L213.198 415.657L214.586 415.362L224.94 422.692L225.056 422.668L221.179 413.961L222.59 413.661ZM230.871 424.009L229.367 424.329L228.791 412.343L230.272 412.028L239.546 422.166L238.042 422.485L230.357 413.926L230.265 413.945L230.871 424.009ZM229.502 419.57L235.563 418.282L236.092 419.47L230.032 420.759L229.502 419.57ZM236.466 410.711L238.178 410.348L246.291 418.674L246.43 418.645L246.367 408.607L248.079 408.243L253.004 419.305L251.662 419.59L247.92 411.186L247.805 411.21L247.845 420.402L246.55 420.677L239.106 413.059L238.991 413.084L242.733 421.488L241.391 421.773L236.466 410.711ZM255.88 418.694L250.955 407.632L258.103 406.112L258.632 407.301L252.918 408.515L254.582 412.253L259.926 411.117L260.455 412.305L255.111 413.441L256.785 417.201L262.591 415.966L263.12 417.155L255.88 418.694Z" fill="white"/>
<path d="M242.209 462.099L235.711 463.48L226.956 443.815L233.741 442.372C235.784 441.938 237.707 441.96 239.511 442.439C241.312 442.911 242.926 443.798 244.353 445.099C245.777 446.394 246.943 448.059 247.849 450.095C248.761 452.143 249.156 453.99 249.033 455.635C248.907 457.273 248.273 458.648 247.133 459.76C245.989 460.865 244.348 461.645 242.209 462.099ZM237.321 460.826L241.104 460.022C242.845 459.651 244.148 459.031 245.014 458.16C245.879 457.29 246.335 456.215 246.381 454.937C246.427 453.659 246.094 452.22 245.381 450.619C244.675 449.032 243.788 447.724 242.723 446.696C241.655 445.662 240.432 444.955 239.055 444.575C237.675 444.188 236.162 444.17 234.517 444.52L230.446 445.385L237.321 460.826ZM262.95 458.027C261.428 458.35 259.976 458.316 258.593 457.923C257.215 457.522 255.975 456.819 254.874 455.812C253.777 454.798 252.892 453.536 252.22 452.025C251.547 450.514 251.249 449.12 251.325 447.842C251.406 446.557 251.833 445.478 252.608 444.606C253.386 443.725 254.489 443.134 255.914 442.831C256.737 442.656 257.606 442.611 258.522 442.697C259.438 442.782 260.353 443.043 261.268 443.48C262.179 443.91 263.04 444.553 263.85 445.411C264.659 446.269 265.371 447.387 265.983 448.763L266.411 449.723L254.238 452.311L253.366 450.352L263.071 448.289C262.701 447.457 262.192 446.752 261.545 446.175C260.904 445.596 260.175 445.187 259.355 444.948C258.543 444.707 257.698 444.68 256.821 444.866C255.854 445.072 255.118 445.474 254.611 446.072C254.109 446.662 253.827 447.353 253.767 448.143C253.706 448.934 253.857 449.736 254.219 450.549L254.8 451.855C255.296 452.969 255.922 453.869 256.678 454.556C257.438 455.236 258.278 455.698 259.198 455.944C260.115 456.184 261.064 456.199 262.044 455.991C262.681 455.856 263.22 455.65 263.66 455.374C264.104 455.091 264.439 454.739 264.665 454.32C264.888 453.894 264.988 453.403 264.966 452.847L267.584 452.964C267.667 453.759 267.544 454.5 267.212 455.187C266.877 455.868 266.351 456.456 265.634 456.952C264.914 457.441 264.019 457.8 262.95 458.027ZM273.043 455.545L266.477 440.796L268.821 440.298L269.813 442.525L269.977 442.49C269.94 441.699 270.197 440.996 270.749 440.382C271.301 439.767 272.049 439.359 272.995 439.158C273.173 439.12 273.398 439.076 273.668 439.025C273.938 438.975 274.144 438.942 274.287 438.925L275.313 441.23C275.223 441.228 275.021 441.239 274.709 441.264C274.402 441.28 274.087 441.323 273.764 441.391C272.997 441.554 272.378 441.85 271.909 442.279C271.444 442.701 271.153 443.211 271.037 443.81C270.926 444.401 271.018 445.03 271.314 445.696L275.47 455.029L273.043 455.545ZM290.093 452.257C288.572 452.581 287.119 452.546 285.736 452.153C284.358 451.753 283.118 451.049 282.017 450.043C280.92 449.029 280.035 447.766 279.363 446.255C278.69 444.745 278.392 443.35 278.468 442.073C278.549 440.787 278.976 439.709 279.751 438.836C280.53 437.956 281.632 437.364 283.057 437.061C283.88 436.886 284.749 436.842 285.665 436.927C286.581 437.013 287.496 437.274 288.411 437.71C289.322 438.14 290.183 438.784 290.993 439.642C291.803 440.5 292.514 441.617 293.127 442.994L293.554 443.954L281.381 446.541L280.509 444.582L290.214 442.519C289.844 441.687 289.335 440.982 288.688 440.405C288.048 439.827 287.318 439.418 286.498 439.178C285.686 438.938 284.841 438.91 283.964 439.097C282.997 439.302 282.261 439.704 281.754 440.302C281.252 440.893 280.97 441.583 280.91 442.374C280.849 443.165 281 443.966 281.362 444.779L281.943 446.085C282.439 447.199 283.065 448.1 283.821 448.787C284.581 449.466 285.421 449.929 286.341 450.175C287.258 450.414 288.207 450.43 289.187 450.222C289.824 450.086 290.363 449.881 290.803 449.605C291.247 449.321 291.582 448.97 291.808 448.55C292.031 448.125 292.131 447.634 292.109 447.078L294.727 447.194C294.811 447.989 294.687 448.73 294.355 449.418C294.02 450.098 293.494 450.687 292.777 451.182C292.057 451.672 291.163 452.03 290.093 452.257ZM300.054 443.918L298.765 441.122L299.258 441.017L303.243 432.981L306.245 432.343L301.979 440.86L301.773 440.903L300.054 443.918ZM300.186 449.776L291.431 430.11L293.857 429.594L302.613 449.26L300.186 449.776ZM310.221 447.643L300.803 441.656L301.829 439.714L313.306 446.987L310.221 447.643ZM324.407 444.627L315.651 424.962L323.013 423.397C324.48 423.085 325.795 423.065 326.959 423.336C328.119 423.601 329.11 424.081 329.929 424.775C330.746 425.464 331.368 426.288 331.795 427.248C332.172 428.093 332.321 428.825 332.244 429.444C332.174 430.062 331.95 430.586 331.571 431.017C331.2 431.446 330.746 431.802 330.212 432.084L330.297 432.276C330.959 432.177 331.7 432.251 332.523 432.496C333.345 432.742 334.135 433.177 334.893 433.801C335.651 434.424 336.26 435.255 336.722 436.292C337.161 437.278 337.316 438.215 337.187 439.105C337.057 439.994 336.578 440.779 335.748 441.46C334.918 442.141 333.674 442.658 332.015 443.01L324.407 444.627ZM326.016 441.973L331.075 440.898C332.74 440.544 333.789 439.991 334.22 439.241C334.655 438.483 334.68 437.672 334.296 436.807C333.999 436.142 333.544 435.566 332.93 435.08C332.313 434.587 331.593 434.243 330.77 434.046C329.945 433.843 329.073 433.839 328.154 434.035L322.972 435.136L326.016 441.973ZM322.049 433.062L326.778 432.057C327.546 431.893 328.176 431.605 328.667 431.193C329.165 430.778 329.482 430.277 329.617 429.687C329.76 429.096 329.677 428.455 329.369 427.764C328.984 426.9 328.336 426.235 327.423 425.77C326.508 425.299 325.352 425.212 323.953 425.509L319.142 426.532L322.049 433.062Z" fill="white"/>
<path d="M357.471 384.991L365.133 393.556L365.272 393.526L364.642 383.467L366.146 383.147L366.722 395.134L365.241 395.448L355.967 385.311L357.471 384.991ZM372.384 393.93L370.88 394.25L370.304 382.263L371.785 381.949L381.059 392.086L379.555 392.406L371.87 383.846L371.777 383.866L372.384 393.93ZM371.015 389.491L377.076 388.203L377.605 389.391L371.544 390.679L371.015 389.491ZM382.904 391.694L377.979 380.632L379.413 380.327L383.809 390.201L389.315 389.031L389.844 390.219L382.904 391.694ZM388.574 378.38L393.499 389.442L392.064 389.747L387.139 378.685L388.574 378.38ZM400.03 388.054L396.374 388.831L391.449 377.769L395.266 376.957C396.415 376.713 397.497 376.726 398.512 376.995C399.525 377.26 400.433 377.759 401.235 378.491C402.037 379.22 402.692 380.156 403.202 381.301C403.715 382.454 403.937 383.492 403.868 384.418C403.797 385.339 403.441 386.113 402.799 386.738C402.156 387.359 401.232 387.798 400.03 388.054ZM397.28 387.338L399.408 386.885C400.387 386.677 401.12 386.328 401.607 385.838C402.094 385.349 402.35 384.744 402.376 384.025C402.402 383.306 402.215 382.497 401.814 381.596C401.416 380.703 400.918 379.968 400.319 379.39C399.718 378.808 399.03 378.41 398.255 378.196C397.479 377.979 396.628 377.969 395.703 378.165L393.413 378.652L397.28 387.338ZM407.617 375.633L407.087 374.445L415.971 372.557L416.5 373.745L412.775 374.536L417.171 384.41L415.737 384.715L411.341 374.841L407.617 375.633ZM423.109 383.148L418.184 372.086L419.619 371.781L421.812 376.707L428.127 375.365L425.934 370.439L427.368 370.134L432.293 381.196L430.859 381.501L428.656 376.553L422.341 377.895L424.544 382.843L423.109 383.148ZM435.165 380.586L430.24 369.524L434.242 368.673C435.167 368.476 435.992 368.462 436.717 368.631C437.441 368.797 438.059 369.105 438.572 369.556C439.085 370.006 439.487 370.558 439.777 371.209C440.067 371.861 440.182 372.469 440.121 373.034C440.06 373.599 439.799 374.088 439.337 374.502C438.874 374.911 438.184 375.214 437.266 375.409L434.027 376.097L433.489 374.887L436.681 374.209C437.313 374.074 437.784 373.88 438.092 373.625C438.405 373.369 438.577 373.065 438.61 372.711C438.644 372.353 438.563 371.952 438.366 371.509C438.169 371.066 437.908 370.698 437.583 370.405C437.258 370.111 436.861 369.916 436.391 369.818C435.92 369.717 435.364 369.735 434.724 369.871L432.203 370.407L436.599 380.281L435.165 380.586ZM438.527 374.431L443.655 378.781L441.989 379.135L436.908 374.775L438.527 374.431ZM448.43 365.657L449.864 365.352L453.125 372.677C453.462 373.433 453.571 374.148 453.454 374.824C453.339 375.495 453.013 376.074 452.475 376.563C451.936 377.048 451.201 377.39 450.272 377.587C449.343 377.785 448.458 377.788 447.617 377.596C446.775 377.4 446.031 377.048 445.386 376.539C444.744 376.025 444.254 375.39 443.918 374.634L440.657 367.309L442.091 367.004L445.304 374.221C445.544 374.761 445.886 375.214 446.328 375.582C446.768 375.945 447.277 376.198 447.855 376.339C448.435 376.476 449.055 376.474 449.714 376.334C450.373 376.194 450.887 375.955 451.256 375.616C451.623 375.274 451.838 374.868 451.903 374.397C451.97 373.921 451.883 373.414 451.642 372.873L448.43 365.657Z" fill="white"/>
<path d="M386.116 431.805C384.567 432.134 383.072 432.021 381.632 431.465C380.188 430.903 378.844 429.931 377.599 428.549C376.35 427.161 375.25 425.398 374.298 423.259C373.352 421.134 372.832 419.258 372.738 417.631C372.648 415.997 372.971 414.667 373.707 413.641C374.448 412.608 375.585 411.928 377.121 411.602C378.656 411.275 380.147 411.396 381.593 411.965C383.043 412.526 384.392 413.5 385.641 414.889C386.893 416.269 387.993 418.022 388.939 420.147C389.891 422.286 390.415 424.171 390.512 425.804C390.606 427.431 390.285 428.757 389.548 429.783C388.809 430.802 387.665 431.476 386.116 431.805ZM385.175 429.693C386.711 429.366 387.596 428.421 387.83 426.858C388.064 425.295 387.611 423.233 386.471 420.672C385.713 418.969 384.872 417.561 383.948 416.447C383.032 415.331 382.07 414.537 381.064 414.064C380.065 413.59 379.059 413.46 378.044 413.676C376.523 413.999 375.645 414.953 375.413 416.537C375.177 418.115 375.628 420.181 376.766 422.735C377.524 424.438 378.36 425.844 379.274 426.953C380.188 428.062 381.143 428.85 382.139 429.318C383.142 429.785 384.154 429.91 385.175 429.693ZM403.923 428.02C402.717 428.276 401.531 428.283 400.365 428.041C399.199 427.798 398.151 427.348 397.221 426.691C396.29 426.034 395.575 425.212 395.076 424.225L397.543 423.7C398.036 424.57 398.795 425.214 399.822 425.633C400.853 426.045 401.907 426.136 402.983 425.908C403.847 425.724 404.53 425.372 405.034 424.851C405.544 424.33 405.844 423.698 405.935 422.957C406.029 422.208 405.889 421.415 405.516 420.576C405.134 419.718 404.591 418.996 403.888 418.41C403.188 417.816 402.402 417.398 401.529 417.156C400.656 416.914 399.769 416.885 398.868 417.07C398.221 417.2 397.601 417.434 397.008 417.77C396.412 418.1 395.96 418.459 395.652 418.846L393.147 419.085L390.113 409.134L401.052 406.809L401.993 408.922L393.192 410.792L395.034 416.75L395.157 416.723C395.447 416.311 395.87 415.931 396.427 415.581C396.984 415.231 397.616 414.982 398.322 414.831C399.61 414.558 400.887 414.602 402.151 414.964C403.419 415.318 404.562 415.93 405.579 416.8C406.604 417.668 407.399 418.739 407.967 420.013C408.525 421.268 408.722 422.452 408.558 423.566C408.398 424.672 407.92 425.622 407.125 426.415C406.327 427.201 405.26 427.736 403.923 428.02ZM413.157 403.227L416.854 428.215L414.633 428.687L410.936 403.699L413.157 403.227ZM425.158 423.212L424.389 421.484L428.175 412.901C428.621 411.895 428.97 411.029 429.224 410.302C429.476 409.569 429.607 408.903 429.618 408.305C429.634 407.699 429.507 407.096 429.239 406.494C428.932 405.802 428.487 405.242 427.905 404.812C427.331 404.38 426.677 404.092 425.944 403.946C425.212 403.801 424.465 403.809 423.704 403.97C422.895 404.142 422.259 404.449 421.796 404.891C421.336 405.325 421.066 405.856 420.985 406.482C420.911 407.108 421.04 407.795 421.374 408.544L418.947 409.06C418.434 407.908 418.269 406.836 418.45 405.844C418.631 404.853 419.104 404.009 419.867 403.314C420.637 402.618 421.636 402.14 422.863 401.879C424.097 401.617 425.298 401.627 426.468 401.911C427.637 402.195 428.676 402.693 429.586 403.404C430.495 404.114 431.174 404.975 431.625 405.987C431.947 406.71 432.121 407.447 432.148 408.199C432.179 408.942 432.04 409.809 431.73 410.799C431.425 411.782 430.939 413.007 430.271 414.473L427.645 420.203L427.714 420.357L437.501 418.276L438.442 420.389L425.158 423.212ZM449.799 418.269C448.93 418.44 447.998 418.47 447.003 418.359C446.009 418.248 444.999 417.919 443.976 417.373C442.949 416.82 441.954 415.991 440.989 414.886C440.021 413.774 439.133 412.309 438.323 410.491C437.548 408.75 437.036 407.17 436.787 405.751C436.535 404.326 436.537 403.082 436.791 402.019C437.043 400.95 437.531 400.075 438.256 399.395C438.988 398.714 439.947 398.247 441.133 397.995C442.312 397.745 443.459 397.743 444.574 397.989C445.694 398.228 446.718 398.676 447.649 399.333C448.579 399.99 449.356 400.809 449.981 401.791L447.472 402.324C446.846 401.49 446.067 400.853 445.136 400.414C444.205 399.974 443.184 399.872 442.074 400.108C440.442 400.455 439.452 401.39 439.103 402.915C438.761 404.438 439.119 406.398 440.179 408.794L440.343 408.759C440.485 408.133 440.734 407.572 441.091 407.076C441.451 406.571 441.907 406.145 442.457 405.797C443.007 405.449 443.642 405.198 444.362 405.045C445.568 404.789 446.797 404.836 448.049 405.187C449.298 405.531 450.443 406.132 451.485 406.989C452.524 407.841 453.326 408.9 453.891 410.168C454.432 411.384 454.637 412.56 454.504 413.695C454.369 414.824 453.906 415.798 453.116 416.618C452.329 417.43 451.224 417.98 449.799 418.269ZM448.859 416.156C449.722 415.973 450.407 415.606 450.913 415.057C451.426 414.507 451.73 413.85 451.825 413.087C451.928 412.323 451.794 411.524 451.423 410.692C451.061 409.879 450.536 409.181 449.849 408.598C449.166 408.008 448.397 407.586 447.542 407.334C446.693 407.079 445.837 407.044 444.974 407.228C444.322 407.366 443.77 407.617 443.316 407.979C442.86 408.336 442.512 408.767 442.272 409.274C442.039 409.779 441.922 410.325 441.922 410.914C441.918 411.496 442.048 412.082 442.31 412.671C442.658 413.452 443.178 414.14 443.871 414.736C444.571 415.33 445.356 415.762 446.226 416.033C447.104 416.302 447.981 416.343 448.859 416.156Z" fill="white"/>
<path d="M523.675 353.447L522.241 353.752C521.985 353.385 521.686 353.078 521.344 352.831C521.006 352.584 520.642 352.393 520.253 352.259C519.867 352.12 519.47 352.039 519.062 352.015C518.655 351.992 518.255 352.022 517.861 352.105C517.144 352.258 516.57 352.565 516.139 353.027C515.711 353.489 515.472 354.085 515.422 354.817C515.377 355.548 515.567 356.393 515.993 357.35C516.42 358.308 516.949 359.081 517.582 359.668C518.219 360.254 518.901 360.654 519.63 360.87C520.363 361.085 521.088 361.116 521.805 360.963C522.199 360.88 522.554 360.749 522.872 360.571C523.189 360.393 523.452 360.174 523.661 359.913C523.872 359.647 524.017 359.346 524.095 359.01C524.176 358.67 524.173 358.3 524.088 357.9L525.522 357.595C525.666 358.184 525.695 358.731 525.608 359.239C525.522 359.746 525.336 360.201 525.052 360.604C524.765 361.004 524.394 361.341 523.938 361.616C523.486 361.889 522.961 362.089 522.363 362.216C521.353 362.431 520.352 362.392 519.361 362.098C518.369 361.804 517.458 361.28 516.629 360.526C515.799 359.773 515.125 358.812 514.605 357.645C514.086 356.479 513.863 355.423 513.935 354.477C514.008 353.531 514.335 352.744 514.916 352.116C515.498 351.488 516.293 351.067 517.304 350.852C517.901 350.725 518.498 350.687 519.095 350.737C519.695 350.787 520.277 350.924 520.841 351.147C521.403 351.366 521.926 351.669 522.41 352.055C522.892 352.437 523.314 352.901 523.675 353.447ZM524.94 349.394L532.602 357.959L532.741 357.929L532.111 347.87L533.615 347.55L534.191 359.537L532.71 359.852L523.436 349.714L524.94 349.394ZM535.946 347.055L543.608 355.62L543.747 355.59L543.117 345.531L544.62 345.211L545.197 357.198L543.716 357.512L534.442 347.375L535.946 347.055Z" fill="white"/>
<path d="M534.749 399.918L533.979 398.19L537.766 389.606C538.211 388.601 538.56 387.735 538.815 387.008C539.066 386.275 539.197 385.609 539.209 385.011C539.224 384.405 539.098 383.801 538.83 383.2C538.522 382.508 538.077 381.948 537.496 381.518C536.921 381.086 536.267 380.798 535.535 380.652C534.802 380.507 534.055 380.515 533.294 380.676C532.486 380.848 531.85 381.155 531.386 381.597C530.926 382.031 530.656 382.561 530.575 383.188C530.501 383.814 530.631 384.501 530.964 385.25L528.538 385.766C528.025 384.613 527.859 383.542 528.04 382.55C528.221 381.558 528.694 380.715 529.457 380.02C530.228 379.324 531.226 378.845 532.453 378.585C533.687 378.322 534.889 378.333 536.058 378.617C537.227 378.901 538.267 379.399 539.176 380.109C540.085 380.82 540.765 381.681 541.215 382.693C541.537 383.416 541.712 384.153 541.738 384.904C541.769 385.648 541.63 386.515 541.321 387.505C541.015 388.488 540.529 389.713 539.861 391.179L537.235 396.909L537.304 397.062L547.092 394.982L548.032 397.094L534.749 399.918ZM549.537 392.36L548.665 390.401L551.83 374.76L553.352 374.437L554.703 377.471L553.675 377.69L551.283 389.508L551.352 389.662L563.813 387.013L564.754 389.126L549.537 392.36ZM561.244 394.286L559.183 389.658L558.777 388.746L552.488 374.62L554.915 374.105L563.67 393.77L561.244 394.286ZM577.102 391.21C575.896 391.466 574.71 391.473 573.544 391.23C572.378 390.988 571.329 390.538 570.399 389.881C569.469 389.223 568.754 388.401 568.254 387.414L570.722 386.89C571.214 387.759 571.974 388.404 573.001 388.823C574.032 389.235 575.085 389.326 576.161 389.097C577.025 388.914 577.709 388.562 578.212 388.041C578.723 387.519 579.023 386.888 579.113 386.147C579.208 385.398 579.068 384.604 578.695 383.766C578.313 382.908 577.77 382.186 577.066 381.6C576.367 381.006 575.58 380.588 574.707 380.346C573.834 380.104 572.947 380.075 572.047 380.26C571.399 380.39 570.779 380.624 570.186 380.96C569.59 381.29 569.139 381.649 568.831 382.036L566.326 382.274L563.291 372.324L574.231 369.999L575.171 372.111L566.371 373.982L568.213 379.939L568.336 379.913C568.625 379.501 569.048 379.12 569.606 378.771C570.163 378.421 570.794 378.171 571.5 378.021C572.789 377.747 574.065 377.791 575.329 378.153C576.597 378.507 577.74 379.119 578.758 379.989C579.782 380.858 580.578 381.929 581.145 383.203C581.704 384.458 581.901 385.642 581.737 386.756C581.576 387.862 581.099 388.812 580.304 389.604C579.506 390.391 578.439 390.926 577.102 391.21Z" fill="white"/>
</g>
</g>
<defs>
<filter id="filter0_dddd_3_500" x="0" y="-1.74001" width="1062.42" height="885.444" filterUnits="userSpaceOnUse" color-interpolation-filters="sRGB">
<feFlood flood-opacity="0" result="BackgroundImageFix"/>
<feColorMatrix in="SourceAlpha" type="matrix" values="0 0 0 0 0 0 0 0 0 0 0 0 0 0 0 0 0 0 127 0" result="hardAlpha"/>
<feOffset dx="5" dy="16"/>
<feGaussianBlur stdDeviation="18.5"/>
<feColorMatrix type="matrix" values="0 0 0 0 0 0 0 0 0 0 0 0 0 0 0 0 0 0 0.1 0"/>
<feBlend mode="normal" in2="BackgroundImageFix" result="effect1_dropShadow_3_500"/>
<feColorMatrix in="SourceAlpha" type="matrix" values="0 0 0 0 0 0 0 0 0 0 0 0 0 0 0 0 0 0 127 0" result="hardAlpha"/>
<feOffset dx="20" dy="64"/>
<feGaussianBlur stdDeviation="33.5"/>
<feColorMatrix type="matrix" values="0 0 0 0 0 0 0 0 0 0 0 0 0 0 0 0 0 0 0.09 0"/>
<feBlend mode="normal" in2="effect1_dropShadow_3_500" result="effect2_dropShadow_3_500"/>
<feColorMatrix in="SourceAlpha" type="matrix" values="0 0 0 0 0 0 0 0 0 0 0 0 0 0 0 0 0 0 127 0" result="hardAlpha"/>
<feOffset dx="44" dy="144"/>
<feGaussianBlur stdDeviation="45"/>
<feColorMatrix type="matrix" values="0 0 0 0 0 0 0 0 0 0 0 0 0 0 0 0 0 0 0.05 0"/>
<feBlend mode="normal" in2="effect2_dropShadow_3_500" result="effect3_dropShadow_3_500"/>
<feColorMatrix in="SourceAlpha" type="matrix" values="0 0 0 0 0 0 0 0 0 0 0 0 0 0 0 0 0 0 127 0" result="hardAlpha"/>
<feOffset dx="79" dy="256"/>
<feGaussianBlur stdDeviation="53.5"/>
<feColorMatrix type="matrix" values="0 0 0 0 0 0 0 0 0 0 0 0 0 0 0 0 0 0 0.01 0"/>
<feBlend mode="normal" in2="effect3_dropShadow_3_500" result="effect4_dropShadow_3_500"/>
<feBlend mode="normal" in="SourceGraphic" in2="effect4_dropShadow_3_500" result="shape"/>
</filter>
<linearGradient id="paint0_linear_3_500" x1="342.244" y1="0" x2="342.244" y2="393.118" gradientUnits="userSpaceOnUse">
<stop stop-color="#CCCCCC"/>
<stop offset="1" stop-color="#666666"/>
</linearGradient>
<clipPath id="clip0_3_500">
<rect width="684.487" height="393.118" rx="16.6497" transform="matrix(0.978148 -0.207912 0.406737 0.913545 47 161.573)" fill="white"/>
</clipPath>
</defs>
</svg>
