<svg width="907" height="875" viewBox="0 0 907 875" fill="none" xmlns="http://www.w3.org/2000/svg">
<g opacity="0.1">
<path d="M178.009 50.1432C178.009 22.4499 200.459 0 228.152 0H305.874C333.567 0 356.017 22.4499 356.017 50.1433V127.865C356.017 155.559 333.567 178.009 305.874 178.009H228.152C200.459 178.009 178.009 155.559 178.009 127.865V50.1432Z" fill="#595959"/>
<path d="M178.009 438.754C178.009 411.06 200.459 388.61 228.152 388.61H305.874C333.567 388.61 356.017 411.06 356.017 438.754V516.476C356.017 544.169 333.567 566.619 305.874 566.619H228.152C200.459 566.619 178.009 544.169 178.009 516.476V438.754Z" fill="#595959"/>
<path d="M737.106 50.1432C737.106 22.4499 759.556 0 787.25 0H864.972C892.665 0 915.115 22.4499 915.115 50.1433V127.865C915.115 155.559 892.665 178.009 864.972 178.009H787.25C759.556 178.009 737.106 155.559 737.106 127.865V50.1432Z" fill="#595959"/>
<path d="M564.112 290.831C564.112 263.138 586.562 240.688 614.255 240.688H691.977C719.67 240.688 742.12 263.138 742.12 290.831V649.355C742.12 677.049 719.67 699.499 691.977 699.499H614.255C586.562 699.499 564.112 677.049 564.112 649.355V290.831Z" fill="#595959"/>
<path d="M0.00012207 225.645C0.00012207 197.951 22.45 175.501 50.1434 175.501H127.866C155.559 175.501 178.009 197.951 178.009 225.645V303.367C178.009 331.06 155.559 353.51 127.865 353.51H50.1433C22.45 353.51 0.00012207 331.06 0.00012207 303.367V225.645Z" fill="#595959"/>
<path d="M714.542 747.135C714.542 719.441 736.992 696.991 764.685 696.991H842.407C870.1 696.991 892.55 719.441 892.55 747.135V824.857C892.55 852.55 870.1 875 842.407 875H764.685C736.992 875 714.542 852.55 714.542 824.857V747.135Z" fill="#595959"/>
<path d="M338.467 225.645C338.467 197.951 360.917 175.501 388.61 175.501H691.977C719.67 175.501 742.12 197.951 742.12 225.645V303.367C742.12 331.06 719.67 353.51 691.977 353.51H388.61C360.917 353.51 338.467 331.06 338.467 303.367V225.645Z" fill="#595959"/>
<path d="M338.467 604.226C338.467 576.533 360.917 554.083 388.61 554.083H666.905C694.599 554.083 717.049 576.533 717.049 604.226V649.355C717.049 677.049 694.599 699.499 666.905 699.499H388.61C360.917 699.499 338.467 677.049 338.467 649.355V604.226Z" fill="#595959"/>
<path d="M304.789 162.845L336.284 133.43L385.912 186.566L354.418 215.981L304.789 162.845Z" fill="#595959"/>
<path d="M674.427 686.293L705.922 656.877L755.55 710.013L724.056 739.428L674.427 686.293Z" fill="#595959"/>
<path d="M304.789 551.456L336.284 522.04L385.912 575.176L354.418 604.591L304.789 551.456Z" fill="#595959"/>
<path d="M219.017 162.295L187.522 132.88L137.894 186.016L169.388 215.431L219.017 162.295Z" fill="#595959"/>
<path d="M218.026 558.856L192.717 523.976L133.869 566.675L159.178 601.556L218.026 558.856Z" fill="#595959"/>
<path d="M778.115 162.295L746.62 132.88L696.991 186.016L728.486 215.431L778.115 162.295Z" fill="#595959"/>
<path d="M742.12 228.152C742.12 200.458 719.67 178.009 691.977 178.009H614.255C586.562 178.009 564.112 200.458 564.112 228.152V305.874C564.112 333.567 586.562 356.017 614.255 356.017H691.977C719.67 356.017 742.12 333.567 742.12 305.874V228.152Z" fill="#595959"/>
<path d="M920.129 403.653C920.129 375.96 897.679 353.51 869.986 353.51H792.264C764.57 353.51 742.12 375.96 742.12 403.653V481.375C742.12 509.069 764.57 531.519 792.264 531.519H869.986C897.679 531.519 920.129 509.069 920.129 481.375V403.653Z" fill="#595959"/>
<path d="M742.12 571.633C742.12 543.94 719.67 521.49 691.977 521.49H614.255C586.562 521.49 564.112 543.94 564.112 571.633L564.112 649.355C564.112 677.049 586.562 699.499 614.255 699.499H691.977C719.67 699.499 742.12 677.049 742.12 649.355L742.12 571.633Z" fill="#595959"/>
<path d="M782.235 510.791L750.74 481.375L701.112 534.511L732.606 563.927L782.235 510.791Z" fill="#595959"/>
<path d="M701.112 340.304L732.607 310.888L782.235 364.024L750.741 393.44L701.112 340.304Z" fill="#595959"/>
<path d="M178.009 824.857C178.009 852.55 200.459 875 228.152 875H305.874C333.567 875 356.017 852.55 356.017 824.857V747.135C356.017 719.441 333.567 696.991 305.874 696.991H228.152C200.459 696.991 178.009 719.441 178.009 747.135V824.857Z" fill="#595959"/>
<path d="M0.00012207 649.355C0.00012207 677.049 22.45 699.499 50.1434 699.499H127.865C155.559 699.499 178.009 677.049 178.009 649.355V571.633C178.009 543.94 155.559 521.49 127.865 521.49H50.1434C22.45 521.49 0.00012207 543.94 0.00012207 571.633V649.355Z" fill="#595959"/>
<path d="M219.017 712.705L187.522 742.12L137.894 688.984L169.388 659.569L219.017 712.705Z" fill="#595959"/>
</g>
</svg>
