<svg width="430" height="292" viewBox="0 0 430 292" fill="none" xmlns="http://www.w3.org/2000/svg">
<g filter="url(#filter0_dddd_10_144)">
<rect x="14" y="13" width="282" height="125" rx="21.0745" fill="white"/>
<path d="M147.753 61.1394C146.901 61.1394 146.127 60.9774 145.431 60.6534C144.735 60.3294 144.147 59.8974 143.667 59.3574C143.187 58.8054 142.845 58.1994 142.641 57.5394L143.937 57.0534C144.249 57.9654 144.735 58.6614 145.395 59.1414C146.055 59.6094 146.841 59.8434 147.753 59.8434C148.329 59.8434 148.833 59.7534 149.265 59.5734C149.709 59.3814 150.051 59.1174 150.291 58.7814C150.531 58.4454 150.651 58.0554 150.651 57.6114C150.651 56.9514 150.471 56.4414 150.111 56.0814C149.751 55.7214 149.235 55.4454 148.563 55.2534L146.151 54.5334C145.203 54.2574 144.471 53.7954 143.955 53.1474C143.451 52.4994 143.199 51.7614 143.199 50.9334C143.199 50.2254 143.373 49.6014 143.721 49.0614C144.069 48.5094 144.543 48.0774 145.143 47.7654C145.755 47.4534 146.445 47.2974 147.213 47.2974C148.017 47.2974 148.737 47.4474 149.373 47.7474C150.021 48.0354 150.567 48.4194 151.011 48.8994C151.455 49.3794 151.773 49.9134 151.965 50.5014L150.705 51.0054C150.417 50.2134 149.967 49.6134 149.355 49.2054C148.755 48.7974 148.047 48.5934 147.231 48.5934C146.715 48.5934 146.259 48.6834 145.863 48.8634C145.479 49.0434 145.179 49.3014 144.963 49.6374C144.747 49.9734 144.639 50.3694 144.639 50.8254C144.639 51.3774 144.813 51.8754 145.161 52.3194C145.509 52.7514 146.043 53.0754 146.763 53.2914L148.887 53.9214C149.943 54.2334 150.741 54.6834 151.281 55.2714C151.821 55.8594 152.091 56.5974 152.091 57.4854C152.091 58.2054 151.905 58.8414 151.533 59.3934C151.173 59.9334 150.663 60.3594 150.003 60.6714C149.355 60.9834 148.605 61.1394 147.753 61.1394ZM159.066 61.1394C158.166 61.1394 157.35 60.9234 156.618 60.4914C155.898 60.0474 155.328 59.4414 154.908 58.6734C154.488 57.9054 154.278 57.0354 154.278 56.0634C154.278 55.0914 154.482 54.2334 154.89 53.4894C155.298 52.7334 155.85 52.1394 156.546 51.7074C157.254 51.2754 158.046 51.0594 158.922 51.0594C159.618 51.0594 160.236 51.1914 160.776 51.4554C161.328 51.7074 161.796 52.0554 162.18 52.4994C162.564 52.9314 162.858 53.4234 163.062 53.9754C163.266 54.5154 163.368 55.0734 163.368 55.6494C163.368 55.7694 163.362 55.9074 163.35 56.0634C163.338 56.2074 163.32 56.3574 163.296 56.5134H155.142V55.2534H162.522L161.874 55.7934C161.982 55.1334 161.904 54.5454 161.64 54.0294C161.388 53.5014 161.022 53.0874 160.542 52.7874C160.062 52.4754 159.522 52.3194 158.922 52.3194C158.322 52.3194 157.764 52.4754 157.248 52.7874C156.744 53.0994 156.348 53.5374 156.06 54.1014C155.772 54.6534 155.658 55.3134 155.718 56.0814C155.658 56.8494 155.778 57.5214 156.078 58.0974C156.39 58.6614 156.81 59.0994 157.338 59.4114C157.878 59.7234 158.454 59.8794 159.066 59.8794C159.774 59.8794 160.368 59.7114 160.848 59.3754C161.328 59.0394 161.718 58.6194 162.018 58.1154L163.17 58.7274C162.978 59.1594 162.684 59.5614 162.288 59.9334C161.892 60.2934 161.418 60.5874 160.866 60.8154C160.326 61.0314 159.726 61.1394 159.066 61.1394ZM165.748 60.9234V51.2754H167.098V53.1474L166.792 53.0754C167.032 52.4514 167.422 51.9594 167.962 51.5994C168.514 51.2394 169.15 51.0594 169.87 51.0594C170.554 51.0594 171.166 51.2154 171.706 51.5274C172.258 51.8394 172.69 52.2714 173.002 52.8234C173.326 53.3634 173.488 53.9754 173.488 54.6594V60.9234H172.138V55.1814C172.138 54.5934 172.03 54.0954 171.814 53.6874C171.61 53.2794 171.316 52.9674 170.932 52.7514C170.56 52.5234 170.128 52.4094 169.636 52.4094C169.144 52.4094 168.706 52.5234 168.322 52.7514C167.938 52.9674 167.638 53.2854 167.422 53.7054C167.206 54.1134 167.098 54.6054 167.098 55.1814V60.9234H165.748ZM179.756 61.0314C178.892 61.0314 178.226 60.7794 177.758 60.2754C177.29 59.7714 177.056 59.0514 177.056 58.1154V52.6254H175.274V51.2754H175.724C176.132 51.2754 176.456 51.1434 176.696 50.8794C176.936 50.6034 177.056 50.2614 177.056 49.8534V49.0434H178.406V51.2754H180.53V52.6254H178.406V58.1154C178.406 58.4394 178.454 58.7274 178.55 58.9794C178.646 59.2194 178.808 59.4114 179.036 59.5554C179.276 59.6994 179.594 59.7714 179.99 59.7714C180.086 59.7714 180.2 59.7654 180.332 59.7534C180.464 59.7414 180.578 59.7294 180.674 59.7174V60.9234C180.53 60.9594 180.368 60.9834 180.188 60.9954C180.008 61.0194 179.864 61.0314 179.756 61.0314Z" fill="#595959"/>
<path d="M150.995 106.187V103.275C147.155 102.763 144.179 100.235 143.059 96.8112L146.259 95.4672C147.155 97.8352 148.851 99.3712 150.995 99.8512V92.5872L149.491 92.1072C145.907 90.9872 143.987 88.6192 143.987 85.5472C143.987 81.7712 146.867 79.0512 150.995 78.7952V75.9472H153.555V78.9232C156.915 79.5312 159.475 81.7072 160.467 84.6192L157.331 85.9952C156.627 84.1072 155.283 82.8272 153.555 82.3152V89.6432L154.867 90.0592C158.675 91.2432 160.595 93.3552 160.595 96.5552C160.595 100.235 157.747 102.923 153.555 103.307V106.187H150.995ZM150.707 88.7472L150.995 88.8432V82.0912C149.011 82.3472 147.731 83.5632 147.731 85.3552C147.731 86.8912 148.691 88.1392 150.707 88.7472ZM153.971 93.5152L153.555 93.3872V99.9792C155.603 99.7232 156.883 98.5072 156.883 96.8112C156.883 95.0832 155.859 94.1232 153.971 93.5152ZM168.002 102.987V82.3472H163.426V79.1472H171.746V102.987H168.002ZM176.501 102.987V100.267L183.029 93.2912C186.837 89.2272 188.149 87.8512 188.149 85.7392C188.149 83.4672 186.613 82.1232 184.373 82.1232C182.069 82.1232 180.309 83.4672 179.669 85.9312L176.341 84.9712C177.141 81.1952 180.437 78.7632 184.341 78.7632C188.853 78.7632 191.893 81.4832 191.893 85.4512C191.893 88.0752 190.421 90.2512 187.253 93.6432L181.493 99.7872H192.341V102.987H176.501ZM205.514 103.371C199.85 103.371 195.978 98.4112 195.978 91.0512C195.978 83.6592 199.818 78.7632 205.482 78.7632C211.178 78.7632 214.986 83.6912 214.986 91.0512C214.986 98.4112 211.21 103.371 205.514 103.371ZM205.514 99.9152C209.034 99.9152 211.242 96.4912 211.242 91.0512C211.242 85.6432 209.034 82.1872 205.482 82.1872C201.962 82.1872 199.754 85.6112 199.754 91.0512C199.754 96.4592 201.962 99.9152 205.514 99.9152ZM220.644 102.987V98.8272H224.324V102.987H220.644ZM239.514 103.371C233.85 103.371 229.978 98.4112 229.978 91.0512C229.978 83.6592 233.818 78.7632 239.482 78.7632C245.178 78.7632 248.986 83.6912 248.986 91.0512C248.986 98.4112 245.21 103.371 239.514 103.371ZM239.514 99.9152C243.034 99.9152 245.242 96.4912 245.242 91.0512C245.242 85.6432 243.034 82.1872 239.482 82.1872C235.962 82.1872 233.754 85.6112 233.754 91.0512C233.754 96.4592 235.962 99.9152 239.514 99.9152ZM262.42 103.371C256.756 103.371 252.884 98.4112 252.884 91.0512C252.884 83.6592 256.724 78.7632 262.388 78.7632C268.084 78.7632 271.892 83.6912 271.892 91.0512C271.892 98.4112 268.116 103.371 262.42 103.371ZM262.42 99.9152C265.94 99.9152 268.148 96.4912 268.148 91.0512C268.148 85.6432 265.94 82.1872 262.388 82.1872C258.868 82.1872 256.66 85.6112 256.66 91.0512C256.66 96.4592 258.868 99.9152 262.42 99.9152Z" fill="#191A1F"/>
<rect x="34.4723" y="32.2681" width="86.1043" height="86.1043" rx="12.0426" fill="url(#paint0_radial_10_144)"/>
<mask id="mask0_10_144" style="mask-type:alpha" maskUnits="userSpaceOnUse" x="54" y="52" width="47" height="47">
<rect width="45.6631" height="45.6631" transform="matrix(-1 0 0 1 100.608 52.7404)" fill="#D9D9D9"/>
</mask>
<g mask="url(#mask0_10_144)">
<path d="M67.1217 86.9878L85.3869 68.7225V85.0851H89.1921V62.2536H66.3606V66.0589H82.7232L64.458 84.3241L67.1217 86.9878Z" fill="white"/>
</g>
</g>
<defs>
<filter id="filter0_dddd_10_144" x="0.178035" y="0.713809" width="429.434" height="290.864" filterUnits="userSpaceOnUse" color-interpolation-filters="sRGB">
<feFlood flood-opacity="0" result="BackgroundImageFix"/>
<feColorMatrix in="SourceAlpha" type="matrix" values="0 0 0 0 0 0 0 0 0 0 0 0 0 0 0 0 0 0 127 0" result="hardAlpha"/>
<feOffset dx="4.60732" dy="6.1431"/>
<feGaussianBlur stdDeviation="9.21464"/>
<feColorMatrix type="matrix" values="0 0 0 0 0.631373 0 0 0 0 0.631373 0 0 0 0 0.631373 0 0 0 0.1 0"/>
<feBlend mode="normal" in2="BackgroundImageFix" result="effect1_dropShadow_10_144"/>
<feColorMatrix in="SourceAlpha" type="matrix" values="0 0 0 0 0 0 0 0 0 0 0 0 0 0 0 0 0 0 127 0" result="hardAlpha"/>
<feOffset dx="19.9651" dy="26.1082"/>
<feGaussianBlur stdDeviation="16.1256"/>
<feColorMatrix type="matrix" values="0 0 0 0 0.631373 0 0 0 0 0.631373 0 0 0 0 0.631373 0 0 0 0.09 0"/>
<feBlend mode="normal" in2="effect1_dropShadow_10_144" result="effect2_dropShadow_10_144"/>
<feColorMatrix in="SourceAlpha" type="matrix" values="0 0 0 0 0 0 0 0 0 0 0 0 0 0 0 0 0 0 127 0" result="hardAlpha"/>
<feOffset dx="46.0732" dy="56.8236"/>
<feGaussianBlur stdDeviation="22.2687"/>
<feColorMatrix type="matrix" values="0 0 0 0 0.631373 0 0 0 0 0.631373 0 0 0 0 0.631373 0 0 0 0.05 0"/>
<feBlend mode="normal" in2="effect2_dropShadow_10_144" result="effect3_dropShadow_10_144"/>
<feColorMatrix in="SourceAlpha" type="matrix" values="0 0 0 0 0 0 0 0 0 0 0 0 0 0 0 0 0 0 127 0" result="hardAlpha"/>
<feOffset dx="81.396" dy="101.361"/>
<feGaussianBlur stdDeviation="26.1082"/>
<feColorMatrix type="matrix" values="0 0 0 0 0.631373 0 0 0 0 0.631373 0 0 0 0 0.631373 0 0 0 0.01 0"/>
<feBlend mode="normal" in2="effect3_dropShadow_10_144" result="effect4_dropShadow_10_144"/>
<feBlend mode="normal" in="SourceGraphic" in2="effect4_dropShadow_10_144" result="shape"/>
</filter>
<radialGradient id="paint0_radial_10_144" cx="0" cy="0" r="1" gradientUnits="userSpaceOnUse" gradientTransform="translate(77.7344 39.6185) rotate(90.1528) scale(78.7542)">
<stop stop-color="#1FA2F2"/>
<stop offset="1" stop-color="#1A6BDE"/>
</radialGradient>
</defs>
</svg>
