<svg width="431" height="292" viewBox="0 0 431 292" fill="none" xmlns="http://www.w3.org/2000/svg">
<g filter="url(#filter0_dddd_10_107)">
<rect x="14" y="13" width="283" height="125.243" rx="21.0745" fill="white"/>
<path d="M143.235 60.9234V47.5134H147.843C148.719 47.5134 149.487 47.6874 150.147 48.0354C150.807 48.3714 151.317 48.8514 151.677 49.4754C152.049 50.0874 152.235 50.8014 152.235 51.6174C152.235 52.5654 151.983 53.3754 151.479 54.0474C150.987 54.7194 150.315 55.1934 149.463 55.4694L152.595 60.9234H150.903L147.627 55.1454L148.599 55.7034H144.675V60.9234H143.235ZM144.675 54.3534H147.915C148.491 54.3534 148.995 54.2454 149.427 54.0294C149.859 53.8014 150.195 53.4834 150.435 53.0754C150.675 52.6554 150.795 52.1634 150.795 51.5994C150.795 51.0354 150.675 50.5494 150.435 50.1414C150.195 49.7334 149.859 49.4214 149.427 49.2054C148.995 48.9774 148.491 48.8634 147.915 48.8634H144.675V54.3534ZM158.415 61.1394C157.515 61.1394 156.699 60.9234 155.967 60.4914C155.247 60.0474 154.677 59.4414 154.257 58.6734C153.837 57.9054 153.627 57.0354 153.627 56.0634C153.627 55.0914 153.831 54.2334 154.239 53.4894C154.647 52.7334 155.199 52.1394 155.895 51.7074C156.603 51.2754 157.395 51.0594 158.271 51.0594C158.967 51.0594 159.585 51.1914 160.125 51.4554C160.677 51.7074 161.145 52.0554 161.529 52.4994C161.913 52.9314 162.207 53.4234 162.411 53.9754C162.615 54.5154 162.717 55.0734 162.717 55.6494C162.717 55.7694 162.711 55.9074 162.699 56.0634C162.687 56.2074 162.669 56.3574 162.645 56.5134H154.491V55.2534H161.871L161.223 55.7934C161.331 55.1334 161.253 54.5454 160.989 54.0294C160.737 53.5014 160.371 53.0874 159.891 52.7874C159.411 52.4754 158.871 52.3194 158.271 52.3194C157.671 52.3194 157.113 52.4754 156.597 52.7874C156.093 53.0994 155.697 53.5374 155.409 54.1014C155.121 54.6534 155.007 55.3134 155.067 56.0814C155.007 56.8494 155.127 57.5214 155.427 58.0974C155.739 58.6614 156.159 59.0994 156.687 59.4114C157.227 59.7234 157.803 59.8794 158.415 59.8794C159.123 59.8794 159.717 59.7114 160.197 59.3754C160.677 59.0394 161.067 58.6194 161.367 58.1154L162.519 58.7274C162.327 59.1594 162.033 59.5614 161.637 59.9334C161.241 60.2934 160.767 60.5874 160.215 60.8154C159.675 61.0314 159.075 61.1394 158.415 61.1394ZM169.508 61.1394C168.56 61.1394 167.726 60.9174 167.006 60.4734C166.286 60.0294 165.722 59.4294 165.314 58.6734C164.906 57.9054 164.702 57.0414 164.702 56.0814C164.702 55.1214 164.906 54.2634 165.314 53.5074C165.722 52.7514 166.286 52.1574 167.006 51.7254C167.726 51.2814 168.56 51.0594 169.508 51.0594C170.108 51.0594 170.672 51.1674 171.2 51.3834C171.728 51.5994 172.196 51.8934 172.604 52.2654C173.012 52.6254 173.318 53.0454 173.522 53.5254L172.298 54.1554C172.058 53.6394 171.692 53.2194 171.2 52.8954C170.708 52.5714 170.144 52.4094 169.508 52.4094C168.872 52.4094 168.296 52.5714 167.78 52.8954C167.276 53.2074 166.874 53.6454 166.574 54.2094C166.286 54.7614 166.142 55.3914 166.142 56.0994C166.142 56.7954 166.286 57.4254 166.574 57.9894C166.874 58.5414 167.276 58.9794 167.78 59.3034C168.296 59.6274 168.872 59.7894 169.508 59.7894C170.144 59.7894 170.702 59.6274 171.182 59.3034C171.674 58.9794 172.046 58.5474 172.298 58.0074L173.522 58.6734C173.318 59.1414 173.012 59.5614 172.604 59.9334C172.196 60.3054 171.728 60.5994 171.2 60.8154C170.672 61.0314 170.108 61.1394 169.508 61.1394ZM180.283 61.1394C179.383 61.1394 178.567 60.9234 177.835 60.4914C177.115 60.0474 176.545 59.4414 176.125 58.6734C175.705 57.9054 175.495 57.0354 175.495 56.0634C175.495 55.0914 175.699 54.2334 176.107 53.4894C176.515 52.7334 177.067 52.1394 177.763 51.7074C178.471 51.2754 179.263 51.0594 180.139 51.0594C180.835 51.0594 181.453 51.1914 181.993 51.4554C182.545 51.7074 183.013 52.0554 183.397 52.4994C183.781 52.9314 184.075 53.4234 184.279 53.9754C184.483 54.5154 184.585 55.0734 184.585 55.6494C184.585 55.7694 184.579 55.9074 184.567 56.0634C184.555 56.2074 184.537 56.3574 184.513 56.5134H176.359V55.2534H183.739L183.091 55.7934C183.199 55.1334 183.121 54.5454 182.857 54.0294C182.605 53.5014 182.239 53.0874 181.759 52.7874C181.279 52.4754 180.739 52.3194 180.139 52.3194C179.539 52.3194 178.981 52.4754 178.465 52.7874C177.961 53.0994 177.565 53.5374 177.277 54.1014C176.989 54.6534 176.875 55.3134 176.935 56.0814C176.875 56.8494 176.995 57.5214 177.295 58.0974C177.607 58.6614 178.027 59.0994 178.555 59.4114C179.095 59.7234 179.671 59.8794 180.283 59.8794C180.991 59.8794 181.585 59.7114 182.065 59.3754C182.545 59.0394 182.935 58.6194 183.235 58.1154L184.387 58.7274C184.195 59.1594 183.901 59.5614 183.505 59.9334C183.109 60.2934 182.635 60.5874 182.083 60.8154C181.543 61.0314 180.943 61.1394 180.283 61.1394ZM186.965 60.9234V51.2754H188.315V60.9234H186.965ZM186.965 49.4934V47.5134H188.315V49.4934H186.965ZM193.652 60.9234L189.89 51.2754H191.402L194.57 59.7354H194.084L197.27 51.2754H198.8L195.002 60.9234H193.652ZM204.593 61.1394C203.693 61.1394 202.877 60.9234 202.145 60.4914C201.425 60.0474 200.855 59.4414 200.435 58.6734C200.015 57.9054 199.805 57.0354 199.805 56.0634C199.805 55.0914 200.009 54.2334 200.417 53.4894C200.825 52.7334 201.377 52.1394 202.073 51.7074C202.781 51.2754 203.573 51.0594 204.449 51.0594C205.145 51.0594 205.763 51.1914 206.303 51.4554C206.855 51.7074 207.323 52.0554 207.707 52.4994C208.091 52.9314 208.385 53.4234 208.589 53.9754C208.793 54.5154 208.895 55.0734 208.895 55.6494C208.895 55.7694 208.889 55.9074 208.877 56.0634C208.865 56.2074 208.847 56.3574 208.823 56.5134H200.669V55.2534H208.049L207.401 55.7934C207.509 55.1334 207.431 54.5454 207.167 54.0294C206.915 53.5014 206.549 53.0874 206.069 52.7874C205.589 52.4754 205.049 52.3194 204.449 52.3194C203.849 52.3194 203.291 52.4754 202.775 52.7874C202.271 53.0994 201.875 53.5374 201.587 54.1014C201.299 54.6534 201.185 55.3134 201.245 56.0814C201.185 56.8494 201.305 57.5214 201.605 58.0974C201.917 58.6614 202.337 59.0994 202.865 59.4114C203.405 59.7234 203.981 59.8794 204.593 59.8794C205.301 59.8794 205.895 59.7114 206.375 59.3754C206.855 59.0394 207.245 58.6194 207.545 58.1154L208.697 58.7274C208.505 59.1594 208.211 59.5614 207.815 59.9334C207.419 60.2934 206.945 60.5874 206.393 60.8154C205.853 61.0314 205.253 61.1394 204.593 61.1394Z" fill="#595959"/>
<path d="M150.995 106.187V103.275C147.155 102.763 144.179 100.235 143.059 96.8112L146.259 95.4672C147.155 97.8352 148.851 99.3712 150.995 99.8512V92.5872L149.491 92.1072C145.907 90.9872 143.987 88.6192 143.987 85.5472C143.987 81.7712 146.867 79.0512 150.995 78.7952V75.9472H153.555V78.9232C156.915 79.5312 159.475 81.7072 160.467 84.6192L157.331 85.9952C156.627 84.1072 155.283 82.8272 153.555 82.3152V89.6432L154.867 90.0592C158.675 91.2432 160.595 93.3552 160.595 96.5552C160.595 100.235 157.747 102.923 153.555 103.307V106.187H150.995ZM150.707 88.7472L150.995 88.8432V82.0912C149.011 82.3472 147.731 83.5632 147.731 85.3552C147.731 86.8912 148.691 88.1392 150.707 88.7472ZM153.971 93.5152L153.555 93.3872V99.9792C155.603 99.7232 156.883 98.5072 156.883 96.8112C156.883 95.0832 155.859 94.1232 153.971 93.5152ZM168.002 102.987V82.3472H163.426V79.1472H171.746V102.987H168.002ZM187.509 102.987V97.6112H176.149V94.4752L187.349 79.1472H191.093V94.4752H194.389V97.6112H191.093V102.987H187.509ZM187.509 94.4752V83.9152L179.925 94.4752H187.509ZM207.077 103.371C201.413 103.371 197.541 98.4112 197.541 91.0512C197.541 83.6592 201.381 78.7632 207.045 78.7632C212.741 78.7632 216.549 83.6912 216.549 91.0512C216.549 98.4112 212.773 103.371 207.077 103.371ZM207.077 99.9152C210.597 99.9152 212.805 96.4912 212.805 91.0512C212.805 85.6432 210.597 82.1872 207.045 82.1872C203.525 82.1872 201.317 85.6112 201.317 91.0512C201.317 96.4592 203.525 99.9152 207.077 99.9152ZM222.207 102.987V98.8272H225.887V102.987H222.207ZM241.077 103.371C235.413 103.371 231.541 98.4112 231.541 91.0512C231.541 83.6592 235.381 78.7632 241.045 78.7632C246.741 78.7632 250.549 83.6912 250.549 91.0512C250.549 98.4112 246.773 103.371 241.077 103.371ZM241.077 99.9152C244.597 99.9152 246.805 96.4912 246.805 91.0512C246.805 85.6432 244.597 82.1872 241.045 82.1872C237.525 82.1872 235.317 85.6112 235.317 91.0512C235.317 96.4592 237.525 99.9152 241.077 99.9152ZM263.983 103.371C258.319 103.371 254.447 98.4112 254.447 91.0512C254.447 83.6592 258.287 78.7632 263.951 78.7632C269.647 78.7632 273.455 83.6912 273.455 91.0512C273.455 98.4112 269.679 103.371 263.983 103.371ZM263.983 99.9152C267.503 99.9152 269.711 96.4912 269.711 91.0512C269.711 85.6432 267.503 82.1872 263.951 82.1872C260.431 82.1872 258.223 85.6112 258.223 91.0512C258.223 96.4592 260.431 99.9152 263.983 99.9152Z" fill="#191A1F"/>
<rect x="34.4723" y="32.2681" width="86.1043" height="86.1043" rx="12.0426" fill="url(#paint0_radial_10_107)"/>
<mask id="mask0_10_107" style="mask-type:alpha" maskUnits="userSpaceOnUse" x="54" y="52" width="47" height="47">
<rect x="54.9447" y="52.7405" width="45.6631" height="45.6631" fill="#D9D9D9"/>
</mask>
<g mask="url(#mask0_10_107)">
<path d="M88.4308 86.9878L70.1656 68.7225V85.0851H66.3604V62.2536H89.1919V66.0589H72.8293L91.0945 84.3241L88.4308 86.9878Z" fill="white"/>
</g>
</g>
<defs>
<filter id="filter0_dddd_10_107" x="0.178035" y="0.713809" width="430.434" height="291.106" filterUnits="userSpaceOnUse" color-interpolation-filters="sRGB">
<feFlood flood-opacity="0" result="BackgroundImageFix"/>
<feColorMatrix in="SourceAlpha" type="matrix" values="0 0 0 0 0 0 0 0 0 0 0 0 0 0 0 0 0 0 127 0" result="hardAlpha"/>
<feOffset dx="4.60732" dy="6.1431"/>
<feGaussianBlur stdDeviation="9.21464"/>
<feColorMatrix type="matrix" values="0 0 0 0 0.631373 0 0 0 0 0.631373 0 0 0 0 0.631373 0 0 0 0.1 0"/>
<feBlend mode="normal" in2="BackgroundImageFix" result="effect1_dropShadow_10_107"/>
<feColorMatrix in="SourceAlpha" type="matrix" values="0 0 0 0 0 0 0 0 0 0 0 0 0 0 0 0 0 0 127 0" result="hardAlpha"/>
<feOffset dx="19.9651" dy="26.1082"/>
<feGaussianBlur stdDeviation="16.1256"/>
<feColorMatrix type="matrix" values="0 0 0 0 0.631373 0 0 0 0 0.631373 0 0 0 0 0.631373 0 0 0 0.09 0"/>
<feBlend mode="normal" in2="effect1_dropShadow_10_107" result="effect2_dropShadow_10_107"/>
<feColorMatrix in="SourceAlpha" type="matrix" values="0 0 0 0 0 0 0 0 0 0 0 0 0 0 0 0 0 0 127 0" result="hardAlpha"/>
<feOffset dx="46.0732" dy="56.8236"/>
<feGaussianBlur stdDeviation="22.2687"/>
<feColorMatrix type="matrix" values="0 0 0 0 0.631373 0 0 0 0 0.631373 0 0 0 0 0.631373 0 0 0 0.05 0"/>
<feBlend mode="normal" in2="effect2_dropShadow_10_107" result="effect3_dropShadow_10_107"/>
<feColorMatrix in="SourceAlpha" type="matrix" values="0 0 0 0 0 0 0 0 0 0 0 0 0 0 0 0 0 0 127 0" result="hardAlpha"/>
<feOffset dx="81.396" dy="101.361"/>
<feGaussianBlur stdDeviation="26.1082"/>
<feColorMatrix type="matrix" values="0 0 0 0 0.631373 0 0 0 0 0.631373 0 0 0 0 0.631373 0 0 0 0.01 0"/>
<feBlend mode="normal" in2="effect3_dropShadow_10_107" result="effect4_dropShadow_10_107"/>
<feBlend mode="normal" in="SourceGraphic" in2="effect4_dropShadow_10_107" result="shape"/>
</filter>
<radialGradient id="paint0_radial_10_107" cx="0" cy="0" r="1" gradientUnits="userSpaceOnUse" gradientTransform="translate(77.7344 39.6185) rotate(90.1528) scale(78.7542)">
<stop stop-color="#1FA2F2"/>
<stop offset="1" stop-color="#1A6BDE"/>
</radialGradient>
</defs>
</svg>
