<svg width="926" height="805" viewBox="0 0 926 805" fill="none" xmlns="http://www.w3.org/2000/svg">
<g filter="url(#filter0_dddd_3_522)">
<g clip-path="url(#clip0_3_522)">
<rect width="684.487" height="393.118" rx="13.8747" transform="matrix(0.978148 -0.207912 0.406737 0.913545 267.998 163.313)" fill="url(#paint0_radial_3_522)"/>
<path d="M443.586 415.401L448.511 426.463L447.123 426.758L436.802 419.445L436.686 419.469L440.553 428.155L439.119 428.46L434.194 417.398L435.582 417.103L445.936 424.433L446.051 424.408L442.175 415.701L443.586 415.401ZM451.867 425.75L450.363 426.07L449.787 414.083L451.268 413.769L460.542 423.906L459.038 424.226L451.353 415.666L451.26 415.686L451.867 425.75ZM450.498 421.311L456.559 420.023L457.088 421.211L451.027 422.499L450.498 421.311ZM457.462 412.452L459.173 412.088L467.287 420.415L467.426 420.385L467.363 410.347L469.075 409.984L474 421.046L472.658 421.331L468.916 412.926L468.8 412.951L468.841 422.142L467.545 422.417L460.102 414.8L459.987 414.824L463.728 423.229L462.387 423.514L457.462 412.452ZM476.875 420.434L471.95 409.372L479.098 407.853L479.628 409.041L473.914 410.256L475.578 413.994L480.922 412.858L481.451 414.046L476.107 415.182L477.781 418.941L483.587 417.707L484.116 418.895L476.875 420.434Z" fill="white"/>
<path d="M465.082 448.641C464.568 448.043 464.011 447.527 463.413 447.093C462.819 446.652 462.187 446.303 461.518 446.046C460.855 445.787 460.162 445.63 459.439 445.573C458.716 445.516 457.974 445.569 457.213 445.731C455.966 445.996 454.965 446.538 454.212 447.357C453.459 448.176 453.041 449.235 452.959 450.535C452.878 451.834 453.216 453.335 453.974 455.038C454.732 456.741 455.677 458.113 456.809 459.155C457.941 460.197 459.161 460.908 460.471 461.289C461.781 461.669 463.087 461.721 464.389 461.444C465.596 461.187 466.551 460.721 467.256 460.046C467.964 459.363 468.379 458.525 468.5 457.532C468.625 456.532 468.419 455.43 467.883 454.226L468.733 454.214L462.4 455.56L461.459 453.447L469.479 451.743L470.419 453.855C471.14 455.475 471.397 456.962 471.19 458.316C470.99 459.669 470.388 460.813 469.387 461.748C468.389 462.675 467.053 463.316 465.381 463.671C463.517 464.068 461.696 464.006 459.919 463.487C458.149 462.966 456.534 462.034 455.073 460.691C453.619 459.346 452.43 457.637 451.507 455.563C450.814 454.007 450.414 452.561 450.307 451.225C450.203 449.88 450.368 448.682 450.8 447.63C451.232 446.578 451.906 445.699 452.822 444.993C453.738 444.287 454.871 443.79 456.221 443.503C457.332 443.267 458.437 443.204 459.536 443.313C460.639 443.415 461.695 443.671 462.702 444.08C463.714 444.482 464.649 445.023 465.506 445.702C466.361 446.375 467.097 447.169 467.714 448.082L465.082 448.641ZM478.884 460.507L472.317 445.758L474.744 445.242L481.311 459.991L478.884 460.507ZM472.457 443.037C471.984 443.138 471.509 443.074 471.032 442.846C470.562 442.616 470.234 442.29 470.045 441.868C469.857 441.445 469.864 441.048 470.066 440.676C470.275 440.302 470.616 440.065 471.089 439.964C471.562 439.864 472.033 439.928 472.503 440.158C472.979 440.386 473.312 440.711 473.5 441.134C473.688 441.556 473.678 441.954 473.469 442.328C473.267 442.7 472.93 442.937 472.457 443.037ZM491.845 445.223L489.922 446.262C489.634 445.952 489.285 445.665 488.875 445.402C488.469 445.131 487.993 444.938 487.446 444.823C486.9 444.708 486.274 444.725 485.568 444.875C484.601 445.081 483.889 445.46 483.43 446.013C482.974 446.558 482.888 447.148 483.17 447.781C483.421 448.345 483.838 448.743 484.423 448.976C485.007 449.21 485.813 449.336 486.842 449.355L489.426 449.395C490.98 449.415 492.25 449.681 493.236 450.193C494.219 450.699 494.94 451.467 495.399 452.498C495.775 453.343 495.851 454.154 495.627 454.93C495.409 455.705 494.923 456.383 494.169 456.964C493.414 457.545 492.424 457.965 491.197 458.226C489.586 458.569 488.108 458.525 486.761 458.097C485.415 457.668 484.322 456.856 483.482 455.662L485.546 454.634C486.119 455.381 486.799 455.889 487.585 456.156C488.379 456.422 489.273 456.449 490.267 456.238C491.397 455.997 492.196 455.582 492.661 454.993C493.13 454.396 493.224 453.78 492.942 453.146C492.714 452.634 492.331 452.246 491.793 451.982C491.253 451.711 490.546 451.574 489.674 451.57L486.786 451.554C485.197 451.541 483.913 451.271 482.936 450.743C481.962 450.207 481.248 449.43 480.795 448.412C480.425 447.58 480.347 446.791 480.562 446.044C480.785 445.296 481.25 444.647 481.958 444.097C482.673 443.546 483.585 443.152 484.696 442.916C486.258 442.584 487.628 442.643 488.804 443.094C489.987 443.544 491.001 444.253 491.845 445.223ZM507.64 454.731C506.118 455.055 504.666 455.02 503.283 454.627C501.904 454.227 500.664 453.523 499.563 452.517C498.466 451.503 497.582 450.24 496.909 448.729C496.236 447.218 495.938 445.824 496.015 444.547C496.095 443.261 496.523 442.182 497.297 441.31C498.076 440.43 499.178 439.838 500.604 439.535C501.426 439.36 502.295 439.316 503.211 439.401C504.127 439.487 505.043 439.748 505.957 440.184C506.869 440.614 507.729 441.258 508.539 442.116C509.349 442.974 510.06 444.091 510.673 445.467L511.1 446.428L498.927 449.015L498.055 447.056L507.761 444.993C507.39 444.161 506.881 443.456 506.234 442.879C505.594 442.3 504.864 441.891 504.045 441.652C503.232 441.411 502.387 441.384 501.51 441.571C500.544 441.776 499.807 442.178 499.301 442.776C498.798 443.366 498.517 444.057 498.456 444.848C498.395 445.638 498.546 446.44 498.908 447.253L499.489 448.559C499.985 449.673 500.611 450.574 501.368 451.261C502.128 451.94 502.968 452.403 503.887 452.649C504.804 452.888 505.753 452.904 506.733 452.696C507.371 452.56 507.909 452.354 508.349 452.079C508.793 451.795 509.128 451.444 509.354 451.024C509.577 450.598 509.678 450.108 509.655 449.552L512.273 449.668C512.357 450.463 512.233 451.204 511.901 451.891C511.566 452.572 511.041 453.16 510.323 453.656C509.603 454.146 508.709 454.504 507.64 454.731ZM511.403 432.068L520.159 451.734L517.733 452.249L508.977 432.584L511.403 432.068ZM518.274 430.608L527.03 450.273L524.603 450.789L515.848 431.123L518.274 430.608ZM538.232 448.229C536.71 448.552 535.258 448.517 533.875 448.125C532.496 447.724 531.257 447.02 530.156 446.014C529.059 445 528.174 443.737 527.502 442.227C526.829 440.716 526.531 439.322 526.607 438.044C526.688 436.759 527.115 435.68 527.89 434.807C528.668 433.927 529.77 433.335 531.196 433.032C532.019 432.858 532.888 432.813 533.804 432.899C534.72 432.984 535.635 433.245 536.55 433.681C537.461 434.111 538.322 434.755 539.132 435.613C539.941 436.471 540.653 437.588 541.265 438.965L541.693 439.925L529.52 442.512L528.647 440.554L538.353 438.491C537.983 437.658 537.474 436.954 536.827 436.376C536.186 435.798 535.457 435.389 534.637 435.149C533.825 434.909 532.98 434.882 532.103 435.068C531.136 435.274 530.4 435.675 529.893 436.273C529.391 436.864 529.109 437.554 529.048 438.345C528.988 439.136 529.139 439.938 529.5 440.751L530.082 442.057C530.578 443.17 531.204 444.071 531.96 444.758C532.72 445.437 533.56 445.9 534.48 446.146C535.397 446.386 536.346 446.401 537.326 446.193C537.963 446.057 538.502 445.852 538.942 445.576C539.386 445.292 539.721 444.941 539.947 444.522C540.17 444.096 540.27 443.605 540.248 443.049L542.866 443.165C542.949 443.96 542.825 444.702 542.494 445.389C542.159 446.069 541.633 446.658 540.916 447.154C540.196 447.643 539.301 448.001 538.232 448.229ZM560.622 443.133L546.109 424.691L548.699 424.14L560.231 439.222L560.437 439.178L557.788 422.209L560.667 421.597L572.281 436.661L572.487 436.617L569.756 419.665L572.347 419.114L575.345 440.004L572.713 440.563L561.088 425.88L560.924 425.915L563.254 442.574L560.622 443.133Z" fill="white"/>
<path d="M599.008 382.365L606.67 390.93L606.809 390.9L606.179 380.841L607.683 380.522L608.259 392.508L606.778 392.823L597.504 382.685L599.008 382.365ZM613.921 391.304L612.417 391.624L611.841 379.638L613.321 379.323L622.596 389.461L621.092 389.78L613.407 381.221L613.314 381.24L613.921 391.304ZM612.552 386.865L618.613 385.577L619.142 386.765L613.081 388.054L612.552 386.865ZM624.441 389.068L619.515 378.006L620.95 377.702L625.346 387.575L630.851 386.405L631.381 387.593L624.441 389.068ZM630.11 375.754L635.036 386.816L633.601 387.121L628.676 376.059L630.11 375.754ZM641.566 385.428L637.911 386.205L632.986 375.143L636.803 374.332C637.952 374.088 639.034 374.1 640.049 374.369C641.061 374.635 641.969 375.134 642.772 375.866C643.573 376.594 644.229 377.531 644.739 378.676C645.252 379.828 645.474 380.867 645.405 381.792C645.334 382.714 644.977 383.487 644.336 384.112C643.692 384.734 642.769 385.172 641.566 385.428ZM638.817 384.712L640.945 384.26C641.924 384.051 642.657 383.702 643.144 383.213C643.631 382.723 643.887 382.119 643.913 381.4C643.939 380.681 643.752 379.871 643.351 378.971C642.953 378.078 642.455 377.342 641.855 376.764C641.255 376.182 640.567 375.784 639.792 375.571C639.016 375.353 638.165 375.343 637.24 375.54L634.95 376.027L638.817 384.712ZM649.153 373.007L648.624 371.819L657.508 369.931L658.037 371.119L654.312 371.911L658.708 381.785L657.274 382.089L652.878 372.216L649.153 373.007ZM664.646 380.522L659.721 369.46L661.155 369.156L663.349 374.082L669.664 372.739L667.471 367.813L668.905 367.508L673.83 378.57L672.396 378.875L670.193 373.928L663.878 375.27L666.08 380.218L664.646 380.522ZM676.702 377.96L671.776 366.898L675.779 366.047C676.704 365.851 677.529 365.837 678.254 366.006C678.978 366.171 679.596 366.479 680.109 366.93C680.622 367.381 681.024 367.932 681.314 368.584C681.604 369.236 681.719 369.844 681.658 370.409C681.597 370.973 681.336 371.462 680.874 371.876C680.411 372.286 679.721 372.588 678.803 372.783L675.564 373.472L675.026 372.262L678.218 371.583C678.85 371.449 679.321 371.254 679.629 370.999C679.942 370.744 680.114 370.439 680.147 370.085C680.181 369.727 680.1 369.327 679.903 368.884C679.706 368.441 679.445 368.073 679.12 367.779C678.795 367.485 678.398 367.29 677.928 367.193C677.457 367.092 676.901 367.109 676.261 367.245L673.74 367.781L678.136 377.655L676.702 377.96ZM680.064 371.806L685.192 376.155L683.526 376.509L678.445 372.15L680.064 371.806ZM689.966 363.032L691.401 362.727L694.662 370.051C694.998 370.807 695.108 371.523 694.991 372.198C694.876 372.869 694.55 373.449 694.012 373.938C693.472 374.423 692.738 374.764 691.809 374.962C690.88 375.159 689.995 375.162 689.154 374.97C688.311 374.775 687.568 374.422 686.923 373.913C686.281 373.399 685.791 372.764 685.455 372.008L682.194 364.684L683.628 364.379L686.841 371.595C687.081 372.135 687.423 372.589 687.865 372.956C688.305 373.32 688.814 373.572 689.392 373.713C689.972 373.85 690.592 373.849 691.251 373.709C691.91 373.568 692.424 373.329 692.793 372.991C693.159 372.649 693.375 372.242 693.44 371.771C693.507 371.296 693.42 370.788 693.179 370.248L689.966 363.032Z" fill="white"/>
<path d="M627.653 429.18C626.104 429.509 624.609 429.396 623.169 428.84C621.725 428.278 620.381 427.306 619.135 425.924C617.887 424.535 616.787 422.772 615.835 420.634C614.889 418.508 614.368 416.632 614.274 415.006C614.184 413.371 614.508 412.041 615.244 411.016C615.984 409.982 617.122 409.302 618.658 408.976C620.193 408.65 621.684 408.771 623.13 409.339C624.58 409.9 625.929 410.875 627.178 412.263C628.43 413.644 629.529 415.396 630.476 417.522C631.428 419.66 631.952 421.546 632.049 423.179C632.143 424.806 631.822 426.132 631.085 427.157C630.346 428.176 629.202 428.85 627.653 429.18ZM626.712 427.067C628.248 426.741 629.132 425.796 629.367 424.232C629.601 422.669 629.148 420.607 628.008 418.046C627.25 416.343 626.409 414.935 625.485 413.821C624.569 412.705 623.607 411.911 622.601 411.438C621.602 410.964 620.596 410.835 619.581 411.05C618.059 411.374 617.182 412.327 616.95 413.911C616.714 415.489 617.165 417.555 618.302 420.109C619.061 421.812 619.897 423.218 620.811 424.327C621.725 425.436 622.68 426.225 623.676 426.693C624.679 427.159 625.691 427.284 626.712 427.067ZM636.589 405.165C637.455 404.988 638.387 404.958 639.385 405.075C640.382 405.192 641.393 405.524 642.416 406.07C643.437 406.61 644.43 407.433 645.395 408.538C646.359 409.643 647.244 411.099 648.047 412.904C648.826 414.652 649.338 416.242 649.586 417.675C649.838 419.1 649.838 420.347 649.587 421.417C649.342 422.485 648.853 423.359 648.121 424.041C647.396 424.72 646.441 425.186 645.255 425.438C644.076 425.689 642.927 425.695 641.808 425.456C640.692 425.21 639.666 424.759 638.729 424.103C637.796 423.439 637.016 422.606 636.39 421.604L638.899 421.071C639.527 421.926 640.308 422.576 641.242 423.022C642.18 423.461 643.204 423.562 644.314 423.326C645.939 422.98 646.925 422.045 647.274 420.521C647.63 418.994 647.27 417.021 646.192 414.602L646.028 414.637C645.883 415.256 645.634 415.817 645.28 416.32C644.926 416.822 644.474 417.248 643.924 417.596C643.374 417.944 642.735 418.195 642.009 418.35C640.802 418.606 639.571 418.563 638.316 418.22C637.064 417.87 635.919 417.269 634.88 416.418C633.844 415.558 633.045 414.495 632.48 413.228C631.944 412.024 631.742 410.862 631.873 409.741C632.008 408.612 632.468 407.638 633.251 406.82C634.042 406 635.154 405.449 636.589 405.165ZM637.529 407.277C636.665 407.461 635.977 407.828 635.465 408.378C634.956 408.921 634.65 409.574 634.548 410.339C634.45 411.096 634.583 411.884 634.948 412.703C635.313 413.523 635.837 414.228 636.52 414.818C637.207 415.401 637.975 415.819 638.823 416.073C639.676 416.32 640.534 416.351 641.397 416.167C642.048 416.029 642.602 415.782 643.059 415.425C643.513 415.063 643.856 414.629 644.089 414.124C644.326 413.611 644.446 413.063 644.449 412.481C644.45 411.892 644.32 411.307 644.061 410.724C643.719 409.956 643.199 409.278 642.502 408.69C641.812 408.101 641.029 407.672 640.151 407.403C639.28 407.133 638.406 407.091 637.529 407.277ZM655.146 400.505L658.844 425.493L656.623 425.965L652.926 400.977L655.146 400.505ZM667.148 420.49L666.378 418.762L670.165 410.179C670.61 409.173 670.959 408.307 671.214 407.58C671.465 406.847 671.596 406.182 671.608 405.584C671.623 404.978 671.497 404.374 671.229 403.772C670.921 403.081 670.476 402.52 669.895 402.09C669.32 401.659 668.666 401.37 667.934 401.225C667.201 401.079 666.454 401.087 665.694 401.249C664.885 401.421 664.249 401.728 663.785 402.169C663.326 402.603 663.055 403.134 662.974 403.761C662.9 404.386 663.03 405.073 663.363 405.822L660.937 406.338C660.424 405.186 660.258 404.114 660.439 403.122C660.62 402.131 661.093 401.288 661.856 400.593C662.627 399.896 663.625 399.418 664.852 399.157C666.086 398.895 667.288 398.906 668.457 399.19C669.626 399.474 670.666 399.971 671.575 400.682C672.484 401.393 673.164 402.254 673.614 403.265C673.936 403.988 674.111 404.726 674.137 405.477C674.168 406.22 674.029 407.087 673.72 408.078C673.415 409.061 672.928 410.285 672.26 411.751L669.634 417.481L669.703 417.635L679.491 415.554L680.431 417.667L667.148 420.49ZM691.789 415.547C690.919 415.718 689.987 415.748 688.993 415.637C687.998 415.526 686.989 415.197 685.965 414.651C684.939 414.098 683.943 413.269 682.978 412.164C682.011 411.052 681.122 409.588 680.313 407.77C679.537 406.028 679.025 404.448 678.776 403.03C678.525 401.605 678.526 400.361 678.78 399.297C679.032 398.228 679.52 397.353 680.246 396.673C680.978 395.992 681.937 395.526 683.122 395.274C684.301 395.023 685.448 395.021 686.564 395.267C687.683 395.506 688.707 395.954 689.638 396.611C690.568 397.268 691.346 398.088 691.97 399.069L689.461 399.602C688.835 398.768 688.056 398.132 687.125 397.692C686.194 397.252 685.173 397.15 684.063 397.386C682.432 397.733 681.442 398.669 681.092 400.193C680.75 401.717 681.109 403.676 682.168 406.072L682.332 406.037C682.474 405.411 682.723 404.85 683.08 404.354C683.441 403.85 683.896 403.424 684.446 403.075C684.997 402.727 685.632 402.477 686.351 402.324C687.558 402.067 688.787 402.114 690.038 402.465C691.287 402.809 692.432 403.41 693.474 404.268C694.514 405.119 695.315 406.178 695.88 407.446C696.421 408.662 696.626 409.838 696.494 410.973C696.359 412.102 695.896 413.076 695.105 413.896C694.319 414.708 693.213 415.258 691.789 415.547ZM690.848 413.435C691.712 413.251 692.396 412.885 692.902 412.336C693.415 411.785 693.719 411.128 693.815 410.365C693.917 409.601 693.783 408.802 693.412 407.97C693.05 407.157 692.526 406.459 691.839 405.877C691.155 405.286 690.386 404.864 689.531 404.612C688.683 404.358 687.827 404.322 686.963 404.506C686.312 404.644 685.759 404.895 685.306 405.258C684.849 405.614 684.501 406.045 684.261 406.552C684.028 407.057 683.912 407.604 683.911 408.192C683.908 408.775 684.037 409.36 684.299 409.949C684.647 410.73 685.167 411.419 685.86 412.014C686.56 412.608 687.345 413.04 688.216 413.311C689.093 413.58 689.971 413.621 690.848 413.435Z" fill="white"/>
<path d="M765.212 350.822L763.778 351.126C763.522 350.759 763.222 350.452 762.881 350.206C762.542 349.958 762.179 349.767 761.79 349.633C761.403 349.495 761.006 349.414 760.599 349.39C760.192 349.366 759.792 349.396 759.398 349.48C758.681 349.632 758.107 349.939 757.675 350.402C757.248 350.863 757.009 351.46 756.959 352.192C756.913 352.923 757.104 353.767 757.53 354.725C757.957 355.683 758.486 356.455 759.119 357.042C759.755 357.628 760.438 358.029 761.167 358.244C761.9 358.459 762.625 358.49 763.342 358.338C763.735 358.254 764.091 358.123 764.408 357.946C764.726 357.768 764.989 357.548 765.198 357.287C765.409 357.021 765.553 356.721 765.632 356.385C765.712 356.044 765.71 355.674 765.625 355.275L767.059 354.97C767.203 355.558 767.231 356.106 767.145 356.613C767.058 357.12 766.873 357.575 766.588 357.979C766.302 358.379 765.931 358.716 765.475 358.99C765.023 359.264 764.498 359.464 763.9 359.591C762.89 359.806 761.889 359.766 760.897 359.472C759.906 359.179 758.995 358.655 758.165 357.901C757.336 357.147 756.662 356.187 756.142 355.02C755.623 353.853 755.399 352.797 755.472 351.851C755.545 350.906 755.872 350.119 756.453 349.491C757.034 348.863 757.83 348.441 758.84 348.226C759.438 348.099 760.035 348.061 760.631 348.112C761.232 348.162 761.814 348.298 762.377 348.521C762.939 348.741 763.462 349.043 763.947 349.429C764.429 349.811 764.851 350.276 765.212 350.822ZM766.477 346.769L774.139 355.333L774.278 355.304L773.648 345.245L775.152 344.925L775.728 356.911L774.247 357.226L764.973 347.088L766.477 346.769ZM777.482 344.429L785.144 352.994L785.283 352.965L784.654 342.905L786.157 342.586L786.733 354.572L785.253 354.887L775.979 344.749L777.482 344.429Z" fill="white"/>
<path d="M774.932 376.053L783.688 395.719L781.138 396.261L773.494 379.092L773.371 379.118L769.649 383.399L768.572 380.979L772.382 376.595L774.932 376.053ZM789.744 394.432L788.974 392.703L792.761 384.12C793.206 383.115 793.556 382.248 793.81 381.522C794.061 380.789 794.192 380.123 794.204 379.525C794.219 378.919 794.093 378.315 793.825 377.713C793.517 377.022 793.072 376.461 792.491 376.031C791.916 375.6 791.262 375.311 790.53 375.166C789.797 375.02 789.05 375.028 788.29 375.19C787.481 375.362 786.845 375.669 786.381 376.111C785.922 376.545 785.651 377.075 785.57 377.702C785.496 378.328 785.626 379.015 785.959 379.764L783.533 380.279C783.02 379.127 782.854 378.055 783.035 377.064C783.216 376.072 783.689 375.229 784.452 374.534C785.223 373.838 786.222 373.359 787.448 373.098C788.682 372.836 789.884 372.847 791.053 373.131C792.223 373.415 793.262 373.912 794.171 374.623C795.08 375.334 795.76 376.195 796.21 377.206C796.532 377.93 796.707 378.667 796.734 379.418C796.764 380.161 796.625 381.028 796.316 382.019C796.011 383.002 795.524 384.227 794.857 385.693L792.231 391.423L792.299 391.576L802.087 389.496L803.027 391.608L789.744 394.432ZM814.508 389.462C813.151 389.751 811.844 389.79 810.588 389.581C809.339 389.37 808.23 388.943 807.261 388.301C806.297 387.651 805.557 386.817 805.044 385.798L807.635 385.247C807.972 385.869 808.448 386.367 809.065 386.741C809.678 387.108 810.373 387.345 811.149 387.454C811.925 387.562 812.718 387.53 813.527 387.358C814.431 387.166 815.168 386.848 815.736 386.405C816.304 385.962 816.67 385.436 816.834 384.827C816.997 384.217 816.925 383.567 816.618 382.875C816.295 382.152 815.82 381.556 815.191 381.087C814.559 380.611 813.803 380.296 812.923 380.139C812.043 379.983 811.069 380.018 810 380.246L808.313 380.604L807.373 378.492L809.059 378.133C809.895 377.955 810.566 377.659 811.071 377.243C811.583 376.826 811.903 376.323 812.032 375.735C812.167 375.146 812.081 374.506 811.773 373.814C811.477 373.149 811.061 372.603 810.526 372.177C809.991 371.751 809.375 371.462 808.677 371.309C807.985 371.154 807.252 371.159 806.478 371.324C805.751 371.479 805.121 371.749 804.588 372.136C804.059 372.514 803.696 372.98 803.5 373.534C803.301 374.081 803.329 374.684 803.586 375.344L801.118 375.869C800.7 374.829 800.631 373.856 800.91 372.949C801.186 372.035 801.731 371.254 802.544 370.604C803.365 369.954 804.382 369.499 805.595 369.241C806.898 368.964 808.125 368.973 809.276 369.268C810.425 369.557 811.428 370.048 812.284 370.742C813.141 371.435 813.776 372.246 814.189 373.175C814.682 374.282 814.791 375.293 814.515 376.206C814.246 377.118 813.647 377.838 812.718 378.364L812.787 378.518C814.208 378.44 815.481 378.748 816.608 379.44C817.731 380.127 818.57 381.094 819.126 382.342C819.602 383.411 819.718 384.438 819.473 385.422C819.233 386.398 818.686 387.243 817.833 387.957C816.981 388.67 815.872 389.172 814.508 389.462Z" fill="white"/>
<g style="mix-blend-mode:soft-light">
<circle cx="27.287" cy="27.287" r="27.287" transform="matrix(0.978148 -0.207912 0.406737 0.913545 807.66 87.4535)" fill="white"/>
</g>
<g style="mix-blend-mode:soft-light">
<circle cx="27.287" cy="27.287" r="27.287" transform="matrix(0.978148 -0.207912 0.406737 0.913545 843.851 79.7611)" fill="white"/>
</g>
<path d="M406.173 330.688C407.256 330.466 408.421 330.429 409.668 330.576C410.915 330.722 412.178 331.137 413.458 331.82C414.733 332.495 415.974 333.523 417.18 334.904C418.386 336.286 419.492 338.105 420.496 340.362C421.469 342.546 422.11 344.534 422.42 346.325C422.735 348.107 422.735 349.666 422.42 351.003C422.114 352.338 421.504 353.431 420.589 354.283C419.682 355.132 418.488 355.715 417.006 356.03C415.532 356.343 414.096 356.35 412.697 356.052C411.303 355.744 410.02 355.18 408.848 354.361C407.682 353.531 406.707 352.49 405.925 351.237L409.06 350.571C409.846 351.639 410.822 352.452 411.989 353.01C413.162 353.558 414.442 353.684 415.83 353.389C417.86 352.957 419.094 351.789 419.53 349.883C419.975 347.975 419.524 345.509 418.177 342.484L417.972 342.528C417.791 343.302 417.48 344.003 417.037 344.631C416.595 345.26 416.03 345.792 415.342 346.227C414.654 346.662 413.856 346.976 412.948 347.169C411.44 347.49 409.901 347.436 408.332 347.007C406.768 346.569 405.336 345.818 404.037 344.754C402.743 343.68 401.743 342.351 401.038 340.766C400.368 339.262 400.115 337.809 400.279 336.408C400.448 334.997 401.022 333.78 402.001 332.757C402.99 331.732 404.38 331.043 406.173 330.688ZM407.349 333.329C406.269 333.558 405.409 334.017 404.768 334.705C404.132 335.383 403.75 336.2 403.622 337.156C403.499 338.102 403.666 339.087 404.122 340.111C404.578 341.135 405.233 342.016 406.087 342.755C406.946 343.483 407.905 344.006 408.966 344.324C410.032 344.631 411.104 344.671 412.184 344.441C412.998 344.268 413.69 343.959 414.261 343.514C414.828 343.06 415.257 342.518 415.548 341.887C415.844 341.246 415.994 340.561 415.998 339.833C415.999 339.097 415.837 338.365 415.513 337.637C415.085 336.677 414.436 335.829 413.565 335.095C412.703 334.358 411.723 333.822 410.626 333.486C409.538 333.148 408.445 333.095 407.349 333.329ZM440.052 351.131C438.287 351.506 436.598 351.546 434.984 351.249C433.375 350.943 431.964 350.354 430.75 349.482C429.533 348.602 428.633 347.497 428.05 346.167C427.579 345.128 427.37 344.121 427.423 343.146C427.473 342.164 427.752 341.294 428.26 340.538C428.772 339.772 429.472 339.207 430.361 338.843L430.297 338.699C428.902 338.663 427.605 338.216 426.408 337.358C425.206 336.492 424.319 335.406 423.747 334.1C423.183 332.853 423.024 331.665 423.271 330.535C423.519 329.405 424.116 328.429 425.062 327.606C426.017 326.781 427.266 326.204 428.808 325.877C430.333 325.552 431.822 325.547 433.274 325.86C434.727 326.173 436.015 326.749 437.139 327.588C438.271 328.424 439.119 329.466 439.683 330.713C440.256 332.019 440.393 333.264 440.095 334.449C439.802 335.623 439.106 336.494 438.008 337.06L438.072 337.204C439.094 337.162 440.12 337.36 441.15 337.798C442.176 338.228 443.114 338.839 443.964 339.631C444.81 340.414 445.468 341.325 445.94 342.364C446.523 343.694 446.665 344.96 446.365 346.163C446.071 347.355 445.383 348.391 444.301 349.269C443.225 350.137 441.809 350.758 440.052 351.131ZM438.876 348.49C440.067 348.237 441.015 347.839 441.72 347.295C442.425 346.751 442.867 346.1 443.047 345.344C443.226 344.588 443.124 343.768 442.74 342.886C442.318 341.96 441.696 341.194 440.874 340.59C440.051 339.985 439.112 339.571 438.056 339.349C437.009 339.125 435.929 339.131 434.815 339.368C433.692 339.607 432.781 340.024 432.08 340.619C431.388 341.213 430.948 341.92 430.759 342.74C430.579 343.557 430.7 344.43 431.122 345.356C431.505 346.238 432.075 346.958 432.829 347.516C433.593 348.072 434.492 348.437 435.526 348.611C436.56 348.786 437.677 348.745 438.876 348.49ZM433.682 336.823C434.624 336.623 435.381 336.269 435.953 335.763C436.533 335.254 436.892 334.639 437.031 333.917C437.169 333.196 437.054 332.41 436.685 331.56C436.305 330.73 435.773 330.05 435.087 329.522C434.398 328.985 433.615 328.626 432.737 328.444C431.855 328.255 430.931 328.263 429.962 328.469C428.977 328.679 428.193 329.034 427.609 329.534C427.022 330.027 426.666 330.628 426.541 331.338C426.413 332.04 426.538 332.806 426.917 333.636C427.286 334.486 427.817 335.184 428.51 335.729C429.211 336.271 430.009 336.641 430.902 336.836C431.796 337.032 432.722 337.027 433.682 336.823ZM453.773 347.847L452.811 345.686L457.544 334.957C458.1 333.7 458.538 332.618 458.855 331.709C459.169 330.793 459.334 329.961 459.348 329.213C459.367 328.456 459.209 327.701 458.874 326.949C458.489 326.085 457.934 325.384 457.207 324.846C456.488 324.307 455.671 323.946 454.755 323.764C453.84 323.582 452.906 323.592 451.955 323.795C450.944 324.009 450.149 324.393 449.57 324.945C448.995 325.488 448.657 326.151 448.556 326.935C448.463 327.716 448.625 328.575 449.042 329.512L446.009 330.156C445.368 328.716 445.16 327.376 445.387 326.137C445.614 324.897 446.204 323.843 447.159 322.975C448.122 322.104 449.37 321.506 450.904 321.18C452.446 320.852 453.948 320.866 455.41 321.221C456.871 321.576 458.17 322.198 459.307 323.086C460.443 323.974 461.293 325.051 461.856 326.315C462.258 327.219 462.476 328.141 462.51 329.08C462.548 330.009 462.374 331.092 461.988 332.331C461.606 333.559 460.998 335.09 460.164 336.923L456.881 344.085L456.967 344.277L469.202 341.677L470.377 344.317L453.773 347.847ZM473.994 316.64L484.939 341.222L481.751 341.9L472.196 320.438L472.042 320.471L467.39 325.822L466.043 322.797L470.807 317.317L473.994 316.64Z" fill="white"/>
<path d="M508.389 308.961C509.472 308.74 510.637 308.702 511.884 308.849C513.131 308.996 514.394 309.41 515.674 310.093C516.949 310.768 518.19 311.796 519.396 313.178C520.602 314.559 521.708 316.379 522.712 318.635C523.685 320.82 524.326 322.808 524.636 324.599C524.951 326.38 524.951 327.939 524.636 329.276C524.331 330.611 523.72 331.704 522.805 332.556C521.898 333.406 520.704 333.988 519.222 334.303C517.748 334.616 516.312 334.624 514.913 334.325C513.519 334.017 512.236 333.453 511.065 332.634C509.898 331.804 508.923 330.763 508.141 329.511L511.276 328.844C512.062 329.912 513.038 330.725 514.205 331.283C515.378 331.831 516.658 331.957 518.046 331.662C520.076 331.231 521.31 330.062 521.746 328.156C522.191 326.248 521.74 323.782 520.394 320.757L520.188 320.801C520.007 321.575 519.696 322.276 519.253 322.905C518.811 323.533 518.246 324.065 517.558 324.5C516.87 324.935 516.072 325.25 515.164 325.443C513.656 325.763 512.118 325.709 510.548 325.281C508.984 324.842 507.552 324.091 506.253 323.027C504.959 321.953 503.959 320.624 503.254 319.04C502.584 317.535 502.331 316.083 502.495 314.681C502.664 313.27 503.238 312.053 504.217 311.03C505.206 310.006 506.596 309.316 508.389 308.961ZM509.565 311.602C508.485 311.831 507.625 312.29 506.984 312.978C506.348 313.656 505.966 314.473 505.838 315.429C505.715 316.375 505.882 317.36 506.338 318.384C506.794 319.408 507.449 320.29 508.303 321.028C509.162 321.756 510.122 322.279 511.182 322.597C512.248 322.905 513.32 322.944 514.4 322.715C515.214 322.541 515.906 322.232 516.477 321.787C517.044 321.333 517.473 320.791 517.764 320.16C518.06 319.519 518.21 318.834 518.214 318.106C518.215 317.371 518.053 316.639 517.729 315.91C517.302 314.95 516.652 314.103 515.781 313.368C514.919 312.632 513.939 312.095 512.842 311.759C511.754 311.421 510.661 311.369 509.565 311.602ZM542.731 329.306C541.034 329.667 539.401 329.716 537.831 329.454C536.269 329.19 534.883 328.657 533.672 327.855C532.466 327.042 531.542 325.999 530.9 324.726L534.139 324.037C534.56 324.815 535.156 325.437 535.927 325.904C536.694 326.363 537.562 326.66 538.532 326.795C539.502 326.931 540.493 326.891 541.504 326.676C542.635 326.436 543.555 326.039 544.265 325.485C544.975 324.931 545.433 324.273 545.637 323.511C545.842 322.75 545.752 321.937 545.367 321.072C544.965 320.168 544.371 319.423 543.584 318.837C542.795 318.243 541.85 317.848 540.75 317.652C539.65 317.457 538.432 317.501 537.095 317.785L534.987 318.233L533.812 315.593L535.919 315.145C536.965 314.922 537.803 314.552 538.435 314.032C539.075 313.51 539.475 312.882 539.635 312.147C539.804 311.411 539.697 310.61 539.312 309.746C538.941 308.914 538.422 308.232 537.753 307.699C537.085 307.167 536.314 306.805 535.441 306.614C534.577 306.421 533.661 306.427 532.693 306.633C531.784 306.826 530.997 307.164 530.331 307.648C529.669 308.121 529.216 308.704 528.97 309.395C528.721 310.079 528.757 310.833 529.078 311.659L525.993 312.314C525.471 311.015 525.384 309.798 525.733 308.664C526.078 307.522 526.759 306.546 527.776 305.734C528.802 304.92 530.073 304.352 531.59 304.03C533.218 303.684 534.751 303.695 536.191 304.063C537.627 304.424 538.88 305.038 539.951 305.905C541.022 306.772 541.816 307.786 542.332 308.946C542.948 310.331 543.084 311.594 542.739 312.736C542.403 313.876 541.654 314.775 540.494 315.434L540.579 315.626C542.355 315.529 543.947 315.913 545.355 316.779C546.759 317.636 547.809 318.845 548.503 320.406C549.098 321.742 549.243 323.025 548.937 324.255C548.636 325.475 547.953 326.532 546.887 327.424C545.821 328.316 544.436 328.944 542.731 329.306ZM555.04 299.413L565.984 323.995L562.797 324.673L553.242 303.211L553.088 303.244L548.436 308.595L547.089 305.57L551.852 300.091L555.04 299.413ZM571.863 295.837L582.807 320.419L579.62 321.097L570.065 299.636L569.911 299.668L565.259 305.019L563.912 301.994L568.675 296.515L571.863 295.837Z" fill="white"/>
<path d="M609.407 314.766L608.445 312.605L613.179 301.876C613.735 300.619 614.172 299.536 614.49 298.628C614.804 297.712 614.968 296.88 614.982 296.132C615.001 295.375 614.844 294.62 614.509 293.868C614.124 293.003 613.568 292.303 612.841 291.765C612.123 291.226 611.306 290.865 610.39 290.683C609.474 290.501 608.541 290.511 607.59 290.713C606.579 290.928 605.783 291.312 605.204 291.864C604.63 292.407 604.292 293.07 604.19 293.853C604.098 294.635 604.26 295.494 604.677 296.43L601.644 297.075C601.002 295.635 600.795 294.295 601.022 293.055C601.248 291.816 601.839 290.762 602.793 289.893C603.756 289.023 605.004 288.425 606.538 288.099C608.08 287.771 609.582 287.785 611.044 288.14C612.506 288.495 613.805 289.116 614.941 290.005C616.078 290.893 616.927 291.97 617.49 293.234C617.893 294.138 618.111 295.06 618.144 295.999C618.183 296.928 618.009 298.011 617.622 299.25C617.241 300.478 616.633 302.009 615.798 303.842L612.516 311.004L612.601 311.196L624.836 308.595L626.012 311.236L609.407 314.766ZM640.209 308.586C639.122 308.8 637.957 308.837 636.713 308.699C635.47 308.56 634.209 308.149 632.929 307.466C631.646 306.776 630.402 305.739 629.196 304.358C627.986 302.968 626.875 301.137 625.864 298.864C624.895 296.688 624.254 294.713 623.943 292.94C623.628 291.158 623.63 289.603 623.948 288.274C624.263 286.937 624.873 285.844 625.78 284.994C626.695 284.143 627.894 283.56 629.376 283.245C630.85 282.931 632.283 282.929 633.677 283.237C635.076 283.535 636.357 284.095 637.52 284.916C638.683 285.738 639.655 286.762 640.435 287.989L637.3 288.655C636.517 287.613 635.543 286.817 634.379 286.267C633.215 285.718 631.94 285.59 630.552 285.885C628.512 286.319 627.275 287.488 626.838 289.394C626.411 291.298 626.859 293.748 628.183 296.742L628.388 296.699C628.565 295.916 628.877 295.215 629.323 294.595C629.774 293.965 630.343 293.432 631.031 292.997C631.719 292.561 632.512 292.248 633.412 292.057C634.92 291.736 636.456 291.795 638.02 292.234C639.581 292.664 641.013 293.415 642.316 294.487C643.615 295.551 644.617 296.875 645.322 298.46C645.999 299.98 646.255 301.45 646.09 302.869C645.921 304.28 645.342 305.498 644.354 306.523C643.371 307.538 641.989 308.225 640.209 308.586ZM639.033 305.946C640.112 305.716 640.968 305.258 641.601 304.572C642.242 303.884 642.622 303.063 642.741 302.109C642.869 301.154 642.701 300.156 642.238 299.115C641.786 298.099 641.13 297.227 640.271 296.498C639.417 295.76 638.456 295.233 637.386 294.917C636.326 294.6 635.256 294.556 634.176 294.785C633.362 294.958 632.672 295.271 632.105 295.725C631.534 296.17 631.099 296.709 630.799 297.342C630.508 297.974 630.362 298.657 630.362 299.393C630.357 300.121 630.519 300.853 630.847 301.589C631.282 302.565 631.932 303.426 632.798 304.17C633.673 304.913 634.654 305.453 635.742 305.791C636.839 306.127 637.936 306.179 639.033 305.946ZM654.726 305.133L656.815 280.881L656.729 280.689L643.158 283.574L641.982 280.933L658.844 277.349L660.084 280.134L658.068 304.422L654.726 305.133ZM682.6 299.576C681.092 299.896 679.61 299.905 678.152 299.601C676.695 299.298 675.385 298.736 674.222 297.914C673.059 297.093 672.165 296.065 671.541 294.831L674.625 294.176C675.24 295.263 676.19 296.068 677.474 296.592C678.762 297.107 680.079 297.221 681.425 296.935C682.504 296.706 683.359 296.266 683.988 295.615C684.626 294.963 685.002 294.173 685.114 293.247C685.232 292.311 685.058 291.319 684.591 290.271C684.114 289.198 683.435 288.296 682.556 287.563C681.681 286.821 680.698 286.298 679.607 285.996C678.516 285.693 677.407 285.657 676.281 285.888C675.472 286.051 674.697 286.343 673.956 286.763C673.211 287.176 672.646 287.624 672.262 288.109L669.13 288.406L665.337 275.969L679.011 273.062L680.187 275.703L669.186 278.041L671.489 285.488L671.643 285.455C672.004 284.94 672.533 284.464 673.23 284.027C673.926 283.59 674.716 283.278 675.598 283.09C677.209 282.748 678.804 282.803 680.384 283.255C681.97 283.698 683.398 284.463 684.67 285.55C685.95 286.636 686.945 287.975 687.654 289.567C688.352 291.135 688.599 292.616 688.394 294.008C688.193 295.391 687.596 296.578 686.603 297.569C685.605 298.552 684.271 299.221 682.6 299.576Z" fill="white"/>
<path d="M712.866 265.866L723.811 290.448L720.624 291.126L711.069 269.664L710.914 269.697L706.263 275.048L704.916 272.023L709.679 266.543L712.866 265.866ZM729.689 262.29L740.634 286.872L737.447 287.55L727.892 266.088L727.737 266.121L723.086 271.472L721.739 268.447L726.502 262.968L729.689 262.29ZM748.204 285.263L747.242 283.103L751.975 272.374C752.532 271.117 752.969 270.034 753.286 269.126C753.601 268.209 753.765 267.377 753.779 266.63C753.798 265.872 753.64 265.118 753.305 264.365C752.921 263.501 752.365 262.8 751.638 262.263C750.919 261.724 750.102 261.363 749.186 261.181C748.271 260.999 747.337 261.009 746.386 261.211C745.375 261.426 744.58 261.81 744.001 262.362C743.426 262.905 743.088 263.568 742.987 264.351C742.894 265.133 743.056 265.992 743.473 266.928L740.44 267.573C739.799 266.133 739.592 264.793 739.818 263.553C740.045 262.314 740.635 261.26 741.59 260.391C742.553 259.521 743.801 258.923 745.335 258.597C746.877 258.269 748.379 258.283 749.841 258.638C751.302 258.993 752.601 259.614 753.738 260.503C754.874 261.391 755.724 262.467 756.287 263.732C756.69 264.636 756.908 265.558 756.941 266.496C756.98 267.425 756.806 268.509 756.419 269.748C756.038 270.976 755.429 272.507 754.595 274.34L751.312 281.502L751.398 281.694L763.633 279.093L764.808 281.734L748.204 285.263ZM770.116 280.606L769.154 278.445L773.888 267.716C774.444 266.459 774.881 265.377 775.199 264.468C775.513 263.552 775.677 262.72 775.691 261.972C775.71 261.215 775.553 260.46 775.218 259.708C774.833 258.844 774.277 258.143 773.55 257.605C772.832 257.066 772.015 256.705 771.099 256.523C770.183 256.341 769.25 256.351 768.299 256.554C767.288 256.769 766.492 257.152 765.913 257.705C765.339 258.247 765.001 258.91 764.899 259.694C764.807 260.475 764.969 261.335 765.386 262.271L762.353 262.915C761.711 261.475 761.504 260.135 761.731 258.896C761.957 257.656 762.548 256.602 763.502 255.734C764.465 254.863 765.713 254.265 767.247 253.939C768.789 253.611 770.291 253.625 771.753 253.98C773.215 254.335 774.514 254.957 775.65 255.845C776.787 256.733 777.636 257.81 778.199 259.074C778.602 259.978 778.82 260.9 778.853 261.839C778.892 262.768 778.718 263.852 778.331 265.09C777.95 266.319 777.342 267.849 776.507 269.682L773.225 276.844L773.31 277.036L785.545 274.436L786.721 277.076L770.116 280.606Z" fill="white"/>
<g style="mix-blend-mode:multiply" opacity="0.45">
<rect width="61.9738" height="61.9738" transform="matrix(0.978148 -0.207912 0.406737 0.913545 267.998 163.313)" fill="#595959"/>
</g>
<g style="mix-blend-mode:multiply" opacity="0.45">
<rect width="61.9738" height="61.9738" transform="matrix(0.978148 -0.207912 0.406737 0.913545 353.824 207.044)" fill="#595959"/>
</g>
<g style="mix-blend-mode:multiply" opacity="0.45">
<rect width="99.8981" height="61.9738" transform="matrix(0.978148 -0.207912 0.406737 0.913545 386.521 138.12)" fill="#595959"/>
</g>
</g>
</g>
<defs>
<filter id="filter0_dddd_3_522" x="0.0801392" y="-2.11117" width="1121.31" height="809.593" filterUnits="userSpaceOnUse" color-interpolation-filters="sRGB">
<feFlood flood-opacity="0" result="BackgroundImageFix"/>
<feColorMatrix in="SourceAlpha" type="matrix" values="0 0 0 0 0 0 0 0 0 0 0 0 0 0 0 0 0 0 127 0" result="hardAlpha"/>
<feOffset dx="-10.2716" dy="11.1276"/>
<feGaussianBlur stdDeviation="17.1194"/>
<feColorMatrix type="matrix" values="0 0 0 0 0 0 0 0 0 0 0 0 0 0 0 0 0 0 0.1 0"/>
<feBlend mode="normal" in2="BackgroundImageFix" result="effect1_dropShadow_3_522"/>
<feColorMatrix in="SourceAlpha" type="matrix" values="0 0 0 0 0 0 0 0 0 0 0 0 0 0 0 0 0 0 127 0" result="hardAlpha"/>
<feOffset dx="-41.9425" dy="46.2223"/>
<feGaussianBlur stdDeviation="31.2429"/>
<feColorMatrix type="matrix" values="0 0 0 0 0 0 0 0 0 0 0 0 0 0 0 0 0 0 0.09 0"/>
<feBlend mode="normal" in2="effect1_dropShadow_3_522" result="effect2_dropShadow_3_522"/>
<feColorMatrix in="SourceAlpha" type="matrix" values="0 0 0 0 0 0 0 0 0 0 0 0 0 0 0 0 0 0 127 0" result="hardAlpha"/>
<feOffset dx="-94.1566" dy="103.572"/>
<feGaussianBlur stdDeviation="41.9425"/>
<feColorMatrix type="matrix" values="0 0 0 0 0 0 0 0 0 0 0 0 0 0 0 0 0 0 0.05 0"/>
<feBlend mode="normal" in2="effect2_dropShadow_3_522" result="effect3_dropShadow_3_522"/>
<feColorMatrix in="SourceAlpha" type="matrix" values="0 0 0 0 0 0 0 0 0 0 0 0 0 0 0 0 0 0 127 0" result="hardAlpha"/>
<feOffset dx="-167.77" dy="184.889"/>
<feGaussianBlur stdDeviation="50.0742"/>
<feColorMatrix type="matrix" values="0 0 0 0 0 0 0 0 0 0 0 0 0 0 0 0 0 0 0.01 0"/>
<feBlend mode="normal" in2="effect3_dropShadow_3_522" result="effect4_dropShadow_3_522"/>
<feBlend mode="normal" in="SourceGraphic" in2="effect4_dropShadow_3_522" result="shape"/>
</filter>
<radialGradient id="paint0_radial_3_522" cx="0" cy="0" r="1" gradientUnits="userSpaceOnUse" gradientTransform="translate(343.913 33.5588) rotate(90.266) scale(359.563 626.053)">
<stop stop-color="#1FA2F2"/>
<stop offset="1" stop-color="#1A6BDE"/>
</radialGradient>
<clipPath id="clip0_3_522">
<rect width="684.487" height="393.118" rx="16.6497" transform="matrix(0.978148 -0.207912 0.406737 0.913545 267.999 163.313)" fill="white"/>
</clipPath>
</defs>
</svg>
