<svg width="262" height="278" viewBox="0 0 262 278" fill="none" xmlns="http://www.w3.org/2000/svg">
<g filter="url(#filter0_dddd_25_3174)">
<g clip-path="url(#clip0_25_3174)">
<rect x="9" y="7" width="176" height="172" rx="22" fill="white"/>
<path d="M40.704 41.716C39.756 41.716 38.886 41.548 38.094 41.212C37.302 40.864 36.612 40.384 36.024 39.772C35.448 39.148 34.998 38.416 34.674 37.576C34.35 36.736 34.188 35.812 34.188 34.804C34.188 33.796 34.35 32.872 34.674 32.032C34.998 31.192 35.448 30.46 36.024 29.836C36.612 29.212 37.302 28.732 38.094 28.396C38.886 28.048 39.756 27.874 40.704 27.874C41.616 27.874 42.432 28.036 43.152 28.36C43.884 28.684 44.496 29.104 44.988 29.62C45.492 30.124 45.852 30.658 46.068 31.222L44.772 31.852C44.436 31.036 43.92 30.394 43.224 29.926C42.528 29.458 41.688 29.224 40.704 29.224C39.72 29.224 38.844 29.458 38.076 29.926C37.308 30.394 36.708 31.048 36.276 31.888C35.844 32.716 35.628 33.688 35.628 34.804C35.628 35.908 35.844 36.88 36.276 37.72C36.708 38.56 37.308 39.214 38.076 39.682C38.844 40.138 39.72 40.366 40.704 40.366C41.58 40.366 42.366 40.174 43.062 39.79C43.77 39.406 44.328 38.884 44.736 38.224C45.144 37.552 45.348 36.784 45.348 35.92V35.182L45.996 35.83H40.704V34.57H46.788V35.686C46.788 36.562 46.632 37.372 46.32 38.116C46.008 38.848 45.576 39.484 45.024 40.024C44.472 40.564 43.824 40.984 43.08 41.284C42.348 41.572 41.556 41.716 40.704 41.716ZM49.1692 41.5V31.852H50.5192V33.436L50.3392 33.202C50.5672 32.746 50.9092 32.386 51.3652 32.122C51.8332 31.858 52.3972 31.726 53.0572 31.726H53.6692V33.076H52.8232C52.1272 33.076 51.5692 33.292 51.1492 33.724C50.7292 34.156 50.5192 34.768 50.5192 35.56V41.5H49.1692ZM59.7692 41.716C58.8572 41.716 58.0292 41.5 57.2852 41.068C56.5412 40.624 55.9472 40.024 55.5032 39.268C55.0712 38.5 54.8552 37.63 54.8552 36.658C54.8552 35.698 55.0712 34.84 55.5032 34.084C55.9352 33.328 56.5172 32.734 57.2492 32.302C57.9932 31.858 58.8332 31.636 59.7692 31.636C60.7052 31.636 61.5392 31.852 62.2712 32.284C63.0152 32.716 63.5972 33.31 64.0172 34.066C64.4492 34.822 64.6652 35.686 64.6652 36.658C64.6652 37.642 64.4432 38.518 63.9992 39.286C63.5552 40.042 62.9612 40.636 62.2172 41.068C61.4852 41.5 60.6692 41.716 59.7692 41.716ZM59.7692 40.366C60.4172 40.366 60.9992 40.204 61.5152 39.88C62.0432 39.556 62.4572 39.112 62.7572 38.548C63.0692 37.984 63.2252 37.354 63.2252 36.658C63.2252 35.962 63.0692 35.338 62.7572 34.786C62.4572 34.234 62.0432 33.796 61.5152 33.472C60.9992 33.148 60.4172 32.986 59.7692 32.986C59.1212 32.986 58.5332 33.148 58.0052 33.472C57.4892 33.796 57.0752 34.234 56.7632 34.786C56.4512 35.338 56.2952 35.962 56.2952 36.658C56.2952 37.354 56.4512 37.984 56.7632 38.548C57.0752 39.112 57.4892 39.556 58.0052 39.88C58.5332 40.204 59.1212 40.366 59.7692 40.366ZM68.9944 41.5L65.6824 31.852H67.2124L69.9484 40.294H69.4084L71.9824 31.852H73.3324L75.9064 40.294H75.3664L78.1204 31.852H79.6324L76.3204 41.5H74.9704L72.4684 33.238H72.8464L70.3444 41.5H68.9944ZM84.9041 41.608C84.0401 41.608 83.3741 41.356 82.9061 40.852C82.4381 40.348 82.2041 39.628 82.2041 38.692V33.202H80.4221V31.852H80.8721C81.2801 31.852 81.6041 31.72 81.8441 31.456C82.0841 31.18 82.2041 30.838 82.2041 30.43V29.62H83.5541V31.852H85.6781V33.202H83.5541V38.692C83.5541 39.016 83.6021 39.304 83.6981 39.556C83.7941 39.796 83.9561 39.988 84.1841 40.132C84.4241 40.276 84.7421 40.348 85.1381 40.348C85.2341 40.348 85.3481 40.342 85.4801 40.33C85.6121 40.318 85.7261 40.306 85.8221 40.294V41.5C85.6781 41.536 85.5161 41.56 85.3361 41.572C85.1561 41.596 85.0121 41.608 84.9041 41.608ZM88.1926 41.5V27.874H89.5426V33.724L89.2366 33.652C89.4766 33.028 89.8666 32.536 90.4066 32.176C90.9586 31.816 91.5946 31.636 92.3146 31.636C92.9986 31.636 93.6106 31.792 94.1506 32.104C94.7026 32.416 95.1346 32.848 95.4466 33.4C95.7706 33.94 95.9326 34.552 95.9326 35.236V41.5H94.5826V35.758C94.5826 35.17 94.4746 34.672 94.2586 34.264C94.0426 33.856 93.7426 33.544 93.3586 33.328C92.9866 33.1 92.5606 32.986 92.0806 32.986C91.6006 32.986 91.1686 33.1 90.7846 33.328C90.4006 33.544 90.0946 33.862 89.8666 34.282C89.6506 34.69 89.5426 35.182 89.5426 35.758V41.5H88.1926ZM106.484 41.716C105.536 41.716 104.702 41.518 103.982 41.122C103.262 40.726 102.704 40.186 102.308 39.502C101.912 38.806 101.714 38.014 101.714 37.126V28.09H103.154V37.126C103.154 37.774 103.292 38.344 103.568 38.836C103.856 39.316 104.246 39.694 104.738 39.97C105.242 40.234 105.824 40.366 106.484 40.366C107.144 40.366 107.72 40.234 108.212 39.97C108.716 39.694 109.106 39.316 109.382 38.836C109.67 38.344 109.814 37.774 109.814 37.126V28.09H111.254V37.126C111.254 38.014 111.056 38.806 110.66 39.502C110.264 40.186 109.706 40.726 108.986 41.122C108.278 41.518 107.444 41.716 106.484 41.716ZM114.173 45.1V31.852H115.523V34.012L115.307 33.634C115.691 33.022 116.201 32.536 116.837 32.176C117.485 31.816 118.223 31.636 119.051 31.636C119.963 31.636 120.773 31.858 121.481 32.302C122.201 32.734 122.765 33.328 123.173 34.084C123.593 34.84 123.803 35.704 123.803 36.676C123.803 37.636 123.593 38.5 123.173 39.268C122.765 40.024 122.201 40.624 121.481 41.068C120.773 41.5 119.963 41.716 119.051 41.716C118.223 41.716 117.473 41.53 116.801 41.158C116.141 40.774 115.643 40.234 115.307 39.538L115.523 39.34V45.1H114.173ZM118.979 40.366C119.627 40.366 120.203 40.204 120.707 39.88C121.223 39.556 121.625 39.118 121.913 38.566C122.213 38.002 122.363 37.372 122.363 36.676C122.363 35.968 122.213 35.338 121.913 34.786C121.625 34.234 121.223 33.796 120.707 33.472C120.203 33.148 119.627 32.986 118.979 32.986C118.331 32.986 117.743 33.148 117.215 33.472C116.699 33.796 116.285 34.24 115.973 34.804C115.673 35.356 115.523 35.98 115.523 36.676C115.523 37.372 115.673 38.002 115.973 38.566C116.285 39.118 116.699 39.556 117.215 39.88C117.743 40.204 118.331 40.366 118.979 40.366ZM132.928 41.608C132.064 41.608 131.398 41.356 130.93 40.852C130.462 40.348 130.228 39.628 130.228 38.692V33.202H128.446V31.852H128.896C129.304 31.852 129.628 31.72 129.868 31.456C130.108 31.18 130.228 30.838 130.228 30.43V29.62H131.578V31.852H133.702V33.202H131.578V38.692C131.578 39.016 131.626 39.304 131.722 39.556C131.818 39.796 131.98 39.988 132.208 40.132C132.448 40.276 132.766 40.348 133.162 40.348C133.258 40.348 133.372 40.342 133.504 40.33C133.636 40.318 133.75 40.306 133.846 40.294V41.5C133.702 41.536 133.54 41.56 133.36 41.572C133.18 41.596 133.036 41.608 132.928 41.608ZM140.383 41.716C139.471 41.716 138.643 41.5 137.899 41.068C137.155 40.624 136.561 40.024 136.117 39.268C135.685 38.5 135.469 37.63 135.469 36.658C135.469 35.698 135.685 34.84 136.117 34.084C136.549 33.328 137.131 32.734 137.863 32.302C138.607 31.858 139.447 31.636 140.383 31.636C141.319 31.636 142.153 31.852 142.885 32.284C143.629 32.716 144.211 33.31 144.631 34.066C145.063 34.822 145.279 35.686 145.279 36.658C145.279 37.642 145.057 38.518 144.613 39.286C144.169 40.042 143.575 40.636 142.831 41.068C142.099 41.5 141.283 41.716 140.383 41.716ZM140.383 40.366C141.031 40.366 141.613 40.204 142.129 39.88C142.657 39.556 143.071 39.112 143.371 38.548C143.683 37.984 143.839 37.354 143.839 36.658C143.839 35.962 143.683 35.338 143.371 34.786C143.071 34.234 142.657 33.796 142.129 33.472C141.613 33.148 141.031 32.986 140.383 32.986C139.735 32.986 139.147 33.148 138.619 33.472C138.103 33.796 137.689 34.234 137.377 34.786C137.065 35.338 136.909 35.962 136.909 36.658C136.909 37.354 137.065 37.984 137.377 38.548C137.689 39.112 138.103 39.556 138.619 39.88C139.147 40.204 139.735 40.366 140.383 40.366Z" fill="#595959"/>
<path d="M42.8649 77.884C41.6062 77.884 40.4222 77.66 39.3129 77.212C38.2035 76.7427 37.2435 76.092 36.4329 75.26C35.6222 74.428 35.0462 73.4253 34.7049 72.252L37.8729 71.036C38.2782 72.1667 38.9395 73.0307 39.8569 73.628C40.7742 74.2253 41.7769 74.524 42.8649 74.524C43.7609 74.524 44.5502 74.3213 45.2329 73.916C45.9155 73.5107 46.4489 72.956 46.8329 72.252C47.2382 71.548 47.4409 70.748 47.4409 69.852C47.4409 68.9347 47.2382 68.1347 46.8329 67.452C46.4489 66.748 45.9155 66.204 45.2329 65.82C44.5502 65.4147 43.7609 65.212 42.8649 65.212C41.9689 65.212 41.1475 65.4147 40.4009 65.82C39.6542 66.2253 39.1102 66.7693 38.7689 67.452L35.7289 66.78L37.5849 53.66H50.2889V56.86H39.0569L40.4969 55.292L39.1209 65.34L37.9369 64.54C38.5769 63.644 39.3555 62.9933 40.2729 62.588C41.1902 62.1827 42.2355 61.98 43.4089 61.98C44.9662 61.98 46.3209 62.332 47.4729 63.036C48.6462 63.7187 49.5529 64.6573 50.1929 65.852C50.8542 67.0253 51.1849 68.3587 51.1849 69.852C51.1849 71.3667 50.8222 72.732 50.0969 73.948C49.3715 75.164 48.3795 76.124 47.1209 76.828C45.8835 77.532 44.4649 77.884 42.8649 77.884ZM57.7204 77.5L77.1124 53.66H81.1444L61.7524 77.5H57.7204ZM61.3684 65.756C60.195 65.756 59.139 65.4787 58.2004 64.924C57.2617 64.348 56.5044 63.5907 55.9284 62.652C55.3737 61.7133 55.0964 60.668 55.0964 59.516C55.0964 58.364 55.3737 57.3187 55.9284 56.38C56.5044 55.42 57.2617 54.6627 58.2004 54.108C59.139 53.5533 60.195 53.276 61.3684 53.276C62.5417 53.276 63.5977 53.5533 64.5364 54.108C65.475 54.6627 66.2217 55.42 66.7764 56.38C67.331 57.3187 67.6084 58.364 67.6084 59.516C67.6084 60.668 67.331 61.7133 66.7764 62.652C66.2217 63.5907 65.475 64.348 64.5364 64.924C63.5977 65.4787 62.5417 65.756 61.3684 65.756ZM61.3684 62.844C62.0297 62.844 62.595 62.684 63.0644 62.364C63.555 62.044 63.9284 61.628 64.1844 61.116C64.4404 60.604 64.5684 60.0707 64.5684 59.516C64.5684 58.94 64.4404 58.4067 64.1844 57.916C63.9284 57.404 63.555 56.988 63.0644 56.668C62.595 56.348 62.0297 56.188 61.3684 56.188C60.7284 56.188 60.163 56.348 59.6724 56.668C59.1817 56.988 58.7977 57.404 58.5204 57.916C58.2644 58.4067 58.1364 58.94 58.1364 59.516C58.1364 60.0707 58.2644 60.604 58.5204 61.116C58.7977 61.628 59.1817 62.044 59.6724 62.364C60.163 62.684 60.7284 62.844 61.3684 62.844ZM77.3364 77.884C76.163 77.884 75.0964 77.6067 74.1364 77.052C73.1977 76.476 72.451 75.7187 71.8964 74.78C71.3417 73.8413 71.0644 72.796 71.0644 71.644C71.0644 70.492 71.3417 69.4467 71.8964 68.508C72.451 67.548 73.1977 66.7907 74.1364 66.236C75.0964 65.6813 76.163 65.404 77.3364 65.404C78.5097 65.404 79.5657 65.6813 80.5044 66.236C81.443 66.7907 82.1897 67.548 82.7444 68.508C83.299 69.4467 83.5764 70.492 83.5764 71.644C83.5764 72.796 83.299 73.8413 82.7444 74.78C82.1897 75.7187 81.443 76.476 80.5044 77.052C79.5657 77.6067 78.5097 77.884 77.3364 77.884ZM77.3364 74.972C77.9977 74.972 78.563 74.812 79.0324 74.492C79.5017 74.172 79.8644 73.756 80.1204 73.244C80.3977 72.732 80.5364 72.1987 80.5364 71.644C80.5364 71.068 80.3977 70.5347 80.1204 70.044C79.8644 69.532 79.5017 69.116 79.0324 68.796C78.563 68.476 77.9977 68.316 77.3364 68.316C76.6964 68.316 76.131 68.476 75.6404 68.796C75.1497 69.116 74.7657 69.532 74.4884 70.044C74.2324 70.5347 74.1044 71.068 74.1044 71.644C74.1044 72.1987 74.2324 72.732 74.4884 73.244C74.7657 73.756 75.1497 74.172 75.6404 74.492C76.131 74.812 76.6964 74.972 77.3364 74.972Z" fill="url(#paint0_radial_25_3174)"/>
<path d="M92.386 81.1V67.852H93.736V70.012L93.52 69.634C93.904 69.022 94.414 68.536 95.05 68.176C95.698 67.816 96.436 67.636 97.264 67.636C98.176 67.636 98.986 67.858 99.694 68.302C100.414 68.734 100.978 69.328 101.386 70.084C101.806 70.84 102.016 71.704 102.016 72.676C102.016 73.636 101.806 74.5 101.386 75.268C100.978 76.024 100.414 76.624 99.694 77.068C98.986 77.5 98.176 77.716 97.264 77.716C96.436 77.716 95.686 77.53 95.014 77.158C94.354 76.774 93.856 76.234 93.52 75.538L93.736 75.34V81.1H92.386ZM97.192 76.366C97.84 76.366 98.416 76.204 98.92 75.88C99.436 75.556 99.838 75.118 100.126 74.566C100.426 74.002 100.576 73.372 100.576 72.676C100.576 71.968 100.426 71.338 100.126 70.786C99.838 70.234 99.436 69.796 98.92 69.472C98.416 69.148 97.84 68.986 97.192 68.986C96.544 68.986 95.956 69.148 95.428 69.472C94.912 69.796 94.498 70.24 94.186 70.804C93.886 71.356 93.736 71.98 93.736 72.676C93.736 73.372 93.886 74.002 94.186 74.566C94.498 75.118 94.912 75.556 95.428 75.88C95.956 76.204 96.544 76.366 97.192 76.366ZM104.86 77.5V75.52H106.3V77.5H104.86ZM112.332 77.716C111.72 77.716 111.174 77.602 110.694 77.374C110.214 77.134 109.836 76.81 109.56 76.402C109.284 75.994 109.146 75.526 109.146 74.998C109.146 74.494 109.254 74.038 109.47 73.63C109.686 73.21 110.022 72.856 110.478 72.568C110.934 72.28 111.516 72.076 112.224 71.956L116.004 71.326V72.55L112.548 73.126C111.852 73.246 111.348 73.468 111.036 73.792C110.736 74.116 110.586 74.5 110.586 74.944C110.586 75.376 110.754 75.742 111.09 76.042C111.438 76.342 111.882 76.492 112.422 76.492C113.082 76.492 113.658 76.354 114.15 76.078C114.642 75.79 115.026 75.406 115.302 74.926C115.578 74.446 115.716 73.912 115.716 73.324V70.876C115.716 70.3 115.506 69.832 115.086 69.472C114.666 69.112 114.12 68.932 113.448 68.932C112.86 68.932 112.344 69.082 111.9 69.382C111.456 69.67 111.126 70.048 110.91 70.516L109.686 69.85C109.866 69.442 110.148 69.07 110.532 68.734C110.928 68.398 111.378 68.134 111.882 67.942C112.386 67.738 112.908 67.636 113.448 67.636C114.156 67.636 114.78 67.774 115.32 68.05C115.872 68.326 116.298 68.71 116.598 69.202C116.91 69.682 117.066 70.24 117.066 70.876V77.5H115.716V75.574L115.914 75.772C115.746 76.132 115.482 76.462 115.122 76.762C114.774 77.05 114.36 77.284 113.88 77.464C113.412 77.632 112.896 77.716 112.332 77.716Z" fill="#595959"/>
<rect opacity="0.45" x="33" y="148" width="23" height="22" rx="5" fill="#595959"/>
<rect opacity="0.45" x="68" y="132" width="23" height="38" rx="5" fill="#595959"/>
<rect x="103" y="96" width="23" height="74" rx="5" fill="url(#paint1_radial_25_3174)"/>
<rect opacity="0.45" x="138" y="115" width="23" height="55" rx="5" fill="#595959"/>
</g>
</g>
<defs>
<filter id="filter0_dddd_25_3174" x="0" y="0" width="262" height="278" filterUnits="userSpaceOnUse" color-interpolation-filters="sRGB">
<feFlood flood-opacity="0" result="BackgroundImageFix"/>
<feColorMatrix in="SourceAlpha" type="matrix" values="0 0 0 0 0 0 0 0 0 0 0 0 0 0 0 0 0 0 127 0" result="hardAlpha"/>
<feOffset dx="3" dy="4"/>
<feGaussianBlur stdDeviation="5.5"/>
<feColorMatrix type="matrix" values="0 0 0 0 0 0 0 0 0 0 0 0 0 0 0 0 0 0 0.1 0"/>
<feBlend mode="normal" in2="BackgroundImageFix" result="effect1_dropShadow_25_3174"/>
<feColorMatrix in="SourceAlpha" type="matrix" values="0 0 0 0 0 0 0 0 0 0 0 0 0 0 0 0 0 0 127 0" result="hardAlpha"/>
<feOffset dx="11" dy="17"/>
<feGaussianBlur stdDeviation="10"/>
<feColorMatrix type="matrix" values="0 0 0 0 0 0 0 0 0 0 0 0 0 0 0 0 0 0 0.09 0"/>
<feBlend mode="normal" in2="effect1_dropShadow_25_3174" result="effect2_dropShadow_25_3174"/>
<feColorMatrix in="SourceAlpha" type="matrix" values="0 0 0 0 0 0 0 0 0 0 0 0 0 0 0 0 0 0 127 0" result="hardAlpha"/>
<feOffset dx="25" dy="38"/>
<feGaussianBlur stdDeviation="13.5"/>
<feColorMatrix type="matrix" values="0 0 0 0 0 0 0 0 0 0 0 0 0 0 0 0 0 0 0.05 0"/>
<feBlend mode="normal" in2="effect2_dropShadow_25_3174" result="effect3_dropShadow_25_3174"/>
<feColorMatrix in="SourceAlpha" type="matrix" values="0 0 0 0 0 0 0 0 0 0 0 0 0 0 0 0 0 0 127 0" result="hardAlpha"/>
<feOffset dx="45" dy="67"/>
<feGaussianBlur stdDeviation="16"/>
<feColorMatrix type="matrix" values="0 0 0 0 0 0 0 0 0 0 0 0 0 0 0 0 0 0 0.01 0"/>
<feBlend mode="normal" in2="effect3_dropShadow_25_3174" result="effect4_dropShadow_25_3174"/>
<feBlend mode="normal" in="SourceGraphic" in2="effect4_dropShadow_25_3174" result="shape"/>
</filter>
<radialGradient id="paint0_radial_25_3174" cx="0" cy="0" r="1" gradientUnits="userSpaceOnUse" gradientTransform="translate(59.6293 55.5488) rotate(90.3374) scale(21.9516 48.4751)">
<stop stop-color="#1FA2F2"/>
<stop offset="1" stop-color="#1A6BDE"/>
</radialGradient>
<radialGradient id="paint1_radial_25_3174" cx="0" cy="0" r="1" gradientUnits="userSpaceOnUse" gradientTransform="translate(114.556 102.317) rotate(90.0475) scale(67.6829 21.0367)">
<stop stop-color="#1FA2F2"/>
<stop offset="1" stop-color="#1A6BDE"/>
</radialGradient>
<clipPath id="clip0_25_3174">
<rect x="9" y="7" width="176" height="172" rx="22" fill="white"/>
</clipPath>
</defs>
</svg>
