<svg width="174" height="36" viewBox="0 0 174 36" fill="none" xmlns="http://www.w3.org/2000/svg">
<path d="M17.4 0.78418L21.3065 12.8073H33.9484L23.7209 20.238L27.6275 32.2611L17.4 24.8304L7.17254 32.2611L11.0791 20.238L0.851616 12.8073H13.4935L17.4 0.78418Z" fill="#FFB22E"/>
<path d="M52.2 0.78418L56.1065 12.8073H68.7484L58.5209 20.238L62.4275 32.2611L52.2 24.8304L41.9725 32.2611L45.8791 20.238L35.6516 12.8073H48.2934L52.2 0.78418Z" fill="#FFB22E"/>
<path d="M87 0.78418L90.9065 12.8073H103.548L93.3209 20.238L97.2274 32.2611L87 24.8304L76.7725 32.2611L80.6791 20.238L70.4516 12.8073H83.0934L87 0.78418Z" fill="#FFB22E"/>
<path d="M121.8 0.78418L125.707 12.8073H138.348L128.121 20.238L132.027 32.2611L121.8 24.8304L111.573 32.2611L115.479 20.238L105.252 12.8073H117.893L121.8 0.78418Z" fill="#FFB22E"/>
<path d="M156.6 0.78418L160.507 12.8073H173.148L162.921 20.238L166.827 32.2611L156.6 24.8304L146.373 32.2611L150.279 20.238L140.052 12.8073H152.693L156.6 0.78418Z" fill="#FFB22E"/>
</svg>
