<svg width="1440" height="79" viewBox="0 0 1440 79" fill="none" xmlns="http://www.w3.org/2000/svg">
<g clip-path="url(#clip0_139_2861)">
<g style="mix-blend-mode:luminosity">
<path d="M-25.7725 46.0189V43.5539H-23.8175V33.6089H-25.7725V31.1439H-18.1225C-17.2158 31.1439 -16.4295 31.2998 -15.7637 31.6114C-15.0837 31.9089 -14.5595 32.341 -14.1912 32.9077C-13.8087 33.4602 -13.6175 34.126 -13.6175 34.9052V35.1177C-13.6175 35.7977 -13.745 36.3573 -14 36.7964C-14.255 37.2214 -14.5595 37.5544 -14.9137 37.7952C-15.2537 38.0219 -15.5795 38.1848 -15.8912 38.2839V38.6664C-15.5795 38.7514 -15.2395 38.9144 -14.8712 39.1552C-14.5029 39.3819 -14.1912 39.7148 -13.9362 40.1539C-13.667 40.5931 -13.5325 41.1669 -13.5325 41.8752V42.0877C-13.5325 42.9094 -13.7237 43.6177 -14.1062 44.2127C-14.4887 44.7935 -15.02 45.2398 -15.7 45.5514C-16.3658 45.8631 -17.145 46.0189 -18.0375 46.0189H-25.7725ZM-21.0125 43.4689H-18.3775C-17.7683 43.4689 -17.2795 43.3202 -16.9112 43.0227C-16.5287 42.7252 -16.3375 42.3002 -16.3375 41.7477V41.5352C-16.3375 40.9827 -16.5216 40.5577 -16.89 40.2602C-17.2583 39.9627 -17.7541 39.8139 -18.3775 39.8139H-21.0125V43.4689ZM-21.0125 37.2639H-18.42C-17.8391 37.2639 -17.3645 37.1152 -16.9962 36.8177C-16.6137 36.5202 -16.4225 36.1094 -16.4225 35.5852V35.3727C-16.4225 34.8344 -16.6066 34.4235 -16.975 34.1402C-17.3433 33.8427 -17.825 33.6939 -18.42 33.6939H-21.0125V37.2639Z" fill="#101828"/>
<path d="M-7.19863 46.3164C-8.24696 46.3164 -9.18904 46.1039 -10.0249 45.6789C-10.8607 45.2539 -11.5195 44.6377 -12.0011 43.8302C-12.4828 43.0227 -12.7236 42.0523 -12.7236 40.9189V40.5789C-12.7236 39.4456 -12.4828 38.4752 -12.0011 37.6677C-11.5195 36.8602 -10.8607 36.2439 -10.0249 35.8189C-9.18904 35.3939 -8.24696 35.1814 -7.19863 35.1814C-6.1503 35.1814 -5.20821 35.3939 -4.37238 35.8189C-3.53654 36.2439 -2.8778 36.8602 -2.39613 37.6677C-1.91446 38.4752 -1.67363 39.4456 -1.67363 40.5789V40.9189C-1.67363 42.0523 -1.91446 43.0227 -2.39613 43.8302C-2.8778 44.6377 -3.53654 45.2539 -4.37238 45.6789C-5.20821 46.1039 -6.1503 46.3164 -7.19863 46.3164ZM-7.19863 43.9364C-6.37696 43.9364 -5.69696 43.6744 -5.15863 43.1502C-4.62029 42.6119 -4.35113 41.8469 -4.35113 40.8552V40.6427C-4.35113 39.651 -4.62029 38.8931 -5.15863 38.3689C-5.68279 37.8306 -6.3628 37.5614 -7.19863 37.5614C-8.0203 37.5614 -8.70029 37.8306 -9.23863 38.3689C-9.77696 38.8931 -10.0461 39.651 -10.0461 40.6427V40.8552C-10.0461 41.8469 -9.77696 42.6119 -9.23863 43.1502C-8.70029 43.6744 -8.0203 43.9364 -7.19863 43.9364Z" fill="#101828"/>
<path d="M-0.264654 46.0189V31.1439H2.41285V46.0189H-0.264654Z" fill="#101828"/>
<path d="M8.35488 46.0189C7.66071 46.0189 7.09405 45.8064 6.65488 45.3814C6.22988 44.9423 6.01738 44.3614 6.01738 43.6389V37.6889H3.38238V35.4789H6.01738V32.2064H8.69488V35.4789H11.5849V37.6889H8.69488V43.1714C8.69488 43.5964 8.89321 43.8089 9.28988 43.8089H11.3299V46.0189H8.35488Z" fill="#101828"/>
<path d="M17.3235 46.3164C15.9494 46.3164 14.8231 46.0189 13.9448 45.4239C13.0665 44.8289 12.5352 43.9789 12.351 42.8739L14.816 42.2364C14.9152 42.7323 15.0781 43.1219 15.3048 43.4052C15.5456 43.6885 15.836 43.8939 16.176 44.0214C16.5302 44.1348 16.9127 44.1914 17.3235 44.1914C17.9469 44.1914 18.4073 44.0852 18.7048 43.8727C19.0023 43.646 19.151 43.3698 19.151 43.0439C19.151 42.7181 19.0094 42.4702 18.726 42.3002C18.4427 42.116 17.9894 41.9673 17.366 41.8539L16.771 41.7477C16.0344 41.606 15.3615 41.4148 14.7523 41.1739C14.1431 40.9189 13.6544 40.5719 13.286 40.1327C12.9177 39.6935 12.7335 39.1269 12.7335 38.4327C12.7335 37.3844 13.116 36.5839 13.881 36.0314C14.646 35.4648 15.6519 35.1814 16.8985 35.1814C18.0744 35.1814 19.0519 35.4435 19.831 35.9677C20.6102 36.4919 21.1202 37.1789 21.361 38.0289L18.8748 38.7939C18.7615 38.2556 18.5277 37.8731 18.1735 37.6464C17.8335 37.4198 17.4085 37.3064 16.8985 37.3064C16.3885 37.3064 15.999 37.3985 15.7298 37.5827C15.4606 37.7527 15.326 37.9935 15.326 38.3052C15.326 38.6452 15.4677 38.9002 15.751 39.0702C16.0344 39.226 16.4169 39.3464 16.8985 39.4314L17.4935 39.5377C18.2869 39.6794 19.0023 39.8706 19.6398 40.1114C20.2915 40.3381 20.8015 40.671 21.1698 41.1102C21.5523 41.5352 21.7435 42.116 21.7435 42.8527C21.7435 43.9577 21.3398 44.8148 20.5323 45.4239C19.739 46.0189 18.6694 46.3164 17.3235 46.3164Z" fill="#101828"/>
<path d="M23.0273 46.0189V31.1439H25.7048V36.7752H26.0873C26.2007 36.5485 26.3778 36.3219 26.6186 36.0952C26.8594 35.8685 27.1782 35.6844 27.5748 35.5427C27.9857 35.3869 28.5028 35.3089 29.1261 35.3089C29.9478 35.3089 30.6632 35.5002 31.2723 35.8827C31.8957 36.251 32.3773 36.7681 32.7174 37.4339C33.0573 38.0856 33.2273 38.8506 33.2273 39.7289V46.0189H30.5499V39.9414C30.5499 39.1481 30.3515 38.5531 29.9548 38.1564C29.5723 37.7598 29.0198 37.5614 28.2973 37.5614C27.4757 37.5614 26.8382 37.8377 26.3848 38.3902C25.9315 38.9285 25.7048 39.6864 25.7048 40.6639V46.0189H23.0273Z" fill="#101828"/>
<path d="M35.0593 46.0189V35.4789H37.7368V46.0189H35.0593ZM36.3981 34.2464C35.9164 34.2464 35.5056 34.0906 35.1656 33.7789C34.8397 33.4673 34.6768 33.0564 34.6768 32.5464C34.6768 32.0364 34.8397 31.6256 35.1656 31.3139C35.5056 31.0023 35.9164 30.8464 36.3981 30.8464C36.8939 30.8464 37.3048 31.0023 37.6306 31.3139C37.9564 31.6256 38.1193 32.0364 38.1193 32.5464C38.1193 33.0564 37.9564 33.4673 37.6306 33.7789C37.3048 34.0906 36.8939 34.2464 36.3981 34.2464Z" fill="#101828"/>
<path d="M41.3839 46.0189V37.6889H38.7064V35.4789H41.3839V33.5239C41.3839 32.8014 41.5964 32.2277 42.0214 31.8027C42.4605 31.3635 43.0272 31.1439 43.7214 31.1439H46.4839V33.3539H44.6564C44.2597 33.3539 44.0614 33.5664 44.0614 33.9914V35.4789H46.8239V37.6889H44.0614V46.0189H41.3839Z" fill="#101828"/>
<path d="M51.6642 46.0189C50.9701 46.0189 50.4034 45.8064 49.9642 45.3814C49.5392 44.9423 49.3267 44.3614 49.3267 43.6389V37.6889H46.6917V35.4789H49.3267V32.2064H52.0042V35.4789H54.8942V37.6889H52.0042V43.1714C52.0042 43.5964 52.2026 43.8089 52.5992 43.8089H54.6392V46.0189H51.6642Z" fill="#101828"/>
<path fill-rule="evenodd" clip-rule="evenodd" d="M183.987 24.4423C183.629 24.3687 183.26 24.3687 182.902 24.4423C182.489 24.5273 182.119 24.7343 181.825 24.8989L181.745 24.9437L171.786 30.4763C171.759 30.4916 171.73 30.5072 171.701 30.5233C171.39 30.6946 170.999 30.91 170.699 31.2359C170.439 31.5177 170.243 31.8517 170.122 32.2155C169.983 32.6363 169.985 33.0829 169.986 33.438C169.986 33.4712 169.987 33.5035 169.987 33.535V44.4589C169.987 44.4904 169.986 44.5228 169.986 44.556C169.985 44.9111 169.983 45.3576 170.122 45.7784C170.243 46.1423 170.439 46.4762 170.699 46.758C170.999 47.0839 171.39 47.2994 171.701 47.4707C171.73 47.4867 171.759 47.5023 171.786 47.5176L181.745 53.0503L181.825 53.095C182.119 53.2596 182.489 53.4666 182.902 53.5517C183.26 53.6252 183.629 53.6252 183.987 53.5517C184.4 53.4666 184.77 53.2596 185.064 53.095L185.144 53.0503L195.103 47.5176C195.115 47.5109 195.127 47.504 195.139 47.4971C195.155 47.4884 195.171 47.4796 195.187 47.4707C195.499 47.2994 195.89 47.0839 196.19 46.758C196.45 46.4762 196.646 46.1423 196.766 45.7784C196.905 45.3576 196.904 44.9111 196.902 44.556C196.902 44.5228 196.902 44.4904 196.902 44.4589V33.535C196.902 33.5035 196.902 33.4712 196.902 33.438C196.904 33.0829 196.905 32.6363 196.766 32.2155C196.646 31.8517 196.45 31.5177 196.19 31.2359C195.89 30.91 195.499 30.6946 195.187 30.5233L195.186 30.5227C195.158 30.5068 195.13 30.4914 195.103 30.4763L185.144 24.9437L185.064 24.8989C184.77 24.7343 184.4 24.5273 183.987 24.4423ZM183.052 27.2965C183.256 27.1832 183.36 27.126 183.438 27.0885L183.444 27.0854L183.451 27.0885C183.529 27.126 183.633 27.1832 183.837 27.2965L192.785 32.268L183.444 37.4574L174.104 32.268L183.052 27.2965ZM172.678 34.5552L182.099 39.7888L182.099 50.1676L173.093 45.1648C172.878 45.0452 172.768 44.9835 172.691 44.9344L172.685 44.9302L172.684 44.9225C172.679 44.8312 172.678 44.7052 172.678 44.4589V34.5552Z" fill="#101828"/>
<path d="M209.151 43.4946H213.435V46.0191H205.88V32.5933H209.151V43.4946Z" fill="#101828"/>
<path d="M216.448 34.2381C215.874 34.2381 215.403 34.0723 215.033 33.7408C214.676 33.3966 214.497 32.9758 214.497 32.4786C214.497 31.9686 214.676 31.5478 215.033 31.2163C215.403 30.8721 215.874 30.7 216.448 30.7C217.009 30.7 217.468 30.8721 217.825 31.2163C218.195 31.5478 218.38 31.9686 218.38 32.4786C218.38 32.9758 218.195 33.3966 217.825 33.7408C217.468 34.0723 217.009 34.2381 216.448 34.2381ZM218.074 35.3473V46.0191H214.803V35.3473H218.074Z" fill="#101828"/>
<path d="M224.307 35.1943C225.059 35.1943 225.716 35.3473 226.277 35.6533C226.851 35.9593 227.29 36.361 227.596 36.8582V35.3473H230.867V46C230.867 46.9817 230.669 47.8678 230.274 48.6583C229.891 49.4616 229.299 50.0991 228.495 50.5708C227.705 51.0426 226.717 51.2785 225.531 51.2785C223.95 51.2785 222.669 50.9023 221.687 50.1501C220.705 49.4106 220.144 48.4033 220.004 47.1283H223.236C223.338 47.5363 223.58 47.8551 223.963 48.0846C224.345 48.3268 224.817 48.448 225.378 48.448C226.054 48.448 226.589 48.2503 226.984 47.8551C227.392 47.4726 227.596 46.8542 227.596 46V44.4891C227.278 44.9863 226.838 45.3943 226.277 45.7131C225.716 46.0191 225.059 46.1721 224.307 46.1721C223.427 46.1721 222.63 45.949 221.916 45.5027C221.202 45.0437 220.635 44.3998 220.214 43.5711C219.806 42.7296 219.602 41.7606 219.602 40.6641C219.602 39.5676 219.806 38.605 220.214 37.7762C220.635 36.9475 221.202 36.31 221.916 35.8637C222.63 35.4175 223.427 35.1943 224.307 35.1943ZM227.596 40.6832C227.596 39.8672 227.367 39.2233 226.908 38.7516C226.462 38.2798 225.913 38.044 225.263 38.044C224.613 38.044 224.058 38.2798 223.599 38.7516C223.153 39.2106 222.93 39.8481 222.93 40.6641C222.93 41.4801 223.153 42.1303 223.599 42.6148C224.058 43.0866 224.613 43.3225 225.263 43.3225C225.913 43.3225 226.462 43.0866 226.908 42.6148C227.367 42.1431 227.596 41.4992 227.596 40.6832Z" fill="#101828"/>
<path d="M239.601 35.2326C240.825 35.2326 241.807 35.6406 242.547 36.4566C243.286 37.2598 243.656 38.3691 243.656 39.7843V46.0191H240.405V40.2242C240.405 39.5102 240.22 38.9556 239.85 38.5603C239.48 38.1651 238.983 37.9675 238.358 37.9675C237.733 37.9675 237.236 38.1651 236.866 38.5603C236.497 38.9556 236.312 39.5102 236.312 40.2242V46.0191H233.041V31.8666H236.312V36.7817C236.643 36.31 237.096 35.9338 237.67 35.6533C238.243 35.3728 238.887 35.2326 239.601 35.2326Z" fill="#101828"/>
<path d="M251.685 43.246V46.0191H250.021C248.835 46.0191 247.911 45.7322 247.248 45.1585C246.585 44.572 246.254 43.6221 246.254 42.3088V38.0631H244.953V35.3473H246.254V32.7463H249.524V35.3473H251.666V38.0631H249.524V42.3471C249.524 42.6658 249.6 42.8953 249.753 43.0356C249.906 43.1758 250.161 43.246 250.518 43.246H251.685Z" fill="#101828"/>
<path d="M256.586 36.8582C256.892 36.361 257.332 35.9593 257.905 35.6533C258.479 35.3473 259.136 35.1943 259.875 35.1943C260.755 35.1943 261.552 35.4175 262.266 35.8637C262.98 36.31 263.541 36.9475 263.949 37.7762C264.37 38.605 264.58 39.5676 264.58 40.6641C264.58 41.7606 264.37 42.7296 263.949 43.5711C263.541 44.3998 262.98 45.0437 262.266 45.5027C261.552 45.949 260.755 46.1721 259.875 46.1721C259.123 46.1721 258.466 46.0255 257.905 45.7322C257.344 45.4262 256.905 45.0246 256.586 44.5273V46.0191H253.315V31.8666H256.586V36.8582ZM261.252 40.6641C261.252 39.8481 261.023 39.2106 260.564 38.7516C260.118 38.2798 259.563 38.044 258.9 38.044C258.25 38.044 257.695 38.2798 257.236 38.7516C256.79 39.2233 256.567 39.8672 256.567 40.6832C256.567 41.4992 256.79 42.1431 257.236 42.6148C257.695 43.0866 258.25 43.3225 258.9 43.3225C259.55 43.3225 260.105 43.0866 260.564 42.6148C261.023 42.1303 261.252 41.4801 261.252 40.6641Z" fill="#101828"/>
<path d="M270.962 46.1721C269.917 46.1721 268.973 45.949 268.132 45.5027C267.303 45.0565 266.646 44.419 266.162 43.5902C265.69 42.7615 265.454 41.7925 265.454 40.6832C265.454 39.5867 265.697 38.6241 266.181 37.7953C266.666 36.9538 267.329 36.31 268.17 35.8637C269.012 35.4175 269.955 35.1943 271.001 35.1943C272.046 35.1943 272.99 35.4175 273.831 35.8637C274.673 36.31 275.336 36.9538 275.82 37.7953C276.305 38.6241 276.547 39.5867 276.547 40.6832C276.547 41.7797 276.298 42.7487 275.801 43.5902C275.316 44.419 274.647 45.0565 273.793 45.5027C272.951 45.949 272.008 46.1721 270.962 46.1721ZM270.962 43.3416C271.587 43.3416 272.116 43.1121 272.55 42.6531C272.996 42.1941 273.219 41.5375 273.219 40.6832C273.219 39.829 273.002 39.1723 272.569 38.7133C272.148 38.2543 271.625 38.0248 271.001 38.0248C270.363 38.0248 269.834 38.2543 269.413 38.7133C268.992 39.1596 268.782 39.8162 268.782 40.6832C268.782 41.5375 268.986 42.1941 269.394 42.6531C269.815 43.1121 270.338 43.3416 270.962 43.3416Z" fill="#101828"/>
<path d="M284.402 46.0191L282.355 43.0547L280.634 46.0191H277.096L280.615 40.5685L277 35.3473H280.672L282.719 38.2926L284.44 35.3473H287.978L284.402 40.7215L288.074 46.0191H284.402Z" fill="#101828"/>
<path d="M428.564 29.9071C428.258 29.601 427.952 29.2948 427.646 28.9887C426.727 28.009 425.748 27.0293 424.523 26.417C423.115 25.6822 421.584 25.8659 420.053 25.8659C417.726 25.8659 411.909 25.8659 408.48 25.8659L410.807 28.9887C415.032 28.9887 421.645 28.9887 424.707 28.9887C425.993 28.9887 427.095 29.2336 428.136 29.9071C428.319 29.9684 428.503 29.9684 428.564 29.9071Z" fill="#66C61C"/>
<path d="M431.136 34.9282C430.83 34.6221 430.524 34.3159 430.218 34.0098C429.299 33.0301 428.319 32.0504 427.095 31.4381C425.687 30.7033 424.156 30.887 422.625 30.887C420.604 30.887 415.767 30.887 412.338 30.887L414.665 34.0098C418.829 34.0098 424.523 34.0098 427.34 34.0098C428.626 34.0098 429.728 34.2547 430.769 34.9282C430.891 34.9895 431.014 34.9895 431.136 34.9282Z" fill="#4CA30D"/>
<path d="M434.014 39.8266C433.708 39.5204 433.402 39.2143 433.095 38.9081C432.177 37.9284 431.197 36.9487 429.973 36.3364C428.564 35.6016 427.034 35.7853 425.503 35.7853C423.605 35.7853 419.441 35.7853 416.073 35.7853L418.4 38.9081C422.441 38.9081 427.585 38.9081 430.156 38.9081C431.442 38.9081 432.544 39.153 433.585 39.8266C433.769 39.8878 433.891 39.949 434.014 39.8266Z" fill="#3B7C0F"/>
<path d="M408.236 48.0928C408.542 48.399 408.848 48.7051 409.154 49.0113C410.073 49.991 411.052 50.9707 412.277 51.583C413.685 52.3177 415.216 52.134 416.747 52.134H428.319L425.993 49.0113C421.768 49.0113 415.155 49.0113 412.093 49.0113C410.807 49.0113 409.705 48.7663 408.664 48.0928C408.481 48.0316 408.358 48.0316 408.236 48.0928Z" fill="#66C61C"/>
<path d="M405.664 43.0719C405.97 43.3781 406.276 43.6842 406.582 43.9904C407.501 44.9701 408.48 45.9498 409.705 46.5621C411.113 47.2969 412.644 47.1132 414.175 47.1132H424.462L422.135 43.9904C417.971 43.9904 412.277 43.9904 409.46 43.9904C408.174 43.9904 407.072 43.7455 406.031 43.0719C405.909 43.0107 405.786 43.0107 405.664 43.0719Z" fill="#4CA30D"/>
<path d="M402.847 38.1121C403.153 38.4182 403.459 38.7244 403.766 39.0306C404.684 40.0103 405.664 40.99 406.888 41.6023C408.297 42.337 409.828 42.1533 411.358 42.1533H420.788L418.461 39.0306C414.42 39.0306 409.276 39.0306 406.705 39.0306C405.419 39.0306 404.317 38.7856 403.276 38.1121C403.092 38.0509 402.97 38.0509 402.847 38.1121Z" fill="#3B7C0F"/>
<path d="M441.049 31.9224V46.0834H444.163V40.2325H450.093V37.8129H444.163V34.5404H451.005V31.9224H441.049Z" fill="#101828"/>
<path d="M458.815 39.8557H454.234C454.247 39.6574 454.287 39.4326 454.353 39.1814C454.432 38.9301 454.558 38.6921 454.73 38.4674C454.915 38.2426 455.153 38.0575 455.444 37.912C455.748 37.7534 456.125 37.674 456.574 37.674C457.262 37.674 457.771 37.8591 458.101 38.2294C458.445 38.5996 458.683 39.1417 458.815 39.8557ZM454.234 41.6407H461.632C461.684 40.8474 461.618 40.0871 461.433 39.3599C461.248 38.6326 460.944 37.9848 460.521 37.4162C460.111 36.8476 459.582 36.3981 458.934 36.0675C458.286 35.7238 457.526 35.5519 456.653 35.5519C455.873 35.5519 455.159 35.6907 454.511 35.9684C453.877 36.246 453.328 36.6295 452.865 37.1187C452.402 37.5947 452.045 38.1633 451.794 38.8244C451.543 39.4855 451.417 40.1995 451.417 40.9664C451.417 41.7597 451.536 42.4869 451.774 43.148C452.026 43.8091 452.376 44.3777 452.826 44.8537C453.275 45.3297 453.824 45.6999 454.472 45.9644C455.12 46.2156 455.847 46.3412 456.653 46.3412C457.817 46.3412 458.809 46.0768 459.628 45.5479C460.448 45.019 461.056 44.1397 461.453 42.91H458.974C458.881 43.2274 458.63 43.5315 458.22 43.8224C457.81 44.1 457.321 44.2389 456.753 44.2389C455.959 44.2389 455.351 44.0339 454.928 43.624C454.505 43.2141 454.273 42.553 454.234 41.6407Z" fill="#101828"/>
<path d="M462.588 38.983C462.628 38.3219 462.793 37.7732 463.084 37.3369C463.375 36.9005 463.745 36.5501 464.194 36.2857C464.644 36.0213 465.146 35.8361 465.702 35.7304C466.27 35.6114 466.839 35.5519 467.407 35.5519C467.923 35.5519 468.445 35.5915 468.974 35.6709C469.503 35.737 469.986 35.8758 470.422 36.0874C470.858 36.2989 471.215 36.5964 471.493 36.9799C471.771 37.3501 471.91 37.8459 471.91 38.4674V43.8025C471.91 44.2653 471.936 44.7083 471.989 45.1314C472.042 45.5545 472.134 45.8718 472.267 46.0834H469.411C469.358 45.9247 469.311 45.766 469.272 45.6074C469.245 45.4355 469.225 45.2636 469.212 45.0917C468.763 45.5545 468.234 45.8784 467.626 46.0635C467.017 46.2486 466.396 46.3412 465.761 46.3412C465.272 46.3412 464.816 46.2817 464.393 46.1627C463.97 46.0437 463.599 45.8586 463.282 45.6074C462.965 45.3561 462.714 45.0388 462.528 44.6554C462.357 44.2719 462.271 43.8158 462.271 43.2869C462.271 42.7051 462.37 42.2291 462.568 41.8589C462.78 41.4754 463.044 41.1713 463.361 40.9465C463.692 40.7218 464.062 40.5565 464.472 40.4507C464.895 40.3317 465.318 40.2391 465.741 40.173C466.165 40.1069 466.581 40.054 466.991 40.0144C467.401 39.9747 467.764 39.9152 468.082 39.8359C468.399 39.7565 468.65 39.6441 468.835 39.4987C469.021 39.34 469.106 39.1153 469.093 38.8244C469.093 38.5203 469.04 38.2823 468.935 38.1104C468.842 37.9253 468.71 37.7864 468.538 37.6939C468.379 37.5881 468.188 37.522 467.963 37.4955C467.751 37.4559 467.52 37.436 467.269 37.436C466.713 37.436 466.277 37.555 465.96 37.793C465.642 38.031 465.457 38.4277 465.404 38.983H462.588ZM469.093 41.0655C468.974 41.1713 468.822 41.2573 468.637 41.3234C468.465 41.3763 468.273 41.4225 468.062 41.4622C467.864 41.5019 467.652 41.5349 467.427 41.5614C467.202 41.5878 466.978 41.6209 466.753 41.6605C466.541 41.7002 466.33 41.7531 466.118 41.8192C465.92 41.8853 465.741 41.9779 465.583 42.0969C465.437 42.2026 465.318 42.3415 465.226 42.5134C465.133 42.6853 465.087 42.9034 465.087 43.1679C465.087 43.4191 465.133 43.6306 465.226 43.8025C465.318 43.9744 465.444 44.1133 465.603 44.219C465.761 44.3116 465.946 44.3777 466.158 44.4174C466.369 44.457 466.588 44.4769 466.812 44.4769C467.368 44.4769 467.797 44.3843 468.102 44.1992C468.406 44.0141 468.63 43.7959 468.776 43.5447C468.921 43.2803 469.007 43.0158 469.034 42.7514C469.073 42.4869 469.093 42.2754 469.093 42.1167V41.0655Z" fill="#101828"/>
<path d="M477.071 35.8295V32.7554H474.254V35.8295H472.549V37.7137H474.254V43.7629C474.254 44.2785 474.34 44.695 474.512 45.0124C474.684 45.3297 474.915 45.5743 475.206 45.7462C475.51 45.9181 475.854 46.0305 476.238 46.0834C476.634 46.1495 477.051 46.1825 477.487 46.1825C477.765 46.1825 478.049 46.1759 478.34 46.1627C478.631 46.1495 478.895 46.123 479.133 46.0834V43.9017C479.001 43.9281 478.862 43.948 478.717 43.9612C478.571 43.9744 478.419 43.981 478.261 43.981C477.785 43.981 477.467 43.9017 477.309 43.743C477.15 43.5844 477.071 43.267 477.071 42.791V37.7137H479.133V35.8295H477.071Z" fill="#101828"/>
<path d="M479.878 31.9224V46.0834H482.695V40.7085C482.695 39.664 482.866 38.9169 483.21 38.4674C483.554 38.0046 484.109 37.7732 484.876 37.7732C485.551 37.7732 486.02 37.9848 486.284 38.4079C486.549 38.8178 486.681 39.4458 486.681 40.292V46.0834H489.497V39.7764C489.497 39.1417 489.438 38.5665 489.319 38.0509C489.213 37.522 489.021 37.079 488.744 36.722C488.466 36.3518 488.083 36.0675 487.593 35.8692C487.117 35.6576 486.503 35.5519 485.749 35.5519C485.22 35.5519 484.678 35.6907 484.123 35.9684C483.567 36.2328 483.111 36.6625 482.754 37.2575H482.695V31.9224H479.878Z" fill="#101828"/>
<path d="M497.942 39.8557H493.36C493.374 39.6574 493.413 39.4326 493.479 39.1814C493.559 38.9301 493.684 38.6921 493.856 38.4674C494.041 38.2426 494.279 38.0575 494.57 37.912C494.874 37.7534 495.251 37.674 495.701 37.674C496.388 37.674 496.897 37.8591 497.228 38.2294C497.572 38.5996 497.81 39.1417 497.942 39.8557ZM493.36 41.6407H500.758C500.811 40.8474 500.745 40.0871 500.56 39.3599C500.375 38.6326 500.071 37.9848 499.648 37.4162C499.238 36.8476 498.709 36.3981 498.061 36.0675C497.413 35.7238 496.653 35.5519 495.78 35.5519C495 35.5519 494.286 35.6907 493.638 35.9684C493.003 36.246 492.455 36.6295 491.992 37.1187C491.529 37.5947 491.172 38.1633 490.921 38.8244C490.67 39.4855 490.544 40.1995 490.544 40.9664C490.544 41.7597 490.663 42.4869 490.901 43.148C491.152 43.8091 491.503 44.3777 491.952 44.8537C492.402 45.3297 492.951 45.6999 493.598 45.9644C494.246 46.2156 494.974 46.3412 495.78 46.3412C496.944 46.3412 497.935 46.0768 498.755 45.5479C499.575 45.019 500.183 44.1397 500.58 42.91H498.101C498.008 43.2274 497.757 43.5315 497.347 43.8224C496.937 44.1 496.448 44.2389 495.879 44.2389C495.086 44.2389 494.478 44.0339 494.055 43.624C493.631 43.2141 493.4 42.553 493.36 41.6407Z" fill="#101828"/>
<path d="M501.834 35.8295V46.0834H504.65V41.4622C504.65 40.9994 504.696 40.5697 504.789 40.173C504.881 39.7764 505.033 39.4326 505.245 39.1417C505.47 38.8376 505.761 38.5996 506.118 38.4277C506.475 38.2558 506.911 38.1699 507.427 38.1699C507.598 38.1699 507.777 38.1831 507.962 38.2095C508.147 38.2228 508.306 38.2426 508.438 38.269V35.651C508.213 35.5849 508.008 35.5519 507.823 35.5519C507.466 35.5519 507.122 35.6048 506.792 35.7105C506.461 35.8163 506.151 35.9684 505.86 36.1667C505.569 36.3518 505.311 36.5832 505.086 36.8609C504.861 37.1253 504.683 37.4162 504.551 37.7335H504.511V35.8295H501.834Z" fill="#101828"/>
<path d="M512.359 43.4654V34.5404H514.58C515.347 34.5404 515.988 34.6528 516.504 34.8775C517.033 35.0891 517.456 35.3998 517.773 35.8097C518.09 36.2196 518.315 36.7154 518.447 37.2972C518.593 37.8658 518.666 38.507 518.666 39.221C518.666 40.0011 518.566 40.6623 518.368 41.2044C518.17 41.7465 517.905 42.1894 517.575 42.5332C517.244 42.8638 516.867 43.1018 516.444 43.2472C516.021 43.3926 515.585 43.4654 515.135 43.4654H512.359ZM509.245 31.9224V46.0834H515.353C516.438 46.0834 517.376 45.9049 518.17 45.5479C518.976 45.1776 519.644 44.6752 520.173 44.0405C520.715 43.4059 521.118 42.6522 521.383 41.7795C521.647 40.9069 521.779 39.9549 521.779 38.9235C521.779 37.7468 521.614 36.722 521.284 35.8494C520.966 34.9767 520.517 34.2495 519.935 33.6677C519.366 33.0859 518.685 32.6496 517.892 32.3587C517.112 32.0678 516.266 31.9224 515.353 31.9224H509.245Z" fill="#101828"/>
<path d="M529.955 39.8557H525.373C525.387 39.6574 525.426 39.4326 525.492 39.1814C525.572 38.9301 525.697 38.6921 525.869 38.4674C526.054 38.2426 526.292 38.0575 526.583 37.912C526.887 37.7534 527.264 37.674 527.714 37.674C528.401 37.674 528.91 37.8591 529.241 38.2294C529.585 38.5996 529.823 39.1417 529.955 39.8557ZM525.373 41.6407H532.771C532.824 40.8474 532.758 40.0871 532.573 39.3599C532.388 38.6326 532.084 37.9848 531.661 37.4162C531.251 36.8476 530.722 36.3981 530.074 36.0675C529.426 35.7238 528.666 35.5519 527.793 35.5519C527.013 35.5519 526.299 35.6907 525.651 35.9684C525.016 36.246 524.468 36.6295 524.005 37.1187C523.542 37.5947 523.185 38.1633 522.934 38.8244C522.683 39.4855 522.557 40.1995 522.557 40.9664C522.557 41.7597 522.676 42.4869 522.914 43.148C523.165 43.8091 523.516 44.3777 523.965 44.8537C524.415 45.3297 524.964 45.6999 525.611 45.9644C526.259 46.2156 526.987 46.3412 527.793 46.3412C528.957 46.3412 529.948 46.0768 530.768 45.5479C531.588 45.019 532.196 44.1397 532.593 42.91H530.114C530.021 43.2274 529.77 43.5315 529.36 43.8224C528.95 44.1 528.461 44.2389 527.892 44.2389C527.099 44.2389 526.491 44.0339 526.068 43.624C525.645 43.2141 525.413 42.553 525.373 41.6407Z" fill="#101828"/>
<path d="M539.519 46.0834L542.99 35.8295H540.193L538.031 42.8307H537.992L535.83 35.8295H532.875L536.385 46.0834H539.519Z" fill="#101828"/>
<circle cx="673.25" cy="39.177" r="14.5208" stroke="#6927DA" stroke-width="2.125"/>
<path d="M683.518 28.9091C684.942 30.3338 685.384 32.7398 684.617 35.7246C683.856 38.6828 681.942 42.005 679.01 44.9371C676.078 47.8691 672.756 49.7828 669.798 50.5435C666.813 51.3111 664.407 50.8696 662.982 49.4449C661.557 48.0201 661.116 45.6134 661.883 42.6286C662.644 39.6705 664.558 36.3488 667.49 33.4169C670.422 30.4849 673.744 28.5704 676.702 27.8097C679.687 27.0422 682.093 27.4845 683.518 28.9091Z" stroke="#6927DA" stroke-width="2.125"/>
<path d="M662.982 28.9094C664.407 27.4848 666.813 27.0427 669.797 27.8101C672.756 28.5708 676.078 30.4846 679.01 33.4166C681.942 36.3486 683.856 39.6708 684.616 42.629C685.384 45.614 684.942 48.0205 683.518 49.4452C682.093 50.8698 679.686 51.3114 676.701 50.5439C673.743 49.7831 670.422 47.8686 667.49 44.9367C664.558 42.0047 662.643 38.6832 661.882 35.725C661.115 32.7402 661.557 30.3342 662.982 28.9094Z" stroke="#6927DA" stroke-width="2.125"/>
<path d="M702.185 46.2534C705.522 46.2534 707.774 44.5109 707.774 41.7271C707.774 35.8409 699.954 38.3484 699.954 35.2459C699.954 34.3746 700.74 33.7796 701.994 33.7796C703.418 33.7796 704.31 34.5446 704.417 35.7134H707.455C707.37 32.8871 705.203 31.0384 701.994 31.0384C698.977 31.0384 696.852 32.7809 696.852 35.2459C696.852 41.0896 704.565 38.8584 704.565 41.7696C704.565 42.8959 703.609 43.4909 702.185 43.4909C700.613 43.4909 699.614 42.5346 699.487 41.0259H696.427C696.554 44.1921 698.807 46.2534 702.185 46.2534Z" fill="#101828"/>
<path d="M708.497 50.4184H711.451V45.1271C712.024 45.8496 713.066 46.2534 714.277 46.2534C717.358 46.2534 719.441 44.0646 719.441 40.7284C719.441 37.3921 717.528 35.2034 714.532 35.2034C713.151 35.2034 712.088 35.7134 711.451 36.5421V35.3734H708.497V50.4184ZM713.916 43.7034C712.322 43.7034 711.281 42.5134 711.281 40.7284C711.281 38.9221 712.322 37.7321 713.916 37.7321C715.467 37.7321 716.529 38.9221 716.529 40.7284C716.529 42.5134 715.467 43.7034 713.916 43.7034Z" fill="#101828"/>
<path d="M720.155 46.0834H723.109V40.2184C723.109 38.8371 724.023 37.8384 725.319 37.8384C726.552 37.8384 727.402 38.7734 727.402 40.0696V46.0834H730.355V39.4109C730.355 36.9459 728.783 35.2034 726.382 35.2034C724.894 35.2034 723.725 35.8196 723.109 36.8609V30.7196H720.155V46.0834Z" fill="#101828"/>
<path d="M738.618 42.4496C738.384 43.3634 737.598 43.8309 736.408 43.8309C734.921 43.8309 733.964 42.8959 733.752 41.3871H741.444C741.466 41.1534 741.487 40.8346 741.487 40.4309C741.487 37.9871 739.978 35.2034 736.196 35.2034C732.562 35.2034 730.904 37.9871 730.904 40.7071C730.904 43.4059 732.774 46.2534 736.408 46.2534C739.043 46.2534 741.083 44.7659 741.508 42.4496H738.618ZM736.196 37.3709C737.619 37.3709 738.448 38.3271 738.533 39.5171H733.794C734.049 38.0296 734.857 37.3709 736.196 37.3709Z" fill="#101828"/>
<path d="M749.234 37.8384V35.3734H747.71C746.413 35.3734 745.606 35.8196 745.032 37.1584V35.3734H742.057V46.0834H745.032V40.8771C745.032 39.0496 745.691 37.8384 747.157 37.8384H749.234Z" fill="#101828"/>
<path d="M759.434 35.3734H756.459V41.2384C756.459 42.5984 755.545 43.6184 754.249 43.6184C753.037 43.6184 752.187 42.6834 752.187 41.3871V35.3734H749.234V42.0459C749.234 44.4896 750.806 46.2534 753.207 46.2534C754.674 46.2534 755.864 45.6159 756.459 44.5959V46.0834H759.434V35.3734Z" fill="#101828"/>
<path d="M760.709 46.0834H763.662V30.7196H760.709V46.0834Z" fill="#101828"/>
<path d="M772.095 42.4496C771.861 43.3634 771.075 43.8309 769.885 43.8309C768.398 43.8309 767.441 42.8959 767.229 41.3871H774.921C774.943 41.1534 774.964 40.8346 774.964 40.4309C774.964 37.9871 773.455 35.2034 769.673 35.2034C766.039 35.2034 764.381 37.9871 764.381 40.7071C764.381 43.4059 766.251 46.2534 769.885 46.2534C772.52 46.2534 774.56 44.7659 774.985 42.4496H772.095ZM769.673 37.3709C771.096 37.3709 771.925 38.3271 772.01 39.5171H767.271C767.526 38.0296 768.334 37.3709 769.673 37.3709Z" fill="#101828"/>
<path d="M911.373 23.4166H899.432L889.819 33.0295V44.9704L899.432 54.5833H911.373L920.986 44.9704V33.0295L911.373 23.4166ZM901.084 45.1206L894.926 38.9624L901.084 32.8042C903.413 30.4761 907.243 30.4761 909.571 32.8042L915.729 38.9624L909.571 45.1206C907.243 47.4488 903.488 47.4488 901.084 45.1206Z" fill="#444CE7"/>
<path d="M934.685 46.2534C936.598 46.2534 938.17 45.2759 938.659 43.8096V46.0834H941.485V40.3459C941.485 39.0496 940.465 37.9446 939.084 37.9446H935.046V40.3459H937.915C938.276 40.3459 938.51 40.5796 938.51 40.9409C938.51 42.3221 936.683 43.6609 934.834 43.6609C932.369 43.6609 930.414 41.7271 930.414 38.6459C930.414 35.5646 932.369 33.7796 934.898 33.7796C936.81 33.7796 938.128 34.8209 938.361 36.4146H941.528C941.336 33.2271 938.659 31.0384 934.919 31.0384C930.988 31.0384 927.375 33.5671 927.375 38.6459C927.375 43.7246 930.881 46.2534 934.685 46.2534Z" fill="#101828"/>
<path d="M942.698 46.0834H945.652V30.7196H942.698V46.0834Z" fill="#101828"/>
<path d="M952.024 46.2534C955.318 46.2534 957.676 43.9159 957.676 40.7284C957.676 37.5409 955.318 35.2034 952.024 35.2034C948.73 35.2034 946.371 37.5409 946.371 40.7284C946.371 43.9159 948.73 46.2534 952.024 46.2534ZM952.024 43.7034C950.43 43.7034 949.346 42.4921 949.346 40.7284C949.346 38.9434 950.43 37.7321 952.024 37.7321C953.618 37.7321 954.701 38.9434 954.701 40.7284C954.701 42.4921 953.618 43.7034 952.024 43.7034Z" fill="#101828"/>
<path d="M964.286 46.2534C967.452 46.2534 969.343 44.0646 969.343 40.7284C969.343 37.3921 967.452 35.2034 964.328 35.2034C962.989 35.2034 961.948 35.7134 961.353 36.4996V30.7196H958.399V46.0834H961.353V44.9146C961.948 45.7434 963.053 46.2534 964.286 46.2534ZM963.818 43.7034C962.224 43.7034 961.183 42.5134 961.183 40.7284C961.183 38.9221 962.224 37.7321 963.818 37.7321C965.369 37.7321 966.432 38.9221 966.432 40.7284C966.432 42.5134 965.369 43.7034 963.818 43.7034Z" fill="#101828"/>
<path d="M974.288 35.2034C971.355 35.2034 969.613 36.9246 969.485 39.0709H972.12C972.163 38.1784 972.821 37.3709 974.118 37.3709C975.329 37.3709 976.03 37.9871 976.03 38.8796C976.03 39.3259 975.754 39.6659 975.223 39.6659H973.416C971.079 39.6659 969.506 40.9409 969.506 43.0446C969.506 44.8721 970.93 46.2534 973.013 46.2534C974.479 46.2534 975.669 45.5946 976.03 44.5959V46.0834H978.963V39.1984C978.963 36.7759 976.986 35.2034 974.288 35.2034ZM973.756 44.1071C972.928 44.1071 972.333 43.6184 972.333 42.9171C972.333 42.0884 972.97 41.5359 973.863 41.5359H976.03V41.6846C976.03 43.0446 975.201 44.1071 973.756 44.1071Z" fill="#101828"/>
<path d="M980.098 46.0834H983.051V30.7196H980.098V46.0834Z" fill="#101828"/>
<path d="M984.62 46.0834H990.698C993.843 46.0834 996.01 44.4684 996.01 41.6421C996.01 39.6871 994.863 38.4971 993.503 37.9659C994.374 37.4984 995.245 36.4359 995.245 35.0334C995.245 32.5471 993.227 31.2084 990.528 31.2084H984.62V46.0834ZM987.765 36.8821V33.7371H990.23C991.654 33.7371 992.292 34.3109 992.292 35.3096C992.292 36.3084 991.654 36.8821 990.294 36.8821H987.765ZM987.765 43.3209V39.5809H990.422C992.185 39.5809 992.972 40.2609 992.972 41.4721C992.972 42.6834 992.185 43.3209 990.422 43.3209H987.765Z" fill="#101828"/>
<path d="M1001.15 35.2034C998.216 35.2034 996.474 36.9246 996.346 39.0709H998.981C999.024 38.1784 999.683 37.3709 1000.98 37.3709C1002.19 37.3709 1002.89 37.9871 1002.89 38.8796C1002.89 39.3259 1002.62 39.6659 1002.08 39.6659H1000.28C997.94 39.6659 996.368 40.9409 996.368 43.0446C996.368 44.8721 997.791 46.2534 999.874 46.2534C1001.34 46.2534 1002.53 45.5946 1002.89 44.5959V46.0834H1005.82V39.1984C1005.82 36.7759 1003.85 35.2034 1001.15 35.2034ZM1000.62 44.1071C999.789 44.1071 999.194 43.6184 999.194 42.9171C999.194 42.0884 999.831 41.5359 1000.72 41.5359H1002.89V41.6846C1002.89 43.0446 1002.06 44.1071 1000.62 44.1071Z" fill="#101828"/>
<path d="M1006.79 46.0834H1009.76V40.2184C1009.76 38.8371 1010.68 37.8384 1011.97 37.8384C1013.21 37.8384 1014.04 38.7734 1014.04 40.0696V46.0834H1017.01V39.4109C1017.01 36.9459 1015.44 35.2034 1013.02 35.2034C1011.55 35.2034 1010.36 35.8196 1009.76 36.8609V35.3734H1006.79V46.0834Z" fill="#101828"/>
<path d="M1025.49 46.0834H1029.06L1024.45 39.5809L1028.72 35.3734H1024.98L1021.26 39.0284V30.7196H1018.29V46.0834H1021.26V42.7259L1022.45 41.5571L1025.49 46.0834Z" fill="#101828"/>
<g clip-path="url(#clip1_139_2861)">
<path d="M1163.25 24.9195L1160.26 24.1184L1157.74 33.5213L1155.46 25.0323L1152.47 25.8334L1154.93 35.0051L1148.81 28.8839L1146.62 31.0725L1153.33 37.7869L1144.97 35.5464L1144.17 38.5361L1153.31 40.9841C1153.2 40.533 1153.15 40.0629 1153.15 39.5799C1153.15 36.161 1155.92 33.3894 1159.34 33.3894C1162.76 33.3894 1165.53 36.161 1165.53 39.5799C1165.53 40.0598 1165.47 40.527 1165.37 40.9755L1173.67 43.2002L1174.48 40.2105L1165.3 37.7527L1173.67 35.5121L1172.86 32.5224L1163.69 34.98L1169.81 28.8587L1167.62 26.6701L1161 33.2913L1163.25 24.9195Z" fill="#FF4405"/>
<path d="M1165.36 41.0103C1165.11 42.094 1164.57 43.0675 1163.82 43.8475L1169.84 49.8627L1172.03 47.6741L1165.36 41.0103Z" fill="#FF4405"/>
<path d="M1163.76 43.9104C1163.01 44.6779 1162.06 45.2507 1161 45.5459L1163.18 53.7146L1166.17 52.9134L1163.76 43.9104Z" fill="#FF4405"/>
<path d="M1160.88 45.5758C1160.39 45.7028 1159.87 45.7703 1159.34 45.7703C1158.77 45.7703 1158.21 45.6928 1157.69 45.5476L1155.5 53.7238L1158.49 54.5249L1160.88 45.5758Z" fill="#FF4405"/>
<path d="M1157.58 45.5175C1156.53 45.2077 1155.6 44.6276 1154.86 43.8578L1148.83 49.8878L1151.02 52.0765L1157.58 45.5175Z" fill="#FF4405"/>
<path d="M1154.81 43.8045C1154.09 43.0299 1153.56 42.0694 1153.31 41.0024L1144.98 43.2345L1145.78 46.2242L1154.81 43.8045Z" fill="#FF4405"/>
</g>
<path d="M1192.47 31.144V41.9178L1185.56 31.144H1182.8V46.019H1185.56V35.3303L1192.47 46.019H1195.23V31.144H1192.47Z" fill="#101828"/>
<path d="M1196.47 33.9278H1199.32V31.144H1196.47V33.9278ZM1196.52 46.019V35.394H1199.28V46.019H1196.52Z" fill="#101828"/>
<path d="M1211.16 40.7065C1211.16 37.0303 1208.55 35.2878 1205.79 35.2665C1203 35.2453 1200.43 37.0303 1200.43 40.7065C1200.43 44.3828 1203 46.1678 1205.79 46.1465C1208.32 46.1253 1210.06 44.9565 1210.87 43.0228L1208.72 42.1303C1208.06 43.4478 1207.02 43.9153 1205.79 43.9365C1204.73 43.9578 1203.51 43.4478 1203.26 41.5565H1211.1C1211.14 41.2803 1211.16 41.004 1211.16 40.7065ZM1205.79 37.4553C1206.85 37.4765 1207.93 38.0503 1208.27 39.5803H1203.3C1203.66 38.029 1204.75 37.434 1205.79 37.4553Z" fill="#101828"/>
<path d="M1217.55 37.3703V35.2665H1215.81V32.419L1213.04 33.269V35.2665H1211.3V37.3703H1213.04V42.874C1213.04 44.9565 1213.21 46.019 1216.44 46.019H1217.19V43.5965H1216.44C1215.93 43.5965 1215.81 43.5115 1215.81 42.874V37.3703H1217.55Z" fill="#101828"/>
<path d="M1221.65 43.7028L1227.52 37.7103V35.394H1218.72V37.7103H1224.42L1218.55 43.7028V46.019H1227.58V43.7028H1221.65Z" fill="#101828"/>
<path d="M1228.57 43.0228L1231.36 42.5978C1231.55 43.6603 1232.8 44.064 1233.57 44.064C1234.35 44.064 1235.71 43.894 1235.71 42.619C1235.71 40.1328 1228.89 43.2353 1228.89 38.4753C1228.89 35.4153 1232.44 35.2453 1233.57 35.2453C1234.63 35.2453 1237.71 35.4153 1238.35 37.8803L1235.71 38.4328C1235.48 37.3065 1234.29 37.094 1233.65 37.094C1233.01 37.094 1231.65 37.2428 1231.65 38.4753C1231.65 40.9403 1238.47 37.7953 1238.47 42.619C1238.47 45.8703 1234.73 46.1465 1233.57 46.1465C1232.5 46.1465 1229.12 45.8703 1228.57 43.0228Z" fill="#101828"/>
<path d="M1242.06 40.7065C1242.06 43.299 1243.44 44.0853 1244.89 44.064C1246.19 44.0428 1247.08 43.5115 1247.61 42.024L1249.88 43.129C1249.05 45.2965 1247.04 46.1253 1244.89 46.1465C1242.11 46.1678 1239.3 44.3828 1239.3 40.7065C1239.3 37.0303 1242.11 35.2453 1244.89 35.2665C1247.04 35.2878 1249.05 36.1165 1249.88 38.284L1247.61 39.389C1247.08 37.9015 1246.19 37.3703 1244.89 37.349C1243.44 37.3278 1242.06 38.114 1242.06 40.7065Z" fill="#101828"/>
<path d="M1257.3 35.224C1255.88 35.224 1254.58 35.9678 1253.75 37.5615V31.144H1250.99V46.019H1253.75V42.2578C1253.75 37.3915 1255.77 36.9878 1256.51 36.9878C1257.7 36.9878 1257.87 38.2203 1257.87 40.0265V46.019H1260.64V40.0265C1260.64 37.774 1260.27 35.224 1257.3 35.224Z" fill="#101828"/>
<path d="M1272.3 40.7065C1272.3 37.0303 1269.69 35.2878 1266.92 35.2665C1264.14 35.2453 1261.57 37.0303 1261.57 40.7065C1261.57 44.3828 1264.14 46.1678 1266.92 46.1465C1269.45 46.1253 1271.19 44.9565 1272 43.0228L1269.86 42.1303C1269.2 43.4478 1268.16 43.9153 1266.92 43.9365C1265.86 43.9578 1264.65 43.4478 1264.39 41.5565H1272.24C1272.28 41.2803 1272.3 41.004 1272.3 40.7065ZM1266.92 37.4553C1267.99 37.4765 1269.07 38.0503 1269.41 39.5803H1264.44C1264.8 38.029 1265.88 37.434 1266.92 37.4553Z" fill="#101828"/>
<circle cx="1403" cy="39.177" r="14.5208" stroke="#6927DA" stroke-width="2.125"/>
<path d="M1413.27 28.9091C1414.69 30.3338 1415.13 32.7398 1414.37 35.7246C1413.61 38.6828 1411.69 42.005 1408.76 44.9371C1405.83 47.8691 1402.51 49.7828 1399.55 50.5435C1396.56 51.3111 1394.16 50.8696 1392.73 49.4449C1391.31 48.0201 1390.87 45.6134 1391.63 42.6286C1392.39 39.6705 1394.31 36.3488 1397.24 33.4169C1400.17 30.4849 1403.49 28.5704 1406.45 27.8097C1409.44 27.0422 1411.84 27.4845 1413.27 28.9091Z" stroke="#6927DA" stroke-width="2.125"/>
<path d="M1392.73 28.9094C1394.16 27.4848 1396.56 27.0427 1399.55 27.8101C1402.51 28.5708 1405.83 30.4846 1408.76 33.4166C1411.69 36.3486 1413.61 39.6708 1414.37 42.629C1415.13 45.614 1414.69 48.0205 1413.27 49.4452C1411.84 50.8698 1409.44 51.3114 1406.45 50.5439C1403.49 49.7831 1400.17 47.8686 1397.24 44.9367C1394.31 42.0047 1392.39 38.6832 1391.63 35.725C1390.86 32.7402 1391.31 30.3342 1392.73 28.9094Z" stroke="#6927DA" stroke-width="2.125"/>
<path d="M1431.94 46.2534C1435.27 46.2534 1437.52 44.5109 1437.52 41.7271C1437.52 35.8409 1429.7 38.3484 1429.7 35.2459C1429.7 34.3746 1430.49 33.7796 1431.74 33.7796C1433.17 33.7796 1434.06 34.5446 1434.17 35.7134H1437.21C1437.12 32.8871 1434.95 31.0384 1431.74 31.0384C1428.73 31.0384 1426.6 32.7809 1426.6 35.2459C1426.6 41.0896 1434.32 38.8584 1434.32 41.7696C1434.32 42.8959 1433.36 43.4909 1431.94 43.4909C1430.36 43.4909 1429.36 42.5346 1429.24 41.0259H1426.18C1426.3 44.1921 1428.56 46.2534 1431.94 46.2534Z" fill="#101828"/>
<path d="M1438.25 50.4184H1441.2V45.1271C1441.77 45.8496 1442.82 46.2534 1444.03 46.2534C1447.11 46.2534 1449.19 44.0646 1449.19 40.7284C1449.19 37.3921 1447.28 35.2034 1444.28 35.2034C1442.9 35.2034 1441.84 35.7134 1441.2 36.5421V35.3734H1438.25V50.4184ZM1443.67 43.7034C1442.07 43.7034 1441.03 42.5134 1441.03 40.7284C1441.03 38.9221 1442.07 37.7321 1443.67 37.7321C1445.22 37.7321 1446.28 38.9221 1446.28 40.7284C1446.28 42.5134 1445.22 43.7034 1443.67 43.7034Z" fill="#101828"/>
<path d="M1449.91 46.0834H1452.86V40.2184C1452.86 38.8371 1453.77 37.8384 1455.07 37.8384C1456.3 37.8384 1457.15 38.7734 1457.15 40.0696V46.0834H1460.11V39.4109C1460.11 36.9459 1458.53 35.2034 1456.13 35.2034C1454.64 35.2034 1453.48 35.8196 1452.86 36.8609V30.7196H1449.91V46.0834Z" fill="#101828"/>
<path d="M1468.37 42.4496C1468.13 43.3634 1467.35 43.8309 1466.16 43.8309C1464.67 43.8309 1463.71 42.8959 1463.5 41.3871H1471.19C1471.22 41.1534 1471.24 40.8346 1471.24 40.4309C1471.24 37.9871 1469.73 35.2034 1465.95 35.2034C1462.31 35.2034 1460.65 37.9871 1460.65 40.7071C1460.65 43.4059 1462.52 46.2534 1466.16 46.2534C1468.79 46.2534 1470.83 44.7659 1471.26 42.4496H1468.37ZM1465.95 37.3709C1467.37 37.3709 1468.2 38.3271 1468.28 39.5171H1463.54C1463.8 38.0296 1464.61 37.3709 1465.95 37.3709Z" fill="#101828"/>
<path d="M1478.98 37.8384V35.3734H1477.46C1476.16 35.3734 1475.36 35.8196 1474.78 37.1584V35.3734H1471.81V46.0834H1474.78V40.8771C1474.78 39.0496 1475.44 37.8384 1476.91 37.8384H1478.98Z" fill="#101828"/>
<path d="M1489.18 35.3734H1486.21V41.2384C1486.21 42.5984 1485.29 43.6184 1484 43.6184C1482.79 43.6184 1481.94 42.6834 1481.94 41.3871V35.3734H1478.98V42.0459C1478.98 44.4896 1480.56 46.2534 1482.96 46.2534C1484.42 46.2534 1485.61 45.6159 1486.21 44.5959V46.0834H1489.18V35.3734Z" fill="#101828"/>
<path d="M1490.46 46.0834H1493.41V30.7196H1490.46V46.0834Z" fill="#101828"/>
<path d="M1501.85 42.4496C1501.61 43.3634 1500.83 43.8309 1499.64 43.8309C1498.15 43.8309 1497.19 42.8959 1496.98 41.3871H1504.67C1504.69 41.1534 1504.71 40.8346 1504.71 40.4309C1504.71 37.9871 1503.21 35.2034 1499.42 35.2034C1495.79 35.2034 1494.13 37.9871 1494.13 40.7071C1494.13 43.4059 1496 46.2534 1499.64 46.2534C1502.27 46.2534 1504.31 44.7659 1504.74 42.4496H1501.85ZM1499.42 37.3709C1500.85 37.3709 1501.68 38.3271 1501.76 39.5171H1497.02C1497.28 38.0296 1498.08 37.3709 1499.42 37.3709Z" fill="#101828"/>
</g>
</g>
<defs>
<clipPath id="clip0_139_2861">
<rect width="1441" height="79" fill="white" transform="translate(-1)"/>
</clipPath>
<clipPath id="clip1_139_2861">
<rect width="31.1667" height="31.1667" fill="white" transform="translate(1143.93 23.4166)"/>
</clipPath>
</defs>
</svg>
