<svg width="1440" height="768" viewBox="0 0 1440 768" fill="none" xmlns="http://www.w3.org/2000/svg">
<mask id="mask0_180_2264" style="mask-type:alpha" maskUnits="userSpaceOnUse" x="-1" y="0" width="1441" height="534">
<rect x="-1" width="1441" height="534" fill="url(#paint0_linear_180_2264)"/>
</mask>
<g mask="url(#mask0_180_2264)">
<rect width="96" height="96" stroke="#E5E5E5" stroke-opacity="0.898039" stroke-width="0.979592"/>
<rect x="96" width="96" height="96" stroke="#E5E5E5" stroke-opacity="0.898039" stroke-width="0.979592"/>
<rect x="192" width="96" height="96" fill="#FAFAFA" fill-opacity="0.898039"/>
<rect x="288" width="96" height="96" stroke="#E5E5E5" stroke-opacity="0.898039" stroke-width="0.979592"/>
<rect x="384" width="96" height="96" stroke="#E5E5E5" stroke-opacity="0.898039" stroke-width="0.979592"/>
<rect x="480" width="96" height="96" stroke="#E5E5E5" stroke-opacity="0.898039" stroke-width="0.979592"/>
<rect x="576" width="96" height="96" stroke="#E5E5E5" stroke-opacity="0.898039" stroke-width="0.979592"/>
<rect x="672" width="96" height="96" stroke="#E5E5E5" stroke-opacity="0.898039" stroke-width="0.979592"/>
<rect x="768" width="96" height="96" stroke="#E5E5E5" stroke-opacity="0.898039" stroke-width="0.979592"/>
<rect x="864" width="96" height="96" stroke="#E5E5E5" stroke-opacity="0.898039" stroke-width="0.979592"/>
<rect x="960" width="96" height="96" stroke="#E5E5E5" stroke-opacity="0.898039" stroke-width="0.979592"/>
<rect x="1056" width="96" height="96" stroke="#E5E5E5" stroke-opacity="0.898039" stroke-width="0.979592"/>
<rect x="1152" width="96" height="96" stroke="#E5E5E5" stroke-opacity="0.898039" stroke-width="0.979592"/>
<rect x="1248" width="96" height="96" fill="#FAFAFA" fill-opacity="0.898039"/>
<rect x="1344" width="96" height="96" stroke="#E5E5E5" stroke-opacity="0.898039" stroke-width="0.979592"/>
<rect y="96" width="96" height="96" stroke="#E5E5E5" stroke-opacity="0.898039" stroke-width="0.979592"/>
<rect x="96" y="96" width="96" height="96" stroke="#E5E5E5" stroke-opacity="0.898039" stroke-width="0.979592"/>
<rect x="192" y="96" width="96" height="96" stroke="#E5E5E5" stroke-opacity="0.898039" stroke-width="0.979592"/>
<rect x="288" y="96" width="96" height="96" stroke="#E5E5E5" stroke-opacity="0.898039" stroke-width="0.979592"/>
<rect x="384" y="96" width="96" height="96" stroke="#E5E5E5" stroke-opacity="0.898039" stroke-width="0.979592"/>
<rect x="480" y="96" width="96" height="96" stroke="#E5E5E5" stroke-opacity="0.898039" stroke-width="0.979592"/>
<rect x="576" y="96" width="96" height="96" stroke="#E5E5E5" stroke-opacity="0.898039" stroke-width="0.979592"/>
<rect x="672" y="96" width="96" height="96" stroke="#E5E5E5" stroke-opacity="0.898039" stroke-width="0.979592"/>
<rect x="768" y="96" width="96" height="96" fill="#FAFAFA" fill-opacity="0.898039"/>
<rect x="864" y="96" width="96" height="96" stroke="#E5E5E5" stroke-opacity="0.898039" stroke-width="0.979592"/>
<rect x="960" y="96" width="96" height="96" stroke="#E5E5E5" stroke-opacity="0.898039" stroke-width="0.979592"/>
<rect x="1056" y="96" width="96" height="96" stroke="#E5E5E5" stroke-opacity="0.898039" stroke-width="0.979592"/>
<rect x="1152" y="96" width="96" height="96" stroke="#E5E5E5" stroke-opacity="0.898039" stroke-width="0.979592"/>
<rect x="1248" y="96" width="96" height="96" stroke="#E5E5E5" stroke-opacity="0.898039" stroke-width="0.979592"/>
<rect x="1344" y="96" width="96" height="96" stroke="#E5E5E5" stroke-opacity="0.898039" stroke-width="0.979592"/>
<path d="M96.2122 83.4297C97.6452 88.9848 101.892 93.3606 107.369 94.9736L107.904 95.1211L109.371 95.5L107.904 95.8789C102.348 97.3119 97.9726 101.559 96.3596 107.036L96.2122 107.57L95.8333 109.038L95.4543 107.57C94.0213 102.015 89.7744 97.6394 84.2971 96.0264L83.7629 95.8789L82.2942 95.5L83.7629 95.1211C89.318 93.6881 93.6939 89.4412 95.3069 83.9639L95.4543 83.4297L95.8333 81.9609L96.2122 83.4297Z" fill="white" stroke="#E5E5E5" stroke-width="0.98"/>
<rect y="192" width="96" height="96" fill="#FAFAFA"/>
<rect x="96" y="192" width="96" height="96" stroke="#E5E5E5" stroke-opacity="0.898039" stroke-width="0.979592"/>
<rect x="192" y="192" width="96" height="96" stroke="#E5E5E5" stroke-opacity="0.898039" stroke-width="0.979592"/>
<rect x="288" y="192" width="96" height="96" stroke="#E5E5E5" stroke-opacity="0.898039" stroke-width="0.979592"/>
<rect x="384" y="192" width="96" height="96" stroke="#E5E5E5" stroke-opacity="0.898039" stroke-width="0.979592"/>
<rect x="480" y="192" width="96" height="96" stroke="#E5E5E5" stroke-opacity="0.898039" stroke-width="0.979592"/>
<rect x="576" y="192" width="96" height="96" stroke="#E5E5E5" stroke-opacity="0.898039" stroke-width="0.979592"/>
<rect x="672" y="192" width="96" height="96" stroke="#E5E5E5" stroke-opacity="0.898039" stroke-width="0.979592"/>
<rect x="768" y="192" width="96" height="96" stroke="#E5E5E5" stroke-opacity="0.898039" stroke-width="0.979592"/>
<rect x="864" y="192" width="96" height="96" stroke="#E5E5E5" stroke-opacity="0.898039" stroke-width="0.979592"/>
<rect x="960" y="192" width="96" height="96" stroke="#E5E5E5" stroke-opacity="0.898039" stroke-width="0.979592"/>
<rect x="1056" y="192" width="96" height="96" stroke="#E5E5E5" stroke-opacity="0.898039" stroke-width="0.979592"/>
<rect x="1152" y="192" width="96" height="96" stroke="#E5E5E5" stroke-opacity="0.898039" stroke-width="0.979592"/>
<rect x="1248" y="192" width="96" height="96" stroke="#E5E5E5" stroke-opacity="0.898039" stroke-width="0.979592"/>
<rect x="1344" y="192" width="96" height="96" stroke="#E5E5E5" stroke-opacity="0.898039" stroke-width="0.979592"/>
<rect y="288" width="96" height="96" stroke="#E5E5E5" stroke-opacity="0.898039" stroke-width="0.979592"/>
<rect x="96" y="288" width="96" height="96" stroke="#E5E5E5" stroke-opacity="0.898039" stroke-width="0.979592"/>
<rect x="192" y="288" width="96" height="96" stroke="#E5E5E5" stroke-opacity="0.898039" stroke-width="0.979592"/>
<rect x="288" y="288" width="96" height="96" stroke="#E5E5E5" stroke-opacity="0.898039" stroke-width="0.979592"/>
<rect x="384" y="288" width="96" height="96" stroke="#E5E5E5" stroke-opacity="0.898039" stroke-width="0.979592"/>
<rect x="480" y="288" width="96" height="96" stroke="#E5E5E5" stroke-opacity="0.898039" stroke-width="0.979592"/>
<rect x="576" y="288" width="96" height="96" stroke="#E5E5E5" stroke-opacity="0.898039" stroke-width="0.979592"/>
<rect x="672" y="288" width="96" height="96" stroke="#E5E5E5" stroke-opacity="0.898039" stroke-width="0.979592"/>
<rect x="768" y="288" width="96" height="96" stroke="#E5E5E5" stroke-opacity="0.898039" stroke-width="0.979592"/>
<rect x="864" y="288" width="96" height="96" stroke="#E5E5E5" stroke-opacity="0.898039" stroke-width="0.979592"/>
<rect x="960" y="288" width="96" height="96" stroke="#E5E5E5" stroke-opacity="0.898039" stroke-width="0.979592"/>
<rect x="1056" y="288" width="96" height="96" stroke="#E5E5E5" stroke-opacity="0.898039" stroke-width="0.979592"/>
<rect x="1152" y="288" width="96" height="96" stroke="#E5E5E5" stroke-opacity="0.898039" stroke-width="0.979592"/>
<rect x="1248" y="288" width="96" height="96" stroke="#E5E5E5" stroke-opacity="0.898039" stroke-width="0.979592"/>
<rect x="1344" y="288" width="96" height="96" stroke="#E5E5E5" stroke-opacity="0.898039" stroke-width="0.979592"/>
<rect y="384" width="96" height="96" stroke="#E5E5E5" stroke-opacity="0.898039" stroke-width="0.979592"/>
<rect x="96" y="384" width="96" height="96" stroke="#E5E5E5" stroke-opacity="0.898039" stroke-width="0.979592"/>
<rect x="192" y="384" width="96" height="96" stroke="#E5E5E5" stroke-opacity="0.898039" stroke-width="0.979592"/>
<rect x="288" y="384" width="96" height="96" stroke="#E5E5E5" stroke-opacity="0.898039" stroke-width="0.979592"/>
<rect x="384" y="384" width="96" height="96" stroke="#E5E5E5" stroke-opacity="0.898039" stroke-width="0.979592"/>
<rect x="480" y="384" width="96" height="96" stroke="#E5E5E5" stroke-opacity="0.898039" stroke-width="0.979592"/>
<rect x="576" y="384" width="96" height="96" stroke="#E5E5E5" stroke-opacity="0.898039" stroke-width="0.979592"/>
<rect x="672" y="384" width="96" height="96" stroke="#E5E5E5" stroke-opacity="0.898039" stroke-width="0.979592"/>
<rect x="768" y="384" width="96" height="96" stroke="#E5E5E5" stroke-opacity="0.898039" stroke-width="0.979592"/>
<rect x="864" y="384" width="96" height="96" stroke="#E5E5E5" stroke-opacity="0.898039" stroke-width="0.979592"/>
<rect x="960" y="384" width="96" height="96" stroke="#E5E5E5" stroke-opacity="0.898039" stroke-width="0.979592"/>
<rect x="1056" y="384" width="96" height="96" stroke="#E5E5E5" stroke-opacity="0.898039" stroke-width="0.979592"/>
<rect x="1152" y="384" width="96" height="96" stroke="#E5E5E5" stroke-opacity="0.898039" stroke-width="0.979592"/>
<rect x="1248" y="384" width="96" height="96" stroke="#E5E5E5" stroke-opacity="0.898039" stroke-width="0.979592"/>
<rect x="1344" y="384" width="96" height="96" stroke="#E5E5E5" stroke-opacity="0.898039" stroke-width="0.979592"/>
<rect y="480" width="96" height="96" stroke="#E5E5E5" stroke-opacity="0.898039" stroke-width="0.979592"/>
<rect x="96" y="480" width="96" height="96" stroke="#E5E5E5" stroke-opacity="0.898039" stroke-width="0.979592"/>
<rect x="192" y="480" width="96" height="96" stroke="#E5E5E5" stroke-opacity="0.898039" stroke-width="0.979592"/>
<rect x="288" y="480" width="96" height="96" stroke="#E5E5E5" stroke-opacity="0.898039" stroke-width="0.979592"/>
<rect x="384" y="480" width="96" height="96" stroke="#E5E5E5" stroke-opacity="0.898039" stroke-width="0.979592"/>
<rect x="480" y="480" width="96" height="96" stroke="#E5E5E5" stroke-opacity="0.898039" stroke-width="0.979592"/>
<rect x="576" y="480" width="96" height="96" stroke="#E5E5E5" stroke-opacity="0.898039" stroke-width="0.979592"/>
<rect x="672" y="480" width="96" height="96" stroke="#E5E5E5" stroke-opacity="0.898039" stroke-width="0.979592"/>
<rect x="768" y="480" width="96" height="96" stroke="#E5E5E5" stroke-opacity="0.898039" stroke-width="0.979592"/>
<rect x="864" y="480" width="96" height="96" stroke="#E5E5E5" stroke-opacity="0.898039" stroke-width="0.979592"/>
<rect x="960" y="480" width="96" height="96" stroke="#E5E5E5" stroke-opacity="0.898039" stroke-width="0.979592"/>
<rect x="1056" y="480" width="96" height="96" stroke="#E5E5E5" stroke-opacity="0.898039" stroke-width="0.979592"/>
<rect x="1152" y="480" width="96" height="96" stroke="#E5E5E5" stroke-opacity="0.898039" stroke-width="0.979592"/>
<rect x="1248" y="480" width="96" height="96" stroke="#E5E5E5" stroke-opacity="0.898039" stroke-width="0.979592"/>
<rect x="1344" y="480" width="96" height="96" stroke="#E5E5E5" stroke-opacity="0.898039" stroke-width="0.979592"/>
</g>
<defs>
<linearGradient id="paint0_linear_180_2264" x1="719.5" y1="0" x2="719.5" y2="534" gradientUnits="userSpaceOnUse">
<stop stop-color="white" stop-opacity="0"/>
<stop offset="0.166667"/>
<stop offset="0.821762"/>
<stop offset="1" stop-color="white" stop-opacity="0"/>
</linearGradient>
</defs>
</svg>
