<svg width="1440" height="1096" viewBox="0 0 1440 1096" fill="none" xmlns="http://www.w3.org/2000/svg">
<mask id="mask0_156_3582" style="mask-type:alpha" maskUnits="userSpaceOnUse" x="-1" y="0" width="1441" height="1095">
<rect x="-1" width="1441" height="1095" fill="url(#paint0_linear_156_3582)"/>
</mask>
<g mask="url(#mask0_156_3582)">
<rect width="96" height="109.6" stroke="#E5E5E5" stroke-opacity="0.898039" stroke-width="0.979592"/>
<rect x="96" width="96" height="109.6" stroke="#E5E5E5" stroke-opacity="0.898039" stroke-width="0.979592"/>
<rect x="192" width="96" height="109.6" stroke="#E5E5E5" stroke-opacity="0.898039" stroke-width="0.979592"/>
<rect x="288" width="96" height="109.6" stroke="#E5E5E5" stroke-opacity="0.898039" stroke-width="0.979592"/>
<rect x="384" width="96" height="109.6" stroke="#E5E5E5" stroke-opacity="0.898039" stroke-width="0.979592"/>
<rect x="480" width="96" height="109.6" stroke="#E5E5E5" stroke-opacity="0.898039" stroke-width="0.979592"/>
<rect x="576" width="96" height="109.6" stroke="#E5E5E5" stroke-opacity="0.898039" stroke-width="0.979592"/>
<rect x="672" width="96" height="109.6" stroke="#E5E5E5" stroke-opacity="0.898039" stroke-width="0.979592"/>
<rect x="768" width="96" height="109.6" stroke="#E5E5E5" stroke-opacity="0.898039" stroke-width="0.979592"/>
<rect x="864" width="96" height="109.6" stroke="#E5E5E5" stroke-opacity="0.898039" stroke-width="0.979592"/>
<rect x="960" width="96" height="109.6" stroke="#E5E5E5" stroke-opacity="0.898039" stroke-width="0.979592"/>
<rect x="1056" width="96" height="109.6" stroke="#E5E5E5" stroke-opacity="0.898039" stroke-width="0.979592"/>
<rect x="1152" width="96" height="109.6" stroke="#E5E5E5" stroke-opacity="0.898039" stroke-width="0.979592"/>
<rect x="1248" width="96" height="109.6" stroke="#E5E5E5" stroke-opacity="0.898039" stroke-width="0.979592"/>
<rect x="1344" width="96" height="109.6" fill="#FAFAFA"/>
<rect y="109.6" width="96" height="109.6" stroke="#E5E5E5" stroke-opacity="0.898039" stroke-width="0.979592"/>
<rect x="96" y="109.6" width="96" height="109.6" stroke="#E5E5E5" stroke-opacity="0.898039" stroke-width="0.979592"/>
<rect x="192" y="109.6" width="96" height="109.6" stroke="#E5E5E5" stroke-opacity="0.898039" stroke-width="0.979592"/>
<rect x="288" y="109.6" width="96" height="109.6" stroke="#E5E5E5" stroke-opacity="0.898039" stroke-width="0.979592"/>
<rect x="384" y="109.6" width="96" height="109.6" stroke="#E5E5E5" stroke-opacity="0.898039" stroke-width="0.979592"/>
<rect x="480" y="109.6" width="96" height="109.6" stroke="#E5E5E5" stroke-opacity="0.898039" stroke-width="0.979592"/>
<rect x="576" y="109.6" width="96" height="109.6" stroke="#E5E5E5" stroke-opacity="0.898039" stroke-width="0.979592"/>
<rect x="672" y="109.6" width="96" height="109.6" stroke="#E5E5E5" stroke-opacity="0.898039" stroke-width="0.979592"/>
<rect x="768" y="109.6" width="96" height="109.6" stroke="#E5E5E5" stroke-opacity="0.898039" stroke-width="0.979592"/>
<rect x="864" y="109.6" width="96" height="109.6" stroke="#E5E5E5" stroke-opacity="0.898039" stroke-width="0.979592"/>
<rect x="960" y="109.6" width="96" height="109.6" stroke="#E5E5E5" stroke-opacity="0.898039" stroke-width="0.979592"/>
<rect x="1056" y="109.6" width="96" height="109.6" stroke="#E5E5E5" stroke-opacity="0.898039" stroke-width="0.979592"/>
<rect x="1152" y="109.6" width="96" height="109.6" stroke="#E5E5E5" stroke-opacity="0.898039" stroke-width="0.979592"/>
<rect x="1248" y="109.6" width="96" height="109.6" stroke="#E5E5E5" stroke-opacity="0.898039" stroke-width="0.979592"/>
<rect x="1344" y="109.6" width="96" height="109.6" stroke="#E5E5E5" stroke-opacity="0.898039" stroke-width="0.979592"/>
<path d="M1343.5 94L1344.35 97.3073C1345.79 102.869 1350.13 107.212 1355.69 108.647L1359 109.5L1355.69 110.353C1350.13 111.788 1345.79 116.131 1344.35 121.693L1343.5 125L1342.65 121.693C1341.21 116.131 1336.87 111.788 1331.31 110.353L1328 109.5L1331.31 108.647C1336.87 107.212 1341.21 102.869 1342.65 97.3073L1343.5 94Z" fill="white"/>
<path d="M1343.88 97.4297C1345.31 102.985 1349.56 107.361 1355.04 108.974L1355.57 109.121L1357.04 109.5L1355.57 109.879C1350.02 111.312 1345.64 115.559 1344.03 121.036L1343.88 121.57L1343.5 123.038L1343.12 121.57C1341.69 116.015 1337.44 111.639 1331.96 110.026L1331.43 109.879L1329.96 109.5L1331.43 109.121C1336.98 107.688 1341.36 103.441 1342.97 97.9639L1343.12 97.4297L1343.5 95.9609L1343.88 97.4297Z" stroke="#E5E5E5" stroke-opacity="0.898" stroke-width="0.98"/>
<rect y="219.2" width="96" height="109.6" stroke="#E5E5E5" stroke-opacity="0.898039" stroke-width="0.979592"/>
<rect x="96" y="219.2" width="96" height="109.6" stroke="#E5E5E5" stroke-opacity="0.898039" stroke-width="0.979592"/>
<rect x="192" y="219.2" width="96" height="109.6" stroke="#E5E5E5" stroke-opacity="0.898039" stroke-width="0.979592"/>
<rect x="288" y="219.2" width="96" height="109.6" stroke="#E5E5E5" stroke-opacity="0.898039" stroke-width="0.979592"/>
<rect x="384" y="219.2" width="96" height="109.6" stroke="#E5E5E5" stroke-opacity="0.898039" stroke-width="0.979592"/>
<rect x="480" y="219.2" width="96" height="109.6" stroke="#E5E5E5" stroke-opacity="0.898039" stroke-width="0.979592"/>
<rect x="576" y="219.2" width="96" height="109.6" stroke="#E5E5E5" stroke-opacity="0.898039" stroke-width="0.979592"/>
<rect x="672" y="219.2" width="96" height="109.6" stroke="#E5E5E5" stroke-opacity="0.898039" stroke-width="0.979592"/>
<rect x="768" y="219.2" width="96" height="109.6" fill="#FAFAFA"/>
<rect x="864" y="219.2" width="96" height="109.6" stroke="#E5E5E5" stroke-opacity="0.898039" stroke-width="0.979592"/>
<rect x="960" y="219.2" width="96" height="109.6" stroke="#E5E5E5" stroke-opacity="0.898039" stroke-width="0.979592"/>
<rect x="1056" y="219.2" width="96" height="109.6" stroke="#E5E5E5" stroke-opacity="0.898039" stroke-width="0.979592"/>
<rect x="1152" y="219.2" width="96" height="109.6" stroke="#E5E5E5" stroke-opacity="0.898039" stroke-width="0.979592"/>
<rect x="1248" y="219.2" width="96" height="109.6" stroke="#E5E5E5" stroke-opacity="0.898039" stroke-width="0.979592"/>
<rect x="1344" y="219.2" width="96" height="109.6" stroke="#E5E5E5" stroke-opacity="0.898039" stroke-width="0.979592"/>
<rect y="328.8" width="96" height="109.6" stroke="#E5E5E5" stroke-opacity="0.898039" stroke-width="0.979592"/>
<rect x="96" y="328.8" width="96" height="109.6" stroke="#E5E5E5" stroke-opacity="0.898039" stroke-width="0.979592"/>
<rect x="192" y="328.8" width="96" height="109.6" stroke="#E5E5E5" stroke-opacity="0.898039" stroke-width="0.979592"/>
<rect x="288" y="328.8" width="96" height="109.6" stroke="#E5E5E5" stroke-opacity="0.898039" stroke-width="0.979592"/>
<rect x="384" y="328.8" width="96" height="109.6" stroke="#E5E5E5" stroke-opacity="0.898039" stroke-width="0.979592"/>
<rect x="480" y="328.8" width="96" height="109.6" stroke="#E5E5E5" stroke-opacity="0.898039" stroke-width="0.979592"/>
<rect x="576" y="328.8" width="96" height="109.6" stroke="#E5E5E5" stroke-opacity="0.898039" stroke-width="0.979592"/>
<rect x="672" y="328.8" width="96" height="109.6" stroke="#E5E5E5" stroke-opacity="0.898039" stroke-width="0.979592"/>
<rect x="768" y="328.8" width="96" height="109.6" stroke="#E5E5E5" stroke-opacity="0.898039" stroke-width="0.979592"/>
<rect x="864" y="328.8" width="96" height="109.6" stroke="#E5E5E5" stroke-opacity="0.898039" stroke-width="0.979592"/>
<rect x="960" y="328.8" width="96" height="109.6" stroke="#E5E5E5" stroke-opacity="0.898039" stroke-width="0.979592"/>
<rect x="1056" y="328.8" width="96" height="109.6" stroke="#E5E5E5" stroke-opacity="0.898039" stroke-width="0.979592"/>
<rect x="1152" y="328.8" width="96" height="109.6" stroke="#E5E5E5" stroke-opacity="0.898039" stroke-width="0.979592"/>
<rect x="1248" y="328.8" width="96" height="109.6" stroke="#E5E5E5" stroke-opacity="0.898039" stroke-width="0.979592"/>
<rect x="1344" y="328.8" width="96" height="109.6" stroke="#E5E5E5" stroke-opacity="0.898039" stroke-width="0.979592"/>
<rect y="438.4" width="96" height="109.6" fill="#FAFAFA"/>
<rect x="96" y="438.4" width="96" height="109.6" stroke="#E5E5E5" stroke-opacity="0.898039" stroke-width="0.979592"/>
<rect x="192" y="438.4" width="96" height="109.6" stroke="#E5E5E5" stroke-opacity="0.898039" stroke-width="0.979592"/>
<rect x="288" y="438.4" width="96" height="109.6" stroke="#E5E5E5" stroke-opacity="0.898039" stroke-width="0.979592"/>
<rect x="384" y="438.4" width="96" height="109.6" stroke="#E5E5E5" stroke-opacity="0.898039" stroke-width="0.979592"/>
<rect x="480" y="438.4" width="96" height="109.6" stroke="#E5E5E5" stroke-opacity="0.898039" stroke-width="0.979592"/>
<rect x="576" y="438.4" width="96" height="109.6" stroke="#E5E5E5" stroke-opacity="0.898039" stroke-width="0.979592"/>
<rect x="672" y="438.4" width="96" height="109.6" stroke="#E5E5E5" stroke-opacity="0.898039" stroke-width="0.979592"/>
<rect x="768" y="438.4" width="96" height="109.6" stroke="#E5E5E5" stroke-opacity="0.898039" stroke-width="0.979592"/>
<rect x="864" y="438.4" width="96" height="109.6" stroke="#E5E5E5" stroke-opacity="0.898039" stroke-width="0.979592"/>
<rect x="960" y="438.4" width="96" height="109.6" stroke="#E5E5E5" stroke-opacity="0.898039" stroke-width="0.979592"/>
<rect x="1056" y="438.4" width="96" height="109.6" stroke="#E5E5E5" stroke-opacity="0.898039" stroke-width="0.979592"/>
<rect x="1152" y="438.4" width="96" height="109.6" stroke="#E5E5E5" stroke-opacity="0.898039" stroke-width="0.979592"/>
<rect x="1248" y="438.4" width="96" height="109.6" stroke="#E5E5E5" stroke-opacity="0.898039" stroke-width="0.979592"/>
<rect x="1344" y="438.4" width="96" height="109.6" stroke="#E5E5E5" stroke-opacity="0.898039" stroke-width="0.979592"/>
<rect y="548" width="96" height="109.6" stroke="#E5E5E5" stroke-opacity="0.898039" stroke-width="0.979592"/>
<rect x="96" y="548" width="96" height="109.6" stroke="#E5E5E5" stroke-opacity="0.898039" stroke-width="0.979592"/>
<rect x="192" y="548" width="96" height="109.6" stroke="#E5E5E5" stroke-opacity="0.898039" stroke-width="0.979592"/>
<rect x="288" y="548" width="96" height="109.6" stroke="#E5E5E5" stroke-opacity="0.898039" stroke-width="0.979592"/>
<rect x="384" y="548" width="96" height="109.6" stroke="#E5E5E5" stroke-opacity="0.898039" stroke-width="0.979592"/>
<rect x="480" y="548" width="96" height="109.6" stroke="#E5E5E5" stroke-opacity="0.898039" stroke-width="0.979592"/>
<rect x="576" y="548" width="96" height="109.6" stroke="#E5E5E5" stroke-opacity="0.898039" stroke-width="0.979592"/>
<rect x="672" y="548" width="96" height="109.6" stroke="#E5E5E5" stroke-opacity="0.898039" stroke-width="0.979592"/>
<rect x="768" y="548" width="96" height="109.6" stroke="#E5E5E5" stroke-opacity="0.898039" stroke-width="0.979592"/>
<rect x="864" y="548" width="96" height="109.6" stroke="#E5E5E5" stroke-opacity="0.898039" stroke-width="0.979592"/>
<rect x="960" y="548" width="96" height="109.6" stroke="#E5E5E5" stroke-opacity="0.898039" stroke-width="0.979592"/>
<rect x="1056" y="548" width="96" height="109.6" stroke="#E5E5E5" stroke-opacity="0.898039" stroke-width="0.979592"/>
<rect x="1152" y="548" width="96" height="109.6" stroke="#E5E5E5" stroke-opacity="0.898039" stroke-width="0.979592"/>
<rect x="1248" y="548" width="96" height="109.6" stroke="#E5E5E5" stroke-opacity="0.898039" stroke-width="0.979592"/>
<rect x="1344" y="548" width="96" height="109.6" stroke="#E5E5E5" stroke-opacity="0.898039" stroke-width="0.979592"/>
<rect y="657.6" width="96" height="109.6" stroke="#E5E5E5" stroke-opacity="0.898039" stroke-width="0.979592"/>
<rect x="96" y="657.6" width="96" height="109.6" stroke="#E5E5E5" stroke-opacity="0.898039" stroke-width="0.979592"/>
<rect x="192" y="657.6" width="96" height="109.6" stroke="#E5E5E5" stroke-opacity="0.898039" stroke-width="0.979592"/>
<rect x="288" y="657.6" width="96" height="109.6" stroke="#E5E5E5" stroke-opacity="0.898039" stroke-width="0.979592"/>
<rect x="384" y="657.6" width="96" height="109.6" stroke="#E5E5E5" stroke-opacity="0.898039" stroke-width="0.979592"/>
<rect x="480" y="657.6" width="96" height="109.6" fill="#FAFAFA"/>
<rect x="576" y="657.6" width="96" height="109.6" stroke="#E5E5E5" stroke-opacity="0.898039" stroke-width="0.979592"/>
<rect x="672" y="657.6" width="96" height="109.6" stroke="#E5E5E5" stroke-opacity="0.898039" stroke-width="0.979592"/>
<rect x="768" y="657.6" width="96" height="109.6" stroke="#E5E5E5" stroke-opacity="0.898039" stroke-width="0.979592"/>
<rect x="864" y="657.6" width="96" height="109.6" stroke="#E5E5E5" stroke-opacity="0.898039" stroke-width="0.979592"/>
<rect x="960" y="657.6" width="96" height="109.6" stroke="#E5E5E5" stroke-opacity="0.898039" stroke-width="0.979592"/>
<rect x="1056" y="657.6" width="96" height="109.6" stroke="#E5E5E5" stroke-opacity="0.898039" stroke-width="0.979592"/>
<rect x="1152" y="657.6" width="96" height="109.6" stroke="#E5E5E5" stroke-opacity="0.898039" stroke-width="0.979592"/>
<rect x="1248" y="657.6" width="96" height="109.6" fill="#FAFAFA"/>
<rect x="1344" y="657.6" width="96" height="109.6" stroke="#E5E5E5" stroke-opacity="0.898039" stroke-width="0.979592"/>
<rect y="767.2" width="96" height="109.6" stroke="#E5E5E5" stroke-opacity="0.898039" stroke-width="0.979592"/>
<rect x="96" y="767.2" width="96" height="109.6" stroke="#E5E5E5" stroke-opacity="0.898039" stroke-width="0.979592"/>
<rect x="192" y="767.2" width="96" height="109.6" stroke="#E5E5E5" stroke-opacity="0.898039" stroke-width="0.979592"/>
<rect x="288" y="767.2" width="96" height="109.6" stroke="#E5E5E5" stroke-opacity="0.898039" stroke-width="0.979592"/>
<rect x="384" y="767.2" width="96" height="109.6" stroke="#E5E5E5" stroke-opacity="0.898039" stroke-width="0.979592"/>
<rect x="480" y="767.2" width="96" height="109.6" stroke="#E5E5E5" stroke-opacity="0.898039" stroke-width="0.979592"/>
<rect x="576" y="767.2" width="96" height="109.6" stroke="#E5E5E5" stroke-opacity="0.898039" stroke-width="0.979592"/>
<rect x="672" y="767.2" width="96" height="109.6" stroke="#E5E5E5" stroke-opacity="0.898039" stroke-width="0.979592"/>
<rect x="768" y="767.2" width="96" height="109.6" stroke="#E5E5E5" stroke-opacity="0.898039" stroke-width="0.979592"/>
<rect x="864" y="767.2" width="96" height="109.6" stroke="#E5E5E5" stroke-opacity="0.898039" stroke-width="0.979592"/>
<rect x="960" y="767.2" width="96" height="109.6" stroke="#E5E5E5" stroke-opacity="0.898039" stroke-width="0.979592"/>
<rect x="1056" y="767.2" width="96" height="109.6" stroke="#E5E5E5" stroke-opacity="0.898039" stroke-width="0.979592"/>
<rect x="1152" y="767.2" width="96" height="109.6" stroke="#E5E5E5" stroke-opacity="0.898039" stroke-width="0.979592"/>
<rect x="1248" y="767.2" width="96" height="109.6" stroke="#E5E5E5" stroke-opacity="0.898039" stroke-width="0.979592"/>
<rect x="1344" y="767.2" width="96" height="109.6" stroke="#E5E5E5" stroke-opacity="0.898039" stroke-width="0.979592"/>
<path d="M1152.5 751.2L1153.35 754.507C1154.79 760.069 1159.13 764.412 1164.69 765.847L1168 766.7L1164.69 767.553C1159.13 768.988 1154.79 773.331 1153.35 778.893L1152.5 782.2L1151.65 778.893C1150.21 773.331 1145.87 768.988 1140.31 767.553L1137 766.7L1140.31 765.847C1145.87 764.412 1150.21 760.069 1151.65 754.507L1152.5 751.2Z" fill="white"/>
<path d="M1152.88 754.63C1154.31 760.185 1158.56 764.561 1164.04 766.174L1164.57 766.321L1166.04 766.7L1164.57 767.079C1159.02 768.512 1154.64 772.759 1153.03 778.236L1152.88 778.77L1152.5 780.238L1152.12 778.77C1150.69 773.215 1146.44 768.839 1140.96 767.226L1140.43 767.079L1138.96 766.7L1140.43 766.321C1145.98 764.888 1150.36 760.641 1151.97 755.164L1152.12 754.63L1152.5 753.161L1152.88 754.63Z" stroke="#E5E5E5" stroke-opacity="0.898" stroke-width="0.98"/>
<rect y="876.8" width="96" height="109.6" stroke="#E5E5E5" stroke-opacity="0.898039" stroke-width="0.979592"/>
<rect x="96" y="876.8" width="96" height="109.6" fill="#FAFAFA"/>
<rect x="192" y="876.8" width="96" height="109.6" stroke="#E5E5E5" stroke-opacity="0.898039" stroke-width="0.979592"/>
<rect x="288" y="876.8" width="96" height="109.6" stroke="#E5E5E5" stroke-opacity="0.898039" stroke-width="0.979592"/>
<rect x="384" y="876.8" width="96" height="109.6" stroke="#E5E5E5" stroke-opacity="0.898039" stroke-width="0.979592"/>
<rect x="480" y="876.8" width="96" height="109.6" stroke="#E5E5E5" stroke-opacity="0.898039" stroke-width="0.979592"/>
<rect x="576" y="876.8" width="96" height="109.6" stroke="#E5E5E5" stroke-opacity="0.898039" stroke-width="0.979592"/>
<rect x="672" y="876.8" width="96" height="109.6" stroke="#E5E5E5" stroke-opacity="0.898039" stroke-width="0.979592"/>
<rect x="768" y="876.8" width="96" height="109.6" stroke="#E5E5E5" stroke-opacity="0.898039" stroke-width="0.979592"/>
<rect x="864" y="876.8" width="96" height="109.6" stroke="#E5E5E5" stroke-opacity="0.898039" stroke-width="0.979592"/>
<rect x="960" y="876.8" width="96" height="109.6" stroke="#E5E5E5" stroke-opacity="0.898039" stroke-width="0.979592"/>
<rect x="1056" y="876.8" width="96" height="109.6" stroke="#E5E5E5" stroke-opacity="0.898039" stroke-width="0.979592"/>
<rect x="1152" y="876.8" width="96" height="109.6" stroke="#E5E5E5" stroke-opacity="0.898039" stroke-width="0.979592"/>
<rect x="1248" y="876.8" width="96" height="109.6" stroke="#E5E5E5" stroke-opacity="0.898039" stroke-width="0.979592"/>
<rect x="1344" y="876.8" width="96" height="109.6" stroke="#E5E5E5" stroke-opacity="0.898039" stroke-width="0.979592"/>
<rect y="986.4" width="96" height="109.6" stroke="#E5E5E5" stroke-opacity="0.898039" stroke-width="0.979592"/>
<rect x="96" y="986.4" width="96" height="109.6" stroke="#E5E5E5" stroke-opacity="0.898039" stroke-width="0.979592"/>
<rect x="192" y="986.4" width="96" height="109.6" stroke="#E5E5E5" stroke-opacity="0.898039" stroke-width="0.979592"/>
<rect x="288" y="986.4" width="96" height="109.6" stroke="#E5E5E5" stroke-opacity="0.898039" stroke-width="0.979592"/>
<rect x="384" y="986.4" width="96" height="109.6" stroke="#E5E5E5" stroke-opacity="0.898039" stroke-width="0.979592"/>
<rect x="480" y="986.4" width="96" height="109.6" stroke="#E5E5E5" stroke-opacity="0.898039" stroke-width="0.979592"/>
<rect x="576" y="986.4" width="96" height="109.6" stroke="#E5E5E5" stroke-opacity="0.898039" stroke-width="0.979592"/>
<rect x="672" y="986.4" width="96" height="109.6" stroke="#E5E5E5" stroke-opacity="0.898039" stroke-width="0.979592"/>
<rect x="768" y="986.4" width="96" height="109.6" stroke="#E5E5E5" stroke-opacity="0.898039" stroke-width="0.979592"/>
<rect x="864" y="986.4" width="96" height="109.6" stroke="#E5E5E5" stroke-opacity="0.898039" stroke-width="0.979592"/>
<rect x="960" y="986.4" width="96" height="109.6" stroke="#E5E5E5" stroke-opacity="0.898039" stroke-width="0.979592"/>
<rect x="1056" y="986.4" width="96" height="109.6" stroke="#E5E5E5" stroke-opacity="0.898039" stroke-width="0.979592"/>
<rect x="1152" y="986.4" width="96" height="109.6" stroke="#E5E5E5" stroke-opacity="0.898039" stroke-width="0.979592"/>
<rect x="1248" y="986.4" width="96" height="109.6" stroke="#E5E5E5" stroke-opacity="0.898039" stroke-width="0.979592"/>
<rect x="1344" y="986.4" width="96" height="109.6" fill="#FAFAFA"/>
<path d="M1344.5 971L1345.35 974.307C1346.79 979.869 1351.13 984.212 1356.69 985.647L1360 986.5L1356.69 987.353C1351.13 988.788 1346.79 993.131 1345.35 998.693L1344.5 1002L1343.65 998.693C1342.21 993.131 1337.87 988.788 1332.31 987.353L1329 986.5L1332.31 985.647C1337.87 984.212 1342.21 979.869 1343.65 974.307L1344.5 971Z" fill="white"/>
<path d="M1344.88 974.43C1346.31 979.985 1350.56 984.361 1356.04 985.974L1356.57 986.121L1358.04 986.5L1356.57 986.879C1351.02 988.312 1346.64 992.559 1345.03 998.036L1344.88 998.57L1344.5 1000.04L1344.12 998.57C1342.69 993.015 1338.44 988.639 1332.96 987.026L1332.43 986.879L1330.96 986.5L1332.43 986.121C1337.98 984.688 1342.36 980.441 1343.97 974.964L1344.12 974.43L1344.5 972.961L1344.88 974.43Z" stroke="#E5E5E5" stroke-opacity="0.898" stroke-width="0.98"/>
<path d="M95.5 751L96.3531 754.307C97.7878 759.869 102.131 764.212 107.693 765.647L111 766.5L107.693 767.353C102.131 768.788 97.7878 773.131 96.3531 778.693L95.5 782L94.6469 778.693C93.2122 773.131 88.869 768.788 83.3073 767.353L80 766.5L83.3073 765.647C88.869 764.212 93.2122 759.869 94.6469 754.307L95.5 751Z" fill="white"/>
<path d="M95.8789 754.43C97.3119 759.985 101.559 764.361 107.036 765.974L107.57 766.121L109.038 766.5L107.57 766.879C102.015 768.312 97.6394 772.559 96.0264 778.036L95.8789 778.57L95.5 780.038L95.1211 778.57C93.6881 773.015 89.4412 768.639 83.9639 767.026L83.4297 766.879L81.9609 766.5L83.4297 766.121C88.9848 764.688 93.3606 760.441 94.9736 754.964L95.1211 754.43L95.5 752.961L95.8789 754.43Z" stroke="#E5E5E5" stroke-opacity="0.898" stroke-width="0.98"/>
</g>
<defs>
<linearGradient id="paint0_linear_156_3582" x1="719.5" y1="0" x2="719.5" y2="1095" gradientUnits="userSpaceOnUse">
<stop stop-color="white" stop-opacity="0"/>
<stop offset="0.166667"/>
<stop offset="0.821762"/>
<stop offset="1" stop-color="white" stop-opacity="0"/>
</linearGradient>
</defs>
</svg>
