<svg width="121" height="33" viewBox="0 0 121 33" fill="none" xmlns="http://www.w3.org/2000/svg">
<g opacity="0.67">
<path d="M15.8923 19.6158C15.406 19.6158 14.9518 19.5262 14.5295 19.3471C14.1073 19.1679 13.7362 18.9184 13.4163 18.5985C13.0964 18.2786 12.8469 17.9012 12.6677 17.4661C12.4886 17.0311 12.399 16.5704 12.399 16.0842C12.399 15.598 12.4886 15.1437 12.6677 14.7214C12.8469 14.2992 13.0964 13.9281 13.4163 13.6082C13.7362 13.2883 14.1073 13.0388 14.5295 12.8597C14.9518 12.6805 15.406 12.591 15.8923 12.591C16.8647 12.591 17.6901 12.93 18.3682 13.6082C19.0464 14.2864 19.3855 15.1117 19.3855 16.0842C19.3855 16.5704 19.2959 17.0311 19.1168 17.4661C18.9376 17.9012 18.6881 18.2786 18.3682 18.5985C18.0483 18.9184 17.6773 19.1679 17.255 19.3471C16.8327 19.5262 16.3785 19.6158 15.8923 19.6158ZM21.4968 16.0842C21.4968 15.8539 21.484 15.6171 21.4584 15.374C21.4328 15.1309 21.3944 14.907 21.3432 14.7023H22.9171V22.4181C22.9171 22.6228 22.8531 22.7891 22.7252 22.9171C22.5972 23.045 22.4309 23.109 22.2261 23.109H9.55839C9.35366 23.109 9.18731 23.045 9.05935 22.9171C8.9314 22.7891 8.86742 22.6228 8.86742 22.4181V14.7023H10.4413C10.3901 14.907 10.3517 15.1309 10.3261 15.374C10.3005 15.6171 10.2877 15.8539 10.2877 16.0842C10.2877 16.8519 10.4349 17.5813 10.7292 18.2723C11.0235 18.9632 11.4202 19.5646 11.9192 20.0764C12.4182 20.5883 13.0132 20.9913 13.7042 21.2856C14.3952 21.5799 15.1245 21.7271 15.8923 21.7271C16.66 21.7271 17.3894 21.5799 18.0803 21.2856C18.7713 20.9913 19.3663 20.5883 19.8653 20.0764C20.3644 19.5646 20.761 18.9632 21.0553 18.2723C21.3496 17.5813 21.4968 16.8519 21.4968 16.0842ZM16.0458 0C18.2723 0 20.358 0.422258 22.3029 1.26677C24.2479 2.11129 25.9497 3.2565 27.4084 4.70242C28.8671 6.14833 30.0187 7.84376 30.8632 9.78871C31.7077 11.7337 32.13 13.8193 32.13 16.0458C32.13 18.2723 31.7077 20.358 30.8632 22.3029C30.0187 24.2478 28.8671 25.9497 27.4084 27.4084C25.9497 28.8671 24.2479 30.0187 22.3029 30.8632C20.358 31.7077 18.2723 32.13 16.0458 32.13C13.8194 32.13 11.7337 31.7077 9.78871 30.8632C7.84376 30.0187 6.14833 28.8671 4.70242 27.4084C3.25651 25.9497 2.11129 24.2478 1.26677 22.3029C0.422258 20.358 0 18.2723 0 16.0458C0 13.8193 0.422258 11.7337 1.26677 9.78871C2.11129 7.84376 3.25651 6.14833 4.70242 4.70242C6.14833 3.2565 7.84376 2.11129 9.78871 1.26677C11.7337 0.422258 13.8194 0 16.0458 0ZM25.0284 9.05935C25.0284 8.47075 24.8237 7.97172 24.4142 7.56226C24.0047 7.15279 23.5057 6.94806 22.9171 6.94806H8.86742C8.27882 6.94806 7.77979 7.15279 7.37032 7.56226C6.96086 7.97172 6.75613 8.47075 6.75613 9.05935V23.109C6.75613 23.6976 6.96086 24.1967 7.37032 24.6061C7.77979 25.0156 8.27882 25.2203 8.86742 25.2203H22.9171C23.5057 25.2203 24.0047 25.0156 24.4142 24.6061C24.8237 24.1967 25.0284 23.6976 25.0284 23.109V9.05935ZM22.2261 9.05935C22.4309 9.05935 22.5972 9.12973 22.7252 9.27048C22.8531 9.41123 22.9171 9.58397 22.9171 9.78871V11.9C22.9171 12.1047 22.8531 12.2711 22.7252 12.399C22.5972 12.527 22.4309 12.591 22.2261 12.591H20.1148C19.9101 12.591 19.7374 12.527 19.5966 12.399C19.4559 12.2711 19.3855 12.1047 19.3855 11.9V9.78871C19.3855 9.58397 19.4559 9.41123 19.5966 9.27048C19.7374 9.12973 19.9101 9.05935 20.1148 9.05935H22.2261Z" fill="#171717"/>
</g>
<g opacity="0.67">
<path d="M60.1758 0C62.4023 0 64.488 0.422258 66.4329 1.26677C68.3779 2.11129 70.0797 3.2565 71.5384 4.70242C72.9971 6.14833 74.1487 7.84376 74.9932 9.78871C75.8377 11.7337 76.26 13.8193 76.26 16.0458C76.26 18.2723 75.8377 20.358 74.9932 22.3029C74.1487 24.2478 72.9971 25.9497 71.5384 27.4084C70.0797 28.8671 68.3779 30.0187 66.4329 30.8632C64.488 31.7077 62.4023 32.13 60.1758 32.13C57.9494 32.13 55.8637 31.7077 53.9187 30.8632C51.9738 30.0187 50.2783 28.8671 48.8324 27.4084C47.3865 25.9497 46.2413 24.2478 45.3968 22.3029C44.5523 20.358 44.13 18.2723 44.13 16.0458C44.13 13.8193 44.5523 11.7337 45.3968 9.78871C46.2413 7.84376 47.3865 6.14833 48.8324 4.70242C50.2783 3.2565 51.9738 2.11129 53.9187 1.26677C55.8637 0.422258 57.9494 0 60.1758 0ZM55.1855 12.0535H51.1548V25.1052H55.1855V12.0535ZM53.151 11.0171C53.714 11.0171 54.1938 10.8252 54.5905 10.4413C54.9872 10.0574 55.1855 9.58397 55.1855 9.02096C55.1855 8.45795 54.9872 7.98451 54.5905 7.60064C54.1938 7.21677 53.714 7.02484 53.151 7.02484C52.588 7.02484 52.1145 7.21677 51.7306 7.60064C51.3468 7.98451 51.1548 8.45795 51.1548 9.02096C51.1548 9.58397 51.3468 10.0574 51.7306 10.4413C52.1145 10.8252 52.588 11.0171 53.151 11.0171ZM69.2352 17.5429C69.2352 16.6216 68.9793 15.7195 68.4674 14.8366C67.9556 13.9537 67.2902 13.2819 66.4713 12.8213C65.7291 12.4118 64.8654 12.1943 63.8802 12.1687C62.8949 12.1431 61.9928 12.3095 61.1739 12.6677V12.0535H57.1816V25.1052H61.1739V17.1206L62.8629 16.3145C63.0676 16.2121 63.3427 16.161 63.6882 16.161C64.0337 16.161 64.3088 16.2249 64.5136 16.3529C64.6671 16.4297 64.8207 16.596 64.9742 16.8519C65.1277 17.1078 65.2045 17.3382 65.2045 17.5429V25.1052H69.2352V17.5429Z" fill="#171717"/>
</g>
<g opacity="0.67">
<path d="M104.306 0C106.527 0 108.614 0.421251 110.567 1.26375C112.52 2.10626 114.224 3.25512 115.68 4.71036C117.135 6.16559 118.284 7.86336 119.126 9.80367C119.969 11.744 120.39 13.8247 120.39 16.0458C120.39 18.267 119.969 20.3541 119.126 22.3072C118.284 24.2602 117.135 25.9644 115.68 27.4196C114.224 28.8749 112.52 30.0237 110.567 30.8662C108.614 31.7087 106.527 32.13 104.306 32.13C102.085 32.13 100.004 31.7087 98.0637 30.8662C96.1234 30.0237 94.4256 28.8749 92.9704 27.4196C91.5151 25.9644 90.3663 24.2602 89.5238 22.3072C88.6813 20.3541 88.26 18.267 88.26 16.0458C88.26 13.8247 88.6813 11.744 89.5238 9.80367C90.3663 7.86336 91.5151 6.16559 92.9704 4.71036C94.4256 3.25512 96.1234 2.10626 98.0637 1.26375C100.004 0.421251 102.085 0 104.306 0ZM110.357 7.00809H106.948C106.284 7.00809 105.672 7.12298 105.11 7.35275C104.548 7.58252 104.057 7.88889 103.636 8.27184C103.214 8.6548 102.889 9.08882 102.659 9.57389C102.429 10.059 102.314 10.544 102.314 11.0291V13.0588H99.2891V17.0415H102.314V25.0836H106.336V17.0415H109.323V13.0588H106.336V12.0248C106.336 11.7184 106.457 11.4759 106.699 11.2972C106.942 11.1185 107.153 11.0291 107.331 11.0291H110.357V7.00809Z" fill="#171717"/>
</g>
</svg>
