<svg width="34" height="21" viewBox="0 0 34 21" fill="none" xmlns="http://www.w3.org/2000/svg">
<g clip-path="url(#clip0_139_1828)">
<mask id="mask0_139_1828" style="mask-type:alpha" maskUnits="userSpaceOnUse" x="8" y="1" width="18" height="19">
<rect x="8" y="1.71997" width="18" height="18" fill="#D9D9D9"/>
</mask>
<g mask="url(#mask0_139_1828)">
<path d="M19.8125 11.3949H12.2746C12.0835 11.3949 11.9232 11.3306 11.7939 11.202C11.6646 11.0733 11.6 10.914 11.6 10.7238C11.6 10.5337 11.6646 10.373 11.7939 10.2418C11.9232 10.1105 12.0835 10.0449 12.2746 10.0449H19.8125L16.5085 6.74096C16.3737 6.60608 16.3062 6.44802 16.3062 6.26677C16.3062 6.08552 16.375 5.92315 16.5125 5.77965C16.65 5.64815 16.8094 5.5824 16.9906 5.5824C17.1719 5.5824 17.33 5.65002 17.4652 5.78527L21.9237 10.2495C21.9912 10.3171 22.0406 10.3903 22.0718 10.4692C22.1031 10.5481 22.1187 10.6326 22.1187 10.7229C22.1187 10.813 22.1031 10.8976 22.0718 10.9766C22.0406 11.0555 21.9937 11.1261 21.9312 11.1886L17.4687 15.6511C17.3312 15.7886 17.175 15.8543 17 15.848C16.825 15.8418 16.6687 15.7729 16.5312 15.6414C16.3937 15.4979 16.325 15.3345 16.325 15.1511C16.325 14.9678 16.3937 14.8095 16.5312 14.6761L19.8125 11.3949Z" fill="#6A6AF8"/>
</g>
<rect opacity="0.2" x="-3" y="-1.83569" width="40" height="26" fill="#6A6AF8"/>
</g>
<defs>
<clipPath id="clip0_139_1828">
<rect y="0.719971" width="34" height="20" rx="10" fill="white"/>
</clipPath>
</defs>
</svg>
