<svg width="20" height="21" viewBox="0 0 20 21" fill="none" xmlns="http://www.w3.org/2000/svg">
<g opacity="0.4">
<mask id="mask0_2021_80" style="mask-type:alpha" maskUnits="userSpaceOnUse" x="0" y="0" width="20" height="21">
<rect width="20" height="20" transform="matrix(1 0 0 -1 0 20.5)" fill="#D9D9D9"/>
</mask>
<g mask="url(#mask0_2021_80)">
<path d="M9.70821 10.6667L6.29154 7.25C6.13877 7.09722 5.96168 7.02083 5.76029 7.02083C5.55891 7.02083 5.38182 7.09722 5.22904 7.25C5.07627 7.40278 4.99988 7.57986 4.99988 7.78125C4.99988 7.98264 5.07627 8.15972 5.22904 8.3125L9.18738 12.2708C9.34016 12.4236 9.51377 12.5 9.70821 12.5C9.90266 12.5 10.0763 12.4236 10.229 12.2708L14.1874 8.3125C14.3402 8.15972 14.4165 7.98611 14.4165 7.79167C14.4165 7.59722 14.3402 7.42361 14.1874 7.27083C14.0346 7.11806 13.8575 7.04167 13.6561 7.04167C13.4547 7.04167 13.2777 7.11806 13.1249 7.27083L9.70821 10.6667Z" fill="#1C1B1F"/>
</g>
</g>
</svg>
