<svg width="112" height="37" viewBox="0 0 112 37" fill="none" xmlns="http://www.w3.org/2000/svg">
<ellipse cx="14.5041" cy="18.5" rx="14.5041" ry="14.5041" fill="#4A4ADE"/>
<path fill-rule="evenodd" clip-rule="evenodd" d="M22.7634 30.386C26.5372 27.7672 29.0082 23.4029 29.0082 18.4615C29.0082 13.5202 26.5372 9.15592 22.7634 6.53711C18.9896 9.15592 16.5186 13.5202 16.5186 18.4615C16.5186 23.4029 18.9896 27.7672 22.7634 30.386Z" fill="#6A6AF8"/>
<path d="M31.2396 2.87769C39.8675 2.87769 46.8625 9.87189 46.8627 18.4998C46.8627 27.1277 39.8676 34.1228 31.2396 34.1228C22.6118 34.1227 15.6176 27.1276 15.6176 18.4998C15.6177 9.87197 22.6118 2.87782 31.2396 2.87769Z" stroke="white" stroke-width="2.23637"/>
<path d="M31.2396 5.11108C38.6338 5.11108 44.6282 11.1056 44.6283 18.4998C44.6283 25.894 38.6339 31.8884 31.2396 31.8884C23.8455 31.8883 17.851 25.8939 17.851 18.4998C17.8511 11.1057 23.8456 5.11121 31.2396 5.11108Z" stroke="#6A6AF8" stroke-width="2.23141"/>
<path d="M55.1214 28L55.1468 9.70246H58.6539V20.8843L63.3045 14.2768H67.5739L62.6183 21.1384L67.9043 28H63.4062L58.6539 21.3926V28H55.1214ZM68.6605 28V9.32127H72.1167V28H68.6605ZM81.5425 28.3812C80.1363 28.3812 78.8953 28.0805 77.8194 27.479C76.7521 26.8691 75.9134 26.0347 75.3035 24.9758C74.7021 23.9085 74.4014 22.6886 74.4014 21.3163C74.4014 19.8169 74.6978 18.5124 75.2908 17.4027C75.8838 16.293 76.7012 15.4332 77.7432 14.8232C78.7851 14.2048 79.9838 13.8956 81.3392 13.8956C82.7793 13.8956 84.0033 14.2345 85.0114 14.9122C86.0194 15.5899 86.7649 16.5429 87.2477 17.7712C87.7306 18.9995 87.9 20.4438 87.756 22.1041H84.3379V20.8335C84.3379 19.4357 84.1134 18.4319 83.6645 17.822C83.224 17.2036 82.4997 16.8944 81.4916 16.8944C80.3142 16.8944 79.4459 17.2544 78.8868 17.9745C78.3362 18.686 78.0609 19.7407 78.0609 21.1384C78.0609 22.4176 78.3362 23.4087 78.8868 24.1118C79.4459 24.8064 80.2633 25.1537 81.3392 25.1537C82.0169 25.1537 82.5971 25.0055 83.08 24.709C83.5628 24.4125 83.9313 23.9847 84.1855 23.4256L87.6417 24.4167C87.1249 25.6705 86.3075 26.6446 85.1893 27.3393C84.0796 28.0339 82.864 28.3812 81.5425 28.3812ZM76.9935 22.1041V19.5374H86.0914V22.1041H76.9935ZM91.3681 34.0992L94.011 26.831L94.0619 28.9657L88.0898 14.2768H91.673L95.6883 24.6709H94.8751L98.865 14.2768H102.321L94.5701 34.0992H91.3681ZM101.87 28V24.5438H105.326V28H101.87Z" fill="black"/>
</svg>
