<svg width="1080" height="536" viewBox="0 0 1080 536" fill="none" xmlns="http://www.w3.org/2000/svg">
<g clip-path="url(#clip0_180_1439)">
<rect width="1080" height="536" rx="24" fill="white"/>
<mask id="mask0_180_1439" style="mask-type:alpha" maskUnits="userSpaceOnUse" x="-14" y="-27" width="1108" height="590">
<rect x="-13.8932" y="-27" width="1107.02" height="589.232" fill="url(#paint0_linear_180_1439)"/>
</mask>
<g mask="url(#mask0_180_1439)">
<rect x="-13.125" y="-27" width="73.75" height="73.75" stroke="#E5E5E5" stroke-opacity="0.898039" stroke-width="0.752551"/>
<rect x="60.625" y="-27" width="73.75" height="73.75" stroke="#E5E5E5" stroke-opacity="0.898039" stroke-width="0.752551"/>
<rect x="134.375" y="-27" width="73.75" height="73.75" fill="#FAFAFA" fill-opacity="0.898039"/>
<rect x="208.125" y="-27" width="73.75" height="73.75" stroke="#E5E5E5" stroke-opacity="0.898039" stroke-width="0.752551"/>
<rect x="281.875" y="-27" width="73.75" height="73.75" stroke="#E5E5E5" stroke-opacity="0.898039" stroke-width="0.752551"/>
<rect x="355.625" y="-27" width="73.75" height="73.75" stroke="#E5E5E5" stroke-opacity="0.898039" stroke-width="0.752551"/>
<rect x="429.375" y="-27" width="73.75" height="73.75" stroke="#E5E5E5" stroke-opacity="0.898039" stroke-width="0.752551"/>
<rect x="503.125" y="-27" width="73.75" height="73.75" stroke="#E5E5E5" stroke-opacity="0.898039" stroke-width="0.752551"/>
<rect x="576.875" y="-27" width="73.75" height="73.75" stroke="#E5E5E5" stroke-opacity="0.898039" stroke-width="0.752551"/>
<rect x="650.625" y="-27" width="73.75" height="73.75" stroke="#E5E5E5" stroke-opacity="0.898039" stroke-width="0.752551"/>
<rect x="724.375" y="-27" width="73.75" height="73.75" stroke="#E5E5E5" stroke-opacity="0.898039" stroke-width="0.752551"/>
<rect x="798.125" y="-27" width="73.75" height="73.75" stroke="#E5E5E5" stroke-opacity="0.898039" stroke-width="0.752551"/>
<rect x="871.875" y="-27" width="73.75" height="73.75" stroke="#E5E5E5" stroke-opacity="0.898039" stroke-width="0.752551"/>
<rect x="945.625" y="-27" width="73.75" height="73.75" fill="#FAFAFA" fill-opacity="0.898039"/>
<rect x="1019.38" y="-27" width="73.75" height="73.75" stroke="#E5E5E5" stroke-opacity="0.898039" stroke-width="0.752551"/>
<rect x="-13.125" y="46.75" width="73.75" height="73.75" stroke="#E5E5E5" stroke-opacity="0.898039" stroke-width="0.752551"/>
<rect x="60.625" y="46.75" width="73.75" height="73.75" stroke="#E5E5E5" stroke-opacity="0.898039" stroke-width="0.752551"/>
<rect x="134.375" y="46.75" width="73.75" height="73.75" stroke="#E5E5E5" stroke-opacity="0.898039" stroke-width="0.752551"/>
<rect x="208.125" y="46.75" width="73.75" height="73.75" stroke="#E5E5E5" stroke-opacity="0.898039" stroke-width="0.752551"/>
<rect x="281.875" y="46.75" width="73.75" height="73.75" stroke="#E5E5E5" stroke-opacity="0.898039" stroke-width="0.752551"/>
<rect x="355.625" y="46.75" width="73.75" height="73.75" stroke="#E5E5E5" stroke-opacity="0.898039" stroke-width="0.752551"/>
<rect x="429.375" y="46.75" width="73.75" height="73.75" stroke="#E5E5E5" stroke-opacity="0.898039" stroke-width="0.752551"/>
<rect x="503.125" y="46.75" width="73.75" height="73.75" stroke="#E5E5E5" stroke-opacity="0.898039" stroke-width="0.752551"/>
<rect x="576.875" y="46.75" width="73.75" height="73.75" fill="#FAFAFA" fill-opacity="0.898039"/>
<rect x="650.625" y="46.75" width="73.75" height="73.75" stroke="#E5E5E5" stroke-opacity="0.898039" stroke-width="0.752551"/>
<rect x="724.375" y="46.75" width="73.75" height="73.75" stroke="#E5E5E5" stroke-opacity="0.898039" stroke-width="0.752551"/>
<rect x="798.125" y="46.75" width="73.75" height="73.75" stroke="#E5E5E5" stroke-opacity="0.898039" stroke-width="0.752551"/>
<rect x="871.875" y="46.75" width="73.75" height="73.75" stroke="#E5E5E5" stroke-opacity="0.898039" stroke-width="0.752551"/>
<rect x="945.625" y="46.75" width="73.75" height="73.75" stroke="#E5E5E5" stroke-opacity="0.898039" stroke-width="0.752551"/>
<rect x="1019.38" y="46.75" width="73.75" height="73.75" stroke="#E5E5E5" stroke-opacity="0.898039" stroke-width="0.752551"/>
<path d="M60.7876 37.0931C61.8885 41.3609 65.1518 44.7222 69.3599 45.9613L69.77 46.0746L70.897 46.3656L69.77 46.6566C65.5022 47.7575 62.1399 51.0207 60.9009 55.2289L60.7876 55.639L60.4966 56.766L60.2056 55.639C59.1047 51.3713 55.8423 48.009 51.6343 46.7699L51.2241 46.6566L50.0962 46.3656L51.2241 46.0746C55.4917 44.9737 58.8532 41.7112 60.0923 37.5033L60.2056 37.0931L60.4966 35.9652L60.7876 37.0931Z" fill="white" stroke="#E5E5E5" stroke-width="0.752865"/>
<rect x="-13.125" y="120.5" width="73.75" height="73.75" fill="#FAFAFA"/>
<rect x="60.625" y="120.5" width="73.75" height="73.75" stroke="#E5E5E5" stroke-opacity="0.898039" stroke-width="0.752551"/>
<rect x="134.375" y="120.5" width="73.75" height="73.75" stroke="#E5E5E5" stroke-opacity="0.898039" stroke-width="0.752551"/>
<rect x="208.125" y="120.5" width="73.75" height="73.75" stroke="#E5E5E5" stroke-opacity="0.898039" stroke-width="0.752551"/>
<rect x="281.875" y="120.5" width="73.75" height="73.75" stroke="#E5E5E5" stroke-opacity="0.898039" stroke-width="0.752551"/>
<rect x="355.625" y="120.5" width="73.75" height="73.75" stroke="#E5E5E5" stroke-opacity="0.898039" stroke-width="0.752551"/>
<rect x="429.375" y="120.5" width="73.75" height="73.75" stroke="#E5E5E5" stroke-opacity="0.898039" stroke-width="0.752551"/>
<rect x="503.125" y="120.5" width="73.75" height="73.75" stroke="#E5E5E5" stroke-opacity="0.898039" stroke-width="0.752551"/>
<rect x="576.875" y="120.5" width="73.75" height="73.75" stroke="#E5E5E5" stroke-opacity="0.898039" stroke-width="0.752551"/>
<rect x="650.625" y="120.5" width="73.75" height="73.75" stroke="#E5E5E5" stroke-opacity="0.898039" stroke-width="0.752551"/>
<rect x="724.375" y="120.5" width="73.75" height="73.75" stroke="#E5E5E5" stroke-opacity="0.898039" stroke-width="0.752551"/>
<rect x="798.125" y="120.5" width="73.75" height="73.75" stroke="#E5E5E5" stroke-opacity="0.898039" stroke-width="0.752551"/>
<rect x="871.875" y="120.5" width="73.75" height="73.75" stroke="#E5E5E5" stroke-opacity="0.898039" stroke-width="0.752551"/>
<rect x="945.625" y="120.5" width="73.75" height="73.75" stroke="#E5E5E5" stroke-opacity="0.898039" stroke-width="0.752551"/>
<rect x="1019.38" y="120.5" width="73.75" height="73.75" stroke="#E5E5E5" stroke-opacity="0.898039" stroke-width="0.752551"/>
<rect x="-13.125" y="194.25" width="73.75" height="73.75" stroke="#E5E5E5" stroke-opacity="0.898039" stroke-width="0.752551"/>
<rect x="60.625" y="194.25" width="73.75" height="73.75" stroke="#E5E5E5" stroke-opacity="0.898039" stroke-width="0.752551"/>
<rect x="134.375" y="194.25" width="73.75" height="73.75" stroke="#E5E5E5" stroke-opacity="0.898039" stroke-width="0.752551"/>
<rect x="208.125" y="194.25" width="73.75" height="73.75" stroke="#E5E5E5" stroke-opacity="0.898039" stroke-width="0.752551"/>
<rect x="281.875" y="194.25" width="73.75" height="73.75" stroke="#E5E5E5" stroke-opacity="0.898039" stroke-width="0.752551"/>
<rect x="355.625" y="194.25" width="73.75" height="73.75" stroke="#E5E5E5" stroke-opacity="0.898039" stroke-width="0.752551"/>
<rect x="429.375" y="194.25" width="73.75" height="73.75" stroke="#E5E5E5" stroke-opacity="0.898039" stroke-width="0.752551"/>
<rect x="503.125" y="194.25" width="73.75" height="73.75" stroke="#E5E5E5" stroke-opacity="0.898039" stroke-width="0.752551"/>
<rect x="576.875" y="194.25" width="73.75" height="73.75" stroke="#E5E5E5" stroke-opacity="0.898039" stroke-width="0.752551"/>
<rect x="650.625" y="194.25" width="73.75" height="73.75" stroke="#E5E5E5" stroke-opacity="0.898039" stroke-width="0.752551"/>
<rect x="724.375" y="194.25" width="73.75" height="73.75" stroke="#E5E5E5" stroke-opacity="0.898039" stroke-width="0.752551"/>
<rect x="798.125" y="194.25" width="73.75" height="73.75" stroke="#E5E5E5" stroke-opacity="0.898039" stroke-width="0.752551"/>
<rect x="871.875" y="194.25" width="73.75" height="73.75" stroke="#E5E5E5" stroke-opacity="0.898039" stroke-width="0.752551"/>
<rect x="945.625" y="194.25" width="73.75" height="73.75" stroke="#E5E5E5" stroke-opacity="0.898039" stroke-width="0.752551"/>
<rect x="1019.38" y="194.25" width="73.75" height="73.75" stroke="#E5E5E5" stroke-opacity="0.898039" stroke-width="0.752551"/>
<rect x="-13.125" y="268" width="73.75" height="73.75" stroke="#E5E5E5" stroke-opacity="0.898039" stroke-width="0.752551"/>
<rect x="60.625" y="268" width="73.75" height="73.75" stroke="#E5E5E5" stroke-opacity="0.898039" stroke-width="0.752551"/>
<rect x="134.375" y="268" width="73.75" height="73.75" stroke="#E5E5E5" stroke-opacity="0.898039" stroke-width="0.752551"/>
<rect x="208.125" y="268" width="73.75" height="73.75" stroke="#E5E5E5" stroke-opacity="0.898039" stroke-width="0.752551"/>
<rect x="281.875" y="268" width="73.75" height="73.75" stroke="#E5E5E5" stroke-opacity="0.898039" stroke-width="0.752551"/>
<rect x="355.625" y="268" width="73.75" height="73.75" stroke="#E5E5E5" stroke-opacity="0.898039" stroke-width="0.752551"/>
<rect x="429.375" y="268" width="73.75" height="73.75" stroke="#E5E5E5" stroke-opacity="0.898039" stroke-width="0.752551"/>
<rect x="503.125" y="268" width="73.75" height="73.75" stroke="#E5E5E5" stroke-opacity="0.898039" stroke-width="0.752551"/>
<rect x="576.875" y="268" width="73.75" height="73.75" stroke="#E5E5E5" stroke-opacity="0.898039" stroke-width="0.752551"/>
<rect x="650.625" y="268" width="73.75" height="73.75" stroke="#E5E5E5" stroke-opacity="0.898039" stroke-width="0.752551"/>
<rect x="724.375" y="268" width="73.75" height="73.75" stroke="#E5E5E5" stroke-opacity="0.898039" stroke-width="0.752551"/>
<rect x="798.125" y="268" width="73.75" height="73.75" stroke="#E5E5E5" stroke-opacity="0.898039" stroke-width="0.752551"/>
<rect x="871.875" y="268" width="73.75" height="73.75" stroke="#E5E5E5" stroke-opacity="0.898039" stroke-width="0.752551"/>
<rect x="945.625" y="268" width="73.75" height="73.75" stroke="#E5E5E5" stroke-opacity="0.898039" stroke-width="0.752551"/>
<rect x="1019.38" y="268" width="73.75" height="73.75" stroke="#E5E5E5" stroke-opacity="0.898039" stroke-width="0.752551"/>
<rect x="-13.125" y="341.75" width="73.75" height="73.75" stroke="#E5E5E5" stroke-opacity="0.898039" stroke-width="0.752551"/>
<rect x="60.625" y="341.75" width="73.75" height="73.75" stroke="#E5E5E5" stroke-opacity="0.898039" stroke-width="0.752551"/>
<rect x="134.375" y="341.75" width="73.75" height="73.75" stroke="#E5E5E5" stroke-opacity="0.898039" stroke-width="0.752551"/>
<rect x="208.125" y="341.75" width="73.75" height="73.75" stroke="#E5E5E5" stroke-opacity="0.898039" stroke-width="0.752551"/>
<rect x="281.875" y="341.75" width="73.75" height="73.75" stroke="#E5E5E5" stroke-opacity="0.898039" stroke-width="0.752551"/>
<rect x="355.625" y="341.75" width="73.75" height="73.75" stroke="#E5E5E5" stroke-opacity="0.898039" stroke-width="0.752551"/>
<rect x="429.375" y="341.75" width="73.75" height="73.75" stroke="#E5E5E5" stroke-opacity="0.898039" stroke-width="0.752551"/>
<rect x="503.125" y="341.75" width="73.75" height="73.75" stroke="#E5E5E5" stroke-opacity="0.898039" stroke-width="0.752551"/>
<rect x="576.875" y="341.75" width="73.75" height="73.75" stroke="#E5E5E5" stroke-opacity="0.898039" stroke-width="0.752551"/>
<rect x="650.625" y="341.75" width="73.75" height="73.75" stroke="#E5E5E5" stroke-opacity="0.898039" stroke-width="0.752551"/>
<rect x="724.375" y="341.75" width="73.75" height="73.75" stroke="#E5E5E5" stroke-opacity="0.898039" stroke-width="0.752551"/>
<rect x="798.125" y="341.75" width="73.75" height="73.75" stroke="#E5E5E5" stroke-opacity="0.898039" stroke-width="0.752551"/>
<rect x="871.875" y="341.75" width="73.75" height="73.75" stroke="#E5E5E5" stroke-opacity="0.898039" stroke-width="0.752551"/>
<rect x="945.625" y="341.75" width="73.75" height="73.75" stroke="#E5E5E5" stroke-opacity="0.898039" stroke-width="0.752551"/>
<rect x="1019.38" y="341.75" width="73.75" height="73.75" stroke="#E5E5E5" stroke-opacity="0.898039" stroke-width="0.752551"/>
<rect x="-13.125" y="415.5" width="73.75" height="73.75" stroke="#E5E5E5" stroke-opacity="0.898039" stroke-width="0.752551"/>
<rect x="60.625" y="415.5" width="73.75" height="73.75" fill="#FAFAFA" fill-opacity="0.898039"/>
<rect x="134.375" y="415.5" width="73.75" height="73.75" stroke="#E5E5E5" stroke-opacity="0.898039" stroke-width="0.752551"/>
<rect x="208.125" y="415.5" width="73.75" height="73.75" stroke="#E5E5E5" stroke-opacity="0.898039" stroke-width="0.752551"/>
<rect x="281.875" y="415.5" width="73.75" height="73.75" stroke="#E5E5E5" stroke-opacity="0.898039" stroke-width="0.752551"/>
<rect x="355.625" y="415.5" width="73.75" height="73.75" stroke="#E5E5E5" stroke-opacity="0.898039" stroke-width="0.752551"/>
<rect x="429.375" y="415.5" width="73.75" height="73.75" stroke="#E5E5E5" stroke-opacity="0.898039" stroke-width="0.752551"/>
<rect x="503.125" y="415.5" width="73.75" height="73.75" fill="#FAFAFA" fill-opacity="0.898039"/>
<rect x="576.875" y="415.5" width="73.75" height="73.75" stroke="#E5E5E5" stroke-opacity="0.898039" stroke-width="0.752551"/>
<rect x="650.625" y="415.5" width="73.75" height="73.75" stroke="#E5E5E5" stroke-opacity="0.898039" stroke-width="0.752551"/>
<rect x="724.375" y="415.5" width="73.75" height="73.75" stroke="#E5E5E5" stroke-opacity="0.898039" stroke-width="0.752551"/>
<rect x="798.125" y="415.5" width="73.75" height="73.75" stroke="#E5E5E5" stroke-opacity="0.898039" stroke-width="0.752551"/>
<rect x="871.875" y="415.5" width="73.75" height="73.75" stroke="#E5E5E5" stroke-opacity="0.898039" stroke-width="0.752551"/>
<rect x="945.625" y="415.5" width="73.75" height="73.75" stroke="#E5E5E5" stroke-opacity="0.898039" stroke-width="0.752551"/>
<rect x="1019.38" y="415.5" width="73.75" height="73.75" stroke="#E5E5E5" stroke-opacity="0.898039" stroke-width="0.752551"/>
<rect x="-13.125" y="489.25" width="73.75" height="73.75" stroke="#E5E5E5" stroke-opacity="0.898039" stroke-width="0.752551"/>
<rect x="60.625" y="489.25" width="73.75" height="73.75" stroke="#E5E5E5" stroke-opacity="0.898039" stroke-width="0.752551"/>
<rect x="134.375" y="489.25" width="73.75" height="73.75" stroke="#E5E5E5" stroke-opacity="0.898039" stroke-width="0.752551"/>
<rect x="208.125" y="489.25" width="73.75" height="73.75" stroke="#E5E5E5" stroke-opacity="0.898039" stroke-width="0.752551"/>
<rect x="281.875" y="489.25" width="73.75" height="73.75" fill="#FAFAFA" fill-opacity="0.898039"/>
<rect x="355.625" y="489.25" width="73.75" height="73.75" stroke="#E5E5E5" stroke-opacity="0.898039" stroke-width="0.752551"/>
<rect x="429.375" y="489.25" width="73.75" height="73.75" stroke="#E5E5E5" stroke-opacity="0.898039" stroke-width="0.752551"/>
<rect x="503.125" y="489.25" width="73.75" height="73.75" stroke="#E5E5E5" stroke-opacity="0.898039" stroke-width="0.752551"/>
<rect x="576.875" y="489.25" width="73.75" height="73.75" stroke="#E5E5E5" stroke-opacity="0.898039" stroke-width="0.752551"/>
<rect x="650.625" y="489.25" width="73.75" height="73.75" stroke="#E5E5E5" stroke-opacity="0.898039" stroke-width="0.752551"/>
<rect x="724.375" y="489.25" width="73.75" height="73.75" stroke="#E5E5E5" stroke-opacity="0.898039" stroke-width="0.752551"/>
<rect x="798.125" y="489.25" width="73.75" height="73.75" stroke="#E5E5E5" stroke-opacity="0.898039" stroke-width="0.752551"/>
<rect x="871.875" y="489.25" width="73.75" height="73.75" stroke="#E5E5E5" stroke-opacity="0.898039" stroke-width="0.752551"/>
<rect x="945.625" y="489.25" width="73.75" height="73.75" fill="#FAFAFA" fill-opacity="0.898039"/>
<rect x="1019.38" y="489.25" width="73.75" height="73.75" stroke="#E5E5E5" stroke-opacity="0.898039" stroke-width="0.752551"/>
</g>
<rect x="6" y="532" width="257" height="4" fill="#4A4ADE"/>
<rect x="24" y="464" width="48" height="48" rx="24" fill="#090909"/>
<path d="M59.74 498.327C59.8302 498.424 59.9002 498.538 59.9461 498.662C59.9919 498.786 60.0127 498.918 60.0072 499.051C60.0017 499.183 59.97 499.313 59.9139 499.433C59.8578 499.552 59.7785 499.66 59.6806 499.749C59.5827 499.838 59.4681 499.907 59.3434 499.951C59.2187 499.995 59.0865 500.015 58.9543 500.007C58.8222 500 58.6928 499.967 58.5736 499.91C58.4544 499.852 58.3478 499.771 58.26 499.672L53 493.886V499.961C53.003 500.14 52.9596 500.317 52.874 500.474C52.7883 500.632 52.6633 500.764 52.5112 500.859C52.3384 500.962 52.1386 501.01 51.9379 500.997C51.7373 500.985 51.545 500.912 51.3862 500.789L42.6562 494H37C36.4696 494 35.9609 493.789 35.5858 493.414C35.2107 493.039 35 492.53 35 492V484C35 483.47 35.2107 482.961 35.5858 482.586C35.9609 482.211 36.4696 482 37 482H42.1938L38.26 477.672C38.0854 477.476 37.9954 477.218 38.0095 476.955C38.0236 476.692 38.1408 476.446 38.3355 476.269C38.5303 476.092 38.7869 475.999 39.0498 476.01C39.3127 476.021 39.5607 476.135 39.74 476.327L59.74 498.327ZM57.0662 492C57.3234 491.978 57.5626 491.859 57.7359 491.668C57.9091 491.477 58.0035 491.227 58 490.969V485.034C58.0041 484.775 57.91 484.525 57.7367 484.333C57.5634 484.141 57.3238 484.022 57.0662 484C56.9295 483.991 56.7923 484.01 56.6632 484.056C56.5341 484.102 56.4159 484.175 56.3159 484.268C56.2159 484.362 56.1363 484.476 56.0819 484.601C56.0276 484.727 55.9997 484.863 56 485V491C55.9997 491.137 56.0276 491.273 56.0819 491.399C56.1363 491.524 56.2159 491.638 56.3159 491.732C56.4159 491.825 56.5341 491.898 56.6632 491.944C56.7923 491.99 56.9295 492.009 57.0662 492ZM52.125 486.984C52.1926 487.06 52.282 487.114 52.3812 487.139C52.4804 487.163 52.5847 487.156 52.68 487.12C52.7753 487.083 52.857 487.018 52.9143 486.933C52.9715 486.849 53.0014 486.748 53 486.646V476.03C53.0023 475.879 52.9713 475.729 52.909 475.59C52.8468 475.452 52.755 475.33 52.64 475.231C52.4649 475.086 52.2457 475.005 52.0185 475.002C51.7913 474.998 51.5696 475.072 51.39 475.211L45.9788 479.416C45.9244 479.459 45.8793 479.512 45.8464 479.572C45.8136 479.633 45.7936 479.7 45.7877 479.768C45.7818 479.837 45.7902 479.906 45.8123 479.971C45.8345 480.037 45.8698 480.097 45.9163 480.147L52.125 486.984ZM60.9338 482C60.6762 482.022 60.4366 482.141 60.2633 482.333C60.09 482.525 59.9959 482.775 60 483.034V492.966C59.9965 493.224 60.0909 493.474 60.2641 493.665C60.4374 493.857 60.6766 493.975 60.9338 493.997C61.0705 494.007 61.2077 493.987 61.3368 493.941C61.4659 493.895 61.5841 493.823 61.6841 493.729C61.7841 493.635 61.8637 493.522 61.9181 493.396C61.9724 493.27 62.0003 493.135 62 492.997V483C62.0003 482.863 61.9724 482.727 61.9181 482.601C61.8637 482.476 61.7841 482.362 61.6841 482.268C61.5841 482.175 61.4659 482.102 61.3368 482.056C61.2077 482.01 61.0705 481.991 60.9338 482Z" fill="white"/>
<path d="M484.899 189V174.6H487.309V189H484.899ZM496.774 189V183.8C496.774 183.46 496.751 183.083 496.704 182.67C496.658 182.257 496.548 181.86 496.374 181.48C496.208 181.093 495.954 180.777 495.614 180.53C495.281 180.283 494.828 180.16 494.254 180.16C493.948 180.16 493.644 180.21 493.344 180.31C493.044 180.41 492.771 180.583 492.524 180.83C492.284 181.07 492.091 181.403 491.944 181.83C491.798 182.25 491.724 182.79 491.724 183.45L490.294 182.84C490.294 181.92 490.471 181.087 490.824 180.34C491.184 179.593 491.711 179 492.404 178.56C493.098 178.113 493.951 177.89 494.964 177.89C495.764 177.89 496.424 178.023 496.944 178.29C497.464 178.557 497.878 178.897 498.184 179.31C498.491 179.723 498.718 180.163 498.864 180.63C499.011 181.097 499.104 181.54 499.144 181.96C499.191 182.373 499.214 182.71 499.214 182.97V189H496.774ZM489.284 189V178.2H491.434V181.55H491.724V189H489.284ZM507.154 189C506.44 189.133 505.74 189.19 505.054 189.17C504.374 189.157 503.764 189.033 503.224 188.8C502.684 188.56 502.274 188.183 501.994 187.67C501.747 187.203 501.617 186.727 501.604 186.24C501.59 185.753 501.584 185.203 501.584 184.59V175.2H503.984V184.45C503.984 184.883 503.987 185.263 503.994 185.59C504.007 185.917 504.077 186.183 504.204 186.39C504.444 186.79 504.827 187.013 505.354 187.06C505.88 187.107 506.48 187.08 507.154 186.98V189ZM499.624 180.09V178.2H507.154V180.09H499.624ZM508.476 189V178.2H510.606V180.83L510.346 180.49C510.48 180.13 510.656 179.803 510.876 179.51C511.103 179.21 511.373 178.963 511.686 178.77C511.953 178.59 512.246 178.45 512.566 178.35C512.893 178.243 513.226 178.18 513.566 178.16C513.906 178.133 514.236 178.147 514.556 178.2V180.45C514.236 180.357 513.866 180.327 513.446 180.36C513.033 180.393 512.66 180.51 512.326 180.71C511.993 180.89 511.72 181.12 511.506 181.4C511.3 181.68 511.146 182 511.046 182.36C510.946 182.713 510.896 183.097 510.896 183.51V189H508.476ZM520.039 189.3C518.959 189.3 518.016 189.057 517.209 188.57C516.402 188.083 515.776 187.413 515.329 186.56C514.889 185.7 514.669 184.713 514.669 183.6C514.669 182.467 514.896 181.473 515.349 180.62C515.802 179.767 516.432 179.1 517.239 178.62C518.046 178.14 518.979 177.9 520.039 177.9C521.126 177.9 522.072 178.143 522.879 178.63C523.686 179.117 524.312 179.79 524.759 180.65C525.206 181.503 525.429 182.487 525.429 183.6C525.429 184.72 525.202 185.71 524.749 186.57C524.302 187.423 523.676 188.093 522.869 188.58C522.062 189.06 521.119 189.3 520.039 189.3ZM520.039 187.04C520.999 187.04 521.712 186.72 522.179 186.08C522.646 185.44 522.879 184.613 522.879 183.6C522.879 182.553 522.642 181.72 522.169 181.1C521.696 180.473 520.986 180.16 520.039 180.16C519.392 180.16 518.859 180.307 518.439 180.6C518.026 180.887 517.719 181.29 517.519 181.81C517.319 182.323 517.219 182.92 517.219 183.6C517.219 184.647 517.456 185.483 517.929 186.11C518.409 186.73 519.112 187.04 520.039 187.04ZM530.962 189.3C529.969 189.3 529.102 189.05 528.362 188.55C527.622 188.05 527.049 187.37 526.642 186.51C526.236 185.65 526.032 184.68 526.032 183.6C526.032 182.507 526.236 181.533 526.642 180.68C527.056 179.82 527.639 179.143 528.392 178.65C529.146 178.15 530.032 177.9 531.052 177.9C532.079 177.9 532.939 178.15 533.632 178.65C534.332 179.143 534.862 179.82 535.222 180.68C535.582 181.54 535.762 182.513 535.762 183.6C535.762 184.673 535.582 185.643 535.222 186.51C534.862 187.37 534.326 188.05 533.612 188.55C532.899 189.05 532.016 189.3 530.962 189.3ZM531.332 187.14C531.979 187.14 532.499 186.993 532.892 186.7C533.292 186.4 533.582 185.983 533.762 185.45C533.949 184.917 534.042 184.3 534.042 183.6C534.042 182.893 533.949 182.277 533.762 181.75C533.582 181.217 533.299 180.803 532.912 180.51C532.526 180.21 532.026 180.06 531.412 180.06C530.766 180.06 530.232 180.22 529.812 180.54C529.392 180.853 529.082 181.28 528.882 181.82C528.682 182.353 528.582 182.947 528.582 183.6C528.582 184.26 528.679 184.86 528.872 185.4C529.072 185.933 529.376 186.357 529.782 186.67C530.189 186.983 530.706 187.14 531.332 187.14ZM534.042 189V181.42H533.742V174.6H536.172V189H534.042ZM542.026 189.31C541.226 189.31 540.566 189.177 540.046 188.91C539.526 188.643 539.113 188.303 538.806 187.89C538.5 187.477 538.273 187.037 538.126 186.57C537.98 186.103 537.883 185.663 537.836 185.25C537.796 184.83 537.776 184.49 537.776 184.23V178.2H540.216V183.4C540.216 183.733 540.24 184.11 540.286 184.53C540.333 184.943 540.44 185.343 540.606 185.73C540.78 186.11 541.033 186.423 541.366 186.67C541.706 186.917 542.163 187.04 542.736 187.04C543.043 187.04 543.346 186.99 543.646 186.89C543.946 186.79 544.216 186.62 544.456 186.38C544.703 186.133 544.9 185.797 545.046 185.37C545.193 184.943 545.266 184.403 545.266 183.75L546.696 184.36C546.696 185.28 546.516 186.113 546.156 186.86C545.803 187.607 545.28 188.203 544.586 188.65C543.893 189.09 543.04 189.31 542.026 189.31ZM545.556 189V185.65H545.266V178.2H547.686V189H545.556ZM554.186 189.3C553.072 189.3 552.122 189.053 551.336 188.56C550.549 188.06 549.946 187.38 549.526 186.52C549.112 185.66 548.902 184.687 548.896 183.6C548.902 182.493 549.119 181.513 549.546 180.66C549.979 179.8 550.592 179.127 551.386 178.64C552.179 178.147 553.122 177.9 554.216 177.9C555.442 177.9 556.479 178.21 557.326 178.83C558.179 179.443 558.736 180.283 558.996 181.35L556.596 182C556.409 181.42 556.099 180.97 555.666 180.65C555.232 180.323 554.739 180.16 554.186 180.16C553.559 180.16 553.042 180.31 552.636 180.61C552.229 180.903 551.929 181.31 551.736 181.83C551.542 182.35 551.446 182.94 551.446 183.6C551.446 184.627 551.676 185.457 552.136 186.09C552.596 186.723 553.279 187.04 554.186 187.04C554.826 187.04 555.329 186.893 555.696 186.6C556.069 186.307 556.349 185.883 556.536 185.33L558.996 185.88C558.662 186.98 558.079 187.827 557.246 188.42C556.412 189.007 555.392 189.3 554.186 189.3ZM566.33 189C565.616 189.133 564.916 189.19 564.23 189.17C563.55 189.157 562.94 189.033 562.4 188.8C561.86 188.56 561.45 188.183 561.17 187.67C560.923 187.203 560.793 186.727 560.78 186.24C560.766 185.753 560.76 185.203 560.76 184.59V175.2H563.16V184.45C563.16 184.883 563.163 185.263 563.17 185.59C563.183 185.917 563.253 186.183 563.38 186.39C563.62 186.79 564.003 187.013 564.53 187.06C565.056 187.107 565.656 187.08 566.33 186.98V189ZM558.8 180.09V178.2H566.33V180.09H558.8ZM567.852 176.56V174.35H570.262V176.56H567.852ZM567.852 189V178.2H570.262V189H567.852ZM579.727 189V183.8C579.727 183.46 579.704 183.083 579.657 182.67C579.611 182.257 579.501 181.86 579.327 181.48C579.161 181.093 578.907 180.777 578.567 180.53C578.234 180.283 577.781 180.16 577.207 180.16C576.901 180.16 576.597 180.21 576.297 180.31C575.997 180.41 575.724 180.583 575.477 180.83C575.237 181.07 575.044 181.403 574.897 181.83C574.751 182.25 574.677 182.79 574.677 183.45L573.247 182.84C573.247 181.92 573.424 181.087 573.777 180.34C574.137 179.593 574.664 179 575.357 178.56C576.051 178.113 576.904 177.89 577.917 177.89C578.717 177.89 579.377 178.023 579.897 178.29C580.417 178.557 580.831 178.897 581.137 179.31C581.444 179.723 581.671 180.163 581.817 180.63C581.964 181.097 582.057 181.54 582.097 181.96C582.144 182.373 582.167 182.71 582.167 182.97V189H579.727ZM572.237 189V178.2H574.387V181.55H574.677V189H572.237ZM588.317 194.1C587.717 194.1 587.14 194.007 586.587 193.82C586.04 193.633 585.547 193.363 585.107 193.01C584.667 192.663 584.307 192.243 584.027 191.75L586.247 190.65C586.454 191.043 586.744 191.333 587.117 191.52C587.497 191.713 587.9 191.81 588.327 191.81C588.827 191.81 589.274 191.72 589.667 191.54C590.06 191.367 590.364 191.107 590.577 190.76C590.797 190.42 590.9 189.993 590.887 189.48V186.41H591.187V178.2H593.297V189.52C593.297 189.793 593.284 190.053 593.257 190.3C593.237 190.553 593.2 190.8 593.147 191.04C592.987 191.74 592.68 192.313 592.227 192.76C591.774 193.213 591.21 193.55 590.537 193.77C589.87 193.99 589.13 194.1 588.317 194.1ZM588.107 189.3C587.114 189.3 586.247 189.05 585.507 188.55C584.767 188.05 584.194 187.37 583.787 186.51C583.38 185.65 583.177 184.68 583.177 183.6C583.177 182.507 583.38 181.533 583.787 180.68C584.2 179.82 584.784 179.143 585.537 178.65C586.29 178.15 587.177 177.9 588.197 177.9C589.224 177.9 590.084 178.15 590.777 178.65C591.477 179.143 592.007 179.82 592.367 180.68C592.727 181.54 592.907 182.513 592.907 183.6C592.907 184.673 592.727 185.643 592.367 186.51C592.007 187.37 591.47 188.05 590.757 188.55C590.044 189.05 589.16 189.3 588.107 189.3ZM588.477 187.14C589.124 187.14 589.644 186.993 590.037 186.7C590.437 186.4 590.727 185.983 590.907 185.45C591.094 184.917 591.187 184.3 591.187 183.6C591.187 182.893 591.094 182.277 590.907 181.75C590.727 181.217 590.444 180.803 590.057 180.51C589.67 180.21 589.17 180.06 588.557 180.06C587.91 180.06 587.377 180.22 586.957 180.54C586.537 180.853 586.227 181.28 586.027 181.82C585.827 182.353 585.727 182.947 585.727 183.6C585.727 184.26 585.824 184.86 586.017 185.4C586.217 185.933 586.52 186.357 586.927 186.67C587.334 186.983 587.85 187.14 588.477 187.14Z" fill="black"/>
<ellipse cx="419.958" cy="268.425" rx="41.9584" ry="41.9584" fill="#4A4ADE"/>
<path fill-rule="evenodd" clip-rule="evenodd" d="M443.851 302.81C454.768 295.234 461.917 282.609 461.917 268.314C461.917 254.02 454.768 241.395 443.851 233.819C432.934 241.395 425.786 254.02 425.786 268.314C425.786 282.609 432.934 295.234 443.851 302.81Z" fill="#6A6AF8"/>
<path d="M468.372 223.232C493.332 223.232 513.566 243.465 513.566 268.425C513.566 293.384 493.332 313.618 468.372 313.618C443.413 313.618 423.18 293.384 423.18 268.425C423.18 243.466 443.413 223.233 468.372 223.232Z" stroke="white" stroke-width="6.46949"/>
<path d="M468.372 229.694C489.763 229.694 507.104 247.035 507.104 268.425C507.104 289.815 489.763 307.156 468.372 307.156C446.982 307.156 429.642 289.815 429.642 268.425C429.642 247.035 446.982 229.695 468.372 229.694Z" stroke="#6A6AF8" stroke-width="6.45514"/>
<path d="M537.458 296.426L537.532 243.493H547.677V275.841L561.131 256.726H573.482L559.146 276.576L574.437 296.426H561.425L547.677 277.311V296.426H537.458ZM576.625 296.426V242.391H586.623V296.426H576.625ZM613.891 297.528C609.823 297.528 606.233 296.658 603.12 294.918C600.033 293.154 597.607 290.74 595.842 287.677C594.102 284.589 593.232 281.061 593.232 277.091C593.232 272.753 594.09 268.979 595.805 265.769C597.521 262.559 599.886 260.071 602.9 258.307C605.914 256.518 609.382 255.624 613.302 255.624C617.468 255.624 621.009 256.604 623.926 258.564C626.842 260.525 628.998 263.282 630.395 266.835C631.792 270.388 632.282 274.567 631.865 279.37H621.977V275.694C621.977 271.65 621.328 268.746 620.029 266.982C618.755 265.193 616.66 264.299 613.744 264.299C610.337 264.299 607.825 265.34 606.208 267.423C604.615 269.482 603.819 272.533 603.819 276.576C603.819 280.276 604.615 283.143 606.208 285.177C607.825 287.187 610.19 288.192 613.302 288.192C615.263 288.192 616.942 287.763 618.338 286.905C619.735 286.047 620.801 284.81 621.536 283.192L631.535 286.06C630.04 289.686 627.675 292.505 624.44 294.514C621.23 296.524 617.713 297.528 613.891 297.528ZM600.731 279.37V271.944H627.05V279.37H600.731ZM642.315 314.07L649.96 293.044L650.107 299.219L632.831 256.726H643.197L654.812 286.795H652.46L664.002 256.726H674L651.578 314.07H642.315ZM672.694 296.426V286.427H682.693V296.426H672.694Z" fill="black"/>
</g>
<rect x="0.5" y="0.5" width="1079" height="535" rx="23.5" stroke="#E5E5E5" stroke-opacity="0.933333"/>
<defs>
<linearGradient id="paint0_linear_180_1439" x1="539.616" y1="-27" x2="539.616" y2="562.232" gradientUnits="userSpaceOnUse">
<stop stop-color="white" stop-opacity="0"/>
<stop offset="0.166667"/>
<stop offset="0.821762"/>
<stop offset="1" stop-color="white" stop-opacity="0"/>
</linearGradient>
<clipPath id="clip0_180_1439">
<rect width="1080" height="536" rx="24" fill="white"/>
</clipPath>
</defs>
</svg>
