<svg width="52" height="52" viewBox="0 0 52 52" fill="none" xmlns="http://www.w3.org/2000/svg">
<rect width="52" height="52" rx="9.33333" fill="white"/>
<rect x="0.583333" y="0.583333" width="50.8333" height="50.8333" rx="8.75" stroke="#E5E5E5" stroke-opacity="0.933333" stroke-width="1.16667"/>
<rect width="32" height="32" transform="translate(10 10)" fill="white"/>
<path opacity="0.2" d="M26 38C29.1826 38 32.2348 36.7357 34.4853 34.4853C36.7357 32.2348 38 29.1826 38 26C38 22.8174 36.7357 19.7652 34.4853 17.5147C32.2348 15.2643 29.1826 14 26 14V21C27.3261 21 28.5979 21.5268 29.5355 22.4645C30.4732 23.4021 31 24.6739 31 26C31 27.3261 30.4732 28.5979 29.5355 29.5355C28.5979 30.4732 27.3261 31 26 31V38Z" fill="#4A4ADE"/>
<path d="M26 31V38" stroke="#4A4ADE" stroke-width="2" stroke-linecap="round" stroke-linejoin="round"/>
<path d="M15.6062 20C14.2855 22.2876 13.7564 24.9472 14.1012 27.5661C14.4459 30.1851 15.6452 32.6171 17.513 34.485C19.3808 36.3529 21.8128 37.5524 24.4317 37.8973C27.0506 38.2422 29.7102 37.7133 31.9979 36.3927C34.2857 35.072 36.0737 33.0334 37.0848 30.593C38.0958 28.1526 38.2734 25.4468 37.5899 22.8952C36.9065 20.3436 35.4002 18.0888 33.3047 16.4805C31.2092 14.8722 28.6415 14.0003 26 14V21C27.1006 21.0002 28.1704 21.3636 29.0435 22.0338C29.9165 22.704 30.544 23.6436 30.8287 24.7067C31.1134 25.7699 31.0393 26.8973 30.618 27.9141C30.1967 28.9309 29.4516 29.7802 28.4984 30.3304C27.5452 30.8806 26.437 31.1009 25.3458 30.9572C24.2546 30.8134 23.2414 30.3136 22.4631 29.5353C21.6849 28.757 21.1853 27.7437 21.0416 26.6525C20.898 25.5613 21.1184 24.4532 21.6687 23.5L15.6062 20Z" stroke="#4A4ADE" stroke-width="2" stroke-linecap="round" stroke-linejoin="round"/>
<path d="M21.1687 27.295L14.4062 29.1062" stroke="#4A4ADE" stroke-width="2" stroke-linecap="round" stroke-linejoin="round"/>
</svg>
