<svg width="52" height="52" viewBox="0 0 52 52" fill="none" xmlns="http://www.w3.org/2000/svg">
<rect width="52" height="52" rx="9.33333" fill="white"/>
<rect x="0.583333" y="0.583333" width="50.8333" height="50.8333" rx="8.75" stroke="#E5E5E5" stroke-opacity="0.933333" stroke-width="1.16667"/>
<rect width="32" height="32" transform="translate(10 10)" fill="white"/>
<path opacity="0.2" d="M26 14C23.5724 13.9999 21.2019 14.736 19.2014 16.1112C17.2009 17.4864 15.6645 19.436 14.7952 21.7026C13.9258 23.9691 13.7643 26.4461 14.332 28.8064C14.8998 31.1666 16.17 33.2992 17.975 34.9225C18.7278 33.4411 19.8761 32.1971 21.2925 31.3283C22.709 30.4594 24.3383 29.9997 26 30C25.0111 30 24.0444 29.7068 23.2221 29.1573C22.3999 28.6079 21.759 27.827 21.3806 26.9134C21.0022 25.9998 20.9031 24.9945 21.0961 24.0245C21.289 23.0546 21.7652 22.1637 22.4645 21.4645C23.1637 20.7652 24.0546 20.289 25.0245 20.0961C25.9944 19.9031 26.9998 20.0022 27.9134 20.3806C28.827 20.759 29.6079 21.3999 30.1573 22.2221C30.7068 23.0444 31 24.0111 31 25C31 26.3261 30.4732 27.5979 29.5355 28.5355C28.5978 29.4732 27.3261 30 26 30C27.6616 29.9996 29.2908 30.4591 30.7072 31.3277C32.1237 32.1964 33.272 33.4401 34.025 34.9212C35.8295 33.2979 37.0994 31.1654 37.6668 28.8053C38.2343 26.4453 38.0727 23.9686 37.2034 21.7023C36.334 19.436 34.7979 17.4867 32.7977 16.1115C30.7975 14.7364 28.4273 14.0001 26 14Z" fill="#4A4ADE"/>
<path d="M17.9751 34.9212C18.7275 33.4393 19.8755 32.1946 21.292 31.3251C22.7085 30.4557 24.3381 29.9955 26.0001 29.9955C27.6621 29.9955 29.2917 30.4557 30.7082 31.3251C32.1246 32.1946 33.2727 33.4393 34.0251 34.9212" stroke="#4A4ADE" stroke-width="2" stroke-linecap="round" stroke-linejoin="round"/>
<path d="M26 38C32.6274 38 38 32.6274 38 26C38 19.3726 32.6274 14 26 14C19.3726 14 14 19.3726 14 26C14 32.6274 19.3726 38 26 38Z" stroke="#4A4ADE" stroke-width="2" stroke-linecap="round" stroke-linejoin="round"/>
<path d="M26 30C28.7614 30 31 27.7614 31 25C31 22.2386 28.7614 20 26 20C23.2386 20 21 22.2386 21 25C21 27.7614 23.2386 30 26 30Z" stroke="#4A4ADE" stroke-width="2" stroke-linecap="round" stroke-linejoin="round"/>
</svg>
