<svg width="31" height="31" viewBox="0 0 31 31" fill="none" xmlns="http://www.w3.org/2000/svg">
<path d="M15.5 0L16.3531 3.30729C17.7878 8.86904 22.131 13.2122 27.6927 14.6469L31 15.5L27.6927 16.3531C22.131 17.7878 17.7878 22.131 16.3531 27.6927L15.5 31L14.6469 27.6927C13.2122 22.131 8.86904 17.7878 3.30729 16.3531L0 15.5L3.30729 14.6469C8.86904 13.2122 13.2122 8.86904 14.6469 3.30729L15.5 0Z" fill="white"/>
<path d="M15.8789 3.42969C17.3119 8.98476 21.5588 13.3606 27.0361 14.9736L27.5703 15.1211L29.0381 15.5L27.5703 15.8789C22.0152 17.3119 17.6394 21.5588 16.0264 27.0361L15.8789 27.5703L15.5 29.0381L15.1211 27.5703C13.6881 22.0152 9.44118 17.6394 3.96387 16.0264L3.42969 15.8789L1.96094 15.5L3.42969 15.1211C8.98476 13.6881 13.3606 9.44118 14.9736 3.96387L15.1211 3.42969L15.5 1.96094L15.8789 3.42969Z" stroke="#E5E5E5" stroke-opacity="0.898" stroke-width="0.98"/>
</svg>
