<svg width="147" height="39" viewBox="0 0 147 39" fill="none" xmlns="http://www.w3.org/2000/svg">
<g clip-path="url(#clip0_180_2161)">
<path d="M22.0253 3.329L18.6162 2.41553L15.7433 13.1374L13.1496 3.45762L9.74039 4.3711L12.5427 14.8293L5.56277 7.84943L3.06711 10.3451L10.7232 18.0013L1.18874 15.4465L0.275269 18.8556L10.6929 21.647C10.5736 21.1326 10.5105 20.5965 10.5105 20.0458C10.5105 16.1473 13.6709 12.987 17.5693 12.987C21.4678 12.987 24.6281 16.1473 24.6281 20.0458C24.6281 20.593 24.5658 21.1257 24.448 21.6371L33.9157 24.174L34.8292 20.7649L24.3701 17.9624L33.9052 15.4074L32.9917 11.9983L22.5331 14.8007L29.513 7.82077L27.0174 5.32511L19.4674 12.8751L22.0253 3.329Z" fill="#FF4405"/>
<path d="M24.4381 21.6768C24.1458 22.9125 23.5287 24.0226 22.682 24.912L29.541 31.771L32.0366 29.2754L24.4381 21.6768Z" fill="#FF4405"/>
<path d="M22.6128 24.9837C21.7559 25.8589 20.673 26.5121 19.4586 26.8486L21.9545 36.1632L25.3635 35.2497L22.6128 24.9837Z" fill="#FF4405"/>
<path d="M19.3313 26.8827C18.7679 27.0276 18.1773 27.1045 17.5687 27.1045C16.9167 27.1045 16.2854 27.0161 15.686 26.8507L13.1879 36.1737L16.597 37.0871L19.3313 26.8827Z" fill="#FF4405"/>
<path d="M15.5654 26.8163C14.3696 26.463 13.306 25.8015 12.4666 24.9238L5.59077 31.7996L8.08643 34.2953L15.5654 26.8163Z" fill="#FF4405"/>
<path d="M12.4099 24.863C11.5849 23.9798 10.984 22.8845 10.6979 21.6679L1.1993 24.213L2.11277 27.6221L12.4099 24.863Z" fill="#FF4405"/>
</g>
<path d="M55.3431 10.4268V22.7118L47.4681 10.4268H44.3181V27.3883H47.4681V15.2002L55.3431 27.3883H58.4931V10.4268H55.3431Z" fill="#101828"/>
<path d="M59.9125 13.601H63.1594V10.4268H59.9125V13.601ZM59.961 27.3883V15.2729H63.111V27.3883H59.961Z" fill="#101828"/>
<path d="M76.6641 21.3306C76.6641 17.1387 73.6837 15.1518 70.5337 15.1275C67.3595 15.1033 64.4276 17.1387 64.4276 21.3306C64.4276 25.5225 67.3595 27.5579 70.5337 27.5337C73.4172 27.5095 75.4041 26.1768 76.3249 23.9718L73.8776 22.9541C73.1264 24.4564 71.9391 24.9894 70.5337 25.0137C69.3222 25.0379 67.941 24.4564 67.6503 22.2998H76.5914C76.6399 21.9848 76.6641 21.6698 76.6641 21.3306ZM70.5337 17.6233C71.7453 17.6475 72.981 18.3018 73.3687 20.0464H67.6987C68.1106 18.2775 69.3464 17.5991 70.5337 17.6233Z" fill="#101828"/>
<path d="M83.9439 17.5264V15.1275H81.957V11.8806L78.807 12.8498V15.1275H76.8201V17.5264H78.807V23.8021C78.807 26.1768 79.0009 27.3883 82.6839 27.3883H83.532V24.626H82.6839C82.1024 24.626 81.957 24.5291 81.957 23.8021V17.5264H83.9439Z" fill="#101828"/>
<path d="M88.6246 24.7471L95.3123 17.9141V15.2729H85.2808V17.9141H91.7746L85.087 24.7471V27.3883H95.385V24.7471H88.6246Z" fill="#101828"/>
<path d="M96.5144 23.9718L99.6886 23.4871C99.9067 24.6987 101.336 25.1591 102.209 25.1591C103.105 25.1591 104.656 24.9652 104.656 23.5114C104.656 20.6764 96.8779 24.2141 96.8779 18.7864C96.8779 15.2971 100.924 15.1033 102.209 15.1033C103.42 15.1033 106.934 15.2971 107.661 18.1079L104.656 18.7379C104.389 17.4537 103.032 17.2114 102.306 17.2114C101.579 17.2114 100.028 17.381 100.028 18.7864C100.028 21.5971 107.806 18.011 107.806 23.5114C107.806 27.2187 103.541 27.5337 102.209 27.5337C100.997 27.5337 97.1444 27.2187 96.5144 23.9718Z" fill="#101828"/>
<path d="M111.898 21.3306C111.898 24.2868 113.473 25.1833 115.121 25.1591C116.599 25.1348 117.617 24.5291 118.222 22.8329L120.815 24.0929C119.87 26.5645 117.568 27.5095 115.121 27.5337C111.947 27.5579 108.748 25.5225 108.748 21.3306C108.748 17.1387 111.947 15.1033 115.121 15.1275C117.568 15.1518 119.87 16.0968 120.815 18.5683L118.222 19.8283C117.617 18.1321 116.599 17.5264 115.121 17.5021C113.473 17.4779 111.898 18.3745 111.898 21.3306Z" fill="#101828"/>
<path d="M129.271 15.0791C127.648 15.0791 126.17 15.9271 125.225 17.7445V10.4268H122.075V27.3883H125.225V23.0995C125.225 17.5506 127.527 17.0902 128.375 17.0902C129.732 17.0902 129.926 18.4956 129.926 20.5552V27.3883H133.076V20.5552C133.076 17.9868 132.664 15.0791 129.271 15.0791Z" fill="#101828"/>
<path d="M146.375 21.3306C146.375 17.1387 143.395 15.1518 140.245 15.1275C137.07 15.1033 134.138 17.1387 134.138 21.3306C134.138 25.5225 137.07 27.5579 140.245 27.5337C143.128 27.5095 145.115 26.1768 146.036 23.9718L143.588 22.9541C142.837 24.4564 141.65 24.9894 140.245 25.0137C139.033 25.0379 137.652 24.4564 137.361 22.2998H146.302C146.351 21.9848 146.375 21.6698 146.375 21.3306ZM140.245 17.6233C141.456 17.6475 142.692 18.3018 143.08 20.0464H137.41C137.821 18.2775 139.057 17.5991 140.245 17.6233Z" fill="#101828"/>
<defs>
<clipPath id="clip0_180_2161">
<rect width="35.5385" height="35.5385" fill="white" transform="translate(0 1.61548)"/>
</clipPath>
</defs>
</svg>
