<svg width="20" height="20" viewBox="0 0 20 20" fill="none" xmlns="http://www.w3.org/2000/svg">
<mask id="mask0_180_2190" style="mask-type:alpha" maskUnits="userSpaceOnUse" x="0" y="0" width="20" height="20">
<rect width="20" height="20" fill="#D9D9D9"/>
</mask>
<g mask="url(#mask0_180_2190)">
<path d="M13.125 10.7501H4.75104C4.53826 10.7501 4.35986 10.6786 4.21583 10.5357C4.07194 10.3928 4 10.2157 4 10.0045C4 9.79321 4.07194 9.61466 4.21583 9.46883C4.35986 9.323 4.53826 9.25008 4.75104 9.25008H13.125L11.4583 7.58341C11.3056 7.43064 11.2292 7.25355 11.2292 7.05216C11.2292 6.85078 11.3022 6.67369 11.4483 6.52091C11.6078 6.36814 11.7882 6.29175 11.9896 6.29175C12.191 6.29175 12.3681 6.36814 12.5208 6.52091L15.486 9.48612C15.5509 9.55098 15.6007 9.62716 15.6354 9.71466C15.6701 9.80216 15.6875 9.89591 15.6875 9.99591C15.6875 10.0959 15.6701 10.1897 15.6354 10.2772C15.6007 10.3647 15.5486 10.4459 15.4792 10.5209L12.5208 13.4792C12.3681 13.632 12.1944 13.7049 12 13.698C11.8056 13.6911 11.6286 13.6112 11.4692 13.4584C11.3231 13.3056 11.25 13.1286 11.25 12.9272C11.25 12.7258 11.3264 12.5487 11.4792 12.3959L13.125 10.7501Z" fill="#4A4ADE"/>
</g>
</svg>
